<?xml version="1.0" encoding="UTF-8" standalone="no"?>
<!-- Created with Inkscape (http://www.inkscape.org/) -->

<svg
   xmlns:dc="http://purl.org/dc/elements/1.1/"
   xmlns:cc="http://creativecommons.org/ns#"
   xmlns:rdf="http://www.w3.org/1999/02/22-rdf-syntax-ns#"
   xmlns:svg="http://www.w3.org/2000/svg"
   xmlns="http://www.w3.org/2000/svg"
   xmlns:sodipodi="http://sodipodi.sourceforge.net/DTD/sodipodi-0.dtd"
   xmlns:inkscape="http://www.inkscape.org/namespaces/inkscape"
   width="240"
   height="380"
   viewBox="0 0 63.500006 100.54167"
   version="1.1"
   id="svg8"
   inkscape:version="0.91 r13725"
   sodipodi:docname="DAC.svg">
  <defs
     id="defs2" />
  <sodipodi:namedview
     id="base"
     pagecolor="#ffffff"
     bordercolor="#666666"
     borderopacity="1.0"
     inkscape:pageopacity="0.0"
     inkscape:pageshadow="2"
     inkscape:zoom="1.4"
     inkscape:cx="413.93886"
     inkscape:cy="140.42176"
     inkscape:document-units="mm"
     inkscape:current-layer="layer1"
     showgrid="false"
     units="px"
     inkscape:snap-bbox="true"
     inkscape:snap-page="true"
     inkscape:bbox-nodes="true"
     inkscape:snap-bbox-edge-midpoints="true"
     inkscape:window-width="1598"
     inkscape:window-height="880"
     inkscape:window-x="0"
     inkscape:window-y="18"
     inkscape:window-maximized="0" />
  <metadata
     id="metadata5">
    <rdf:RDF>
      <cc:Work
         rdf:about="">
        <dc:format>image/svg+xml</dc:format>
        <dc:type
           rdf:resource="http://purl.org/dc/dcmitype/StillImage" />
        <dc:title />
      </cc:Work>
    </rdf:RDF>
  </metadata>
  <g
     inkscape:label="Layer 1"
     inkscape:groupmode="layer"
     id="layer1"
     transform="translate(0,-196.45831)">
    <path
       style="opacity:1;fill:#f0f0f0;fill-opacity:1;fill-rule:evenodd;stroke:none;stroke-width:0.48607069;stroke-linecap:butt;stroke-linejoin:round;stroke-miterlimit:4;stroke-dasharray:none;stroke-dashoffset:0;stroke-opacity:1;paint-order:normal"
       d="m 0,196.45831 63.500002,0 0,100.54168 -63.500002,0 z"
       id="rect817"
       inkscape:connector-curvature="0" />
    <g
       style="font-style:normal;font-weight:normal;font-size:3.96875048px;line-height:125%;font-family:sans-serif;text-align:center;letter-spacing:0px;word-spacing:0px;text-anchor:middle;fill:#000000;fill-opacity:1;stroke:none;stroke-width:1px;stroke-linecap:butt;stroke-linejoin:miter;stroke-opacity:1"
       id="text4357"
       transform="matrix(0.99997948,0,0,0.99997948,1.4503569e-4,5.7861584)">
      <path
         d="m 8.0704384,227.34996 q -0.3023072,0 -0.4553986,0.29843 -0.1511536,0.2965 -0.1511536,0.89336 0,0.59492 0.1511536,0.89335 0.1530914,0.2965 0.4553986,0.2965 0.304245,0 0.4553986,-0.2965 0.1530914,-0.29843 0.1530914,-0.89335 0,-0.59686 -0.1530914,-0.89336 -0.1511536,-0.29843 -0.4553986,-0.29843 z m 0,-0.31006 q 0.4864045,0 0.7422028,0.38564 0.2577363,0.38369 0.2577363,1.11621 0,0.73057 -0.2577363,1.11621 -0.2557983,0.3837 -0.7422028,0.3837 -0.4864045,0 -0.7441407,-0.3837 -0.2557984,-0.38564 -0.2557984,-1.11621 0,-0.73252 0.2557984,-1.11621 0.2577362,-0.38564 0.7441407,-0.38564 z"
         id="path4365"
         inkscape:connector-curvature="0" />
    </g>
    <g
       style="font-style:normal;font-weight:normal;font-size:3.96875048px;line-height:125%;font-family:sans-serif;letter-spacing:0px;word-spacing:0px;fill:#000000;fill-opacity:1;stroke:none;stroke-width:1px;stroke-linecap:butt;stroke-linejoin:miter;stroke-opacity:1"
       id="text4377"
       transform="translate(0,7.937499)">
      <path
         d="m 22.810368,227.61429 0.639496,0 0,-2.20723 -0.695694,0.13952 0,-0.35656 0.691818,-0.13953 0.391449,0 0,2.5638 0.639496,0 0,0.32944 -1.666565,0 0,-0.32944 z"
         id="path4397"
         inkscape:connector-curvature="0" />
    </g>
    <g
       style="font-style:normal;font-weight:normal;font-size:3.96875048px;line-height:125%;font-family:sans-serif;letter-spacing:0px;word-spacing:0px;fill:#000000;fill-opacity:1;stroke:none;stroke-width:1px;stroke-linecap:butt;stroke-linejoin:miter;stroke-opacity:1"
       id="text4381"
       transform="translate(0,7.937499)">
      <path
         d="m 39.100071,227.61429 1.366196,0 0,0.32944 -1.837098,0 0,-0.32944 q 0.222855,-0.23061 0.606553,-0.61818 0.385635,-0.38951 0.484466,-0.50191 0.187973,-0.21123 0.261612,-0.35657 0.07558,-0.14727 0.07558,-0.28874 0,-0.2306 -0.162781,-0.37594 -0.160843,-0.14534 -0.420517,-0.14534 -0.184097,0 -0.389511,0.064 -0.203476,0.064 -0.43602,0.19378 l 0,-0.39532 q 0.23642,-0.095 0.441834,-0.1434 0.205414,-0.0485 0.375946,-0.0485 0.449585,0 0.71701,0.22479 0.267426,0.22479 0.267426,0.60074 0,0.17828 -0.06782,0.33913 -0.06589,0.1589 -0.242234,0.37594 -0.04845,0.0562 -0.30812,0.32556 -0.259675,0.26743 -0.732514,0.74996 z"
         id="path4400"
         inkscape:connector-curvature="0" />
    </g>
    <g
       style="font-style:normal;font-weight:normal;font-size:3.96875048px;line-height:125%;font-family:sans-serif;letter-spacing:0px;word-spacing:0px;fill:#000000;fill-opacity:1;stroke:none;stroke-width:1px;stroke-linecap:butt;stroke-linejoin:miter;stroke-opacity:1"
       id="text4389"
       transform="translate(39.035568,-0.17903541)">
      <path
         d="m 16.776664,234.44408 q 0.280991,0.0601 0.437958,0.24998 0.158905,0.18991 0.158905,0.46896 0,0.42827 -0.294556,0.66276 -0.294556,0.23448 -0.837158,0.23448 -0.18216,0 -0.375946,-0.0368 -0.191849,-0.0349 -0.397263,-0.10659 l 0,-0.37788 q 0.162781,0.095 0.356568,0.1434 0.193786,0.0485 0.405014,0.0485 0.368194,0 0.560043,-0.14534 0.193787,-0.14534 0.193787,-0.42246 0,-0.25579 -0.180222,-0.3992 -0.178284,-0.14534 -0.498032,-0.14534 l -0.337188,0 0,-0.32168 0.352691,0 q 0.288742,0 0.441834,-0.11434 0.153091,-0.11627 0.153091,-0.33331 0,-0.22285 -0.158905,-0.34106 -0.156967,-0.12015 -0.451523,-0.12015 -0.160842,0 -0.34494,0.0349 -0.184097,0.0349 -0.405014,0.10852 l 0,-0.34881 q 0.222855,-0.062 0.416641,-0.093 0.195725,-0.031 0.368195,-0.031 0.445709,0 0.705383,0.20348 0.259675,0.20154 0.259675,0.54648 0,0.24029 -0.137589,0.40695 -0.137589,0.16472 -0.391449,0.22867 z"
         id="path4394"
         inkscape:connector-curvature="0" />
    </g>
    <g
       style="font-style:normal;font-weight:normal;font-size:3.30729198px;line-height:125%;font-family:sans-serif;letter-spacing:0px;word-spacing:0px;fill:#000000;fill-opacity:1;stroke:none;stroke-width:1px;stroke-linecap:butt;stroke-linejoin:miter;stroke-opacity:1"
       id="text3690"
       transform="translate(1.9687502,8.3834998)">
      <path
         d="m 45.715424,209.00958 q -0.355276,0 -0.565211,0.26484 -0.208321,0.26485 -0.208321,0.72186 0,0.4554 0.208321,0.72024 0.209935,0.26484 0.565211,0.26484 0.355275,0 0.561981,-0.26484 0.208321,-0.26484 0.208321,-0.72024 0,-0.45701 -0.208321,-0.72186 -0.206706,-0.26484 -0.561981,-0.26484 z m 0,-0.26484 q 0.507075,0 0.810674,0.34074 0.303599,0.33913 0.303599,0.9108 0,0.57005 -0.303599,0.9108 -0.303599,0.33912 -0.810674,0.33912 -0.50869,0 -0.813904,-0.33912 -0.303599,-0.33913 -0.303599,-0.9108 0,-0.57167 0.303599,-0.9108 0.305214,-0.34074 0.813904,-0.34074 z"
         id="path3724"
         inkscape:connector-curvature="0" />
      <path
         d="m 47.2964,210.48559 0,-1.09489 0.297139,0 0,1.08359 q 0,0.25676 0.100123,0.38595 0.100123,0.12758 0.30037,0.12758 0.240618,0 0.379498,-0.15341 0.140496,-0.15342 0.140496,-0.41826 l 0,-1.02545 0.297139,0 0,1.80867 -0.297139,0 0,-0.27776 q -0.108198,0.16472 -0.251923,0.24546 -0.14211,0.0791 -0.331052,0.0791 -0.311674,0 -0.473163,-0.19378 Q 47.2964,210.8586 47.2964,210.48556 Z m 0.747693,-1.1385 0,0 z"
         id="path3726"
         inkscape:connector-curvature="0" />
      <path
         d="m 49.720347,208.87716 0,0.51354 0.612043,0 0,0.23093 -0.612043,0 0,0.98185 q 0,0.22124 0.05975,0.28422 0.06137,0.063 0.247078,0.063 l 0.305214,0 0,0.24869 -0.305214,0 q -0.343971,0 -0.474777,-0.12757 -0.130806,-0.1292 -0.130806,-0.46832 l 0,-0.98185 -0.21801,0 0,-0.23093 0.21801,0 0,-0.51354 0.298754,0 z"
         id="path3728"
         inkscape:connector-curvature="0" />
      <path
         d="m 51.012258,210.92807 0,0.95924 -0.298754,0 0,-2.49661 0.298754,0 0,0.27453 q 0.09366,-0.16149 0.235774,-0.23901 0.143725,-0.0791 0.342356,-0.0791 0.329438,0 0.534529,0.26162 0.206705,0.26161 0.206705,0.68794 0,0.42633 -0.206705,0.68794 -0.205091,0.26161 -0.534529,0.26161 -0.198631,0 -0.342356,-0.0775 -0.14211,-0.0791 -0.235774,-0.24062 z m 1.010921,-0.63142 q 0,-0.32782 -0.135651,-0.51354 -0.134036,-0.18732 -0.36981,-0.18732 -0.235773,0 -0.371424,0.18732 -0.134036,0.18572 -0.134036,0.51354 0,0.32782 0.134036,0.51515 0.135651,0.18571 0.371424,0.18571 0.235774,0 0.36981,-0.18571 0.135651,-0.18733 0.135651,-0.51515 z"
         id="path3730"
         inkscape:connector-curvature="0" />
      <path
         d="m 52.793481,210.48559 0,-1.09489 0.297139,0 0,1.08359 q 0,0.25676 0.100124,0.38595 0.100123,0.12758 0.300369,0.12758 0.240618,0 0.379499,-0.15341 0.140495,-0.15342 0.140495,-0.41826 l 0,-1.02545 0.297139,0 0,1.80867 -0.297139,0 0,-0.27776 q -0.108198,0.16472 -0.251923,0.24546 -0.14211,0.0791 -0.331052,0.0791 -0.311673,0 -0.473162,-0.19378 -0.161489,-0.19379 -0.161489,-0.56683 z m 0.747693,-1.1385 0,0 z"
         id="path3732"
         inkscape:connector-curvature="0" />
      <path
         d="m 55.217428,208.87716 0,0.51354 0.612043,0 0,0.23093 -0.612043,0 0,0.98185 q 0,0.22124 0.05975,0.28422 0.06137,0.063 0.247078,0.063 l 0.305214,0 0,0.24869 -0.305214,0 q -0.343971,0 -0.474777,-0.12757 -0.130806,-0.1292 -0.130806,-0.46832 l 0,-0.98185 -0.21801,0 0,-0.23093 0.21801,0 0,-0.51354 0.298754,0 z"
         id="path3734"
         inkscape:connector-curvature="0" />
      <path
         d="m 57.374919,209.44399 0,0.28099 q -0.125961,-0.0646 -0.261612,-0.0969 -0.13565,-0.0323 -0.28099,-0.0323 -0.22124,0 -0.332667,0.0678 -0.109813,0.0678 -0.109813,0.20348 0,0.10335 0.07913,0.1631 0.07913,0.0581 0.318133,0.11143 l 0.101738,0.0226 q 0.316518,0.0678 0.448939,0.19217 0.134036,0.12273 0.134036,0.34397 0,0.25192 -0.200246,0.39888 -0.198632,0.14695 -0.547448,0.14695 -0.14534,0 -0.303599,-0.0291 -0.156644,-0.0275 -0.331052,-0.084 l 0,-0.30683 q 0.164719,0.0856 0.324593,0.12919 0.159874,0.042 0.316518,0.042 0.209935,0 0.322978,-0.0711 0.113042,-0.0727 0.113042,-0.20348 0,-0.12112 -0.08236,-0.18571 -0.08074,-0.0646 -0.35689,-0.12435 l -0.103353,-0.0242 q -0.276146,-0.0581 -0.398877,-0.17764 -0.122732,-0.12112 -0.122732,-0.33105 0,-0.25516 0.180868,-0.39404 0.180867,-0.13888 0.513534,-0.13888 0.164719,0 0.310059,0.0242 0.14534,0.0242 0.268071,0.0727 z"
         id="path3736"
         inkscape:connector-curvature="0" />
    </g>
    <g
       style="font-style:normal;font-weight:normal;font-size:3.30729222px;line-height:125%;font-family:sans-serif;letter-spacing:0px;word-spacing:0px;fill:#000000;fill-opacity:1;stroke:none;stroke-width:1px;stroke-linecap:butt;stroke-linejoin:miter;stroke-opacity:1"
       id="text3694"
       transform="translate(0.99469704,-11.150292)">
      <path
         d="m 47.999475,217.42518 -0.442479,1.19986 0.886573,0 -0.444094,-1.19986 z m -0.184097,-0.32136 0.369809,0 0.918872,2.41103 -0.339127,0 -0.219625,-0.61851 -1.08682,0 -0.219625,0.61851 -0.343971,0 0.920487,-2.41103 z"
         id="path3721"
         inkscape:connector-curvature="0" />
    </g>
    <g
       style="font-style:normal;font-weight:normal;font-size:3.30729222px;line-height:125%;font-family:sans-serif;letter-spacing:0px;word-spacing:0px;fill:#000000;fill-opacity:1;stroke:none;stroke-width:1px;stroke-linecap:butt;stroke-linejoin:miter;stroke-opacity:1"
       id="text3698"
       transform="translate(2.1322495,-10.394342)">
      <path
         d="m 53.756463,216.61594 0,1.87488 0.394033,0 q 0.499001,0 0.72993,-0.22608 0.232544,-0.22608 0.232544,-0.71378 0,-0.48447 -0.232544,-0.70894 -0.230929,-0.22608 -0.72993,-0.22608 l -0.394033,0 z m -0.326207,-0.26807 0.670179,0 q 0.700862,0 1.028684,0.29229 0.327822,0.29068 0.327822,0.9108 0,0.62335 -0.329437,0.91564 -0.329437,0.2923 -1.027069,0.2923 l -0.670179,0 0,-2.41103 z"
         id="path3718"
         inkscape:connector-curvature="0" />
    </g>
    <g
       style="font-style:normal;font-weight:normal;font-size:3.30729222px;line-height:125%;font-family:sans-serif;letter-spacing:0px;word-spacing:0px;fill:#000000;fill-opacity:1;stroke:none;stroke-width:1px;stroke-linecap:butt;stroke-linejoin:miter;stroke-opacity:1"
       id="text3702"
       transform="translate(-1.9876882,14.24211)">
      <path
         d="m 5.7534794,203.1978 0,1.87489 0.3940329,0 q 0.4990006,0 0.7299297,-0.22609 0.232544,-0.22608 0.232544,-0.71378 0,-0.48446 -0.232544,-0.70893 -0.2309291,-0.22609 -0.7299297,-0.22609 l -0.3940329,0 z m -0.3262075,-0.26807 0.6701788,0 q 0.7008618,0 1.0286842,0.2923 0.3278224,0.29068 0.3278224,0.91079 0,0.62335 -0.3294373,0.91564 -0.3294373,0.2923 -1.0270693,0.2923 l -0.6701788,0 0,-2.41103 z"
         id="path3707"
         inkscape:connector-curvature="0" />
      <path
         d="m 9.5064809,204.36214 0,0.14534 -1.3661959,0 q 0.019379,0.30683 0.1840973,0.46831 0.1663336,0.15988 0.4618582,0.15988 0.1711782,0 0.3310522,-0.042 0.1614889,-0.042 0.319748,-0.12596 l 0,0.28099 q -0.159874,0.0678 -0.3278224,0.10335 -0.1679484,0.0355 -0.3407415,0.0355 -0.4327902,0 -0.6863278,-0.25192 -0.2519226,-0.25192 -0.2519226,-0.68148 0,-0.4441 0.2390035,-0.7041 0.2406184,-0.26161 0.6475704,-0.26161 0.3649649,0 0.5765153,0.23578 0.2131653,0.23415 0.2131653,0.63788 z m -0.2971395,-0.0872 q -0.00323,-0.24385 -0.1372656,-0.38919 -0.1324208,-0.14534 -0.3520457,-0.14534 -0.2486929,0 -0.3988775,0.1405 -0.1485698,0.1405 -0.1711782,0.39565 l 1.059367,-0.002 z"
         id="path3709"
         inkscape:connector-curvature="0" />
      <path
         d="m 10.281627,205.06946 0,0.95924 -0.298754,0 0,-2.49662 0.298754,0 0,0.27453 q 0.09366,-0.16148 0.235774,-0.239 0.143725,-0.0791 0.342357,-0.0791 0.329437,0 0.534528,0.26161 0.206706,0.26162 0.206706,0.68795 0,0.42633 -0.206706,0.68794 -0.205091,0.26161 -0.534528,0.26161 -0.198632,0 -0.342357,-0.0775 -0.14211,-0.0791 -0.235774,-0.24062 z m 1.010921,-0.63142 q 0,-0.32783 -0.135651,-0.51354 -0.134036,-0.18733 -0.369809,-0.18733 -0.235774,0 -0.371425,0.18733 -0.134036,0.18571 -0.134036,0.51354 0,0.32782 0.134036,0.51515 0.135651,0.18571 0.371425,0.18571 0.235773,0 0.369809,-0.18571 0.135651,-0.18733 0.135651,-0.51515 z"
         id="path3711"
         inkscape:connector-curvature="0" />
      <path
         d="m 12.387443,203.01855 0,0.51353 0.612043,0 0,0.23093 -0.612043,0 0,0.98186 q 0,0.22124 0.05975,0.28422 0.06137,0.063 0.247078,0.063 l 0.305214,0 0,0.24869 -0.305214,0 q -0.343972,0 -0.474778,-0.12758 -0.130806,-0.12919 -0.130806,-0.46831 l 0,-0.98186 -0.21801,0 0,-0.23093 0.21801,0 0,-0.51353 0.298755,0 z"
         id="path3713"
         inkscape:connector-curvature="0" />
      <path
         d="m 14.895365,204.24909 0,1.09167 -0.29714,0 0,-1.08198 q 0,-0.25676 -0.100123,-0.38434 -0.100123,-0.12758 -0.300369,-0.12758 -0.240619,0 -0.379499,0.15342 -0.138881,0.15341 -0.138881,0.41825 l 0,1.02223 -0.298754,0 0,-2.51277 0.298754,0 0,0.98508 q 0.106583,-0.1631 0.250308,-0.24384 0.14534,-0.0807 0.334282,-0.0807 0.311674,0 0.471548,0.19379 0.159874,0.19217 0.159874,0.56682 z"
         id="path3715"
         inkscape:connector-curvature="0" />
    </g>
    <g
       style="font-style:normal;font-weight:normal;font-size:4.04177046px;line-height:125%;font-family:sans-serif;letter-spacing:0px;word-spacing:0px;fill:#000000;fill-opacity:1;stroke:none;stroke-width:1px;stroke-linecap:butt;stroke-linejoin:miter;stroke-opacity:1"
       id="text3738">
      <path
         d="m 28.179904,199.07387 0,2.29126 0.481539,0 q 0.609818,0 0.892031,-0.27629 0.284187,-0.2763 0.284187,-0.8723 0,-0.59206 -0.284187,-0.86638 -0.282213,-0.27629 -0.892031,-0.27629 l -0.481539,0 z m -0.398651,-0.3276 0.819011,0 q 0.856508,0 1.257132,0.3572 0.400625,0.35524 0.400625,1.11307 0,0.76178 -0.402598,1.11899 -0.402598,0.3572 -1.255159,0.3572 l -0.819011,0 0,-2.94646 z"
         style=""
         id="path3743" />
      <path
         d="m 31.805261,199.139 -0.540744,1.46632 1.083463,0 -0.542719,-1.46632 z m -0.224981,-0.39273 0.451936,0 1.122934,2.94646 -0.41444,0 -0.268399,-0.75585 -1.328179,0 -0.268399,0.75585 -0.42036,0 1.124907,-2.94646 z"
         style=""
         id="path3745" />
      <path
         d="m 35.718753,198.97322 0,0.42036 q -0.201299,-0.18748 -0.430227,-0.28024 -0.226955,-0.0927 -0.483513,-0.0927 -0.505221,0 -0.77362,0.30984 -0.268399,0.30787 -0.268399,0.89203 0,0.58219 0.268399,0.89203 0.268399,0.30787 0.77362,0.30787 0.256558,0 0.483513,-0.0927 0.228928,-0.0928 0.430227,-0.28024 l 0,0.41641 q -0.209193,0.14209 -0.444042,0.21314 -0.232876,0.071 -0.49338,0.071 -0.669024,0 -1.05386,-0.40852 -0.384837,-0.4105 -0.384837,-1.11899 0,-0.71047 0.384837,-1.11899 0.384836,-0.41049 1.05386,-0.41049 0.264452,0 0.497327,0.071 0.234849,0.0691 0.440095,0.20919 z"
         style=""
         id="path3747" />
    </g>
  </g>
</svg>
