<?xml version="1.0" encoding="UTF-8" standalone="no"?>
<!-- Created with Inkscape (http://www.inkscape.org/) -->

<svg
   xmlns:dc="http://purl.org/dc/elements/1.1/"
   xmlns:cc="http://creativecommons.org/ns#"
   xmlns:rdf="http://www.w3.org/1999/02/22-rdf-syntax-ns#"
   xmlns:svg="http://www.w3.org/2000/svg"
   xmlns="http://www.w3.org/2000/svg"
   xmlns:sodipodi="http://sodipodi.sourceforge.net/DTD/sodipodi-0.dtd"
   xmlns:inkscape="http://www.inkscape.org/namespaces/inkscape"
   width="50.799999mm"
   height="128.5mm"
   viewBox="0 0 50.799999 128.5"
   version="1.1"
   id="svg8"
   inkscape:version="0.92.4 (5da689c313, 2019-01-14)"
   sodipodi:docname="LatComp.svg">
  <defs
     id="defs2">
    <marker
       inkscape:stockid="Arrow1Mstart"
       orient="auto"
       refY="0.0"
       refX="0.0"
       id="Arrow1Mstart"
       style="overflow:visible"
       inkscape:isstock="true">
      <path
         id="path978"
         d="M 0.0,0.0 L 5.0,-5.0 L -12.5,0.0 L 5.0,5.0 L 0.0,0.0 z "
         style="fill-rule:evenodd;stroke:#000000;stroke-width:1pt;stroke-opacity:1;fill:#000000;fill-opacity:1"
         transform="scale(0.4) translate(10,0)" />
    </marker>
    <marker
       inkscape:isstock="true"
       style="overflow:visible;"
       id="marker1310"
       refX="0.0"
       refY="0.0"
       orient="auto"
       inkscape:stockid="Arrow1Mend">
      <path
         transform="scale(0.4) rotate(180) translate(10,0)"
         style="fill-rule:evenodd;stroke:#ffffff;stroke-width:1pt;stroke-opacity:1;fill:#ffffff;fill-opacity:1"
         d="M 0.0,0.0 L 5.0,-5.0 L -12.5,0.0 L 5.0,5.0 L 0.0,0.0 z "
         id="path1308" />
    </marker>
    <marker
       inkscape:stockid="Arrow1Lend"
       orient="auto"
       refY="0.0"
       refX="0.0"
       id="Arrow1Lend"
       style="overflow:visible;"
       inkscape:isstock="true">
      <path
         id="path975"
         d="M 0.0,0.0 L 5.0,-5.0 L -12.5,0.0 L 5.0,5.0 L 0.0,0.0 z "
         style="fill-rule:evenodd;stroke:#000000;stroke-width:1pt;stroke-opacity:1;fill:#000000;fill-opacity:1"
         transform="scale(0.8) rotate(180) translate(12.5,0)" />
    </marker>
  </defs>
  <sodipodi:namedview
     id="base"
     pagecolor="#ffffff"
     bordercolor="#666666"
     borderopacity="1.0"
     inkscape:pageopacity="0.0"
     inkscape:pageshadow="2"
     inkscape:zoom="2.8"
     inkscape:cx="81.422238"
     inkscape:cy="333.53151"
     inkscape:document-units="mm"
     inkscape:current-layer="layer2"
     showgrid="true"
     inkscape:window-width="1918"
     inkscape:window-height="1060"
     inkscape:window-x="1370"
     inkscape:window-y="18"
     inkscape:window-maximized="0"
     inkscape:snap-bbox="false"
     inkscape:snap-center="true">
    <inkscape:grid
       type="xygrid"
       id="grid835"
       units="mm"
       spacingx="3.175"
       spacingy="3.175"
       originy="0.75" />
  </sodipodi:namedview>
  <metadata
     id="metadata5">
    <rdf:RDF>
      <cc:Work
         rdf:about="">
        <dc:format>image/svg+xml</dc:format>
        <dc:type
           rdf:resource="http://purl.org/dc/dcmitype/StillImage" />
        <dc:title></dc:title>
      </cc:Work>
    </rdf:RDF>
  </metadata>
  <g
     inkscape:label="Layer 1"
     inkscape:groupmode="layer"
     id="layer1"
     transform="translate(0,-168.5)">
    <g
       aria-label="Latency Compensator"
       transform="translate(0,168.5)"
       style="font-style:normal;font-variant:normal;font-weight:normal;font-stretch:normal;font-size:4.23333311px;line-height:1.25;font-family:'CMU Serif';-inkscape-font-specification:'CMU Serif';letter-spacing:0px;word-spacing:0px;fill:#ffffff;fill-opacity:1;stroke:none;stroke-width:0.26458332"
       id="text934">
      <path
         d="M 5.1491571,4.9833307 H 7.3547237 L 7.473257,3.8911308 H 7.3674237 c -0.046567,0.4318 -0.1058334,0.9609666 -0.8509,0.9609666 H 6.1693904 c -0.1989667,0 -0.2074333,-0.029633 -0.2074333,-0.1693333 V 2.4263975 c 0,-0.1439333 0,-0.2032 0.4021666,-0.2032 h 0.1397 V 2.0919642 c -0.1524,0.0127 -0.5376333,0.0127 -0.7112,0.0127 -0.1651,0 -0.4952999,0 -0.6434666,-0.0127 v 0.1312333 h 0.1016 c 0.3259666,0 0.3344333,0.046567 0.3344333,0.1989667 v 2.2309665 c 0,0.1524 -0.00847,0.1989667 -0.3344333,0.1989667 h -0.1016 z"
         style="fill:#ffffff;stroke-width:0.26458332"
         id="path2112" />
      <path
         d="m 7.8330904,4.5811641 c 0,0.3429 0.4106333,0.4487333 0.6773333,0.4487333 0.2793999,0 0.4741333,-0.1693333 0.5545666,-0.3683 0.016933,0.1693333 0.1312333,0.3471333 0.3302,0.3471333 0.0889,0 0.3471333,-0.059267 0.3471333,-0.4021666 V 4.3694974 H 9.6364903 v 0.2370667 c 0,0.2455333 -0.1058334,0.2709333 -0.1524,0.2709333 -0.1397,0 -0.1566334,-0.1905 -0.1566334,-0.2116667 V 3.8191641 c 0,-0.1778 0,-0.3429 -0.1523999,-0.4995333 -0.1651,-0.1651 -0.3767667,-0.2328333 -0.5799667,-0.2328333 -0.3471333,0 -0.6392333,0.1989666 -0.6392333,0.4783666 0,0.127 0.084667,0.1989667 0.1947333,0.1989667 0.1185334,0 0.1947334,-0.084667 0.1947334,-0.1947333 0,-0.0508 -0.021167,-0.1905 -0.2159,-0.1947334 0.1143,-0.1481666 0.3217333,-0.1947333 0.4571999,-0.1947333 0.2074334,0 0.4487334,0.1651 0.4487334,0.5418667 v 0.1566333 c -0.2159,0.0127 -0.5122333,0.0254 -0.7789333,0.1524 -0.3175,0.1439333 -0.4233333,0.3640666 -0.4233333,0.5503333 z m 0.3259666,-0.00423 c 0,-0.2328333 0.1778,-0.5841999 0.8763,-0.6095999 v 0.4233333 c 0,0.4021666 -0.3048,0.5461 -0.4953,0.5461 -0.2074333,0 -0.381,-0.1481667 -0.381,-0.3598334 z"
         style="fill:#ffffff;stroke-width:0.26458332"
         id="path2114" />
      <path
         d="m 9.8523902,3.2899975 h 0.3598338 v 1.1683999 c 0,0.5207 0.3937,0.5715 0.5461,0.5715 0.300566,0 0.4191,-0.3005667 0.4191,-0.5715 v -0.2413 H 11.07159 v 0.2328334 c 0,0.3132666 -0.127,0.4741333 -0.283633,0.4741333 -0.283633,0 -0.283633,-0.3852334 -0.283633,-0.4572 V 3.2899975 H 11.10969 V 3.1587642 H 10.504324 V 2.3798309 H 10.39849 c -0.0042,0.3471333 -0.131233,0.8000999 -0.5460998,0.8170333 z"
         style="fill:#ffffff;stroke-width:0.26458332"
         id="path2116" />
      <path
         d="m 11.535868,4.0519974 c 0,0.5672667 0.4445,0.9779 0.931333,0.9779 0.516467,0 0.706967,-0.4699 0.706967,-0.5503333 0,-0.042333 -0.03387,-0.0508 -0.05503,-0.0508 -0.0381,0 -0.04657,0.0254 -0.05503,0.059267 -0.148167,0.4360333 -0.529167,0.4360333 -0.5715,0.4360333 -0.211666,0 -0.381,-0.127 -0.478366,-0.2836334 -0.127,-0.2031999 -0.127,-0.4825999 -0.127,-0.6349999 h 1.181099 c 0.09313,0 0.105834,0 0.105834,-0.0889 0,-0.4191 -0.2286,-0.8297333 -0.757767,-0.8297333 -0.491066,0 -0.880533,0.4360333 -0.880533,0.9651999 z m 0.3556,-0.1354666 c 0.0254,-0.6307667 0.381,-0.7366 0.524933,-0.7366 0.436033,0 0.478367,0.5715 0.478367,0.7366 z"
         style="fill:#ffffff;stroke-width:0.26458332"
         id="path2118" />
      <path
         d="m 13.429689,4.9833307 c 0.148167,-0.00423 0.364067,-0.0127 0.478367,-0.0127 0.110066,0 0.3302,0.00847 0.474133,0.0127 V 4.8520974 c -0.283633,0 -0.3302,0 -0.3302,-0.1905 V 3.8826641 c 0,-0.4402666 0.300567,-0.6773333 0.5715,-0.6773333 0.2667,0 0.313267,0.2286 0.313267,0.4699 v 0.9863666 c 0,0.1905 -0.04657,0.1905 -0.3302,0.1905 v 0.1312333 c 0.148166,-0.00423 0.364066,-0.0127 0.478366,-0.0127 0.110067,0 0.3302,0.00847 0.474134,0.0127 V 4.8520974 c -0.220134,0 -0.325967,0 -0.3302,-0.127 V 3.9165308 c 0,-0.3640667 0,-0.4953 -0.131234,-0.6477 -0.05927,-0.071967 -0.198966,-0.1566333 -0.4445,-0.1566333 -0.309033,0 -0.508,0.1820333 -0.626533,0.4445 v -0.4445 l -0.5969,0.046567 v 0.1312333 c 0.296333,0 0.3302,0.029633 0.3302,0.2370666 v 1.1345333 c 0,0.1905 -0.04657,0.1905 -0.3302,0.1905 z"
         style="fill:#ffffff;stroke-width:0.26458332"
         id="path2120" />
      <path
         d="m 15.786333,4.0689308 c 0,0.5418666 0.4191,0.9609666 0.910166,0.9609666 0.567267,0 0.702734,-0.508 0.702734,-0.5503333 0,-0.042333 -0.04233,-0.042333 -0.05503,-0.042333 -0.0381,0 -0.04657,0.016933 -0.05503,0.042333 -0.122767,0.3937 -0.397933,0.4445 -0.554567,0.4445 -0.224366,0 -0.5969,-0.1820334 -0.5969,-0.8636 0,-0.6900333 0.347134,-0.8678333 0.5715,-0.8678333 0.0381,0 0.3048,0.00423 0.452967,0.1566333 -0.173567,0.0127 -0.198967,0.1397 -0.198967,0.1947334 0,0.1100666 0.0762,0.1947333 0.194734,0.1947333 0.110066,0 0.194733,-0.071967 0.194733,-0.1989667 0,-0.2878666 -0.321733,-0.4529666 -0.6477,-0.4529666 -0.529167,0 -0.918633,0.4572 -0.918633,0.9821333 z"
         style="fill:#ffffff;stroke-width:0.26458332"
         id="path2122" />
      <path
         d="m 17.599721,5.508264 c 0,0.1905 0.1778,0.3429 0.389467,0.3429 0.2667,0 0.440266,-0.2413 0.541866,-0.4826 l 0.745067,-1.8076332 c 0.110066,-0.2667 0.325966,-0.2709333 0.3937,-0.2709333 V 3.1587642 c -0.09737,0.00847 -0.220134,0.0127 -0.3175,0.0127 -0.0762,0 -0.275167,-0.00847 -0.3683,-0.0127 v 0.1312333 c 0.131233,0.00423 0.198966,0.0762 0.198966,0.1820333 0,0.042333 -0.0042,0.0508 -0.0254,0.1016 l -0.427567,1.0413999 -0.4699,-1.1387666 c -0.01693,-0.042333 -0.0254,-0.059267 -0.0254,-0.0762 0,-0.1100666 0.156633,-0.1100666 0.237067,-0.1100666 V 3.1587642 c -0.110067,0.00423 -0.389467,0.0127 -0.461434,0.0127 -0.1143,0 -0.283633,-0.00423 -0.410633,-0.0127 v 0.1312333 c 0.2032,0 0.283633,0 0.3429,0.1481666 l 0.635,1.5451666 c -0.02117,0.055033 -0.08043,0.1947333 -0.105833,0.2497667 -0.09313,0.2328333 -0.211667,0.5249333 -0.4826,0.5249333 -0.02117,0 -0.118534,0 -0.198967,-0.0762 0.131233,-0.016933 0.1651,-0.1100667 0.1651,-0.1778 0,-0.1100667 -0.08043,-0.1778 -0.1778,-0.1778 -0.08467,0 -0.1778,0.055033 -0.1778,0.1820333 z"
         style="fill:#ffffff;stroke-width:0.26458332"
         id="path2124" />
      <path
         d="m 21.402642,3.5355308 c 0,0.8763 0.6858,1.5409333 1.4732,1.5409333 0.690033,0 1.1049,-0.5884333 1.1049,-1.0795 0,-0.042333 0,-0.071967 -0.05503,-0.071967 -0.04657,0 -0.04657,0.0254 -0.0508,0.067733 -0.03387,0.6053666 -0.486834,0.9524999 -0.948267,0.9524999 -0.258233,0 -1.087967,-0.1439333 -1.087967,-1.4054666 0,-1.2657666 0.8255,-1.4096999 1.083734,-1.4096999 0.461433,0 0.8382,0.3852333 0.922866,1.0033 0.0085,0.059267 0.0085,0.071967 0.06773,0.071967 0.06773,0 0.06773,-0.0127 0.06773,-0.1016 V 2.1004309 c 0,-0.071967 0,-0.1016 -0.04657,-0.1016 -0.01693,0 -0.03387,0 -0.06773,0.0508 l -0.211667,0.3132666 c -0.156633,-0.1524 -0.372533,-0.3640666 -0.778933,-0.3640666 -0.791633,0 -1.4732,0.6730999 -1.4732,1.5366999 z"
         style="fill:#ffffff;stroke-width:0.26458332"
         id="path2126" />
      <path
         d="m 24.343355,4.0773974 c 0,0.5461 0.440267,0.9525 0.935567,0.9525 0.512233,0 0.939799,-0.4148667 0.939799,-0.9525 0,-0.5418666 -0.423333,-0.9905999 -0.935566,-0.9905999 -0.529167,0 -0.9398,0.4614333 -0.9398,0.9905999 z m 0.351367,-0.033867 c 0,-0.1651 0,-0.3937 0.1016,-0.5799667 0.1143,-0.1947333 0.313266,-0.2836333 0.4826,-0.2836333 0.186266,0 0.368299,0.093133 0.478366,0.2751667 0.110067,0.1820333 0.110067,0.4275666 0.110067,0.5884333 0,0.1524 0,0.381 -0.09313,0.5672666 -0.09313,0.1905 -0.279399,0.3132667 -0.491066,0.3132667 -0.182033,0 -0.3683,-0.0889 -0.4826,-0.2836334 C 24.694722,4.4541641 24.694722,4.1959308 24.694722,4.0435308 Z"
         style="fill:#ffffff;stroke-width:0.26458332"
         id="path2128" />
      <path
         d="m 26.476955,4.9833307 c 0.148167,-0.00423 0.364067,-0.0127 0.478367,-0.0127 0.110066,0 0.3302,0.00847 0.474133,0.0127 V 4.8520974 c -0.283633,0 -0.3302,0 -0.3302,-0.1905 V 3.8826641 c 0,-0.4402666 0.300567,-0.6773333 0.5715,-0.6773333 0.2667,0 0.313267,0.2286 0.313267,0.4699 v 0.9863666 c 0,0.1905 -0.04657,0.1905 -0.3302,0.1905 v 0.1312333 c 0.148166,-0.00423 0.364066,-0.0127 0.478366,-0.0127 0.110067,0 0.3302,0.00847 0.474134,0.0127 V 4.8520974 c -0.283634,0 -0.3302,0 -0.3302,-0.1905 V 3.8826641 c 0,-0.4402666 0.300566,-0.6773333 0.5715,-0.6773333 0.2667,0 0.313266,0.2286 0.313266,0.4699 v 0.9863666 c 0,0.1905 -0.04657,0.1905 -0.3302,0.1905 v 0.1312333 c 0.148167,-0.00423 0.364067,-0.0127 0.478367,-0.0127 0.110067,0 0.3302,0.00847 0.474133,0.0127 V 4.8520974 c -0.220133,0 -0.325966,0 -0.3302,-0.127 V 3.9165308 c 0,-0.3640667 0,-0.4953 -0.131233,-0.6477 -0.05927,-0.071967 -0.198967,-0.1566333 -0.4445,-0.1566333 -0.3556,0 -0.541867,0.254 -0.613833,0.4148666 -0.05927,-0.3682999 -0.372534,-0.4148666 -0.563034,-0.4148666 -0.309033,0 -0.508,0.1820333 -0.626533,0.4445 v -0.4445 l -0.5969,0.046567 v 0.1312333 c 0.296333,0 0.3302,0.029633 0.3302,0.2370666 v 1.1345333 c 0,0.1905 -0.04657,0.1905 -0.3302,0.1905 z"
         style="fill:#ffffff;stroke-width:0.26458332"
         id="path2130" />
      <path
         d="m 29.990555,5.673364 v 0.1312334 c 0.143933,-0.00423 0.364066,-0.0127 0.474133,-0.0127 0.1143,0 0.3302,0.00847 0.478366,0.0127 V 5.673364 c -0.283633,0 -0.3302,0 -0.3302,-0.1905 v -0.7111999 -0.0381 c 0.02117,0.067733 0.198967,0.2963333 0.5207,0.2963333 0.503767,0 0.944034,-0.4148667 0.944034,-0.9609666 0,-0.5376333 -0.410634,-0.9567333 -0.884767,-0.9567333 -0.3302,0 -0.508,0.1862666 -0.592667,0.2794 v -0.2794 l -0.609599,0.046567 v 0.1312333 c 0.300566,0 0.3302,0.0254 0.3302,0.2116666 V 5.482864 c 0,0.1905 -0.04657,0.1905 -0.3302,0.1905 z M 30.612854,4.5007308 V 3.5566975 c 0.122767,-0.2159 0.3302,-0.3386667 0.5461,-0.3386667 0.309034,0 0.567267,0.3725333 0.567267,0.8509 0,0.5122333 -0.296333,0.8678333 -0.6096,0.8678333 -0.169333,0 -0.3302,-0.084667 -0.4445,-0.2582334 -0.05927,-0.0889 -0.05927,-0.093133 -0.05927,-0.1777999 z"
         style="fill:#ffffff;stroke-width:0.26458332"
         id="path2132" />
      <path
         d="m 32.454487,4.0519974 c 0,0.5672667 0.4445,0.9779 0.931333,0.9779 0.516466,0 0.706966,-0.4699 0.706966,-0.5503333 0,-0.042333 -0.03387,-0.0508 -0.05503,-0.0508 -0.0381,0 -0.04657,0.0254 -0.05503,0.059267 -0.148167,0.4360333 -0.529167,0.4360333 -0.5715,0.4360333 -0.211667,0 -0.381,-0.127 -0.478367,-0.2836334 -0.127,-0.2031999 -0.127,-0.4825999 -0.127,-0.6349999 h 1.1811 c 0.09313,0 0.105833,0 0.105833,-0.0889 0,-0.4191 -0.2286,-0.8297333 -0.757766,-0.8297333 -0.491067,0 -0.880533,0.4360333 -0.880533,0.9651999 z m 0.3556,-0.1354666 c 0.0254,-0.6307667 0.381,-0.7366 0.524933,-0.7366 0.436033,0 0.478366,0.5715 0.478366,0.7366 z"
         style="fill:#ffffff;stroke-width:0.26458332"
         id="path2134" />
      <path
         d="m 34.348308,4.9833307 c 0.148167,-0.00423 0.364067,-0.0127 0.478367,-0.0127 0.110066,0 0.3302,0.00847 0.474133,0.0127 V 4.8520974 c -0.283633,0 -0.3302,0 -0.3302,-0.1905 V 3.8826641 c 0,-0.4402666 0.300567,-0.6773333 0.5715,-0.6773333 0.2667,0 0.313267,0.2286 0.313267,0.4699 v 0.9863666 c 0,0.1905 -0.04657,0.1905 -0.3302,0.1905 v 0.1312333 c 0.148166,-0.00423 0.364066,-0.0127 0.478366,-0.0127 0.110067,0 0.3302,0.00847 0.474134,0.0127 V 4.8520974 c -0.220134,0 -0.325967,0 -0.3302,-0.127 V 3.9165308 c 0,-0.3640667 0,-0.4953 -0.131234,-0.6477 -0.05927,-0.071967 -0.198966,-0.1566333 -0.4445,-0.1566333 -0.309033,0 -0.508,0.1820333 -0.626533,0.4445 v -0.4445 l -0.5969,0.046567 v 0.1312333 c 0.296333,0 0.3302,0.029633 0.3302,0.2370666 v 1.1345333 c 0,0.1905 -0.04657,0.1905 -0.3302,0.1905 z"
         style="fill:#ffffff;stroke-width:0.26458332"
         id="path2136" />
      <path
         d="m 36.700718,4.9282974 c 0,0.071967 0,0.1016 0.04657,0.1016 0.02117,0 0.0254,-0.00423 0.105833,-0.084667 0.0085,-0.00847 0.0085,-0.016933 0.08467,-0.097367 0.186267,0.1778 0.376767,0.1820333 0.465667,0.1820333 0.486833,0 0.681566,-0.2836333 0.681566,-0.5884333 0,-0.2243667 -0.127,-0.3513667 -0.1778,-0.4021667 -0.1397,-0.1354666 -0.3048,-0.1693333 -0.4826,-0.2031999 -0.237066,-0.046567 -0.5207,-0.1016 -0.5207,-0.3471334 0,-0.1481666 0.110067,-0.3217333 0.474134,-0.3217333 0.465666,0 0.486833,0.381 0.4953,0.5122333 0.0042,0.0381 0.04233,0.0381 0.0508,0.0381 0.05503,0 0.05503,-0.021167 0.05503,-0.1016 V 3.1883975 c 0,-0.071967 0,-0.1016 -0.04657,-0.1016 -0.02117,0 -0.02963,0 -0.08467,0.0508 -0.0127,0.016933 -0.05503,0.055033 -0.07197,0.067733 -0.160867,-0.1185333 -0.334433,-0.1185333 -0.397933,-0.1185333 -0.516467,0 -0.677334,0.2836333 -0.677334,0.5207 0,0.1481666 0.06773,0.2667 0.182034,0.3598333 0.135466,0.1100666 0.254,0.1354666 0.5588,0.1947333 0.09313,0.016933 0.440266,0.084667 0.440266,0.3894666 0,0.2159 -0.148166,0.3852334 -0.478366,0.3852334 -0.3556,0 -0.508,-0.2413 -0.588434,-0.6011333 -0.0127,-0.055033 -0.01693,-0.071967 -0.05927,-0.071967 -0.05503,0 -0.05503,0.029633 -0.05503,0.1058333 z"
         style="fill:#ffffff;stroke-width:0.26458332"
         id="path2138" />
      <path
         d="m 38.409002,4.5811641 c 0,0.3429 0.410633,0.4487333 0.677333,0.4487333 0.2794,0 0.474133,-0.1693333 0.554567,-0.3683 0.01693,0.1693333 0.131233,0.3471333 0.3302,0.3471333 0.0889,0 0.347133,-0.059267 0.347133,-0.4021666 V 4.3694974 h -0.105833 v 0.2370667 c 0,0.2455333 -0.105834,0.2709333 -0.1524,0.2709333 -0.1397,0 -0.156634,-0.1905 -0.156634,-0.2116667 V 3.8191641 c 0,-0.1778 0,-0.3429 -0.1524,-0.4995333 -0.1651,-0.1651 -0.376766,-0.2328333 -0.579966,-0.2328333 -0.347134,0 -0.639234,0.1989666 -0.639234,0.4783666 0,0.127 0.08467,0.1989667 0.194734,0.1989667 0.118533,0 0.194733,-0.084667 0.194733,-0.1947333 0,-0.0508 -0.02117,-0.1905 -0.2159,-0.1947334 0.1143,-0.1481666 0.321733,-0.1947333 0.4572,-0.1947333 0.207433,0 0.448733,0.1651 0.448733,0.5418667 v 0.1566333 c -0.2159,0.0127 -0.512233,0.0254 -0.778933,0.1524 -0.3175,0.1439333 -0.423333,0.3640666 -0.423333,0.5503333 z m 0.325966,-0.00423 c 0,-0.2328333 0.1778,-0.5841999 0.8763,-0.6095999 v 0.4233333 c 0,0.4021666 -0.3048,0.5461 -0.4953,0.5461 -0.207433,0 -0.381,-0.1481667 -0.381,-0.3598334 z"
         style="fill:#ffffff;stroke-width:0.26458332"
         id="path2140" />
      <path
         d="m 40.4283,3.2899975 h 0.359833 v 1.1683999 c 0,0.5207 0.3937,0.5715 0.5461,0.5715 0.300567,0 0.4191,-0.3005667 0.4191,-0.5715 v -0.2413 H 41.6475 v 0.2328334 c 0,0.3132666 -0.127,0.4741333 -0.283634,0.4741333 -0.283633,0 -0.283633,-0.3852334 -0.283633,-0.4572 V 3.2899975 H 41.6856 V 3.1587642 H 41.080233 V 2.3798309 H 40.9744 c -0.0042,0.3471333 -0.131233,0.8000999 -0.5461,0.8170333 z"
         style="fill:#ffffff;stroke-width:0.26458332"
         id="path2142" />
      <path
         d="m 42.111778,4.0773974 c 0,0.5461 0.440267,0.9525 0.935567,0.9525 0.512233,0 0.9398,-0.4148667 0.9398,-0.9525 0,-0.5418666 -0.423334,-0.9905999 -0.935567,-0.9905999 -0.529167,0 -0.9398,0.4614333 -0.9398,0.9905999 z m 0.351367,-0.033867 c 0,-0.1651 0,-0.3937 0.1016,-0.5799667 0.1143,-0.1947333 0.313266,-0.2836333 0.4826,-0.2836333 0.186266,0 0.3683,0.093133 0.478366,0.2751667 0.110067,0.1820333 0.110067,0.4275666 0.110067,0.5884333 0,0.1524 0,0.381 -0.09313,0.5672666 -0.09313,0.1905 -0.2794,0.3132667 -0.491067,0.3132667 -0.182033,0 -0.3683,-0.0889 -0.4826,-0.2836334 C 42.463145,4.4541641 42.463145,4.1959308 42.463145,4.0435308 Z"
         style="fill:#ffffff;stroke-width:0.26458332"
         id="path2144" />
      <path
         d="m 44.228443,4.9833307 c 0.1651,-0.00423 0.364067,-0.0127 0.4826,-0.0127 0.169333,0 0.3683,0 0.537633,0.0127 V 4.8520974 h -0.0889 c -0.313267,0 -0.321733,-0.046567 -0.321733,-0.1989667 V 4.0011974 c 0,-0.4190999 0.1778,-0.7958666 0.499533,-0.7958666 0.02963,0 0.0381,0 0.04657,0.00423 -0.0127,0.00423 -0.09737,0.055033 -0.09737,0.1650999 0,0.1185334 0.0889,0.1820334 0.182033,0.1820334 0.0762,0 0.182034,-0.0508 0.182034,-0.1862667 0,-0.1354666 -0.131234,-0.2582333 -0.313267,-0.2582333 -0.309033,0 -0.461433,0.2836333 -0.5207,0.4656666 V 3.1121975 l -0.588433,0.046567 v 0.1312333 c 0.296333,0 0.3302,0.029633 0.3302,0.2370666 v 1.1345333 c 0,0.1905 -0.04657,0.1905 -0.3302,0.1905 z"
         style="fill:#ffffff;stroke-width:0.26458332"
         id="path2146" />
    </g>
    <g
       aria-label="Loopback"
       style="font-style:normal;font-variant:normal;font-weight:normal;font-stretch:normal;font-size:3.52777767px;line-height:1.25;font-family:'CMU Serif';-inkscape-font-specification:'CMU Serif';letter-spacing:0px;word-spacing:0px;fill:#ffffff;fill-opacity:1;stroke:none;stroke-width:0.26458332"
       id="text940">
      <path
         d="m 5.3697464,189.18195 h 1.8379722 l 0.098778,-0.91017 h -0.088195 c -0.038806,0.35983 -0.088194,0.8008 -0.7090833,0.8008 H 6.2199408 c -0.1658055,0 -0.1728611,-0.0247 -0.1728611,-0.14111 v -1.8803 c 0,-0.11995 0,-0.16934 0.3351389,-0.16934 h 0.1164167 v -0.10936 c -0.127,0.0106 -0.4480278,0.0106 -0.5926667,0.0106 -0.1375833,0 -0.41275,0 -0.5362222,-0.0106 v 0.10936 h 0.084667 c 0.2716389,0 0.2786944,0.0388 0.2786944,0.16581 v 1.85914 c 0,0.127 -0.00706,0.1658 -0.2786944,0.1658 h -0.084667 z"
         style="font-size:3.52777767px;fill:#ffffff;stroke-width:0.26458332"
         id="path2095" />
      <path
         d="m 7.5569687,188.427 c 0,0.45508 0.3668889,0.79375 0.7796389,0.79375 0.4268611,0 0.7831666,-0.34572 0.7831666,-0.79375 0,-0.45155 -0.3527778,-0.8255 -0.7796389,-0.8255 -0.4409722,0 -0.7831666,0.38453 -0.7831666,0.8255 z m 0.2928055,-0.0282 c 0,-0.13758 0,-0.32808 0.084667,-0.48331 0.09525,-0.16227 0.2610556,-0.23636 0.4021667,-0.23636 0.1552222,0 0.3069166,0.0776 0.3986388,0.22931 0.091722,0.15169 0.091722,0.3563 0.091722,0.49036 0,0.127 0,0.3175 -0.077611,0.47272 -0.077611,0.15875 -0.2328333,0.26106 -0.4092222,0.26106 -0.1516944,0 -0.3069166,-0.0741 -0.4021666,-0.23636 -0.088195,-0.15523 -0.088195,-0.37042 -0.088195,-0.49742 z"
         style="font-size:3.52777767px;fill:#ffffff;stroke-width:0.26458332"
         id="path2097" />
      <path
         d="m 9.4173203,188.427 c 0,0.45508 0.3668888,0.79375 0.7796387,0.79375 0.426861,0 0.783167,-0.34572 0.783167,-0.79375 0,-0.45155 -0.352778,-0.8255 -0.779639,-0.8255 -0.4409723,0 -0.7831667,0.38453 -0.7831667,0.8255 z m 0.2928055,-0.0282 c 0,-0.13758 0,-0.32808 0.084667,-0.48331 0.09525,-0.16227 0.2610555,-0.23636 0.4021665,-0.23636 0.155222,0 0.306917,0.0776 0.398639,0.22931 0.09172,0.15169 0.09172,0.3563 0.09172,0.49036 0,0.127 0,0.3175 -0.07761,0.47272 -0.07761,0.15875 -0.232833,0.26106 -0.409222,0.26106 -0.151695,0 -0.3069168,-0.0741 -0.4021668,-0.23636 -0.088194,-0.15523 -0.088194,-0.37042 -0.088194,-0.49742 z"
         style="font-size:3.52777767px;fill:#ffffff;stroke-width:0.26458332"
         id="path2099" />
      <path
         d="m 11.181209,189.75697 v 0.10936 c 0.119945,-0.004 0.303389,-0.0106 0.395111,-0.0106 0.09525,0 0.275167,0.007 0.398639,0.0106 v -0.10936 c -0.236361,0 -0.275167,0 -0.275167,-0.15875 v -0.59266 -0.0318 c 0.01764,0.0564 0.165806,0.24694 0.433917,0.24694 0.419806,0 0.786694,-0.34572 0.786694,-0.8008 0,-0.44803 -0.342194,-0.79728 -0.737305,-0.79728 -0.275167,0 -0.423333,0.15522 -0.493889,0.23283 v -0.23283 l -0.508,0.0388 v 0.10936 c 0.250472,0 0.275167,0.0212 0.275167,0.17639 v 1.651 c 0,0.15875 -0.03881,0.15875 -0.275167,0.15875 z m 0.518583,-0.97719 v -0.7867 c 0.102306,-0.17991 0.275167,-0.28222 0.455084,-0.28222 0.257527,0 0.472722,0.31045 0.472722,0.70909 0,0.42686 -0.246945,0.72319 -0.508,0.72319 -0.141111,0 -0.275167,-0.0706 -0.370417,-0.21519 -0.04939,-0.0741 -0.04939,-0.0776 -0.04939,-0.14817 z"
         style="font-size:3.52777767px;fill:#ffffff;stroke-width:0.26458332"
         id="path2101" />
      <path
         d="m 13.138023,186.88183 c 0.246945,0 0.275167,0.0247 0.275167,0.19756 v 2.10256 h 0.08819 c 0.0035,-0.004 0.03175,-0.0529 0.127,-0.21873 0.05292,0.0811 0.201084,0.25753 0.462139,0.25753 0.419806,0 0.786695,-0.34572 0.786695,-0.8008 0,-0.44803 -0.345722,-0.79728 -0.747889,-0.79728 -0.275167,0 -0.426861,0.1658 -0.483306,0.2293 v -1.1183 l -0.508,0.0388 z m 0.518584,1.89795 v -0.72672 c 0,-0.067 0,-0.0706 0.0388,-0.127 0.137584,-0.19756 0.331611,-0.22578 0.416278,-0.22578 0.15875,0 0.28575,0.0917 0.370417,0.22578 0.09172,0.14464 0.102305,0.34572 0.102305,0.49036 0,0.13053 -0.0071,0.34219 -0.109361,0.50094 -0.07408,0.10936 -0.208139,0.22578 -0.398639,0.22578 -0.15875,0 -0.28575,-0.0847 -0.370416,-0.21519 -0.04939,-0.0741 -0.04939,-0.0847 -0.04939,-0.14817 z"
         style="font-size:3.52777767px;fill:#ffffff;stroke-width:0.26458332"
         id="path2103" />
      <path
         d="m 15.144227,188.84681 c 0,0.28575 0.342194,0.37394 0.564444,0.37394 0.232833,0 0.395111,-0.14111 0.462139,-0.30692 0.01411,0.14112 0.109361,0.28928 0.275167,0.28928 0.07408,0 0.289277,-0.0494 0.289277,-0.33514 v -0.19755 h -0.08819 v 0.19755 c 0,0.20461 -0.08819,0.22578 -0.127,0.22578 -0.116417,0 -0.130528,-0.15875 -0.130528,-0.17639 v -0.70555 c 0,-0.14817 0,-0.28575 -0.127,-0.41628 -0.137583,-0.13758 -0.313972,-0.19403 -0.483305,-0.19403 -0.289278,0 -0.532695,0.16581 -0.532695,0.39864 0,0.10583 0.07056,0.16581 0.162278,0.16581 0.09878,0 0.162278,-0.0706 0.162278,-0.16228 0,-0.0423 -0.01764,-0.15875 -0.179917,-0.16228 0.09525,-0.12347 0.268111,-0.16228 0.381,-0.16228 0.172861,0 0.373944,0.13759 0.373944,0.45156 v 0.13053 c -0.179916,0.0106 -0.426861,0.0212 -0.649111,0.127 -0.264583,0.11994 -0.352777,0.30338 -0.352777,0.45861 z m 0.271638,-0.004 c 0,-0.19403 0.148167,-0.48683 0.73025,-0.508 v 0.35278 c 0,0.33514 -0.254,0.45508 -0.41275,0.45508 -0.172861,0 -0.3175,-0.12347 -0.3175,-0.29986 z"
         style="font-size:3.52777767px;fill:#ffffff;stroke-width:0.26458332"
         id="path2105" />
      <path
         d="m 16.879893,188.41995 c 0,0.45155 0.34925,0.8008 0.758472,0.8008 0.472722,0 0.585611,-0.42333 0.585611,-0.45861 0,-0.0353 -0.03528,-0.0353 -0.04586,-0.0353 -0.03175,0 -0.03881,0.0141 -0.04586,0.0353 -0.102306,0.32808 -0.331611,0.37042 -0.462139,0.37042 -0.186972,0 -0.497417,-0.1517 -0.497417,-0.71967 0,-0.57503 0.289278,-0.72319 0.47625,-0.72319 0.03175,0 0.254,0.004 0.377472,0.13052 -0.144638,0.0106 -0.165805,0.11642 -0.165805,0.16228 0,0.0917 0.0635,0.16228 0.162278,0.16228 0.09172,0 0.162277,-0.06 0.162277,-0.16581 0,-0.23989 -0.268111,-0.37747 -0.53975,-0.37747 -0.440972,0 -0.765527,0.381 -0.765527,0.81845 z"
         style="font-size:3.52777767px;fill:#ffffff;stroke-width:0.26458332"
         id="path2107" />
      <path
         d="m 18.326337,189.18195 c 0.116417,-0.004 0.282223,-0.0106 0.384528,-0.0106 0.105833,0 0.246945,0.004 0.388056,0.0106 v -0.10937 c -0.236361,0 -0.275167,0 -0.275167,-0.15875 v -0.36336 l 0.225778,-0.19402 c 0.271639,0.37394 0.419805,0.5715 0.419805,0.635 0,0.067 -0.05997,0.0811 -0.127,0.0811 v 0.10937 c 0.09878,-0.004 0.306917,-0.0106 0.381,-0.0106 0.102306,0 0.204611,0.004 0.306917,0.0106 v -0.10937 c -0.130528,0 -0.208139,0 -0.342194,-0.18697 l -0.448028,-0.63147 c -0.0035,-0.007 -0.02117,-0.0282 -0.02117,-0.0388 0,-0.0141 0.250472,-0.22577 0.28575,-0.254 0.22225,-0.17991 0.370417,-0.18697 0.4445,-0.1905 v -0.10936 c -0.102305,0.0106 -0.148167,0.0106 -0.246944,0.0106 -0.127,0 -0.345723,-0.007 -0.395111,-0.0106 v 0.10936 c 0.06703,0.004 0.102305,0.0423 0.102305,0.0882 0,0.0705 -0.04939,0.11289 -0.07761,0.13758 l -0.497417,0.43039 v -1.69333 l -0.508,0.0388 v 0.10936 c 0.246945,0 0.275167,0.0247 0.275167,0.19756 v 1.83444 c 0,0.15875 -0.03881,0.15875 -0.275167,0.15875 z"
         style="font-size:3.52777767px;fill:#ffffff;stroke-width:0.26458332"
         id="path2109" />
    </g>
    <g
       aria-label="Delay"
       style="font-style:normal;font-variant:normal;font-weight:normal;font-stretch:normal;font-size:3.52777767px;line-height:1.25;font-family:'CMU Serif';-inkscape-font-specification:'CMU Serif';letter-spacing:0px;word-spacing:0px;fill:#ffffff;fill-opacity:1;stroke:none;stroke-width:0.26458332"
       id="text940-7">
      <path
         d="m 33.813696,189.16254 h 1.291167 c 0.592666,0 1.0795,-0.52211 1.0795,-1.18534 0,-0.67027 -0.47625,-1.22414 -1.0795,-1.22414 h -1.291167 v 0.10937 h 0.08467 c 0.271638,0 0.278694,0.0388 0.278694,0.1658 v 1.85914 c 0,0.127 -0.0071,0.16581 -0.278694,0.16581 h -0.08467 z m 0.66675,-0.25048 v -1.90852 c 0,-0.11642 0.0071,-0.14111 0.172861,-0.14111 h 0.352778 c 0.218722,0 0.462139,0.0776 0.642055,0.32808 0.151695,0.20814 0.183445,0.51153 0.183445,0.78669 0,0.39159 -0.06703,0.60325 -0.194028,0.77611 -0.07056,0.0952 -0.271639,0.29987 -0.627944,0.29987 h -0.356306 c -0.165806,0 -0.172861,-0.0247 -0.172861,-0.14112 z"
         style="font-size:3.52777767px;fill:#ffffff;stroke-width:0.26458332"
         id="path2084" />
      <path
         d="m 36.483066,188.38643 c 0,0.47272 0.370417,0.81491 0.776111,0.81491 0.430389,0 0.589139,-0.39158 0.589139,-0.45861 0,-0.0353 -0.02822,-0.0423 -0.04586,-0.0423 -0.03175,0 -0.03881,0.0212 -0.04586,0.0494 -0.123472,0.36336 -0.440972,0.36336 -0.47625,0.36336 -0.176389,0 -0.3175,-0.10584 -0.398639,-0.23636 -0.105833,-0.16934 -0.105833,-0.40217 -0.105833,-0.52917 h 0.98425 c 0.07761,0 0.08819,0 0.08819,-0.0741 0,-0.34925 -0.1905,-0.69145 -0.631472,-0.69145 -0.409222,0 -0.733778,0.36336 -0.733778,0.80434 z m 0.296333,-0.11289 c 0.02117,-0.52564 0.3175,-0.61384 0.437445,-0.61384 0.363361,0 0.398639,0.47625 0.398639,0.61384 z"
         style="font-size:3.52777767px;fill:#ffffff;stroke-width:0.26458332"
         id="path2086" />
      <path
         d="m 38.064778,189.16254 c 0.116417,-0.004 0.303389,-0.0106 0.391583,-0.0106 0.08819,0 0.261056,0.007 0.391584,0.0106 v -0.10936 c -0.236361,0 -0.275167,0 -0.275167,-0.15875 v -2.18017 l -0.508,0.0388 v 0.10937 c 0.246944,0 0.275167,0.0247 0.275167,0.19755 v 1.83445 c 0,0.15875 -0.03881,0.15875 -0.275167,0.15875 z"
         style="font-size:3.52777767px;fill:#ffffff;stroke-width:0.26458332"
         id="path2088" />
      <path
         d="m 39.074935,188.8274 c 0,0.28575 0.342195,0.37394 0.564445,0.37394 0.232833,0 0.395111,-0.14111 0.462139,-0.30691 0.01411,0.14111 0.109361,0.28927 0.275166,0.28927 0.07408,0 0.289278,-0.0494 0.289278,-0.33514 v -0.19755 h -0.08819 v 0.19755 c 0,0.20462 -0.0882,0.22578 -0.127,0.22578 -0.116417,0 -0.130528,-0.15875 -0.130528,-0.17639 v -0.70555 c 0,-0.14817 0,-0.28575 -0.127,-0.41628 -0.137583,-0.13758 -0.313972,-0.19403 -0.483306,-0.19403 -0.289277,0 -0.532694,0.16581 -0.532694,0.39864 0,0.10583 0.07056,0.16581 0.162278,0.16581 0.09878,0 0.162278,-0.0706 0.162278,-0.16228 0,-0.0423 -0.01764,-0.15875 -0.179917,-0.16228 0.09525,-0.12347 0.268111,-0.16228 0.381,-0.16228 0.172861,0 0.373944,0.13759 0.373944,0.45156 v 0.13053 c -0.179916,0.0106 -0.426861,0.0212 -0.649111,0.127 -0.264583,0.11994 -0.352778,0.30339 -0.352778,0.45861 z m 0.271639,-0.004 c 0,-0.19403 0.148167,-0.48683 0.73025,-0.508 v 0.35278 c 0,0.33514 -0.254,0.45508 -0.41275,0.45508 -0.172861,0 -0.3175,-0.12347 -0.3175,-0.29986 z"
         style="font-size:3.52777767px;fill:#ffffff;stroke-width:0.26458332"
         id="path2090" />
      <path
         d="m 40.661223,189.59998 c 0,0.15875 0.148166,0.28575 0.324555,0.28575 0.22225,0 0.366889,-0.20108 0.451556,-0.40217 l 0.620889,-1.50636 c 0.09172,-0.22225 0.271639,-0.22577 0.328083,-0.22577 v -0.10937 c -0.08114,0.007 -0.183444,0.0106 -0.264583,0.0106 -0.0635,0 -0.229306,-0.007 -0.306917,-0.0106 v 0.10937 c 0.109361,0.004 0.165806,0.0635 0.165806,0.15169 0,0.0353 -0.0035,0.0423 -0.02117,0.0847 l -0.356306,0.86783 -0.391583,-0.94897 c -0.01411,-0.0353 -0.02117,-0.0494 -0.02117,-0.0635 0,-0.0917 0.130528,-0.0917 0.197556,-0.0917 v -0.10937 c -0.09172,0.004 -0.324556,0.0106 -0.384528,0.0106 -0.09525,0 -0.236361,-0.004 -0.342194,-0.0106 v 0.10937 c 0.169333,0 0.236361,0 0.28575,0.12347 l 0.529166,1.28764 c -0.01764,0.0459 -0.06703,0.16227 -0.08819,0.20814 -0.07761,0.19402 -0.176389,0.43744 -0.402167,0.43744 -0.01764,0 -0.09878,0 -0.165805,-0.0635 0.109361,-0.0141 0.137583,-0.0917 0.137583,-0.14817 0,-0.0917 -0.06703,-0.14816 -0.148167,-0.14816 -0.07056,0 -0.148166,0.0459 -0.148166,0.15169 z"
         style="font-size:3.52777767px;fill:#ffffff;stroke-width:0.26458332"
         id="path2092" />
    </g>
    <g
       aria-label="Pulse"
       style="font-style:normal;font-variant:normal;font-weight:normal;font-stretch:normal;font-size:4.23333311px;line-height:1.25;font-family:'CMU Serif';-inkscape-font-specification:'CMU Serif';letter-spacing:0px;word-spacing:0px;fill:#ffffff;fill-opacity:1;stroke:none;stroke-width:0.26458332"
       id="text962">
      <path
         d="m 1.5107708,278.64569 c 0.1481667,-0.0127 0.4614333,-0.0127 0.6223,-0.0127 0.1608666,0 0.4783666,0 0.6265333,0.0127 v -0.13123 h -0.1016 c -0.3259667,0 -0.3344333,-0.0466 -0.3344333,-0.19897 v -1.00753 h 0.7154333 c 0.5079999,0 0.9651999,-0.3429 0.9651999,-0.76624 0,-0.41486 -0.4191,-0.7874 -0.9990666,-0.7874 H 1.5107708 v 0.13124 h 0.1016 c 0.3259666,0 0.3344333,0.0466 0.3344333,0.19896 v 2.23097 c 0,0.1524 -0.00847,0.19897 -0.3344333,0.19897 h -0.1016 z m 0.8001,-1.4478 v -1.143 c 0,-0.1397 0.00847,-0.16933 0.2074333,-0.16933 h 0.3767666 c 0.6731,0 0.6731,0.44873 0.6731,0.65616 0,0.19897 0,0.65617 -0.6731,0.65617 z"
         style="fill:#ffffff;stroke-width:0.26458332"
         id="path2073" />
      <path
         d="m 4.3754145,276.95236 c 0.3301999,0 0.3301999,0.0127 0.3301999,0.38946 v 0.635 c 0,0.3302 0,0.71544 0.6434667,0.71544 0.2370666,0 0.4233333,-0.11854 0.5460999,-0.381 v 0.381 l 0.6096,-0.0466 v -0.13123 c -0.2963333,0 -0.3302,-0.0296 -0.3302,-0.23707 v -1.50283 l -0.6222999,0.0466 v 0.13124 c 0.2963333,0 0.3301999,0.0296 0.3301999,0.23706 v 0.75354 c 0,0.3683 -0.2031999,0.65616 -0.5122333,0.65616 -0.3555999,0 -0.3725333,-0.19896 -0.3725333,-0.4191 v -1.40546 l -0.6222999,0.0466 z"
         style="fill:#ffffff;stroke-width:0.26458332"
         id="path2075" />
      <path
         d="m 6.7278247,278.64569 c 0.1397,-0.004 0.3640667,-0.0127 0.4699,-0.0127 0.1058333,0 0.3132667,0.008 0.4699,0.0127 v -0.13123 c -0.2836333,0 -0.3302,0 -0.3302,-0.1905 v -2.6162 l -0.6096,0.0466 v 0.13124 c 0.2963334,0 0.3302,0.0296 0.3302,0.23706 v 2.20134 c 0,0.1905 -0.046567,0.1905 -0.3302,0.1905 z"
         style="fill:#ffffff;stroke-width:0.26458332"
         id="path2077" />
      <path
         d="m 7.9019132,278.59066 c 0,0.072 0,0.1016 0.046567,0.1016 0.021167,0 0.0254,-0.004 0.1058333,-0.0847 0.00847,-0.008 0.00847,-0.0169 0.084667,-0.0974 0.1862666,0.1778 0.3767666,0.18204 0.4656666,0.18204 0.4868333,0 0.6815667,-0.28364 0.6815667,-0.58844 0,-0.22436 -0.127,-0.35136 -0.1778,-0.40216 -0.1397,-0.13547 -0.3048,-0.16934 -0.4826,-0.2032 -0.2370667,-0.0466 -0.5207,-0.1016 -0.5207,-0.34714 0,-0.14816 0.1100667,-0.32173 0.4741333,-0.32173 0.4656667,0 0.4868333,0.381 0.4953,0.51223 0.00423,0.0381 0.042333,0.0381 0.0508,0.0381 0.055033,0 0.055033,-0.0212 0.055033,-0.1016 v -0.42756 c 0,-0.072 0,-0.1016 -0.046567,-0.1016 -0.021167,0 -0.029633,0 -0.084667,0.0508 -0.0127,0.0169 -0.055033,0.055 -0.071967,0.0677 -0.1608666,-0.11853 -0.3344333,-0.11853 -0.3979333,-0.11853 -0.5164666,0 -0.6773333,0.28363 -0.6773333,0.5207 0,0.14816 0.067733,0.2667 0.1820333,0.35983 0.1354667,0.11007 0.254,0.13547 0.5588,0.19473 0.093133,0.0169 0.4402667,0.0847 0.4402667,0.38947 0,0.2159 -0.1481667,0.38523 -0.4783667,0.38523 -0.3556,0 -0.508,-0.2413 -0.5884333,-0.60113 -0.0127,-0.055 -0.016933,-0.072 -0.059267,-0.072 -0.055033,0 -0.055033,0.0296 -0.055033,0.10584 z"
         style="fill:#ffffff;stroke-width:0.26458332"
         id="path2079" />
      <path
         d="m 9.5509293,277.71436 c 0,0.56726 0.4444999,0.9779 0.9313337,0.9779 0.516466,0 0.706966,-0.4699 0.706966,-0.55034 0,-0.0423 -0.03387,-0.0508 -0.05503,-0.0508 -0.0381,0 -0.04657,0.0254 -0.05503,0.0593 -0.148167,0.43603 -0.529167,0.43603 -0.5715,0.43603 -0.211667,0 -0.381,-0.127 -0.478367,-0.28363 -0.1270001,-0.2032 -0.1270001,-0.4826 -0.1270001,-0.635 h 1.1811001 c 0.09313,0 0.105833,0 0.105833,-0.0889 0,-0.4191 -0.2286,-0.82973 -0.757766,-0.82973 -0.4910671,0 -0.8805337,0.43603 -0.8805337,0.9652 z m 0.3555999,-0.13547 c 0.0254,-0.63077 0.3809998,-0.7366 0.5249338,-0.7366 0.436033,0 0.478366,0.5715 0.478366,0.7366 z"
         style="fill:#ffffff;stroke-width:0.26458332"
         id="path2081" />
    </g>
    <g
       aria-label="Time"
       style="font-style:normal;font-variant:normal;font-weight:normal;font-stretch:normal;font-size:4.23333311px;line-height:1.25;font-family:'CMU Serif';-inkscape-font-specification:'CMU Serif';letter-spacing:0px;word-spacing:0px;fill:#ffffff;fill-opacity:1;stroke:none;stroke-width:0.26458332"
       id="text966">
      <path
         d="m 14.36585,276.69624 h 0.105834 c 0.05927,-0.68156 0.122766,-0.82126 0.762,-0.82126 0.0762,0 0.186266,0 0.2286,0.008 0.0889,0.0169 0.0889,0.0635 0.0889,0.16087 v 2.23097 c 0,0.14393 0,0.2032 -0.4445,0.2032 H 14.93735 v 0.13123 c 0.173567,-0.0127 0.605367,-0.0127 0.8001,-0.0127 0.194734,0 0.630767,0 0.804334,0.0127 v -0.13123 H 16.37245 c -0.4445,0 -0.4445,-0.0593 -0.4445,-0.2032 v -2.23097 c 0,-0.0847 0,-0.14393 0.0762,-0.16087 0.04657,-0.008 0.160867,-0.008 0.2413,-0.008 0.639234,0 0.702734,0.1397 0.762,0.82126 h 0.105834 l -0.08043,-0.9525 h -2.586566 z"
         style="fill:#ffffff;stroke-width:0.26458332"
         id="path2064" />
      <path
         d="m 17.590195,276.00198 c 0,0.1143 0.09313,0.22436 0.224367,0.22436 0.118533,0 0.224366,-0.0889 0.224366,-0.22436 0,-0.13547 -0.105833,-0.22437 -0.224366,-0.22437 -0.131234,0 -0.224367,0.1143 -0.224367,0.22437 z m -0.1778,2.60773 c 0.135467,-0.004 0.364067,-0.0127 0.465667,-0.0127 0.148166,0 0.296333,0.008 0.440266,0.0127 v -0.13123 c -0.2794,0 -0.296333,-0.0212 -0.296333,-0.18627 v -1.55363 l -0.592667,0.0466 v 0.13124 c 0.275167,0 0.313267,0.0254 0.313267,0.23283 v 1.13877 c 0,0.1905 -0.04657,0.1905 -0.3302,0.1905 z"
         style="fill:#ffffff;stroke-width:0.26458332"
         id="path2066" />
      <path
         d="m 18.58225,278.60971 c 0.148167,-0.004 0.364067,-0.0127 0.478367,-0.0127 0.110067,0 0.3302,0.008 0.474133,0.0127 v -0.13123 c -0.283633,0 -0.3302,0 -0.3302,-0.1905 v -0.77894 c 0,-0.44026 0.300567,-0.67733 0.5715,-0.67733 0.2667,0 0.313267,0.2286 0.313267,0.4699 v 0.98637 c 0,0.1905 -0.04657,0.1905 -0.3302,0.1905 v 0.13123 c 0.148166,-0.004 0.364066,-0.0127 0.478366,-0.0127 0.110067,0 0.3302,0.008 0.474134,0.0127 v -0.13123 c -0.283634,0 -0.3302,0 -0.3302,-0.1905 v -0.77894 c 0,-0.44026 0.300566,-0.67733 0.5715,-0.67733 0.2667,0 0.313266,0.2286 0.313266,0.4699 v 0.98637 c 0,0.1905 -0.04657,0.1905 -0.3302,0.1905 v 0.13123 c 0.148167,-0.004 0.364067,-0.0127 0.478367,-0.0127 0.110067,0 0.3302,0.008 0.474133,0.0127 v -0.13123 c -0.220133,0 -0.325966,0 -0.3302,-0.127 v -0.80857 c 0,-0.36407 0,-0.4953 -0.131233,-0.6477 -0.05927,-0.072 -0.198967,-0.15663 -0.4445,-0.15663 -0.3556,0 -0.541867,0.254 -0.613833,0.41486 -0.05927,-0.3683 -0.372534,-0.41486 -0.563034,-0.41486 -0.309033,0 -0.508,0.18203 -0.626533,0.4445 v -0.4445 l -0.5969,0.0466 v 0.13124 c 0.296334,0 0.3302,0.0296 0.3302,0.23706 v 1.13454 c 0,0.1905 -0.04657,0.1905 -0.3302,0.1905 z"
         style="fill:#ffffff;stroke-width:0.26458332"
         id="path2068" />
      <path
         d="m 22.09585,277.67838 c 0,0.56726 0.4445,0.9779 0.931333,0.9779 0.516467,0 0.706967,-0.4699 0.706967,-0.55034 0,-0.0423 -0.03387,-0.0508 -0.05503,-0.0508 -0.0381,0 -0.04657,0.0254 -0.05503,0.0593 -0.148166,0.43603 -0.529166,0.43603 -0.5715,0.43603 -0.211666,0 -0.381,-0.127 -0.478366,-0.28363 -0.127,-0.2032 -0.127,-0.4826 -0.127,-0.635 h 1.1811 c 0.09313,0 0.105833,0 0.105833,-0.0889 0,-0.4191 -0.2286,-0.82973 -0.757767,-0.82973 -0.491066,0 -0.880533,0.43603 -0.880533,0.9652 z m 0.3556,-0.13547 c 0.0254,-0.63077 0.381,-0.7366 0.524933,-0.7366 0.436034,0 0.478367,0.5715 0.478367,0.7366 z"
         style="fill:#ffffff;stroke-width:0.26458332"
         id="path2070" />
    </g>
  </g>
  <g
     inkscape:groupmode="layer"
     id="layer2"
     inkscape:label="components"
     style="display:none">
    <circle
       style="fill:#0000ff;stroke:none;stroke-width:1.5;stroke-miterlimit:4;stroke-dasharray:none"
       id="path839"
       cx="44.450001"
       cy="26.149998"
       r="3"
       inkscape:label="delay_out_0" />
    <circle
       style="fill:#00ff00;stroke:none;stroke-width:1.5;stroke-miterlimit:4;stroke-dasharray:none"
       id="path839-3"
       cx="31.75"
       cy="26.149998"
       r="3"
       inkscape:label="delay_in_0" />
    <circle
       style="fill:#00ff00;stroke:none;stroke-width:1.5;stroke-miterlimit:4;stroke-dasharray:none"
       id="path839-6"
       cx="19.049999"
       cy="26.149998"
       r="3"
       inkscape:label="loop_in" />
    <circle
       style="fill:#0000ff;stroke:none;stroke-width:1.5;stroke-miterlimit:4;stroke-dasharray:none"
       id="path839-3-7"
       cx="6.3499994"
       cy="26.149998"
       r="3"
       inkscape:label="loop_out" />
    <circle
       style="fill:#0000ff;stroke:none;stroke-width:1.5;stroke-miterlimit:4;stroke-dasharray:none"
       id="path839-5"
       cx="44.450001"
       cy="38.849998"
       r="3"
       inkscape:label="delay_out_1" />
    <circle
       style="fill:#00ff00;stroke:none;stroke-width:1.5;stroke-miterlimit:4;stroke-dasharray:none"
       id="path839-3-3"
       cx="31.75"
       cy="38.849998"
       r="3"
       inkscape:label="delay_in_1" />
    <circle
       style="fill:#0000ff;stroke:none;stroke-width:1.5;stroke-miterlimit:4;stroke-dasharray:none"
       id="path839-56"
       cx="44.450001"
       cy="51.549995"
       r="3"
       inkscape:label="delay_out_2" />
    <circle
       style="fill:#00ff00;stroke:none;stroke-width:1.5;stroke-miterlimit:4;stroke-dasharray:none"
       id="path839-3-2"
       cx="31.75"
       cy="51.549995"
       r="3"
       inkscape:label="delay_in_2" />
    <circle
       style="fill:#0000ff;stroke:none;stroke-width:1.5;stroke-miterlimit:4;stroke-dasharray:none"
       id="path839-9"
       cx="44.450001"
       cy="64.25"
       r="3"
       inkscape:label="delay_out_3" />
    <circle
       style="fill:#00ff00;stroke:none;stroke-width:1.5;stroke-miterlimit:4;stroke-dasharray:none"
       id="path839-3-1"
       cx="31.75"
       cy="64.25"
       r="3"
       inkscape:label="delay_in_3" />
    <circle
       style="fill:#0000ff;stroke:none;stroke-width:1.5;stroke-miterlimit:4;stroke-dasharray:none"
       id="path839-2"
       cx="44.450001"
       cy="76.949997"
       r="3"
       inkscape:label="delay_out_4" />
    <circle
       style="fill:#00ff00;stroke:none;stroke-width:1.5;stroke-miterlimit:4;stroke-dasharray:none"
       id="path839-3-70"
       cx="31.75"
       cy="76.949997"
       r="3"
       inkscape:label="delay_in_4" />
    <circle
       style="fill:#0000ff;stroke:none;stroke-width:1.5;stroke-miterlimit:4;stroke-dasharray:none"
       id="path839-93"
       cx="44.450001"
       cy="89.649994"
       r="3"
       inkscape:label="delay_out_5" />
    <circle
       style="fill:#00ff00;stroke:none;stroke-width:1.5;stroke-miterlimit:4;stroke-dasharray:none"
       id="path839-3-6"
       cx="31.75"
       cy="89.649994"
       r="3"
       inkscape:label="delay_in_5" />
    <circle
       style="fill:#0000ff;stroke:none;stroke-width:1.5;stroke-miterlimit:4;stroke-dasharray:none"
       id="path839-0"
       cx="44.450001"
       cy="102.35"
       r="3"
       inkscape:label="delay_out_6" />
    <circle
       style="fill:#00ff00;stroke:none;stroke-width:1.5;stroke-miterlimit:4;stroke-dasharray:none"
       id="path839-3-62"
       cx="31.75"
       cy="102.35"
       r="3"
       inkscape:label="delay_in_6" />
    <circle
       style="fill:#0000ff;stroke:none;stroke-width:1.5;stroke-miterlimit:4;stroke-dasharray:none"
       id="path839-61"
       cx="19.050001"
       cy="102.35"
       r="3"
       inkscape:label="time_out" />
    <circle
       style="fill:#0000ff;stroke:none;stroke-width:1.5;stroke-miterlimit:4;stroke-dasharray:none"
       id="path839-3-8"
       cx="6.3499999"
       cy="102.35"
       r="3"
       inkscape:label="pulse_out" />
    <rect
       style="fill:#ffff00;stroke:none;stroke-width:1.5;stroke-miterlimit:4;stroke-dasharray:none"
       id="rect930"
       width="22.224998"
       height="63.500004"
       x="3.175"
       y="32.499996" />
  </g>
</svg>
