<?xml version="1.0" encoding="UTF-8" standalone="no"?>
<!-- Created with Inkscape (http://www.inkscape.org/) -->

<svg
   xmlns:dc="http://purl.org/dc/elements/1.1/"
   xmlns:cc="http://creativecommons.org/ns#"
   xmlns:rdf="http://www.w3.org/1999/02/22-rdf-syntax-ns#"
   xmlns:svg="http://www.w3.org/2000/svg"
   xmlns="http://www.w3.org/2000/svg"
   xmlns:sodipodi="http://sodipodi.sourceforge.net/DTD/sodipodi-0.dtd"
   xmlns:inkscape="http://www.inkscape.org/namespaces/inkscape"
   width="15.24mm"
   height="128.5mm"
   viewBox="0 0 15.24 128.5"
   version="1.1"
   id="svg8"
   inkscape:version="0.92.5 (2060ec1f9f, 2020-04-08)"
   sodipodi:docname="MatI.svg">
  <defs
     id="defs2">
    <marker
       inkscape:stockid="Arrow1Mstart"
       orient="auto"
       refY="0"
       refX="0"
       id="Arrow1Mstart"
       style="overflow:visible"
       inkscape:isstock="true">
      <path
         id="path978"
         d="M 0,0 5,-5 -12.5,0 5,5 Z"
         style="fill:#000000;fill-opacity:1;fill-rule:evenodd;stroke:#000000;stroke-width:1.00000003pt;stroke-opacity:1"
         transform="matrix(0.4,0,0,0.4,4,0)"
         inkscape:connector-curvature="0" />
    </marker>
    <marker
       inkscape:isstock="true"
       style="overflow:visible"
       id="marker1310"
       refX="0"
       refY="0"
       orient="auto"
       inkscape:stockid="Arrow1Mend">
      <path
         transform="matrix(-0.4,0,0,-0.4,-4,0)"
         style="fill:#ffffff;fill-opacity:1;fill-rule:evenodd;stroke:#ffffff;stroke-width:1.00000003pt;stroke-opacity:1"
         d="M 0,0 5,-5 -12.5,0 5,5 Z"
         id="path1308"
         inkscape:connector-curvature="0" />
    </marker>
    <marker
       inkscape:stockid="Arrow1Lend"
       orient="auto"
       refY="0"
       refX="0"
       id="Arrow1Lend"
       style="overflow:visible"
       inkscape:isstock="true">
      <path
         id="path975"
         d="M 0,0 5,-5 -12.5,0 5,5 Z"
         style="fill:#000000;fill-opacity:1;fill-rule:evenodd;stroke:#000000;stroke-width:1.00000003pt;stroke-opacity:1"
         transform="matrix(-0.8,0,0,-0.8,-10,0)"
         inkscape:connector-curvature="0" />
    </marker>
  </defs>
  <sodipodi:namedview
     id="base"
     pagecolor="#ffffff"
     bordercolor="#666666"
     borderopacity="1.0"
     inkscape:pageopacity="0.0"
     inkscape:pageshadow="2"
     inkscape:zoom="2.8"
     inkscape:cx="17.402343"
     inkscape:cy="361.19451"
     inkscape:document-units="mm"
     inkscape:current-layer="layer1"
     showgrid="true"
     inkscape:window-width="1918"
     inkscape:window-height="1060"
     inkscape:window-x="1370"
     inkscape:window-y="18"
     inkscape:window-maximized="0"
     inkscape:snap-bbox="false"
     inkscape:snap-center="true">
    <inkscape:grid
       type="xygrid"
       id="grid835"
       units="mm"
       spacingx="3.3100001"
       spacingy="3.3100001"
       originy="3.2800001"
       enabled="true"
       snapvisiblegridlinesonly="true"
       originx="7.6200002" />
  </sodipodi:namedview>
  <metadata
     id="metadata5">
    <rdf:RDF>
      <cc:Work
         rdf:about="">
        <dc:format>image/svg+xml</dc:format>
        <dc:type
           rdf:resource="http://purl.org/dc/dcmitype/StillImage" />
        <dc:title></dc:title>
      </cc:Work>
    </rdf:RDF>
  </metadata>
  <g
     inkscape:label="Layer 1"
     inkscape:groupmode="layer"
     id="layer1"
     transform="translate(0,-168.5)"
     style="display:inline">
    <rect
       style="display:inline;fill:#333333;stroke:none;stroke-width:0.26656035;stroke-miterlimit:4;stroke-dasharray:none"
       id="rect2177"
       width="15.24"
       height="128.5"
       x="0"
       y="3.2289737e-08"
       transform="translate(0,168.5)" />
    <text
       xml:space="preserve"
       style="font-style:normal;font-variant:normal;font-weight:normal;font-stretch:normal;font-size:4.23333311px;line-height:1.25;font-family:'CMU Serif';-inkscape-font-specification:'CMU Serif';letter-spacing:0px;word-spacing:0px;fill:#ffffff;fill-opacity:1;stroke:none;stroke-width:0.26458332"
       x="3.175"
       y="280.375"
       id="text956"><tspan
         sodipodi:role="line"
         id="tspan954"
         x="3.175"
         y="284.29083"
         style="fill:#ffffff;stroke:none;stroke-width:0.26458332" /></text>
    <g
       aria-label="Tia I"
       style="font-style:normal;font-variant:normal;font-weight:normal;font-stretch:normal;font-size:4.23333311px;line-height:1.25;font-family:'CMU Serif';-inkscape-font-specification:'CMU Serif';letter-spacing:0px;word-spacing:0px;display:inline;fill:#ffffff;fill-opacity:1;stroke:none;stroke-width:0.07000434"
       id="text1350"
       transform="translate(-10.160004)">
      <path
         d="m 66.613635,175.10893 h 0.105833 c 0.05927,-0.68156 0.122767,-0.82126 0.762,-0.82126 0.0762,0 0.186267,0 0.2286,0.008 0.0889,0.0169 0.0889,0.0635 0.0889,0.16087 v 2.23097 c 0,0.14393 0,0.2032 -0.4445,0.2032 h -0.169333 v 0.13123 c 0.173567,-0.0127 0.605367,-0.0127 0.8001,-0.0127 0.194733,0 0.630767,0 0.804333,0.0127 v -0.13123 h -0.169333 c -0.4445,0 -0.4445,-0.0593 -0.4445,-0.2032 V 174.457 c 0,-0.0847 0,-0.14393 0.0762,-0.16087 0.04657,-0.008 0.160867,-0.008 0.2413,-0.008 0.639233,0 0.702733,0.1397 0.762,0.82126 h 0.105833 l -0.08043,-0.9525 h -2.586567 z"
         style="fill:#ffffff;stroke-width:0.07000434"
         id="path1747"
         inkscape:connector-curvature="0" />
      <path
         d="m 69.835194,174.41467 c 0,0.1143 0.09313,0.22436 0.224367,0.22436 0.118533,0 0.224366,-0.0889 0.224366,-0.22436 0,-0.13547 -0.105833,-0.22437 -0.224366,-0.22437 -0.131234,0 -0.224367,0.1143 -0.224367,0.22437 z m -0.1778,2.60773 c 0.135467,-0.004 0.364067,-0.0127 0.465667,-0.0127 0.148166,0 0.296333,0.008 0.440266,0.0127 v -0.13123 c -0.2794,0 -0.296333,-0.0212 -0.296333,-0.18627 v -1.55363 l -0.592667,0.0466 v 0.13124 c 0.275167,0 0.313267,0.0254 0.313267,0.23283 v 1.13877 c 0,0.1905 -0.04657,0.1905 -0.3302,0.1905 z"
         style="fill:#ffffff;stroke-width:0.07000434"
         id="path1749"
         inkscape:connector-curvature="0" />
      <path
         d="m 70.868121,176.62023 c 0,0.3429 0.410633,0.44874 0.677333,0.44874 0.2794,0 0.474134,-0.16934 0.554567,-0.3683 0.01693,0.16933 0.131233,0.34713 0.3302,0.34713 0.0889,0 0.347133,-0.0593 0.347133,-0.40217 v -0.23706 h -0.105833 v 0.23706 c 0,0.24554 -0.105833,0.27094 -0.1524,0.27094 -0.1397,0 -0.156633,-0.1905 -0.156633,-0.21167 v -0.84667 c 0,-0.1778 0,-0.3429 -0.1524,-0.49953 -0.1651,-0.1651 -0.376767,-0.23283 -0.579967,-0.23283 -0.347133,0 -0.639233,0.19896 -0.639233,0.47836 0,0.127 0.08467,0.19897 0.194733,0.19897 0.118533,0 0.194733,-0.0847 0.194733,-0.19473 0,-0.0508 -0.02117,-0.1905 -0.2159,-0.19474 0.1143,-0.14816 0.321734,-0.19473 0.4572,-0.19473 0.207434,0 0.448734,0.1651 0.448734,0.54187 v 0.15663 c -0.2159,0.0127 -0.512234,0.0254 -0.778934,0.1524 -0.3175,0.14393 -0.423333,0.36407 -0.423333,0.55033 z m 0.325967,-0.004 c 0,-0.23283 0.1778,-0.5842 0.8763,-0.6096 v 0.42333 c 0,0.40217 -0.3048,0.5461 -0.4953,0.5461 -0.207434,0 -0.381,-0.14816 -0.381,-0.35983 z"
         style="fill:#ffffff;stroke-width:0.07000434"
         id="path1751"
         inkscape:connector-curvature="0" />
      <path
         d="m 74.335205,177.0224 c 0.148167,-0.0127 0.4826,-0.0127 0.643467,-0.0127 0.1651,0 0.499533,0 0.6477,0.0127 v -0.13123 h -0.110067 c -0.334433,0 -0.347133,-0.0466 -0.347133,-0.19897 v -2.23097 c 0,-0.1524 0.0127,-0.19896 0.347133,-0.19896 h 0.110067 v -0.13124 c -0.148167,0.0127 -0.4826,0.0127 -0.643467,0.0127 -0.1651,0 -0.499533,0 -0.6477,-0.0127 v 0.13124 h 0.110067 c 0.334433,0 0.347133,0.0466 0.347133,0.19896 v 2.23097 c 0,0.1524 -0.0127,0.19897 -0.347133,0.19897 h -0.110067 z"
         style="fill:#ffffff;stroke-width:0.07000434"
         id="path1753"
         inkscape:connector-curvature="0" />
    </g>
    <g
       aria-label="Mat I"
       style="font-style:normal;font-variant:normal;font-weight:normal;font-stretch:normal;font-size:4.23333311px;line-height:1.25;font-family:'CMU Serif';-inkscape-font-specification:'CMU Serif';letter-spacing:0px;word-spacing:0px;fill:#ffffff;fill-opacity:1;stroke:none;stroke-width:0.26458332"
       id="text2148"
       transform="translate(1.0000007e-7,-1.5500013)">
      <path
         d="m 2.4701642,180.84239 c 0.1481667,-0.004 0.3556,-0.0127 0.4953,-0.0127 0.1397,0 0.3471333,0.008 0.4953,0.0127 v -0.13123 c -0.4360333,0 -0.4360333,-0.19897 -0.4360333,-0.31327 v -2.28176 h 0.00423 l 1.0202333,2.63313 c 0.021167,0.055 0.042333,0.0931 0.084667,0.0931 0.046567,0 0.059267,-0.0339 0.0762,-0.0804 l 1.0413999,-2.6797 h 0.00423 v 2.42993 c 0,0.1524 -0.00847,0.19897 -0.3344333,0.19897 h -0.1016 v 0.13123 c 0.1566333,-0.0127 0.4445,-0.0127 0.6096,-0.0127 0.1651,0 0.4487333,0 0.6053666,0.0127 v -0.13123 h -0.1016 c -0.3259666,0 -0.3344333,-0.0466 -0.3344333,-0.19897 v -2.23096 c 0,-0.1524 0.00847,-0.19897 0.3344333,-0.19897 h 0.1016 v -0.13123 h -0.715427 c -0.1100666,0 -0.1100666,0.004 -0.1397,0.0804 l -0.9270999,2.38337 -0.9186333,-2.37067 c -0.0381,-0.0931 -0.0508,-0.0931 -0.1481667,-0.0931 H 2.4701642 v 0.13123 h 0.1016 c 0.3259667,0 0.3344334,0.0466 0.3344334,0.19897 v 2.11666 c 0,0.1143 0,0.31327 -0.4360334,0.31327 z"
         style="fill:#ffffff;stroke-width:0.26458332"
         id="path2153"
         inkscape:connector-curvature="0" />
      <path
         d="m 6.3690575,180.44023 c 0,0.3429 0.4106333,0.44873 0.6773333,0.44873 0.2794,0 0.4741333,-0.16933 0.5545666,-0.3683 0.016933,0.16933 0.1312333,0.34713 0.3302,0.34713 0.0889,0 0.3471333,-0.0593 0.3471333,-0.40216 v -0.23707 H 8.1724574 v 0.23707 c 0,0.24553 -0.1058334,0.27093 -0.1524,0.27093 -0.1397,0 -0.1566333,-0.1905 -0.1566333,-0.21167 v -0.84666 c 0,-0.1778 0,-0.3429 -0.1524,-0.49954 -0.1651,-0.1651 -0.3767667,-0.23283 -0.5799667,-0.23283 -0.3471333,0 -0.6392333,0.19897 -0.6392333,0.47837 0,0.127 0.084667,0.19896 0.1947334,0.19896 0.1185333,0 0.1947333,-0.0847 0.1947333,-0.19473 0,-0.0508 -0.021167,-0.1905 -0.2159,-0.19473 0.1143,-0.14817 0.3217333,-0.19474 0.4572,-0.19474 0.2074333,0 0.4487333,0.1651 0.4487333,0.54187 v 0.15663 c -0.2159,0.0127 -0.5122333,0.0254 -0.7789333,0.1524 -0.3175,0.14394 -0.4233333,0.36407 -0.4233333,0.55034 z m 0.3259666,-0.004 c 0,-0.23283 0.1778,-0.5842 0.8763,-0.6096 v 0.42334 c 0,0.40216 -0.3048,0.5461 -0.4953,0.5461 -0.2074333,0 -0.381,-0.14817 -0.381,-0.35984 z"
         style="fill:#ffffff;stroke-width:0.26458332"
         id="path2155"
         inkscape:connector-curvature="0" />
      <path
         d="m 8.388349,179.14906 h 0.3598333 v 1.1684 c 0,0.5207 0.3937,0.5715 0.5461,0.5715 0.3005667,0 0.4191,-0.30057 0.4191,-0.5715 v -0.2413 H 9.607549 v 0.23283 c 0,0.31327 -0.127,0.47414 -0.2836334,0.47414 -0.2836333,0 -0.2836333,-0.38524 -0.2836333,-0.4572 v -1.17687 H 9.645649 v -0.13123 H 9.0402823 v -0.77894 H 8.934449 c -0.00423,0.34714 -0.1312333,0.8001 -0.5461,0.81704 z"
         style="fill:#ffffff;stroke-width:0.26458332"
         id="path2157"
         inkscape:connector-curvature="0" />
      <path
         d="m 11.478669,180.84239 c 0.148167,-0.0127 0.4826,-0.0127 0.643467,-0.0127 0.1651,0 0.499533,0 0.6477,0.0127 v -0.13123 h -0.110067 c -0.334433,0 -0.347133,-0.0466 -0.347133,-0.19897 v -2.23096 c 0,-0.1524 0.0127,-0.19897 0.347133,-0.19897 h 0.110067 v -0.13123 c -0.148167,0.0127 -0.4826,0.0127 -0.643467,0.0127 -0.1651,0 -0.499533,0 -0.6477,-0.0127 v 0.13123 h 0.110067 c 0.334433,0 0.347133,0.0466 0.347133,0.19897 v 2.23096 c 0,0.1524 -0.0127,0.19897 -0.347133,0.19897 h -0.110067 z"
         style="fill:#ffffff;stroke-width:0.26458332"
         id="path2159"
         inkscape:connector-curvature="0" />
    </g>
  </g>
  <g
     inkscape:groupmode="layer"
     id="layer2"
     inkscape:label="components"
     style="display:none"
     sodipodi:insensitive="true">
    <circle
       style="display:inline;fill:#00ff00;stroke:none;stroke-width:1.5;stroke-miterlimit:4;stroke-dasharray:none"
       id="path839-6-36"
       cx="7.6200004"
       cy="18.539993"
       r="3"
       inkscape:label="xfade0" />
    <circle
       style="display:inline;fill:#0000ff;stroke:none;stroke-width:1.5;stroke-miterlimit:4;stroke-dasharray:none"
       id="path839-6-2"
       cx="7.6200004"
       cy="109.98"
       r="3"
       inkscape:label="poly" />
  </g>
</svg>
