<?xml version="1.0" encoding="UTF-8" standalone="no"?>
<!-- Created with Inkscape (http://www.inkscape.org/) -->

<svg
   xmlns:dc="http://purl.org/dc/elements/1.1/"
   xmlns:cc="http://creativecommons.org/ns#"
   xmlns:rdf="http://www.w3.org/1999/02/22-rdf-syntax-ns#"
   xmlns:svg="http://www.w3.org/2000/svg"
   xmlns="http://www.w3.org/2000/svg"
   xmlns:sodipodi="http://sodipodi.sourceforge.net/DTD/sodipodi-0.dtd"
   xmlns:inkscape="http://www.inkscape.org/namespaces/inkscape"
   width="152.39999mm"
   height="128.5mm"
   viewBox="0 0 152.4 128.5"
   version="1.1"
   id="svg8"
   inkscape:version="0.92.4 (5da689c313, 2019-01-14)"
   sodipodi:docname="MetadataFiles.svg">
  <defs
     id="defs2">
    <marker
       inkscape:stockid="Arrow1Mstart"
       orient="auto"
       refY="0"
       refX="0"
       id="Arrow1Mstart"
       style="overflow:visible"
       inkscape:isstock="true">
      <path
         id="path978"
         d="M 0,0 5,-5 -12.5,0 5,5 Z"
         style="fill:#000000;fill-opacity:1;fill-rule:evenodd;stroke:#000000;stroke-width:1.00000003pt;stroke-opacity:1"
         transform="matrix(0.4,0,0,0.4,4,0)"
         inkscape:connector-curvature="0" />
    </marker>
    <marker
       inkscape:isstock="true"
       style="overflow:visible"
       id="marker1310"
       refX="0"
       refY="0"
       orient="auto"
       inkscape:stockid="Arrow1Mend">
      <path
         transform="matrix(-0.4,0,0,-0.4,-4,0)"
         style="fill:#ffffff;fill-opacity:1;fill-rule:evenodd;stroke:#ffffff;stroke-width:1.00000003pt;stroke-opacity:1"
         d="M 0,0 5,-5 -12.5,0 5,5 Z"
         id="path1308"
         inkscape:connector-curvature="0" />
    </marker>
    <marker
       inkscape:stockid="Arrow1Lend"
       orient="auto"
       refY="0"
       refX="0"
       id="Arrow1Lend"
       style="overflow:visible"
       inkscape:isstock="true">
      <path
         id="path975"
         d="M 0,0 5,-5 -12.5,0 5,5 Z"
         style="fill:#000000;fill-opacity:1;fill-rule:evenodd;stroke:#000000;stroke-width:1.00000003pt;stroke-opacity:1"
         transform="matrix(-0.8,0,0,-0.8,-10,0)"
         inkscape:connector-curvature="0" />
    </marker>
  </defs>
  <sodipodi:namedview
     id="base"
     pagecolor="#ffffff"
     bordercolor="#666666"
     borderopacity="1.0"
     inkscape:pageopacity="0.0"
     inkscape:pageshadow="2"
     inkscape:zoom="2.8284271"
     inkscape:cx="412.83978"
     inkscape:cy="337.74655"
     inkscape:document-units="mm"
     inkscape:current-layer="layer2"
     showgrid="true"
     inkscape:window-width="1918"
     inkscape:window-height="1060"
     inkscape:window-x="1370"
     inkscape:window-y="18"
     inkscape:window-maximized="0"
     inkscape:snap-bbox="false"
     inkscape:snap-center="true">
    <inkscape:grid
       type="xygrid"
       id="grid835"
       units="mm"
       spacingx="3.175"
       spacingy="3.175"
       originy="0.75" />
  </sodipodi:namedview>
  <metadata
     id="metadata5">
    <rdf:RDF>
      <cc:Work
         rdf:about="">
        <dc:format>image/svg+xml</dc:format>
        <dc:type
           rdf:resource="http://purl.org/dc/dcmitype/StillImage" />
        <dc:title></dc:title>
      </cc:Work>
    </rdf:RDF>
  </metadata>
  <g
     inkscape:groupmode="layer"
     id="layer2"
     inkscape:label="components"
     style="display:none">
    <rect
       style="fill:#333333;stroke:none;stroke-width:0.26656035;stroke-miterlimit:4;stroke-dasharray:none"
       id="rect2177"
       width="152.39999"
       height="128.5"
       x="0"
       y="3.2289737e-08" />
    <rect
       style="fill:#ffff00;stroke:none;stroke-width:1.5;stroke-miterlimit:4;stroke-dasharray:none"
       id="rect930"
       width="63.5"
       height="6.3500018"
       x="3.175"
       y="22.974997"
       inkscape:label="time_override" />
    <rect
       style="display:inline;fill:#ffff00;stroke:none;stroke-width:1.5;stroke-miterlimit:4;stroke-dasharray:none"
       id="rect930-6-7"
       width="95.25"
       height="82.550011"
       x="3.175"
       y="35.674995"
       inkscape:label="tags" />
    <circle
       style="fill:#00ff00;stroke:none;stroke-width:1.5;stroke-miterlimit:4;stroke-dasharray:none"
       id="path839-6"
       cx="85.724991"
       cy="26.149998"
       r="3"
       inkscape:label="screen_in" />
    <circle
       style="display:inline;fill:#ff0000;stroke:none;stroke-width:1.5;stroke-miterlimit:4;stroke-dasharray:none"
       id="path839-6-35"
       cx="73.025002"
       cy="26.149998"
       r="3"
       inkscape:label="screen_button" />
    <circle
       style="display:inline;fill:#ff0000;stroke:none;stroke-width:1.5;stroke-miterlimit:4;stroke-dasharray:none"
       id="path839-6-35-1"
       cx="142.875"
       cy="26.149998"
       r="3"
       inkscape:label="screen_button" />
  </g>
  <g
     inkscape:label="Layer 1"
     inkscape:groupmode="layer"
     id="layer1"
     transform="translate(0,-168.5)"
     style="display:inline">
    <text
       xml:space="preserve"
       style="font-style:normal;font-variant:normal;font-weight:normal;font-stretch:normal;font-size:4.23333311px;line-height:1.25;font-family:'CMU Serif';-inkscape-font-specification:'CMU Serif';letter-spacing:0px;word-spacing:0px;fill:#ffffff;fill-opacity:1;stroke:none;stroke-width:0.26458332"
       x="3.175"
       y="280.375"
       id="text956"><tspan
         sodipodi:role="line"
         id="tspan954"
         x="3.175"
         y="284.29083"
         style="fill:#ffffff;stroke:none;stroke-width:0.26458332"></tspan></text>
    <g
       aria-label="Recording Metadata"
       style="font-style:normal;font-variant:normal;font-weight:normal;font-stretch:normal;font-size:4.23333311px;line-height:1.25;font-family:'CMU Serif';-inkscape-font-specification:'CMU Serif';letter-spacing:0px;word-spacing:0px;fill:#ffffff;fill-opacity:1;stroke:none;stroke-width:0.26458332"
       id="text1098"
       transform="translate(22.1375)">
      <g
         aria-label="File Metadata"
         style="font-style:normal;font-variant:normal;font-weight:normal;font-stretch:normal;font-size:4.23333311px;line-height:1.25;font-family:'CMU Serif';-inkscape-font-specification:'CMU Serif';letter-spacing:0px;word-spacing:0px;fill:#ffffff;fill-opacity:1;stroke:none;stroke-width:0.07000434"
         id="text5153">
        <path
           d="m 37.812597,179.80728 c 0.148167,-0.0127 0.478367,-0.0127 0.643467,-0.0127 0.173567,0 0.5588,0 0.7112,0.0127 v -0.13123 h -0.1397 c -0.402167,0 -0.402167,-0.055 -0.402167,-0.2032 v -1.0414 h 0.364067 c 0.4064,0 0.448733,0.13546 0.448733,0.4953 h 0.105834 v -1.12184 h -0.105834 c 0,0.3556 -0.04233,0.4953 -0.448733,0.4953 h -0.364067 v -1.07103 c 0,-0.1397 0.0085,-0.16933 0.207434,-0.16933 h 0.508 c 0.635,0 0.740833,0.23706 0.808566,0.82126 h 0.105834 l -0.118534,-0.9525 h -2.3241 v 0.13124 h 0.1016 c 0.325967,0 0.334434,0.0466 0.334434,0.19896 v 2.21827 c 0,0.1524 -0.0085,0.19897 -0.334434,0.19897 h -0.1016 z"
           style="fill:#ffffff;stroke-width:0.07000434"
           id="path5318"
           inkscape:connector-curvature="0" />
        <path
           d="m 40.751986,177.19955 c 0,0.1143 0.09313,0.22436 0.224366,0.22436 0.118534,0 0.224367,-0.0889 0.224367,-0.22436 0,-0.13547 -0.105833,-0.22437 -0.224367,-0.22437 -0.131233,0 -0.224366,0.1143 -0.224366,0.22437 z m -0.1778,2.60773 c 0.135466,-0.004 0.364066,-0.0127 0.465666,-0.0127 0.148167,0 0.296334,0.008 0.440267,0.0127 v -0.13123 c -0.2794,0 -0.296333,-0.0212 -0.296333,-0.18627 v -1.55363 l -0.592667,0.0466 v 0.13124 c 0.275167,0 0.313267,0.0254 0.313267,0.23283 v 1.13877 c 0,0.1905 -0.04657,0.1905 -0.3302,0.1905 z"
           style="fill:#ffffff;stroke-width:0.07000434"
           id="path5320"
           inkscape:connector-curvature="0" />
        <path
           d="m 41.748274,179.80728 c 0.1397,-0.004 0.364067,-0.0127 0.4699,-0.0127 0.105833,0 0.313267,0.008 0.4699,0.0127 v -0.13123 c -0.283633,0 -0.3302,0 -0.3302,-0.1905 v -2.6162 l -0.6096,0.0466 v 0.13124 c 0.296333,0 0.3302,0.0296 0.3302,0.23706 v 2.20134 c 0,0.1905 -0.04657,0.1905 -0.3302,0.1905 z"
           style="fill:#ffffff;stroke-width:0.07000434"
           id="path5322"
           inkscape:connector-curvature="0" />
        <path
           d="m 42.901196,178.87595 c 0,0.56726 0.4445,0.9779 0.931333,0.9779 0.516467,0 0.706967,-0.4699 0.706967,-0.55034 0,-0.0423 -0.03387,-0.0508 -0.05503,-0.0508 -0.0381,0 -0.04657,0.0254 -0.05503,0.0593 -0.148167,0.43603 -0.529167,0.43603 -0.5715,0.43603 -0.211667,0 -0.381,-0.127 -0.478367,-0.28363 -0.127,-0.2032 -0.127,-0.4826 -0.127,-0.635 h 1.1811 c 0.09313,0 0.105834,0 0.105834,-0.0889 0,-0.4191 -0.2286,-0.82973 -0.757767,-0.82973 -0.491067,0 -0.880533,0.43603 -0.880533,0.9652 z m 0.3556,-0.13547 c 0.0254,-0.63077 0.381,-0.7366 0.524933,-0.7366 0.436033,0 0.478367,0.5715 0.478367,0.7366 z"
           style="fill:#ffffff;stroke-width:0.07000434"
           id="path5324"
           inkscape:connector-curvature="0" />
        <path
           d="m 46.230051,179.80728 c 0.148167,-0.004 0.3556,-0.0127 0.4953,-0.0127 0.1397,0 0.347133,0.008 0.4953,0.0127 v -0.13123 c -0.436033,0 -0.436033,-0.19897 -0.436033,-0.31327 v -2.28177 h 0.0042 l 1.020233,2.63314 c 0.02117,0.055 0.04233,0.0931 0.08467,0.0931 0.04657,0 0.05927,-0.0339 0.0762,-0.0804 l 1.0414,-2.6797 h 0.0042 v 2.42993 c 0,0.1524 -0.0085,0.19897 -0.334433,0.19897 h -0.1016 v 0.13123 c 0.156633,-0.0127 0.4445,-0.0127 0.6096,-0.0127 0.1651,0 0.448733,0 0.605366,0.0127 v -0.13123 h -0.1016 c -0.325966,0 -0.334433,-0.0466 -0.334433,-0.19897 v -2.23097 c 0,-0.1524 0.0085,-0.19896 0.334433,-0.19896 h 0.1016 v -0.13124 h -0.715433 c -0.110066,0 -0.110066,0.004 -0.1397,0.0804 l -0.9271,2.38336 -0.918633,-2.37066 c -0.0381,-0.0931 -0.0508,-0.0931 -0.148167,-0.0931 h -0.715433 v 0.13124 h 0.1016 c 0.325967,0 0.334433,0.0466 0.334433,0.19896 v 2.11667 c 0,0.1143 0,0.31327 -0.436033,0.31327 z"
           style="fill:#ffffff;stroke-width:0.07000434"
           id="path5326"
           inkscape:connector-curvature="0" />
        <path
           d="m 50.06975,178.87595 c 0,0.56726 0.4445,0.9779 0.931333,0.9779 0.516467,0 0.706967,-0.4699 0.706967,-0.55034 0,-0.0423 -0.03387,-0.0508 -0.05503,-0.0508 -0.0381,0 -0.04657,0.0254 -0.05503,0.0593 -0.148166,0.43603 -0.529166,0.43603 -0.5715,0.43603 -0.211666,0 -0.381,-0.127 -0.478366,-0.28363 -0.127,-0.2032 -0.127,-0.4826 -0.127,-0.635 h 1.1811 c 0.09313,0 0.105833,0 0.105833,-0.0889 0,-0.4191 -0.2286,-0.82973 -0.757767,-0.82973 -0.491066,0 -0.880533,0.43603 -0.880533,0.9652 z m 0.3556,-0.13547 c 0.0254,-0.63077 0.381,-0.7366 0.524933,-0.7366 0.436034,0 0.478367,0.5715 0.478367,0.7366 z"
           style="fill:#ffffff;stroke-width:0.07000434"
           id="path5328"
           inkscape:connector-curvature="0" />
        <path
           d="m 51.908538,178.11395 h 0.359834 v 1.1684 c 0,0.5207 0.3937,0.5715 0.5461,0.5715 0.300566,0 0.4191,-0.30057 0.4191,-0.5715 v -0.2413 h -0.105834 v 0.23283 c 0,0.31327 -0.127,0.47413 -0.283633,0.47413 -0.283633,0 -0.283633,-0.38523 -0.283633,-0.4572 v -1.17686 h 0.605366 v -0.13124 h -0.605366 v -0.77893 h -0.105834 c -0.0042,0.34713 -0.131233,0.8001 -0.5461,0.81703 z"
           style="fill:#ffffff;stroke-width:0.07000434"
           id="path5330"
           inkscape:connector-curvature="0" />
        <path
           d="m 53.651282,179.40511 c 0,0.3429 0.410633,0.44874 0.677333,0.44874 0.2794,0 0.474134,-0.16934 0.554567,-0.3683 0.01693,0.16933 0.131233,0.34713 0.3302,0.34713 0.0889,0 0.347133,-0.0593 0.347133,-0.40217 v -0.23706 h -0.105833 v 0.23706 c 0,0.24554 -0.105833,0.27094 -0.1524,0.27094 -0.1397,0 -0.156633,-0.1905 -0.156633,-0.21167 v -0.84667 c 0,-0.1778 0,-0.3429 -0.1524,-0.49953 -0.1651,-0.1651 -0.376767,-0.23283 -0.579967,-0.23283 -0.347133,0 -0.639233,0.19896 -0.639233,0.47836 0,0.127 0.08467,0.19897 0.194733,0.19897 0.118533,0 0.194733,-0.0847 0.194733,-0.19473 0,-0.0508 -0.02117,-0.1905 -0.2159,-0.19474 0.1143,-0.14816 0.321734,-0.19473 0.4572,-0.19473 0.207434,0 0.448734,0.1651 0.448734,0.54187 v 0.15663 c -0.2159,0.0127 -0.512234,0.0254 -0.778934,0.1524 -0.3175,0.14393 -0.423333,0.36407 -0.423333,0.55033 z m 0.325967,-0.004 c 0,-0.23283 0.1778,-0.5842 0.8763,-0.6096 v 0.42333 c 0,0.40217 -0.3048,0.5461 -0.4953,0.5461 -0.207434,0 -0.381,-0.14816 -0.381,-0.35983 z"
           style="fill:#ffffff;stroke-width:0.07000434"
           id="path5332"
           inkscape:connector-curvature="0" />
        <path
           d="m 55.734082,178.89711 c 0,0.53764 0.414867,0.95674 0.897467,0.95674 0.270933,0 0.461433,-0.14394 0.567267,-0.2794 v 0.2794 l 0.622299,-0.0466 v -0.13123 c -0.296333,0 -0.3302,-0.0296 -0.3302,-0.23707 v -2.56963 l -0.609599,0.0466 v 0.13124 c 0.296333,0 0.3302,0.0296 0.3302,0.23706 v 0.9144 c -0.122767,-0.1524 -0.3048,-0.26246 -0.5334,-0.26246 -0.499534,0 -0.944034,0.41486 -0.944034,0.96096 z m 0.351367,0.004 c 0,-0.15664 0.0085,-0.41064 0.131233,-0.60114 0.0889,-0.13123 0.249767,-0.27093 0.478367,-0.27093 0.148167,0 0.325967,0.0635 0.4572,0.254 0.04657,0.072 0.04657,0.0804 0.04657,0.15663 v 0.86784 c 0,0.0762 0,0.0847 -0.04657,0.15663 -0.127,0.2032 -0.3175,0.29633 -0.499533,0.29633 -0.1905,0 -0.3429,-0.11006 -0.4445,-0.27093 -0.110067,-0.17357 -0.122767,-0.41487 -0.122767,-0.58843 z"
           style="fill:#ffffff;stroke-width:0.07000434"
           id="path5334"
           inkscape:connector-curvature="0" />
        <path
           d="m 58.116126,179.40511 c 0,0.3429 0.410633,0.44874 0.677333,0.44874 0.2794,0 0.474133,-0.16934 0.554567,-0.3683 0.01693,0.16933 0.131233,0.34713 0.3302,0.34713 0.0889,0 0.347133,-0.0593 0.347133,-0.40217 v -0.23706 h -0.105833 v 0.23706 c 0,0.24554 -0.105834,0.27094 -0.1524,0.27094 -0.1397,0 -0.156634,-0.1905 -0.156634,-0.21167 v -0.84667 c 0,-0.1778 0,-0.3429 -0.1524,-0.49953 -0.1651,-0.1651 -0.376766,-0.23283 -0.579966,-0.23283 -0.347133,0 -0.639233,0.19896 -0.639233,0.47836 0,0.127 0.08467,0.19897 0.194733,0.19897 0.118533,0 0.194733,-0.0847 0.194733,-0.19473 0,-0.0508 -0.02117,-0.1905 -0.2159,-0.19474 0.1143,-0.14816 0.321734,-0.19473 0.4572,-0.19473 0.207433,0 0.448733,0.1651 0.448733,0.54187 v 0.15663 c -0.2159,0.0127 -0.512233,0.0254 -0.778933,0.1524 -0.3175,0.14393 -0.423333,0.36407 -0.423333,0.55033 z m 0.325967,-0.004 c 0,-0.23283 0.1778,-0.5842 0.876299,-0.6096 v 0.42333 c 0,0.40217 -0.3048,0.5461 -0.495299,0.5461 -0.207434,0 -0.381,-0.14816 -0.381,-0.35983 z"
           style="fill:#ffffff;stroke-width:0.07000434"
           id="path5336"
           inkscape:connector-curvature="0" />
        <path
           d="m 60.135426,178.11395 h 0.359833 v 1.1684 c 0,0.5207 0.3937,0.5715 0.5461,0.5715 0.300567,0 0.4191,-0.30057 0.4191,-0.5715 v -0.2413 h -0.105833 v 0.23283 c 0,0.31327 -0.127,0.47413 -0.283633,0.47413 -0.283634,0 -0.283634,-0.38523 -0.283634,-0.4572 v -1.17686 h 0.605367 v -0.13124 h -0.605367 v -0.77893 h -0.105833 c -0.0042,0.34713 -0.131233,0.8001 -0.5461,0.81703 z"
           style="fill:#ffffff;stroke-width:0.07000434"
           id="path5338"
           inkscape:connector-curvature="0" />
        <path
           d="m 61.878171,179.40511 c 0,0.3429 0.410633,0.44874 0.677333,0.44874 0.2794,0 0.474133,-0.16934 0.554567,-0.3683 0.01693,0.16933 0.131233,0.34713 0.3302,0.34713 0.0889,0 0.347133,-0.0593 0.347133,-0.40217 v -0.23706 h -0.105833 v 0.23706 c 0,0.24554 -0.105834,0.27094 -0.1524,0.27094 -0.1397,0 -0.156634,-0.1905 -0.156634,-0.21167 v -0.84667 c 0,-0.1778 0,-0.3429 -0.1524,-0.49953 -0.1651,-0.1651 -0.376766,-0.23283 -0.579966,-0.23283 -0.347134,0 -0.639234,0.19896 -0.639234,0.47836 0,0.127 0.08467,0.19897 0.194734,0.19897 0.118533,0 0.194733,-0.0847 0.194733,-0.19473 0,-0.0508 -0.02117,-0.1905 -0.2159,-0.19474 0.1143,-0.14816 0.321733,-0.19473 0.4572,-0.19473 0.207433,0 0.448733,0.1651 0.448733,0.54187 v 0.15663 c -0.2159,0.0127 -0.512233,0.0254 -0.778933,0.1524 -0.3175,0.14393 -0.423333,0.36407 -0.423333,0.55033 z m 0.325966,-0.004 c 0,-0.23283 0.1778,-0.5842 0.8763,-0.6096 v 0.42333 c 0,0.40217 -0.3048,0.5461 -0.4953,0.5461 -0.207433,0 -0.381,-0.14816 -0.381,-0.35983 z"
           style="fill:#ffffff;stroke-width:0.07000434"
           id="path5340"
           inkscape:connector-curvature="0" />
      </g>
    </g>
    <g
       aria-label="Screenshot"
       style="font-style:normal;font-variant:normal;font-weight:normal;font-stretch:normal;font-size:4.23333311px;line-height:1.25;font-family:'CMU Serif';-inkscape-font-specification:'CMU Serif';letter-spacing:0px;word-spacing:0px;fill:#ffffff;fill-opacity:1;stroke:none;stroke-width:0.26458332"
       id="text5203"
       transform="translate(88.758474,8.7750023)">
      <path
         d="m 3.057959,186.56221 c 0,0.072 0,0.1016 0.046567,0.1016 0.029633,0 0.033867,-0.008 0.0635,-0.055 0,-0.004 0.0127,-0.0169 0.1524,-0.2413 0.1312334,0.14393 0.4021667,0.29633 0.7789333,0.29633 0.4953,0 0.8339667,-0.41486 0.8339667,-0.88053 0,-0.42333 -0.2794,-0.77047 -0.635,-0.85513 l -0.541867,-0.13127 c -0.2624667,-0.0635 -0.4275667,-0.2921 -0.4275667,-0.53763 0,-0.29633 0.2286,-0.55457 0.5588,-0.55457 0.7069666,0 0.8000999,0.69427 0.8254999,0.88477 0.00423,0.0254 0.00423,0.0508 0.0508,0.0508 0.055033,0 0.055033,-0.0212 0.055033,-0.1016 v -0.8509 c 0,-0.072 0,-0.1016 -0.046567,-0.1016 -0.029633,0 -0.033867,0.004 -0.0635,0.055 l -0.1481667,0.2413 c -0.127,-0.12276 -0.3005666,-0.29633 -0.6773333,-0.29633 -0.4698999,0 -0.8254999,0.37253 -0.8254999,0.82127 0,0.35136 0.2243666,0.6604 0.5545666,0.7747 0.046567,0.0169 0.2624667,0.0677 0.5588,0.1397 0.1143,0.0296 0.2413,0.0593 0.3598333,0.2159 0.0889,0.11006 0.1312333,0.24976 0.1312333,0.38946 0,0.30057 -0.2116666,0.60537 -0.5672666,0.60537 -0.1227667,0 -0.4445,-0.0212 -0.6688666,-0.2286 -0.2455334,-0.2286 -0.2582334,-0.49953 -0.2624667,-0.65193 -0.00423,-0.0423 -0.0381,-0.0423 -0.0508,-0.0423 -0.055033,0 -0.055033,0.0296 -0.055033,0.10584 z"
         style="fill:#ffffff;stroke-width:0.26458332"
         id="path5297"
         inkscape:connector-curvature="0" />
      <path
         d="m 5.3130026,185.65628 c 0,0.54187 0.4191,0.96097 0.9101666,0.96097 0.5672667,0 0.7027333,-0.508 0.7027333,-0.55034 0,-0.0423 -0.042333,-0.0423 -0.055033,-0.0423 -0.0381,0 -0.046567,0.0169 -0.055033,0.0423 -0.1227667,0.3937 -0.3979333,0.4445 -0.5545667,0.4445 -0.2243666,0 -0.5968999,-0.18203 -0.5968999,-0.8636 0,-0.69003 0.3471333,-0.86783 0.5714999,-0.86783 0.0381,0 0.3048,0.004 0.4529667,0.15663 -0.1735667,0.0127 -0.1989667,0.1397 -0.1989667,0.19474 0,0.11006 0.0762,0.19473 0.1947333,0.19473 0.1100667,0 0.1947334,-0.072 0.1947334,-0.19897 0,-0.28786 -0.3217333,-0.45296 -0.6477,-0.45296 -0.5291666,0 -0.9186333,0.4572 -0.9186339,0.98213 z"
         style="fill:#ffffff;stroke-width:0.26458332"
         id="path5299"
         inkscape:connector-curvature="0" />
      <path
         d="m 7.1644904,186.57068 c 0.1651,-0.004 0.3640667,-0.0127 0.4826,-0.0127 0.1693333,0 0.3683,0 0.5376333,0.0127 v -0.13123 h -0.0889 c -0.3132667,0 -0.3217333,-0.0466 -0.3217333,-0.19897 v -0.65193 c 0,-0.4191 0.1778,-0.79587 0.4995333,-0.79587 0.029633,0 0.0381,0 0.046567,0.004 -0.0127,0.004 -0.097367,0.055 -0.097367,0.1651 0,0.11854 0.0889,0.18204 0.1820333,0.18204 0.0762,0 0.1820333,-0.0508 0.1820333,-0.18627 0,-0.13547 -0.1312333,-0.25823 -0.3132666,-0.25823 -0.3090333,0 -0.4614333,0.28363 -0.5207,0.46566 v -0.46566 l -0.5884333,0.0466 v 0.13124 c 0.2963333,0 0.3302,0.0296 0.3302,0.23706 v 1.13454 c 0,0.1905 -0.046567,0.1905 -0.3302,0.1905 z"
         style="fill:#ffffff;stroke-width:0.26458332"
         id="path5301"
         inkscape:connector-curvature="0" />
      <path
         d="m 8.8181364,185.63935 c 0,0.56726 0.4445,0.9779 0.9313333,0.9779 0.5164663,0 0.7069663,-0.4699 0.7069663,-0.55034 0,-0.0423 -0.03387,-0.0508 -0.05503,-0.0508 -0.0381,0 -0.04657,0.0254 -0.05503,0.0593 -0.148167,0.43603 -0.529167,0.43603 -0.5715003,0.43603 -0.2116667,0 -0.381,-0.127 -0.4783667,-0.28363 -0.1269999,-0.2032 -0.1269999,-0.4826 -0.1269999,-0.635 h 1.1810999 c 0.09313,0 0.105833,0 0.105833,-0.0889 0,-0.4191 -0.2286,-0.82973 -0.7577663,-0.82973 -0.4910666,0 -0.8805333,0.43603 -0.8805333,0.9652 z m 0.3556,-0.13547 c 0.0254,-0.63077 0.381,-0.7366 0.5249333,-0.7366 0.4360333,0 0.4783663,0.5715 0.4783663,0.7366 z"
         style="fill:#ffffff;stroke-width:0.26458332"
         id="path5303"
         inkscape:connector-curvature="0" />
      <path
         d="m 10.695024,185.63935 c 0,0.56726 0.4445,0.9779 0.931333,0.9779 0.516467,0 0.706967,-0.4699 0.706967,-0.55034 0,-0.0423 -0.03387,-0.0508 -0.05503,-0.0508 -0.0381,0 -0.04657,0.0254 -0.05503,0.0593 -0.148166,0.43603 -0.529166,0.43603 -0.5715,0.43603 -0.211666,0 -0.380999,-0.127 -0.478366,-0.28363 -0.127,-0.2032 -0.127,-0.4826 -0.127,-0.635 h 1.1811 c 0.09313,0 0.105833,0 0.105833,-0.0889 0,-0.4191 -0.2286,-0.82973 -0.757767,-0.82973 -0.491066,0 -0.880533,0.43603 -0.880533,0.9652 z m 0.3556,-0.13547 c 0.0254,-0.63077 0.381,-0.7366 0.524933,-0.7366 0.436034,0 0.478367,0.5715 0.478367,0.7366 z"
         style="fill:#ffffff;stroke-width:0.26458332"
         id="path5305"
         inkscape:connector-curvature="0" />
      <path
         d="m 12.588845,186.57068 c 0.148167,-0.004 0.364067,-0.0127 0.478367,-0.0127 0.110067,0 0.3302,0.008 0.474133,0.0127 v -0.13123 c -0.283633,0 -0.3302,0 -0.3302,-0.1905 v -0.77894 c 0,-0.44026 0.300567,-0.67733 0.5715,-0.67733 0.2667,0 0.313267,0.2286 0.313267,0.4699 v 0.98637 c 0,0.1905 -0.04657,0.1905 -0.3302,0.1905 v 0.13123 c 0.148167,-0.004 0.364067,-0.0127 0.478367,-0.0127 0.110066,0 0.3302,0.008 0.474133,0.0127 v -0.13123 c -0.220133,0 -0.325967,0 -0.3302,-0.127 v -0.80857 c 0,-0.36407 0,-0.4953 -0.131233,-0.6477 -0.05927,-0.072 -0.198967,-0.15663 -0.4445,-0.15663 -0.309034,0 -0.508,0.18203 -0.626534,0.4445 v -0.4445 l -0.5969,0.0466 v 0.13124 c 0.296334,0 0.3302,0.0296 0.3302,0.23706 v 1.13454 c 0,0.1905 -0.04657,0.1905 -0.3302,0.1905 z"
         style="fill:#ffffff;stroke-width:0.26458332"
         id="path5307"
         inkscape:connector-curvature="0" />
      <path
         d="m 14.941256,186.51565 c 0,0.072 0,0.1016 0.04657,0.1016 0.02117,0 0.0254,-0.004 0.105834,-0.0847 0.0085,-0.008 0.0085,-0.0169 0.08467,-0.0974 0.186267,0.1778 0.376767,0.18204 0.465667,0.18204 0.486833,0 0.681567,-0.28364 0.681567,-0.58844 0,-0.22436 -0.127,-0.35136 -0.1778,-0.40216 -0.1397,-0.13547 -0.3048,-0.16934 -0.4826,-0.2032 -0.237067,-0.0466 -0.5207,-0.1016 -0.5207,-0.34714 0,-0.14816 0.110066,-0.32173 0.474133,-0.32173 0.465667,0 0.486833,0.381 0.4953,0.51223 0.0042,0.0381 0.04233,0.0381 0.0508,0.0381 0.05503,0 0.05503,-0.0212 0.05503,-0.1016 v -0.42756 c 0,-0.072 0,-0.1016 -0.04657,-0.1016 -0.02117,0 -0.02963,0 -0.08467,0.0508 -0.0127,0.0169 -0.05503,0.055 -0.07197,0.0677 -0.160866,-0.11853 -0.334433,-0.11853 -0.397933,-0.11853 -0.516467,0 -0.677333,0.28363 -0.677333,0.5207 0,0.14816 0.06773,0.2667 0.182033,0.35983 0.135467,0.11007 0.254,0.13547 0.5588,0.19473 0.09313,0.0169 0.440267,0.0847 0.440267,0.38947 0,0.2159 -0.148167,0.38523 -0.478367,0.38523 -0.3556,0 -0.508,-0.2413 -0.588433,-0.60113 -0.0127,-0.055 -0.01693,-0.072 -0.05927,-0.072 -0.05503,0 -0.05503,0.0296 -0.05503,0.10584 z"
         style="fill:#ffffff;stroke-width:0.26458332"
         id="path5309"
         inkscape:connector-curvature="0" />
      <path
         d="m 16.607205,186.57068 c 0.148166,-0.004 0.364066,-0.0127 0.478366,-0.0127 0.110067,0 0.3302,0.008 0.474133,0.0127 v -0.13123 c -0.283633,0 -0.3302,0 -0.3302,-0.1905 v -0.77894 c 0,-0.44026 0.300567,-0.67733 0.5715,-0.67733 0.2667,0 0.313267,0.2286 0.313267,0.4699 v 0.98637 c 0,0.1905 -0.04657,0.1905 -0.3302,0.1905 v 0.13123 c 0.148167,-0.004 0.364067,-0.0127 0.478367,-0.0127 0.110066,0 0.3302,0.008 0.474133,0.0127 v -0.13123 c -0.220133,0 -0.325967,0 -0.3302,-0.127 v -0.80857 c 0,-0.36407 0,-0.4953 -0.131233,-0.6477 -0.05927,-0.072 -0.198967,-0.15663 -0.4445,-0.15663 -0.3556,0 -0.541867,0.254 -0.6096,0.4064 h -0.0042 v -1.4732 l -0.609599,0.0466 v 0.13124 c 0.296333,0 0.3302,0.0296 0.3302,0.23706 v 2.20134 c 0,0.1905 -0.04657,0.1905 -0.3302,0.1905 z"
         style="fill:#ffffff;stroke-width:0.26458332"
         id="path5311"
         inkscape:connector-curvature="0" />
      <path
         d="m 18.938448,185.66475 c 0,0.5461 0.440267,0.9525 0.935567,0.9525 0.512233,0 0.9398,-0.41487 0.9398,-0.9525 0,-0.54187 -0.423334,-0.9906 -0.935567,-0.9906 -0.529167,0 -0.9398,0.46143 -0.9398,0.9906 z m 0.351367,-0.0339 c 0,-0.1651 0,-0.3937 0.1016,-0.57997 0.1143,-0.19473 0.313266,-0.28363 0.4826,-0.28363 0.186266,0 0.3683,0.0931 0.478366,0.27517 0.110067,0.18203 0.110067,0.42756 0.110067,0.58843 0,0.1524 0,0.381 -0.09313,0.56727 -0.09313,0.1905 -0.2794,0.31326 -0.491067,0.31326 -0.182033,0 -0.3683,-0.0889 -0.4826,-0.28363 -0.105833,-0.18627 -0.105833,-0.4445 -0.105833,-0.5969 z"
         style="fill:#ffffff;stroke-width:0.26458332"
         id="path5313"
         inkscape:connector-curvature="0" />
      <path
         d="m 21.017014,184.87735 h 0.359833 v 1.1684 c 0,0.5207 0.3937,0.5715 0.5461,0.5715 0.300567,0 0.4191,-0.30057 0.4191,-0.5715 v -0.2413 h -0.105833 v 0.23283 c 0,0.31327 -0.127,0.47413 -0.283633,0.47413 -0.283634,0 -0.283634,-0.38523 -0.283634,-0.4572 v -1.17686 h 0.605367 v -0.13124 h -0.605367 v -0.77893 h -0.105833 c -0.0042,0.34713 -0.131233,0.8001 -0.5461,0.81703 z"
         style="fill:#ffffff;stroke-width:0.26458332"
         id="path5315"
         inkscape:connector-curvature="0" />
    </g>
    <g
       aria-label="File Type"
       style="font-style:normal;font-variant:normal;font-weight:normal;font-stretch:normal;font-size:4.23333311px;line-height:1.25;font-family:'CMU Serif';-inkscape-font-specification:'CMU Serif';letter-spacing:0px;word-spacing:0px;fill:#ffffff;fill-opacity:1;stroke:none;stroke-width:0.26458332"
       id="text5207"
       transform="translate(0,-12.699998)">
      <path
         d="m 3.3420849,202.03505 c 0.1481667,-0.0127 0.4783667,-0.0127 0.6434667,-0.0127 0.1735666,0 0.5587999,0 0.7111999,0.0127 v -0.13123 h -0.1397 c -0.4021666,0 -0.4021666,-0.055 -0.4021666,-0.2032 v -1.0414 h 0.3640666 c 0.4064,0 0.4487334,0.13546 0.4487334,0.4953 h 0.1058333 v -1.12184 H 4.9676849 c 0,0.3556 -0.042333,0.4953 -0.4487334,0.4953 H 4.1548849 v -1.07103 c 0,-0.1397 0.00847,-0.16933 0.2074333,-0.16933 h 0.508 c 0.635,0 0.7408333,0.23706 0.8085666,0.82126 h 0.1058333 l -0.1185333,-0.9525 H 3.3420849 v 0.13124 h 0.1016 c 0.3259667,0 0.3344334,0.0466 0.3344334,0.19896 v 2.21827 c 0,0.1524 -0.00847,0.19897 -0.3344334,0.19897 h -0.1016 z"
         style="fill:#ffffff;stroke-width:0.26458332"
         id="path5280"
         inkscape:connector-curvature="0" />
      <path
         d="m 6.2814733,199.42732 c 0,0.1143 0.093133,0.22436 0.2243666,0.22436 0.1185333,0 0.2243667,-0.0889 0.2243667,-0.22436 0,-0.13547 -0.1058334,-0.22437 -0.2243667,-0.22437 -0.1312333,0 -0.2243666,0.1143 -0.2243666,0.22437 z m -0.1778,2.60773 c 0.1354666,-0.004 0.3640666,-0.0127 0.4656666,-0.0127 0.1481667,0 0.2963333,0.008 0.4402667,0.0127 v -0.13123 c -0.2794,0 -0.2963334,-0.0212 -0.2963334,-0.18627 v -1.55363 l -0.5926666,0.0466 v 0.13124 c 0.2751667,0 0.3132667,0.0254 0.3132667,0.23283 v 1.13877 c 0,0.1905 -0.046567,0.1905 -0.3302,0.1905 z"
         style="fill:#ffffff;stroke-width:0.26458332"
         id="path5282"
         inkscape:connector-curvature="0" />
      <path
         d="m 7.2777618,202.03505 c 0.1396999,-0.004 0.3640666,-0.0127 0.4698999,-0.0127 0.1058334,0 0.3132667,0.008 0.4699,0.0127 v -0.13123 c -0.2836333,0 -0.3302,0 -0.3302,-0.1905 v -2.6162 l -0.6095999,0.0466 v 0.13124 c 0.2963333,0 0.3301999,0.0296 0.3301999,0.23706 v 2.20134 c 0,0.1905 -0.046567,0.1905 -0.3301999,0.1905 z"
         style="fill:#ffffff;stroke-width:0.26458332"
         id="path5284"
         inkscape:connector-curvature="0" />
      <path
         d="m 8.4306833,201.10372 c 0,0.56726 0.4445,0.9779 0.9313333,0.9779 0.5164667,0 0.7069664,-0.4699 0.7069664,-0.55034 0,-0.0423 -0.03387,-0.0508 -0.05503,-0.0508 -0.0381,0 -0.046567,0.0254 -0.055033,0.0593 -0.1481667,0.43603 -0.5291667,0.43603 -0.5715,0.43603 -0.2116666,0 -0.381,-0.127 -0.4783666,-0.28363 -0.127,-0.2032 -0.127,-0.4826 -0.127,-0.635 h 1.1810999 c 0.093133,0 0.1058327,0 0.1058327,-0.0889 0,-0.4191 -0.2285993,-0.82973 -0.757766,-0.82973 -0.4910666,0 -0.8805333,0.43603 -0.8805333,0.9652 z m 0.3556,-0.13547 c 0.0254,-0.63077 0.381,-0.7366 0.5249333,-0.7366 0.4360333,0 0.4783667,0.5715 0.4783667,0.7366 z"
         style="fill:#ffffff;stroke-width:0.26458332"
         id="path5286"
         inkscape:connector-curvature="0" />
      <path
         d="m 11.755305,200.12158 h 0.105834 c 0.05927,-0.68156 0.122766,-0.82126 0.762,-0.82126 0.0762,0 0.186266,0 0.2286,0.008 0.0889,0.0169 0.0889,0.0635 0.0889,0.16087 v 2.23097 c 0,0.14393 0,0.2032 -0.4445,0.2032 h -0.169334 v 0.13123 c 0.173567,-0.0127 0.605367,-0.0127 0.8001,-0.0127 0.194734,0 0.630767,0 0.804333,0.0127 v -0.13123 h -0.169333 c -0.4445,0 -0.4445,-0.0593 -0.4445,-0.2032 v -2.23097 c 0,-0.0847 0,-0.14393 0.0762,-0.16087 0.04657,-0.008 0.160867,-0.008 0.2413,-0.008 0.639233,0 0.702733,0.1397 0.762,0.82126 h 0.105833 l -0.08043,-0.9525 h -2.586566 z"
         style="fill:#ffffff;stroke-width:0.26458332"
         id="path5288"
         inkscape:connector-curvature="0" />
      <path
         d="m 14.626828,202.55998 c 0,0.1905 0.1778,0.3429 0.389466,0.3429 0.2667,0 0.440267,-0.2413 0.541867,-0.4826 l 0.745067,-1.80763 c 0.110066,-0.2667 0.325966,-0.27093 0.3937,-0.27093 v -0.13124 c -0.09737,0.008 -0.220134,0.0127 -0.3175,0.0127 -0.0762,0 -0.275167,-0.008 -0.3683,-0.0127 v 0.13124 c 0.131233,0.004 0.198966,0.0762 0.198966,0.18203 0,0.0423 -0.0042,0.0508 -0.0254,0.1016 l -0.427566,1.0414 -0.4699,-1.13877 c -0.01693,-0.0423 -0.0254,-0.0593 -0.0254,-0.0762 0,-0.11006 0.156633,-0.11006 0.237066,-0.11006 v -0.13124 c -0.110066,0.004 -0.389466,0.0127 -0.461433,0.0127 -0.1143,0 -0.283633,-0.004 -0.410633,-0.0127 v 0.13124 c 0.2032,0 0.283633,0 0.3429,0.14816 l 0.635,1.54517 c -0.02117,0.055 -0.08043,0.19473 -0.105834,0.24977 -0.09313,0.23283 -0.211666,0.52493 -0.4826,0.52493 -0.02117,0 -0.118533,0 -0.198966,-0.0762 0.131233,-0.0169 0.1651,-0.11007 0.1651,-0.1778 0,-0.11007 -0.08043,-0.1778 -0.1778,-0.1778 -0.08467,0 -0.1778,0.055 -0.1778,0.18203 z"
         style="fill:#ffffff;stroke-width:0.26458332"
         id="path5290"
         inkscape:connector-curvature="0" />
      <path
         d="m 16.89735,202.72508 v 0.13124 c 0.143933,-0.004 0.364066,-0.0127 0.474133,-0.0127 0.1143,0 0.3302,0.008 0.478367,0.0127 v -0.13124 c -0.283634,0 -0.3302,0 -0.3302,-0.1905 v -0.7112 -0.0381 c 0.02117,0.0677 0.198966,0.29634 0.520699,0.29634 0.503767,0 0.944034,-0.41487 0.944034,-0.96097 0,-0.53763 -0.410634,-0.95673 -0.884767,-0.95673 -0.3302,0 -0.508,0.18626 -0.592666,0.2794 v -0.2794 l -0.6096,0.0466 v 0.13124 c 0.300566,0 0.3302,0.0254 0.3302,0.21166 v 1.9812 c 0,0.1905 -0.04657,0.1905 -0.3302,0.1905 z m 0.6223,-1.17263 v -0.94403 c 0.122766,-0.2159 0.3302,-0.33867 0.546099,-0.33867 0.309034,0 0.567267,0.37253 0.567267,0.8509 0,0.51223 -0.296333,0.86783 -0.6096,0.86783 -0.169333,0 -0.3302,-0.0847 -0.4445,-0.25823 -0.05927,-0.0889 -0.05927,-0.0931 -0.05927,-0.1778 z"
         style="fill:#ffffff;stroke-width:0.26458332"
         id="path5292"
         inkscape:connector-curvature="0" />
      <path
         d="m 19.361282,201.10372 c 0,0.56726 0.4445,0.9779 0.931333,0.9779 0.516467,0 0.706967,-0.4699 0.706967,-0.55034 0,-0.0423 -0.03387,-0.0508 -0.05503,-0.0508 -0.0381,0 -0.04657,0.0254 -0.05503,0.0593 -0.148167,0.43603 -0.529167,0.43603 -0.5715,0.43603 -0.211667,0 -0.381,-0.127 -0.478367,-0.28363 -0.127,-0.2032 -0.127,-0.4826 -0.127,-0.635 h 1.1811 c 0.09313,0 0.105834,0 0.105834,-0.0889 0,-0.4191 -0.2286,-0.82973 -0.757767,-0.82973 -0.491067,0 -0.880533,0.43603 -0.880533,0.9652 z m 0.3556,-0.13547 c 0.0254,-0.63077 0.381,-0.7366 0.524933,-0.7366 0.436033,0 0.478367,0.5715 0.478367,0.7366 z"
         style="fill:#ffffff;stroke-width:0.26458332"
         id="path5294"
         inkscape:connector-curvature="0" />
    </g>
    <g
       aria-label="Files"
       style="font-style:normal;font-variant:normal;font-weight:normal;font-stretch:normal;font-size:4.23333311px;line-height:1.25;font-family:'CMU Serif';-inkscape-font-specification:'CMU Serif';letter-spacing:0px;word-spacing:0px;fill:#ffffff;fill-opacity:1;stroke:none;stroke-width:0.26458332"
       id="text5211"
       transform="translate(0,-12.638613)">
      <path
         d="m 3.2228568,215.14568 c 0.1481667,-0.0127 0.4783667,-0.0127 0.6434666,-0.0127 0.1735667,0 0.5588,0 0.7112,0.0127 v -0.13124 h -0.1397 c -0.4021666,0 -0.4021666,-0.055 -0.4021666,-0.2032 v -1.0414 h 0.3640666 c 0.4064,0 0.4487333,0.13547 0.4487333,0.4953 h 0.1058334 v -1.12183 H 4.8484567 c 0,0.3556 -0.042333,0.4953 -0.4487333,0.4953 H 4.0356568 v -1.07103 c 0,-0.1397 0.00847,-0.16934 0.2074333,-0.16934 h 0.508 c 0.6349999,0 0.7408333,0.23707 0.8085666,0.82127 H 5.66549 l -0.1185333,-0.9525 H 3.2228568 v 0.13123 h 0.1016 c 0.3259667,0 0.3344333,0.0466 0.3344333,0.19897 v 2.21827 c 0,0.1524 -0.00847,0.19896 -0.3344333,0.19896 h -0.1016 z"
         style="fill:#ffffff;stroke-width:0.26458332"
         id="path5269"
         inkscape:connector-curvature="0" />
      <path
         d="m 6.1622451,212.53794 c 0,0.1143 0.093133,0.22437 0.2243667,0.22437 0.1185333,0 0.2243667,-0.0889 0.2243667,-0.22437 0,-0.13546 -0.1058334,-0.22436 -0.2243667,-0.22436 -0.1312333,0 -0.2243667,0.1143 -0.2243667,0.22436 z m -0.1777999,2.60774 c 0.1354666,-0.004 0.3640666,-0.0127 0.4656666,-0.0127 0.1481667,0 0.2963333,0.008 0.4402666,0.0127 v -0.13124 c -0.2793999,0 -0.2963333,-0.0212 -0.2963333,-0.18626 v -1.55364 l -0.5926666,0.0466 v 0.13123 c 0.2751666,0 0.3132666,0.0254 0.3132666,0.23284 v 1.13876 c 0,0.1905 -0.046567,0.1905 -0.3301999,0.1905 z"
         style="fill:#ffffff;stroke-width:0.26458332"
         id="path5271"
         inkscape:connector-curvature="0" />
      <path
         d="m 7.1585336,215.14568 c 0.1397,-0.004 0.3640667,-0.0127 0.4699,-0.0127 0.1058333,0 0.3132667,0.008 0.4699,0.0127 v -0.13124 c -0.2836333,0 -0.3302,0 -0.3302,-0.1905 v -2.6162 l -0.6096,0.0466 v 0.13123 c 0.2963333,0 0.3302,0.0296 0.3302,0.23707 v 2.20133 c 0,0.1905 -0.046567,0.1905 -0.3302,0.1905 z"
         style="fill:#ffffff;stroke-width:0.26458332"
         id="path5273"
         inkscape:connector-curvature="0" />
      <path
         d="m 8.3114552,214.21434 c 0,0.56727 0.4445,0.9779 0.9313333,0.9779 0.5164666,0 0.7069666,-0.4699 0.7069666,-0.55033 0,-0.0423 -0.033867,-0.0508 -0.055033,-0.0508 -0.0381,0 -0.046567,0.0254 -0.055033,0.0593 -0.1481667,0.43603 -0.5291667,0.43603 -0.5715,0.43603 -0.2116667,0 -0.381,-0.127 -0.4783667,-0.28363 -0.1269999,-0.2032 -0.1269999,-0.4826 -0.1269999,-0.635 h 1.1810999 c 0.093133,0 0.1058333,0 0.1058333,-0.0889 0,-0.4191 -0.2286,-0.82974 -0.7577666,-0.82974 -0.4910666,0 -0.8805333,0.43604 -0.8805333,0.9652 z m 0.3556,-0.13546 c 0.0254,-0.63077 0.381,-0.7366 0.5249333,-0.7366 0.4360333,0 0.4783666,0.5715 0.4783666,0.7366 z"
         style="fill:#ffffff;stroke-width:0.26458332"
         id="path5275"
         inkscape:connector-curvature="0" />
      <path
         d="m 10.20951,215.09064 c 0,0.072 0,0.1016 0.04657,0.1016 0.02117,0 0.0254,-0.004 0.105833,-0.0847 0.0085,-0.008 0.0085,-0.0169 0.08467,-0.0974 0.186266,0.1778 0.376766,0.18203 0.465666,0.18203 0.486834,0 0.681567,-0.28363 0.681567,-0.58843 0,-0.22437 -0.127,-0.35137 -0.1778,-0.40217 -0.1397,-0.13546 -0.3048,-0.16933 -0.4826,-0.2032 -0.237067,-0.0466 -0.5207,-0.1016 -0.5207,-0.34713 0,-0.14817 0.110067,-0.32173 0.474133,-0.32173 0.465667,0 0.486834,0.381 0.4953,0.51223 0.0042,0.0381 0.04233,0.0381 0.0508,0.0381 0.05503,0 0.05503,-0.0212 0.05503,-0.1016 v -0.42757 c 0,-0.072 0,-0.1016 -0.04657,-0.1016 -0.02117,0 -0.02963,0 -0.08467,0.0508 -0.0127,0.0169 -0.05503,0.055 -0.07197,0.0677 -0.160867,-0.11854 -0.334434,-0.11854 -0.397934,-0.11854 -0.516466,0 -0.677333,0.28364 -0.677333,0.5207 0,0.14817 0.06773,0.2667 0.182033,0.35984 0.135467,0.11006 0.254,0.13546 0.5588,0.19473 0.09313,0.0169 0.440267,0.0847 0.440267,0.38947 0,0.2159 -0.148167,0.38523 -0.478367,0.38523 -0.3556,0 -0.508,-0.2413 -0.588433,-0.60113 -0.0127,-0.055 -0.01693,-0.072 -0.05927,-0.072 -0.05503,0 -0.05503,0.0296 -0.05503,0.10583 z"
         style="fill:#ffffff;stroke-width:0.26458332"
         id="path5277"
         inkscape:connector-curvature="0" />
    </g>
    <g
       aria-label="Add File"
       style="font-style:normal;font-variant:normal;font-weight:normal;font-stretch:normal;font-size:4.23333311px;line-height:1.25;font-family:'CMU Serif';-inkscape-font-specification:'CMU Serif';letter-spacing:0px;word-spacing:0px;fill:#ffffff;fill-opacity:1;stroke:none;stroke-width:0.26458332"
       id="text5360"
       transform="translate(47.624998,0.8374992)">
      <path
         d="m 74.5997,194.55475 c 0.09737,-0.004 0.2794,-0.0127 0.4318,-0.0127 0.131233,0 0.351367,0.008 0.486833,0.0127 v -0.13123 c -0.211666,0 -0.3175,-0.10584 -0.3175,-0.2159 0,-0.0127 0.0042,-0.055 0.0085,-0.0635 l 0.194733,-0.55457 H 76.4497 l 0.224366,0.6477 c 0.0042,0.0169 0.0127,0.0423 0.0127,0.0593 0,0.127 -0.237066,0.127 -0.351366,0.127 v 0.13123 c 0.1524,-0.0127 0.448733,-0.0127 0.6096,-0.0127 0.182033,0 0.376766,0.004 0.554566,0.0127 v -0.13123 h -0.0762 c -0.254,0 -0.313266,-0.0296 -0.359833,-0.16934 l -0.9144,-2.64583 c -0.02117,-0.055 -0.02963,-0.0847 -0.09737,-0.0847 -0.06773,0 -0.08043,0.0254 -0.1016,0.0847 l -0.8763,2.53153 c -0.0762,0.2159 -0.245533,0.2794 -0.474133,0.28364 z m 0.8509,-1.09643 0.474133,-1.37584 0.478367,1.37584 z"
         style="fill:#ffffff;stroke-width:0.26458332"
         id="path5362"
         inkscape:connector-curvature="0" />
      <path
         d="m 77.667411,193.64458 c 0,0.53764 0.414867,0.95674 0.897467,0.95674 0.270933,0 0.461433,-0.14394 0.567267,-0.2794 v 0.2794 l 0.6223,-0.0466 v -0.13123 c -0.296334,0 -0.3302,-0.0296 -0.3302,-0.23707 v -2.56963 l -0.6096,0.0466 v 0.13124 c 0.296333,0 0.3302,0.0296 0.3302,0.23706 v 0.9144 c -0.122767,-0.1524 -0.3048,-0.26246 -0.5334,-0.26246 -0.499534,0 -0.944034,0.41486 -0.944034,0.96096 z m 0.351367,0.004 c 0,-0.15664 0.0085,-0.41064 0.131233,-0.60114 0.0889,-0.13123 0.249767,-0.27093 0.478367,-0.27093 0.148167,0 0.325967,0.0635 0.4572,0.254 0.04657,0.072 0.04657,0.0804 0.04657,0.15663 v 0.86784 c 0,0.0762 0,0.0847 -0.04657,0.15663 -0.127,0.2032 -0.3175,0.29633 -0.499533,0.29633 -0.1905,0 -0.3429,-0.11006 -0.4445,-0.27093 -0.110067,-0.17357 -0.122767,-0.41487 -0.122767,-0.58843 z"
         style="fill:#ffffff;stroke-width:0.26458332"
         id="path5364"
         inkscape:connector-curvature="0" />
      <path
         d="m 80.015588,193.64458 c 0,0.53764 0.414867,0.95674 0.897467,0.95674 0.270933,0 0.461433,-0.14394 0.567267,-0.2794 v 0.2794 l 0.6223,-0.0466 v -0.13123 c -0.296334,0 -0.3302,-0.0296 -0.3302,-0.23707 v -2.56963 l -0.6096,0.0466 v 0.13124 c 0.296333,0 0.3302,0.0296 0.3302,0.23706 v 0.9144 c -0.122767,-0.1524 -0.3048,-0.26246 -0.5334,-0.26246 -0.499534,0 -0.944034,0.41486 -0.944034,0.96096 z m 0.351367,0.004 c 0,-0.15664 0.0085,-0.41064 0.131233,-0.60114 0.0889,-0.13123 0.249767,-0.27093 0.478367,-0.27093 0.148167,0 0.325967,0.0635 0.4572,0.254 0.04657,0.072 0.04657,0.0804 0.04657,0.15663 v 0.86784 c 0,0.0762 0,0.0847 -0.04657,0.15663 -0.127,0.2032 -0.3175,0.29633 -0.499533,0.29633 -0.1905,0 -0.3429,-0.11006 -0.4445,-0.27093 -0.110067,-0.17357 -0.122767,-0.41487 -0.122767,-0.58843 z"
         style="fill:#ffffff;stroke-width:0.26458332"
         id="path5366"
         inkscape:connector-curvature="0" />
      <path
         d="m 83.773399,194.55475 c 0.148167,-0.0127 0.478367,-0.0127 0.643467,-0.0127 0.173567,0 0.5588,0 0.7112,0.0127 v -0.13123 h -0.1397 c -0.402167,0 -0.402167,-0.055 -0.402167,-0.2032 v -1.0414 h 0.364067 c 0.4064,0 0.448733,0.13546 0.448733,0.4953 h 0.105834 v -1.12184 h -0.105834 c 0,0.3556 -0.04233,0.4953 -0.448733,0.4953 h -0.364067 v -1.07103 c 0,-0.1397 0.0085,-0.16933 0.207434,-0.16933 h 0.508 c 0.635,0 0.740833,0.23706 0.808566,0.82126 h 0.105834 l -0.118534,-0.9525 h -2.3241 v 0.13124 h 0.1016 c 0.325967,0 0.334434,0.0466 0.334434,0.19896 v 2.21827 c 0,0.1524 -0.0085,0.19897 -0.334434,0.19897 h -0.1016 z"
         style="fill:#ffffff;stroke-width:0.26458332"
         id="path5368"
         inkscape:connector-curvature="0" />
      <path
         d="m 86.712787,191.94702 c 0,0.1143 0.09313,0.22436 0.224367,0.22436 0.118533,0 0.224367,-0.0889 0.224367,-0.22436 0,-0.13547 -0.105834,-0.22437 -0.224367,-0.22437 -0.131233,0 -0.224367,0.1143 -0.224367,0.22437 z m -0.177799,2.60773 c 0.135466,-0.004 0.364066,-0.0127 0.465666,-0.0127 0.148167,0 0.296333,0.008 0.440267,0.0127 v -0.13123 c -0.2794,0 -0.296334,-0.0212 -0.296334,-0.18627 v -1.55363 l -0.592666,0.0466 v 0.13124 c 0.275166,0 0.313266,0.0254 0.313266,0.23283 v 1.13877 c 0,0.1905 -0.04657,0.1905 -0.330199,0.1905 z"
         style="fill:#ffffff;stroke-width:0.26458332"
         id="path5370"
         inkscape:connector-curvature="0" />
      <path
         d="m 87.709076,194.55475 c 0.1397,-0.004 0.364067,-0.0127 0.4699,-0.0127 0.105833,0 0.313267,0.008 0.4699,0.0127 v -0.13123 c -0.283633,0 -0.3302,0 -0.3302,-0.1905 v -2.6162 l -0.6096,0.0466 v 0.13124 c 0.296333,0 0.3302,0.0296 0.3302,0.23706 v 2.20134 c 0,0.1905 -0.04657,0.1905 -0.3302,0.1905 z"
         style="fill:#ffffff;stroke-width:0.26458332"
         id="path5372"
         inkscape:connector-curvature="0" />
      <path
         d="m 88.861998,193.62342 c 0,0.56726 0.4445,0.9779 0.931333,0.9779 0.516467,0 0.706967,-0.4699 0.706967,-0.55034 0,-0.0423 -0.03387,-0.0508 -0.05503,-0.0508 -0.0381,0 -0.04657,0.0254 -0.05503,0.0593 -0.148167,0.43603 -0.529167,0.43603 -0.5715,0.43603 -0.211667,0 -0.381,-0.127 -0.478367,-0.28363 -0.127,-0.2032 -0.127,-0.4826 -0.127,-0.635 h 1.1811 c 0.09313,0 0.105834,0 0.105834,-0.0889 0,-0.4191 -0.2286,-0.82973 -0.757767,-0.82973 -0.491067,0 -0.880533,0.43603 -0.880533,0.9652 z m 0.3556,-0.13547 c 0.0254,-0.63077 0.381,-0.7366 0.524933,-0.7366 0.436033,0 0.478367,0.5715 0.478367,0.7366 z"
         style="fill:#ffffff;stroke-width:0.26458332"
         id="path5374"
         inkscape:connector-curvature="0" />
    </g>
  </g>
</svg>
