<?xml version="1.0" encoding="UTF-8" standalone="no"?>
<!-- Created with Inkscape (http://www.inkscape.org/) -->

<svg
   xmlns:dc="http://purl.org/dc/elements/1.1/"
   xmlns:cc="http://creativecommons.org/ns#"
   xmlns:rdf="http://www.w3.org/1999/02/22-rdf-syntax-ns#"
   xmlns:svg="http://www.w3.org/2000/svg"
   xmlns="http://www.w3.org/2000/svg"
   xmlns:sodipodi="http://sodipodi.sourceforge.net/DTD/sodipodi-0.dtd"
   xmlns:inkscape="http://www.inkscape.org/namespaces/inkscape"
   width="135"
   height="380"
   viewBox="0 0 35.718753 100.54167"
   version="1.1"
   id="svg8"
   inkscape:version="0.91 r13725"
   sodipodi:docname="Polyphemus.svg">
  <defs
     id="defs2" />
  <sodipodi:namedview
     id="base"
     pagecolor="#ffffff"
     bordercolor="#666666"
     borderopacity="1.0"
     inkscape:pageopacity="0.0"
     inkscape:pageshadow="2"
     inkscape:zoom="1.4142136"
     inkscape:cx="86.152195"
     inkscape:cy="153.32936"
     inkscape:document-units="px"
     inkscape:current-layer="layer1"
     showgrid="false"
     units="px"
     inkscape:snap-bbox="true"
     inkscape:snap-page="true"
     inkscape:bbox-nodes="true"
     inkscape:snap-bbox-edge-midpoints="true"
     inkscape:window-width="1598"
     inkscape:window-height="880"
     inkscape:window-x="0"
     inkscape:window-y="18"
     inkscape:window-maximized="0"
     showguides="false">
    <inkscape:grid
       type="xygrid"
       id="grid3396" />
    <sodipodi:guide
       position="-14.213064,48.660488"
       orientation="1,0"
       id="guide4573" />
  </sodipodi:namedview>
  <metadata
     id="metadata5">
    <rdf:RDF>
      <cc:Work
         rdf:about="">
        <dc:format>image/svg+xml</dc:format>
        <dc:type
           rdf:resource="http://purl.org/dc/dcmitype/StillImage" />
        <dc:title></dc:title>
      </cc:Work>
    </rdf:RDF>
  </metadata>
  <g
     inkscape:label="Layer 1"
     inkscape:groupmode="layer"
     id="layer1"
     transform="translate(0,-196.45831)">
    <path
       style="opacity:1;fill:#f0f0f0;fill-opacity:1;fill-rule:evenodd;stroke:none;stroke-width:0.48607069;stroke-linecap:butt;stroke-linejoin:round;stroke-miterlimit:4;stroke-dasharray:none;stroke-dashoffset:0;stroke-opacity:1;paint-order:normal"
       d="m 0,196.45831 35.718754,0 0,100.54168 -35.718754,0 z"
       id="rect817"
       inkscape:connector-curvature="0" />
    <rect
       style="fill:#c0c0c0;fill-opacity:1"
       id="rect3379-1"
       width="35.718754"
       height="5.2916675"
       x="0"
       y="201.08852" />
    <text
       xml:space="preserve"
       style="font-style:normal;font-weight:normal;font-size:3.30729222px;line-height:125%;font-family:sans-serif;letter-spacing:0px;word-spacing:0px;fill:#000000;fill-opacity:1;stroke:none;stroke-width:1px;stroke-linecap:butt;stroke-linejoin:miter;stroke-opacity:1"
       x="27.781254"
       y="225.56247"
       id="text3826"
       sodipodi:linespacing="125%"><tspan
         sodipodi:role="line"
         id="tspan3828"
         x="27.781254"
         y="225.56247" /></text>
    <rect
       style="fill:#333333;fill-opacity:1"
       id="rect3787-8-7-4-7-0-6-7"
       width="7.937501"
       height="11.906252"
       x="22.886469"
       y="209.68747"
       ry="1" />
    <ellipse
       style="fill:#c0c0c0;fill-opacity:1;image-rendering:auto"
       id="path4198-8-7-7-6-1-9-2-5-1-5"
       cx="26.855219"
       cy="213.65623"
       rx="3.307292"
       ry="3.3072922" />
    <ellipse
       style="fill:#c0c0c0;fill-opacity:1;image-rendering:auto"
       id="path4198-8-7-7-6-1-9-2-5-1-5-1-1"
       cx="7.937501"
       cy="213.65623"
       rx="3.307292"
       ry="3.3072922" />
    <ellipse
       transform="matrix(0,1,-1,0,0,0)"
       cy="-17.065628"
       cx="213.65623"
       id="path4198-8-7-7-21-9-7-7-6-6-1-7-27"
       style="fill:#c0c0c0;fill-opacity:1"
       rx="5.0270844"
       ry="5.0270839" />
    <g
       style="font-style:normal;font-weight:normal;font-size:3.30729222px;line-height:125%;font-family:sans-serif;letter-spacing:0px;word-spacing:0px;fill:#000000;fill-opacity:1;stroke:none;stroke-width:1px;stroke-linecap:butt;stroke-linejoin:miter;stroke-opacity:1"
       id="text4022">
      <path
         d="m 6.7271418,218.46214 0.2971395,0 0,1.80867 -0.2971395,0 0,-1.80867 z m 0,-0.70409 0.2971395,0 0,0.37627 -0.2971395,0 0,-0.37627 z"
         style=""
         id="path5391" />
      <path
         d="m 9.14786,219.17915 0,1.09166 -0.2971395,0 0,-1.08197 q 0,-0.25677 -0.1001231,-0.38435 -0.1001231,-0.12757 -0.3003693,-0.12757 -0.2406184,0 -0.3794989,0.15341 -0.1388804,0.15342 -0.1388804,0.41826 l 0,1.02222 -0.2987544,0 0,-1.80867 0.2987544,0 0,0.28099 q 0.1065826,-0.16311 0.2503077,-0.24385 0.14534,-0.0807 0.334282,-0.0807 0.3116736,0 0.4715475,0.19378 0.159874,0.19217 0.159874,0.56683 z"
         style=""
         id="path5393" />
    </g>
    <g
       style="font-style:normal;font-weight:normal;font-size:3.30729222px;line-height:125%;font-family:sans-serif;letter-spacing:0px;word-spacing:0px;fill:#ffffff;fill-opacity:1;stroke:none;stroke-width:1px;stroke-linecap:butt;stroke-linejoin:miter;stroke-opacity:1"
       id="text4026">
      <path
         d="m 25.107104,218.62363 q -0.239004,0 -0.377884,0.18733 -0.138881,0.18571 -0.138881,0.5103 0,0.32459 0.137266,0.51192 0.13888,0.18571 0.379499,0.18571 0.237388,0 0.376269,-0.18732 0.13888,-0.18733 0.13888,-0.51031 0,-0.32136 -0.13888,-0.50869 -0.138881,-0.18894 -0.376269,-0.18894 z m 0,-0.25192 q 0.387573,0 0.608813,0.25192 0.221239,0.25192 0.221239,0.69763 0,0.4441 -0.221239,0.69763 -0.22124,0.25193 -0.608813,0.25193 -0.389189,0 -0.610428,-0.25193 -0.219625,-0.25353 -0.219625,-0.69763 0,-0.44571 0.219625,-0.69763 0.221239,-0.25192 0.610428,-0.25192 z"
         style=""
         id="path5384" />
      <path
         d="m 26.3974,219.5102 0,-1.09489 0.297139,0 0,1.08359 q 0,0.25677 0.100123,0.38596 0.100123,0.12757 0.30037,0.12757 0.240618,0 0.379499,-0.15341 0.140495,-0.15342 0.140495,-0.41826 l 0,-1.02545 0.297139,0 0,1.80867 -0.297139,0 0,-0.27776 q -0.108198,0.16472 -0.251923,0.24547 -0.14211,0.0791 -0.331052,0.0791 -0.311674,0 -0.473162,-0.19379 Q 26.3974,219.88324 26.3974,219.5102 Z m 0.747693,-1.13849 0,0 z"
         style=""
         id="path5386" />
      <path
         d="m 28.821348,217.90177 0,0.51354 0.612043,0 0,0.23093 -0.612043,0 0,0.98185 q 0,0.22124 0.05975,0.28422 0.06137,0.063 0.247078,0.063 l 0.305214,0 0,0.24869 -0.305214,0 q -0.343972,0 -0.474778,-0.12757 -0.130806,-0.12919 -0.130806,-0.46832 l 0,-0.98185 -0.21801,0 0,-0.23093 0.21801,0 0,-0.51354 0.298755,0 z"
         style=""
         id="path5388" />
    </g>
    <g
       style="font-style:normal;font-weight:normal;font-size:3.30729222px;line-height:125%;font-family:sans-serif;letter-spacing:0px;word-spacing:0px;fill:#000000;fill-opacity:1;stroke:none;stroke-width:1px;stroke-linecap:butt;stroke-linejoin:miter;stroke-opacity:1"
       id="text4030"
       transform="translate(0,0.52916675)">
      <path
         d="m 15.046209,220.79992 q 0,-0.32298 -0.134036,-0.50062 -0.132421,-0.17763 -0.373039,-0.17763 -0.239004,0 -0.37304,0.17763 -0.132421,0.17764 -0.132421,0.50062 0,0.32136 0.132421,0.499 0.134036,0.17764 0.37304,0.17764 0.240618,0 0.373039,-0.17764 0.134036,-0.17764 0.134036,-0.499 z m 0.297139,0.70086 q 0,0.46186 -0.205091,0.68633 -0.205091,0.22608 -0.628191,0.22608 -0.156645,0 -0.295525,-0.0242 -0.138881,-0.0226 -0.269687,-0.0711 l 0,-0.28906 q 0.130806,0.071 0.258383,0.10497 0.127576,0.0339 0.259997,0.0339 0.292295,0 0.437635,-0.15341 0.14534,-0.1518 0.14534,-0.46025 l 0,-0.14695 q -0.09205,0.15987 -0.235774,0.239 -0.143725,0.0791 -0.343971,0.0791 -0.332668,0 -0.536144,-0.25354 -0.203475,-0.25353 -0.203475,-0.67179 0,-0.41987 0.203475,-0.67341 0.203476,-0.25354 0.536144,-0.25354 0.200246,0 0.343971,0.0791 0.143725,0.0791 0.235774,0.23901 l 0,-0.27454 0.297139,0 0,1.58421 z"
         id="path5375"
         inkscape:connector-curvature="0" />
      <path
         d="m 16.777369,220.81607 q -0.36012,0 -0.499,0.0824 -0.138881,0.0824 -0.138881,0.28099 0,0.15826 0.103353,0.25192 0.104968,0.0921 0.284221,0.0921 0.247078,0 0.395647,-0.17441 0.150185,-0.17602 0.150185,-0.4667 l 0,-0.0662 -0.295525,0 z m 0.592665,-0.12273 0,1.03191 -0.29714,0 0,-0.27453 q -0.101738,0.16472 -0.253537,0.24385 -0.1518,0.0775 -0.371425,0.0775 -0.277761,0 -0.442479,-0.15503 -0.163104,-0.15664 -0.163104,-0.41825 0,-0.30522 0.203476,-0.46025 0.205091,-0.15503 0.610428,-0.15503 l 0.416641,0 0,-0.0291 q 0,-0.20509 -0.135651,-0.31652 -0.134035,-0.11304 -0.377884,-0.11304 -0.155029,0 -0.301984,0.0371 -0.146955,0.0371 -0.282605,0.11143 l 0,-0.27454 q 0.163103,-0.063 0.316518,-0.0937 0.153414,-0.0323 0.298754,-0.0323 0.392418,0 0.586205,0.20348 0.193787,0.20347 0.193787,0.61689 z"
         id="path5377"
         inkscape:connector-curvature="0" />
      <path
         d="m 17.983692,219.91657 0.297139,0 0,1.80868 -0.297139,0 0,-1.80868 z m 0,-0.70409 0.297139,0 0,0.37627 -0.297139,0 0,-0.37627 z"
         id="path5379"
         inkscape:connector-curvature="0" />
      <path
         d="m 20.404409,220.63359 0,1.09166 -0.297139,0 0,-1.08198 q 0,-0.25676 -0.100123,-0.38434 -0.100123,-0.12757 -0.30037,-0.12757 -0.240618,0 -0.379498,0.15341 -0.138881,0.15341 -0.138881,0.41826 l 0,1.02222 -0.298754,0 0,-1.80868 0.298754,0 0,0.281 q 0.106583,-0.16311 0.250308,-0.24385 0.14534,-0.0807 0.334282,-0.0807 0.311673,0 0.471547,0.19379 0.159874,0.19217 0.159874,0.56683 z"
         id="path5381"
         inkscape:connector-curvature="0" />
    </g>
    <ellipse
       style="fill:#c0c0c0;fill-opacity:1;image-rendering:auto"
       id="path4198-8-7-7-6-1-9-2-5-1-5-1-9-3"
       cx="7.937501"
       cy="232.30936"
       rx="3.307292"
       ry="3.3072922" />
    <ellipse
       style="fill:#c0c0c0;fill-opacity:1;image-rendering:auto"
       id="path4198-8-7-7-6-1-9-2-5-1-5-1-9-3-6"
       cx="16.271877"
       cy="232.30936"
       rx="2.6458335"
       ry="2.6458337" />
    <ellipse
       style="fill:#c0c0c0;fill-opacity:1"
       id="path4198-8-7-7-21-9-7-7-6-6-1-7"
       cx="230.32498"
       cy="-26.193752"
       rx="5.0270844"
       ry="5.0270839"
       transform="matrix(0,1,-1,0,0,0)" />
    <ellipse
       style="fill:#c0c0c0;fill-opacity:1;image-rendering:auto"
       id="path4198-8-7-7-6-1-9-2-5-1-5-1-9-3-5"
       cx="7.937501"
       cy="239.71768"
       rx="3.307292"
       ry="3.3072922" />
    <ellipse
       style="fill:#c0c0c0;fill-opacity:1;image-rendering:auto"
       id="path4198-8-7-7-6-1-9-2-5-1-5-1-9-3-6-6"
       cx="16.271877"
       cy="239.71768"
       rx="2.6458335"
       ry="2.6458337" />
    <ellipse
       style="fill:#c0c0c0;fill-opacity:1"
       id="path4198-8-7-7-21-9-7-7-6-6-1-7-2"
       cx="241.70206"
       cy="-26.193752"
       rx="5.0270844"
       ry="5.0270839"
       transform="matrix(0,1,-1,0,0,0)" />
    <rect
       style="fill:none;fill-opacity:1;stroke:#000000;stroke-width:0.24477677;stroke-miterlimit:4;stroke-dasharray:none"
       id="rect4042"
       width="28.859392"
       height="22.24481"
       x="3.2973888"
       y="224.89111"
       ry="2.3603802" />
    <path
       inkscape:connector-curvature="0"
       id="path5362"
       style="font-style:normal;font-weight:normal;font-size:medium;line-height:125%;font-family:sans-serif;letter-spacing:0px;word-spacing:0px;fill:#000000;fill-opacity:1;stroke:none;stroke-width:1px;stroke-linecap:butt;stroke-linejoin:miter;stroke-opacity:1"
       d="m 8.1727585,226.74353 q -0.050062,-0.0291 -0.1098124,-0.042 -0.058136,-0.0145 -0.1291911,-0.0145 -0.2519227,0 -0.3875734,0.16472 -0.1340357,0.1631 -0.1340357,0.46993 l 0,0.95278 -0.2987545,0 0,-1.80867 0.2987545,0 0,0.28099 q 0.093664,-0.16472 0.2438482,-0.24385 0.1501846,-0.0807 0.3649648,-0.0807 0.030683,0 0.067825,0.005 0.037142,0.003 0.082359,0.0113 l 0.00161,0.30521 z" />
    <path
       inkscape:connector-curvature="0"
       id="path5364"
       style="font-style:normal;font-weight:normal;font-size:medium;line-height:125%;font-family:sans-serif;letter-spacing:0px;word-spacing:0px;fill:#000000;fill-opacity:1;stroke:none;stroke-width:1px;stroke-linecap:butt;stroke-linejoin:miter;stroke-opacity:1"
       d="m 9.3096402,227.36526 q -0.3601202,0 -0.4990006,0.0824 -0.1388804,0.0824 -0.1388804,0.28099 0,0.15826 0.1033529,0.25192 0.1049677,0.0921 0.2842204,0.0921 0.247078,0 0.3956477,-0.1744 0.1501847,-0.17603 0.1501847,-0.46671 l 0,-0.0662 -0.2955247,0 z m 0.5926642,-0.12273 0,1.03191 -0.2971395,0 0,-0.27453 q -0.101738,0.16472 -0.2535376,0.24385 -0.1517995,0.0775 -0.3714244,0.0775 -0.2777608,0 -0.4424795,-0.15503 -0.1631038,-0.15665 -0.1631038,-0.41826 0,-0.30521 0.203476,-0.46024 0.2050909,-0.15503 0.610428,-0.15503 l 0.4166413,0 0,-0.0291 q 0,-0.20509 -0.1356507,-0.31652 -0.1340357,-0.11304 -0.3778839,-0.11304 -0.1550294,0 -0.3019842,0.0371 -0.1469549,0.0371 -0.2826056,0.11143 l 0,-0.27453 q 0.1631038,-0.063 0.3165182,-0.0937 0.1534145,-0.0323 0.2987544,-0.0323 0.392418,0 0.5862047,0.20347 0.1937866,0.20348 0.1937866,0.61689 z" />
    <path
       inkscape:connector-curvature="0"
       id="path5366"
       style="font-style:normal;font-weight:normal;font-size:medium;line-height:125%;font-family:sans-serif;letter-spacing:0px;word-spacing:0px;fill:#000000;fill-opacity:1;stroke:none;stroke-width:1px;stroke-linecap:butt;stroke-linejoin:miter;stroke-opacity:1"
       d="m 11.706135,226.7403 0,-0.97862 0.29714,0 0,2.51276 -0.29714,0 0,-0.2713 q -0.09366,0.16149 -0.237389,0.24062 -0.14211,0.0775 -0.342356,0.0775 -0.327822,0 -0.534528,-0.26162 -0.205091,-0.26161 -0.205091,-0.68794 0,-0.42633 0.205091,-0.68794 0.206706,-0.26161 0.534528,-0.26161 0.200246,0 0.342356,0.0791 0.143725,0.0775 0.237389,0.239 z m -1.012535,0.63142 q 0,0.32782 0.134036,0.51515 0.13565,0.18571 0.371424,0.18571 0.235774,0 0.371424,-0.18571 0.135651,-0.18733 0.135651,-0.51515 0,-0.32782 -0.135651,-0.51353 -0.13565,-0.18733 -0.371424,-0.18733 -0.235774,0 -0.371424,0.18733 -0.134036,0.18571 -0.134036,0.51353 z" />
    <path
       inkscape:connector-curvature="0"
       id="path5368"
       style="font-style:normal;font-weight:normal;font-size:medium;line-height:125%;font-family:sans-serif;letter-spacing:0px;word-spacing:0px;fill:#000000;fill-opacity:1;stroke:none;stroke-width:1px;stroke-linecap:butt;stroke-linejoin:miter;stroke-opacity:1"
       d="m 12.615318,226.46577 0.297139,0 0,1.80867 -0.297139,0 0,-1.80867 z m 0,-0.70409 0.297139,0 0,0.37627 -0.297139,0 0,-0.37627 z" />
    <path
       inkscape:connector-curvature="0"
       id="path5370"
       style="font-style:normal;font-weight:normal;font-size:medium;line-height:125%;font-family:sans-serif;letter-spacing:0px;word-spacing:0px;fill:#000000;fill-opacity:1;stroke:none;stroke-width:1px;stroke-linecap:butt;stroke-linejoin:miter;stroke-opacity:1"
       d="m 13.501892,227.56066 0,-1.09489 0.297139,0 0,1.08359 q 0,0.25677 0.100123,0.38596 0.100123,0.12757 0.30037,0.12757 0.240618,0 0.379498,-0.15341 0.140496,-0.15341 0.140496,-0.41826 l 0,-1.02545 0.297139,0 0,1.80867 -0.297139,0 0,-0.27776 q -0.108198,0.16472 -0.251923,0.24547 -0.14211,0.0791 -0.331052,0.0791 -0.311674,0 -0.473162,-0.19379 -0.161489,-0.19379 -0.161489,-0.56683 z m 0.747693,-1.13849 0,0 z" />
    <path
       inkscape:connector-curvature="0"
       id="path5372"
       style="font-style:normal;font-weight:normal;font-size:medium;line-height:125%;font-family:sans-serif;letter-spacing:0px;word-spacing:0px;fill:#000000;fill-opacity:1;stroke:none;stroke-width:1px;stroke-linecap:butt;stroke-linejoin:miter;stroke-opacity:1"
       d="m 16.784961,226.51906 0,0.28099 q -0.125961,-0.0646 -0.261612,-0.0969 -0.135651,-0.0323 -0.280991,-0.0323 -0.22124,0 -0.332667,0.0678 -0.109812,0.0678 -0.109812,0.20347 0,0.10335 0.07913,0.16311 0.07913,0.0581 0.318133,0.11142 l 0.101738,0.0226 q 0.316519,0.0678 0.448939,0.19217 0.134036,0.12273 0.134036,0.34397 0,0.25193 -0.200246,0.39888 -0.198631,0.14696 -0.547447,0.14696 -0.14534,0 -0.303599,-0.0291 -0.156645,-0.0275 -0.331053,-0.084 l 0,-0.30682 q 0.164719,0.0856 0.324593,0.12919 0.159874,0.042 0.316518,0.042 0.209936,0 0.322978,-0.071 0.113042,-0.0727 0.113042,-0.20348 0,-0.12111 -0.08236,-0.18571 -0.08075,-0.0646 -0.356891,-0.12435 l -0.103352,-0.0242 q -0.276146,-0.0581 -0.398878,-0.17764 -0.122732,-0.12111 -0.122732,-0.33105 0,-0.25515 0.180868,-0.39403 0.180868,-0.13888 0.513535,-0.13888 0.164718,0 0.310058,0.0242 0.14534,0.0242 0.268072,0.0727 z" />
    <path
       inkscape:connector-curvature="0"
       id="path5351"
       style="font-style:normal;font-weight:normal;font-size:medium;line-height:125%;font-family:sans-serif;letter-spacing:0px;word-spacing:0px;fill:#000000;fill-opacity:1;stroke:none;stroke-width:1px;stroke-linecap:butt;stroke-linejoin:miter;stroke-opacity:1"
       d="m 8.7761919,245.15771 q -0.3601202,0 -0.4990006,0.0824 -0.1388805,0.0824 -0.1388805,0.28099 0,0.15826 0.1033529,0.25192 0.1049678,0.0921 0.2842204,0.0921 0.247078,0 0.3956478,-0.1744 0.1501846,-0.17603 0.1501846,-0.46671 l 0,-0.0662 -0.2955246,0 z m 0.5926642,-0.12273 0,1.03191 -0.2971396,0 0,-0.27453 q -0.1017379,0.16472 -0.2535375,0.24385 -0.1517995,0.0775 -0.3714244,0.0775 -0.2777609,0 -0.4424795,-0.15503 -0.1631038,-0.15665 -0.1631038,-0.41826 0,-0.30521 0.203476,-0.46024 0.2050909,-0.15503 0.6104279,-0.15503 l 0.4166413,0 0,-0.0291 q 0,-0.20509 -0.1356506,-0.31652 -0.1340358,-0.11304 -0.377884,-0.11304 -0.1550293,0 -0.3019842,0.0371 -0.1469549,0.0371 -0.2826055,0.11143 l 0,-0.27453 q 0.1631037,-0.063 0.3165182,-0.0937 0.1534144,-0.0323 0.2987544,-0.0323 0.392418,0 0.5862046,0.20347 0.1937867,0.20348 0.1937867,0.61689 z" />
    <path
       inkscape:connector-curvature="0"
       id="path5353"
       style="font-style:normal;font-weight:normal;font-size:medium;line-height:125%;font-family:sans-serif;letter-spacing:0px;word-spacing:0px;fill:#000000;fill-opacity:1;stroke:none;stroke-width:1px;stroke-linecap:butt;stroke-linejoin:miter;stroke-opacity:1"
       d="m 11.485975,244.97523 0,1.09166 -0.297139,0 0,-1.08197 q 0,-0.25677 -0.100123,-0.38434 -0.100123,-0.12758 -0.30037,-0.12758 -0.240618,0 -0.379499,0.15341 -0.13888,0.15342 -0.13888,0.41826 l 0,1.02222 -0.2987544,0 0,-1.80867 0.2987544,0 0,0.28099 q 0.106583,-0.1631 0.250308,-0.24385 0.14534,-0.0807 0.334282,-0.0807 0.311673,0 0.471547,0.19378 0.159874,0.19218 0.159874,0.56683 z" />
    <path
       inkscape:connector-curvature="0"
       id="path5355"
       style="font-style:normal;font-weight:normal;font-size:medium;line-height:125%;font-family:sans-serif;letter-spacing:0px;word-spacing:0px;fill:#000000;fill-opacity:1;stroke:none;stroke-width:1px;stroke-linecap:butt;stroke-linejoin:miter;stroke-opacity:1"
       d="m 13.272043,245.14156 q 0,-0.32297 -0.134036,-0.50061 -0.132421,-0.17764 -0.37304,-0.17764 -0.239003,0 -0.373039,0.17764 -0.132421,0.17764 -0.132421,0.50061 0,0.32137 0.132421,0.499 0.134036,0.17764 0.373039,0.17764 0.240619,0 0.37304,-0.17764 0.134036,-0.17763 0.134036,-0.499 z m 0.297139,0.70086 q 0,0.46186 -0.205091,0.68633 -0.205091,0.22609 -0.628192,0.22609 -0.156644,0 -0.295524,-0.0242 -0.138881,-0.0226 -0.269687,-0.0711 l 0,-0.28907 q 0.130806,0.0711 0.258383,0.10497 0.127576,0.0339 0.259997,0.0339 0.292295,0 0.437635,-0.15341 0.14534,-0.1518 0.14534,-0.46024 l 0,-0.14696 q -0.09205,0.15988 -0.235774,0.239 -0.143725,0.0791 -0.343972,0.0791 -0.332667,0 -0.536143,-0.25353 -0.203476,-0.25354 -0.203476,-0.6718 0,-0.41987 0.203476,-0.67341 0.203476,-0.25353 0.536143,-0.25353 0.200247,0 0.343972,0.0791 0.143725,0.0791 0.235774,0.239 l 0,-0.27453 0.297139,0 0,1.5842 z" />
    <path
       inkscape:connector-curvature="0"
       id="path5357"
       style="font-style:normal;font-weight:normal;font-size:medium;line-height:125%;font-family:sans-serif;letter-spacing:0px;word-spacing:0px;fill:#000000;fill-opacity:1;stroke:none;stroke-width:1px;stroke-linecap:butt;stroke-linejoin:miter;stroke-opacity:1"
       d="m 14.181225,243.55413 0.297139,0 0,2.51276 -0.297139,0 0,-2.51276 z" />
    <path
       inkscape:connector-curvature="0"
       id="path5359"
       style="font-style:normal;font-weight:normal;font-size:medium;line-height:125%;font-family:sans-serif;letter-spacing:0px;word-spacing:0px;fill:#000000;fill-opacity:1;stroke:none;stroke-width:1px;stroke-linecap:butt;stroke-linejoin:miter;stroke-opacity:1"
       d="m 16.645545,245.08827 0,0.14534 -1.366196,0 q 0.01938,0.30683 0.184097,0.46832 0.166334,0.15987 0.461859,0.15987 0.171178,0 0.331052,-0.042 0.161489,-0.042 0.319748,-0.12596 l 0,0.28099 q -0.159874,0.0678 -0.327823,0.10335 -0.167948,0.0355 -0.340741,0.0355 -0.43279,0 -0.686328,-0.25193 -0.251923,-0.25192 -0.251923,-0.68148 0,-0.44409 0.239004,-0.70409 0.240618,-0.26161 0.64757,-0.26161 0.364965,0 0.576516,0.23577 0.213165,0.23416 0.213165,0.63788 z m -0.29714,-0.0872 q -0.0032,-0.24385 -0.137265,-0.38919 -0.132421,-0.14534 -0.352046,-0.14534 -0.248693,0 -0.398877,0.1405 -0.14857,0.14049 -0.171179,0.39564 l 1.059367,-0.002 z" />
    <g
       style="font-style:normal;font-variant:normal;font-weight:500;font-stretch:normal;font-size:3.30729222px;line-height:125%;font-family:'CMU Serif';-inkscape-font-specification:'CMU Serif Medium';letter-spacing:0px;word-spacing:0px;fill:#000000;fill-opacity:1;stroke:none;stroke-width:1px;stroke-linecap:butt;stroke-linejoin:miter;stroke-opacity:1"
       id="text5189">
      <path
         d="m 9.2668764,204.54781 0,-0.10253 0.079375,0 q 0.1785938,0 0.2182813,-0.0298 0.042995,-0.0298 0.042995,-0.12567 l 0,-1.74295 q 0,-0.0959 -0.042995,-0.12567 -0.039688,-0.0298 -0.2182813,-0.0298 l -0.079375,0 0,-0.10252 1.1674746,0 q 0.334036,0 0.555625,0.1852 0.224895,0.1819 0.224895,0.42995 0,0.24474 -0.228203,0.42333 -0.224896,0.17529 -0.525859,0.17529 l -0.5589325,0 0,0.78714 q 0,0.0959 0.039687,0.12567 0.042995,0.0298 0.221589,0.0298 l 0.07938,0 0,0.10253 q -0.115756,-0.01 -0.4894797,-0.01 -0.3704167,0 -0.4861719,0.01 z m 0.6250782,-1.1311 0.4564064,0 q 0.148828,0 0.254661,-0.0397 0.109141,-0.043 0.15875,-0.0926 0.04961,-0.0529 0.07607,-0.1356 0.02977,-0.0827 0.03307,-0.12898 0.0033,-0.0463 0.0033,-0.11576 0,-0.0728 -0.0033,-0.11906 -0.0033,-0.0463 -0.03307,-0.12899 -0.02646,-0.0827 -0.07607,-0.13229 -0.04961,-0.0529 -0.15875,-0.0926 -0.105833,-0.0397 -0.254661,-0.0397 l -0.294349,0 q -0.112448,0 -0.1389064,0.0232 -0.023151,0.0231 -0.023151,0.10914 l 0,0.89297 z"
         style=""
         id="path5396" />
      <path
         d="m 11.619498,204.36921 q -0.218281,-0.21497 -0.218281,-0.52916 0,-0.3142 0.211666,-0.5424 0.214974,-0.23151 0.522553,-0.23151 0.300963,0 0.515937,0.2282 0.214974,0.22821 0.214974,0.54571 0,0.31088 -0.218281,0.52916 -0.214974,0.21498 -0.515938,0.21498 -0.294349,0 -0.51263,-0.21498 z m 0.05622,-0.55562 q 0,0.3208 0.08268,0.46633 0.128985,0.22158 0.377032,0.22158 0.122369,0 0.224896,-0.0661 0.102526,-0.0661 0.15875,-0.1786 0.07276,-0.14552 0.07276,-0.44317 0,-0.3175 -0.08599,-0.45972 -0.128984,-0.21497 -0.373724,-0.21497 -0.105833,0 -0.211666,0.0562 -0.102526,0.0562 -0.165365,0.16537 -0.07937,0.14552 -0.07937,0.4531 z"
         style=""
         id="path5398" />
      <path
         d="m 13.071399,204.54781 0,-0.10253 q 0.175287,0 0.214974,-0.0198 0.043,-0.0232 0.043,-0.12899 l 0,-1.71979 q 0,-0.12237 -0.043,-0.15214 -0.04299,-0.0331 -0.214974,-0.0331 l 0,-0.10252 0.476251,-0.0364 0,2.04391 q 0,0.10583 0.03969,0.12899 0.04299,0.0198 0.218281,0.0198 l 0,0.10253 q -0.03969,0 -0.125677,-0.003 -0.08268,-0.003 -0.145521,-0.003 -0.05953,-0.003 -0.09591,-0.003 -0.03969,0 -0.36711,0.01 z"
         style=""
         id="path5400" />
      <path
         d="m 13.942354,204.95791 q 0,-0.0694 0.03969,-0.10583 0.04299,-0.0364 0.09922,-0.0364 0.05953,0 0.09922,0.0364 0.03969,0.0397 0.03969,0.10252 0,0.12237 -0.128985,0.13891 0.06284,0.0595 0.155443,0.0595 0.09922,0 0.178594,-0.0728 0.07938,-0.0728 0.112448,-0.14221 0.03638,-0.0695 0.08599,-0.19513 0.0463,-0.0992 0.08268,-0.19513 l -0.496094,-1.20717 q -0.03307,-0.0794 -0.08268,-0.0959 -0.04961,-0.0198 -0.185209,-0.0198 l 0,-0.10253 q 0.148828,0.01 0.320808,0.01 0.102526,0 0.360494,-0.01 l 0,0.10253 q -0.185208,0 -0.185208,0.086 0,0.01 0.01984,0.0595 l 0.367109,0.88966 0.334037,-0.81359 q 0.01984,-0.0463 0.01984,-0.0794 0,-0.1356 -0.155442,-0.14221 l 0,-0.10253 q 0.218281,0.01 0.287734,0.01 0.135599,0 0.248047,-0.01 l 0,0.10253 q -0.221588,0 -0.307578,0.21167 l -0.582084,1.41221 q -0.15875,0.37703 -0.423333,0.37703 -0.125677,0 -0.214974,-0.0794 -0.0893,-0.0761 -0.0893,-0.18852 z"
         style=""
         id="path5402" />
      <path
         d="m 15.716199,205.08689 q 0.175287,0 0.214974,-0.0232 0.043,-0.0198 0.043,-0.12567 l 0,-1.54782 q 0,-0.10914 -0.043,-0.1356 -0.03969,-0.0298 -0.214974,-0.0298 l 0,-0.10253 0.476251,-0.0364 0,0.21828 q 0.198437,-0.21828 0.46302,-0.21828 0.28112,0 0.486172,0.21828 0.205052,0.21829 0.205052,0.52917 0,0.31419 -0.218281,0.53247 -0.218281,0.21829 -0.519245,0.21829 -0.165364,0 -0.277812,-0.0827 -0.109141,-0.086 -0.128985,-0.14882 l 0,0.0298 0,0.55563 q 0,0.10583 0.03969,0.12567 0.04299,0.0232 0.218281,0.0232 l 0,0.10253 q -0.347266,-0.01 -0.373724,-0.01 -0.03307,0 -0.370417,0.01 l 0,-0.10253 z m 0.486172,-0.91612 q 0,0.0496 0.0066,0.0695 0.0066,0.0165 0.03969,0.0694 0.132292,0.20175 0.347266,0.20175 0.188516,0 0.330729,-0.19183 0.145521,-0.19513 0.145521,-0.48617 0,-0.27781 -0.132291,-0.46963 -0.128985,-0.19514 -0.310886,-0.19514 -0.128984,0 -0.241432,0.0695 -0.112448,0.0694 -0.185209,0.19513 l 0,0.73752 z"
         style=""
         id="path5404" />
      <path
         d="m 17.563942,204.54781 0,-0.10253 q 0.175287,0 0.214974,-0.0198 0.043,-0.0232 0.043,-0.12899 l 0,-1.71979 q 0,-0.12237 -0.043,-0.15214 -0.04299,-0.0331 -0.214974,-0.0331 l 0,-0.10252 0.47625,-0.0364 0,1.15094 0.0033,0 q 0.05292,-0.11906 0.171979,-0.21828 0.119062,-0.0992 0.304271,-0.0992 0.248047,0 0.347265,0.12237 0.07276,0.0827 0.08599,0.17529 0.01654,0.0926 0.01654,0.33073 l 0,0.63169 q 0.0033,0.0695 0.05622,0.086 0.05292,0.0132 0.201745,0.0132 l 0,0.10253 q -0.337344,-0.01 -0.370416,-0.01 -0.02646,0 -0.373725,0.01 l 0,-0.10253 q 0.175287,0 0.214974,-0.0198 0.04299,-0.0232 0.04299,-0.12899 l 0,-0.7706 q 0,-0.16867 -0.05292,-0.26789 -0.04961,-0.0992 -0.191823,-0.0992 -0.17198,0 -0.310886,0.14552 -0.135599,0.14222 -0.135599,0.38365 l 0,0.60854 q 0,0.10583 0.03969,0.12899 0.043,0.0198 0.218281,0.0198 l 0,0.10253 q -0.337344,-0.01 -0.370417,-0.01 -0.02646,0 -0.373724,0.01 z"
         style=""
         id="path5406" />
      <path
         d="m 19.385227,203.8202 q 0,-0.31088 0.198437,-0.53247 0.201745,-0.22159 0.48948,-0.22159 0.291041,0 0.439869,0.18851 0.152136,0.18852 0.152136,0.45972 0,0.0496 -0.01323,0.0595 -0.01323,0.01 -0.06945,0.01 l -0.922735,0 q 0,0.33735 0.09922,0.4961 0.138906,0.22158 0.373724,0.22158 0.03307,0 0.06945,-0.007 0.03969,-0.007 0.119062,-0.0331 0.07937,-0.0298 0.148829,-0.10584 0.06945,-0.0761 0.10914,-0.19513 0.0099,-0.0463 0.04299,-0.0463 0.043,0 0.043,0.0397 0,0.0298 -0.03307,0.0959 -0.02977,0.0628 -0.0893,0.14221 -0.05953,0.0761 -0.175286,0.1356 -0.115756,0.0562 -0.254662,0.0562 -0.291042,0 -0.509323,-0.21829 -0.218281,-0.22158 -0.218281,-0.5457 z m 0.277812,-0.10583 0.783829,0 q 0,-0.0694 -0.01323,-0.14552 -0.0099,-0.0794 -0.0463,-0.18521 -0.03307,-0.10914 -0.115755,-0.17529 -0.07938,-0.0694 -0.198437,-0.0694 -0.05292,0 -0.112448,0.0231 -0.05622,0.0232 -0.125678,0.0794 -0.06945,0.0529 -0.119062,0.17859 -0.0463,0.12237 -0.05292,0.29435 z"
         style=""
         id="path5408" />
      <path
         d="m 20.864775,204.54781 0,-0.10253 q 0.175286,0 0.214974,-0.0198 0.043,-0.0232 0.043,-0.12899 l 0,-0.88635 q 0,-0.12237 -0.043,-0.15214 -0.043,-0.0331 -0.214974,-0.0331 l 0,-0.10253 0.466328,-0.0364 0,0.34727 q 0.155443,-0.34727 0.489479,-0.34727 0.386954,0 0.43987,0.32412 0.05622,-0.12568 0.175287,-0.2249 0.119062,-0.0992 0.304271,-0.0992 0.248047,0 0.347265,0.12237 0.07276,0.0827 0.08599,0.17529 0.01654,0.0926 0.01654,0.33073 l 0,0.63169 q 0.0033,0.0695 0.05622,0.086 0.05292,0.0132 0.201745,0.0132 l 0,0.10253 q -0.337344,-0.01 -0.370417,-0.01 -0.02646,0 -0.373724,0.01 l 0,-0.10253 q 0.175287,0 0.214974,-0.0198 0.04299,-0.0232 0.04299,-0.12899 l 0,-0.7706 q 0,-0.16867 -0.05292,-0.26789 -0.04961,-0.0992 -0.191823,-0.0992 -0.17198,0 -0.310886,0.14552 -0.135599,0.14222 -0.135599,0.38365 l 0,0.60854 q 0,0.10583 0.03969,0.12899 0.043,0.0198 0.218281,0.0198 l 0,0.10253 q -0.337344,-0.01 -0.370417,-0.01 -0.02646,0 -0.373724,0.01 l 0,-0.10253 q 0.175287,0 0.214974,-0.0198 0.043,-0.0232 0.043,-0.12899 l 0,-0.7706 q 0,-0.16867 -0.05292,-0.26789 -0.04961,-0.0992 -0.191823,-0.0992 -0.171979,0 -0.310885,0.14552 -0.135599,0.14222 -0.135599,0.38365 l 0,0.60854 q 0,0.10583 0.03969,0.12899 0.043,0.0198 0.218282,0.0198 l 0,0.10253 q -0.337344,-0.01 -0.370417,-0.01 -0.02646,0 -0.373724,0.01 z"
         style=""
         id="path5410" />
      <path
         d="m 23.532571,203.22489 0,-0.10253 0.486172,-0.0364 0,1.09802 q 0,0.0794 0.0066,0.12568 0.0066,0.0463 0.03307,0.0992 0.02646,0.0529 0.0893,0.0794 0.06284,0.0232 0.162058,0.0232 0.178594,0 0.287734,-0.14553 0.112448,-0.14882 0.112448,-0.3671 l 0,-0.5887 q 0,-0.12237 -0.04299,-0.15214 -0.04299,-0.0331 -0.214974,-0.0331 l 0,-0.10253 0.486172,-0.0364 0,1.17409 q 0,0.12237 0.043,0.15544 0.04299,0.0298 0.214974,0.0298 l 0,0.10253 -0.47625,0.0364 0,-0.29766 q -0.138906,0.29766 -0.426641,0.29766 -0.145521,0 -0.244739,-0.0364 -0.09922,-0.0364 -0.148828,-0.0827 -0.04961,-0.0463 -0.07607,-0.1356 -0.02646,-0.0893 -0.02977,-0.14221 -0.0033,-0.0562 -0.0033,-0.16206 l 0,-0.49609 q 0,-0.2249 -0.03307,-0.26458 -0.03307,-0.0397 -0.224896,-0.0397 z"
         style=""
         id="path5412" />
      <path
         d="m 25.370392,204.50481 0,-0.43656 q 0,-0.0364 0,-0.0496 0.0033,-0.0132 0.01323,-0.0232 0.0099,-0.01 0.02977,-0.01 0.02315,0 0.02977,0.01 0.0099,0.01 0.01654,0.0463 0.04961,0.2282 0.155443,0.35057 0.10914,0.11907 0.304271,0.11907 0.185208,0 0.277812,-0.0827 0.09591,-0.0827 0.09591,-0.21828 0,-0.24143 -0.343959,-0.30427 -0.198437,-0.0397 -0.28112,-0.0661 -0.08268,-0.0265 -0.155442,-0.086 -0.142214,-0.11576 -0.142214,-0.28112 0,-0.16537 0.125677,-0.28443 0.125677,-0.12237 0.40349,-0.12237 0.185208,0 0.310885,0.0926 0.03638,-0.0298 0.05622,-0.0529 0.043,-0.0397 0.06615,-0.0397 0.02646,0 0.02977,0.0165 0.0066,0.0165 0.0066,0.0628 l 0,0.33404 q 0,0.0364 -0.0033,0.0496 0,0.0132 -0.0099,0.0232 -0.0099,0.007 -0.02977,0.007 -0.03638,0 -0.03969,-0.0298 -0.02646,-0.40018 -0.386953,-0.40018 -0.19513,0 -0.284427,0.0761 -0.08599,0.0728 -0.08599,0.17528 0,0.0562 0.02646,0.0992 0.02646,0.043 0.05953,0.0695 0.03638,0.0231 0.09922,0.0463 0.06615,0.0231 0.105834,0.0331 0.03969,0.007 0.115755,0.0232 0.264583,0.0496 0.377031,0.15875 0.138907,0.13891 0.138907,0.31419 0,0.19513 -0.132292,0.32742 -0.132292,0.1323 -0.400182,0.1323 -0.214974,0 -0.363803,-0.14222 -0.01984,0.0198 -0.03638,0.0364 -0.01323,0.0165 -0.01984,0.0231 -0.0033,0.007 -0.0066,0.01 0,0.003 -0.0033,0.007 -0.06615,0.0661 -0.08268,0.0661 -0.02646,0 -0.03307,-0.0165 -0.0033,-0.0165 -0.0033,-0.0628 z"
         style=""
         id="path5414" />
    </g>
    <ellipse
       style="fill:#c0c0c0;fill-opacity:1;image-rendering:auto"
       id="path4198-8-7-7-6-1-9-2-5-1-5-1-9-3-3"
       cx="7.937501"
       cy="254.79895"
       rx="3.307292"
       ry="3.3072922" />
    <ellipse
       style="fill:#c0c0c0;fill-opacity:1;image-rendering:auto"
       id="path4198-8-7-7-6-1-9-2-5-1-5-1-9-3-6-0"
       cx="16.271877"
       cy="254.79895"
       rx="2.6458335"
       ry="2.6458337" />
    <ellipse
       style="fill:#c0c0c0;fill-opacity:1"
       id="path4198-8-7-7-21-9-7-7-6-6-1-7-3"
       cx="252.81458"
       cy="-26.193752"
       rx="5.0270844"
       ry="5.0270839"
       transform="matrix(0,1,-1,0,0,0)" />
    <ellipse
       style="fill:#c0c0c0;fill-opacity:1;image-rendering:auto"
       id="path4198-8-7-7-6-1-9-2-5-1-5-1-9-3-5-3"
       cx="7.937501"
       cy="262.20728"
       rx="3.307292"
       ry="3.3072922" />
    <ellipse
       style="fill:#c0c0c0;fill-opacity:1;image-rendering:auto"
       id="path4198-8-7-7-6-1-9-2-5-1-5-1-9-3-6-6-7"
       cx="16.271877"
       cy="262.20728"
       rx="2.6458335"
       ry="2.6458337" />
    <ellipse
       style="fill:#c0c0c0;fill-opacity:1"
       id="path4198-8-7-7-21-9-7-7-6-6-1-7-2-9"
       cx="264.19165"
       cy="-26.193752"
       rx="5.0270844"
       ry="5.0270839"
       transform="matrix(0,1,-1,0,0,0)" />
    <rect
       style="fill:none;fill-opacity:1;stroke:#000000;stroke-width:0.24477677;stroke-miterlimit:4;stroke-dasharray:none"
       id="rect4042-4"
       width="28.859392"
       height="22.24481"
       x="3.2973888"
       y="247.38071"
       ry="2.3603802" />
    <path
       inkscape:connector-curvature="0"
       id="path5338"
       style="font-style:normal;font-weight:normal;font-size:medium;line-height:125%;font-family:sans-serif;letter-spacing:0px;word-spacing:0px;fill:#000000;fill-opacity:1;stroke:none;stroke-width:1px;stroke-linecap:butt;stroke-linejoin:miter;stroke-opacity:1"
       d="m 8.1727585,249.23312 q -0.050062,-0.0291 -0.1098124,-0.042 -0.058136,-0.0145 -0.1291911,-0.0145 -0.2519227,0 -0.3875734,0.16472 -0.1340357,0.1631 -0.1340357,0.46993 l 0,0.95279 -0.2987545,0 0,-1.80868 0.2987545,0 0,0.28099 q 0.093664,-0.16472 0.2438482,-0.24384 0.1501846,-0.0808 0.3649648,-0.0808 0.030683,0 0.067825,0.005 0.037142,0.003 0.082359,0.0113 l 0.00161,0.30521 z" />
    <path
       inkscape:connector-curvature="0"
       id="path5340"
       style="font-style:normal;font-weight:normal;font-size:medium;line-height:125%;font-family:sans-serif;letter-spacing:0px;word-spacing:0px;fill:#000000;fill-opacity:1;stroke:none;stroke-width:1px;stroke-linecap:butt;stroke-linejoin:miter;stroke-opacity:1"
       d="m 9.3096402,249.85486 q -0.3601202,0 -0.4990006,0.0824 -0.1388804,0.0823 -0.1388804,0.28099 0,0.15825 0.1033529,0.25192 0.1049677,0.0921 0.2842204,0.0921 0.247078,0 0.3956477,-0.17441 0.1501847,-0.17602 0.1501847,-0.4667 l 0,-0.0662 -0.2955247,0 z m 0.5926642,-0.12274 0,1.03192 -0.2971395,0 0,-0.27453 q -0.101738,0.16472 -0.2535376,0.24385 -0.1517995,0.0775 -0.3714244,0.0775 -0.2777608,0 -0.4424795,-0.15503 -0.1631038,-0.15664 -0.1631038,-0.41826 0,-0.30521 0.203476,-0.46024 0.2050909,-0.15503 0.610428,-0.15503 l 0.4166413,0 0,-0.0291 q 0,-0.20509 -0.1356507,-0.31651 -0.1340357,-0.11305 -0.3778839,-0.11305 -0.1550294,0 -0.3019842,0.0371 -0.1469549,0.0371 -0.2826056,0.11142 l 0,-0.27453 q 0.1631038,-0.063 0.3165182,-0.0937 0.1534145,-0.0323 0.2987544,-0.0323 0.392418,0 0.5862047,0.20348 0.1937866,0.20347 0.1937866,0.61688 z" />
    <path
       inkscape:connector-curvature="0"
       id="path5342"
       style="font-style:normal;font-weight:normal;font-size:medium;line-height:125%;font-family:sans-serif;letter-spacing:0px;word-spacing:0px;fill:#000000;fill-opacity:1;stroke:none;stroke-width:1px;stroke-linecap:butt;stroke-linejoin:miter;stroke-opacity:1"
       d="m 11.706135,249.22989 0,-0.97862 0.29714,0 0,2.51277 -0.29714,0 0,-0.2713 q -0.09366,0.16149 -0.237389,0.24062 -0.14211,0.0775 -0.342356,0.0775 -0.327822,0 -0.534528,-0.26161 -0.205091,-0.26161 -0.205091,-0.68794 0,-0.42634 0.205091,-0.68795 0.206706,-0.26161 0.534528,-0.26161 0.200246,0 0.342356,0.0791 0.143725,0.0775 0.237389,0.239 z m -1.012535,0.63143 q 0,0.32782 0.134036,0.51514 0.13565,0.18572 0.371424,0.18572 0.235774,0 0.371424,-0.18572 0.135651,-0.18732 0.135651,-0.51514 0,-0.32783 -0.135651,-0.51354 -0.13565,-0.18733 -0.371424,-0.18733 -0.235774,0 -0.371424,0.18733 -0.134036,0.18571 -0.134036,0.51354 z" />
    <path
       inkscape:connector-curvature="0"
       id="path5344"
       style="font-style:normal;font-weight:normal;font-size:medium;line-height:125%;font-family:sans-serif;letter-spacing:0px;word-spacing:0px;fill:#000000;fill-opacity:1;stroke:none;stroke-width:1px;stroke-linecap:butt;stroke-linejoin:miter;stroke-opacity:1"
       d="m 12.615318,248.95536 0.297139,0 0,1.80868 -0.297139,0 0,-1.80868 z m 0,-0.70409 0.297139,0 0,0.37627 -0.297139,0 0,-0.37627 z" />
    <path
       inkscape:connector-curvature="0"
       id="path5346"
       style="font-style:normal;font-weight:normal;font-size:medium;line-height:125%;font-family:sans-serif;letter-spacing:0px;word-spacing:0px;fill:#000000;fill-opacity:1;stroke:none;stroke-width:1px;stroke-linecap:butt;stroke-linejoin:miter;stroke-opacity:1"
       d="m 13.501892,250.05026 0,-1.0949 0.297139,0 0,1.08359 q 0,0.25677 0.100123,0.38596 0.100123,0.12758 0.30037,0.12758 0.240618,0 0.379498,-0.15342 0.140496,-0.15341 0.140496,-0.41825 l 0,-1.02546 0.297139,0 0,1.80868 -0.297139,0 0,-0.27776 q -0.108198,0.16472 -0.251923,0.24546 -0.14211,0.0791 -0.331052,0.0791 -0.311674,0 -0.473162,-0.19379 -0.161489,-0.19378 -0.161489,-0.56682 z m 0.747693,-1.1385 0,0 z" />
    <path
       inkscape:connector-curvature="0"
       id="path5348"
       style="font-style:normal;font-weight:normal;font-size:medium;line-height:125%;font-family:sans-serif;letter-spacing:0px;word-spacing:0px;fill:#000000;fill-opacity:1;stroke:none;stroke-width:1px;stroke-linecap:butt;stroke-linejoin:miter;stroke-opacity:1"
       d="m 16.784961,249.00865 0,0.28099 q -0.125961,-0.0646 -0.261612,-0.0969 -0.135651,-0.0323 -0.280991,-0.0323 -0.22124,0 -0.332667,0.0678 -0.109812,0.0678 -0.109812,0.20347 0,0.10336 0.07913,0.16311 0.07913,0.0581 0.318133,0.11143 l 0.101738,0.0226 q 0.316519,0.0678 0.448939,0.19218 0.134036,0.12273 0.134036,0.34397 0,0.25192 -0.200246,0.39887 -0.198631,0.14696 -0.547447,0.14696 -0.14534,0 -0.303599,-0.0291 -0.156645,-0.0275 -0.331053,-0.084 l 0,-0.30683 q 0.164719,0.0856 0.324593,0.12919 0.159874,0.042 0.316518,0.042 0.209936,0 0.322978,-0.0711 0.113042,-0.0727 0.113042,-0.20347 0,-0.12112 -0.08236,-0.18572 -0.08075,-0.0646 -0.356891,-0.12434 l -0.103352,-0.0242 q -0.276146,-0.0581 -0.398878,-0.17763 -0.122732,-0.12112 -0.122732,-0.33106 0,-0.25515 0.180868,-0.39403 0.180868,-0.13888 0.513535,-0.13888 0.164718,0 0.310058,0.0242 0.14534,0.0242 0.268072,0.0727 z" />
    <path
       inkscape:connector-curvature="0"
       id="path5327"
       style="font-style:normal;font-weight:normal;font-size:medium;line-height:125%;font-family:sans-serif;letter-spacing:0px;word-spacing:0px;fill:#000000;fill-opacity:1;stroke:none;stroke-width:1px;stroke-linecap:butt;stroke-linejoin:miter;stroke-opacity:1"
       d="m 8.7761919,267.64731 q -0.3601202,0 -0.4990006,0.0824 -0.1388805,0.0824 -0.1388805,0.281 0,0.15825 0.1033529,0.25192 0.1049678,0.092 0.2842204,0.092 0.247078,0 0.3956478,-0.17441 0.1501846,-0.17602 0.1501846,-0.4667 l 0,-0.0662 -0.2955246,0 z m 0.5926642,-0.12274 0,1.03192 -0.2971396,0 0,-0.27453 q -0.1017379,0.16472 -0.2535375,0.24385 -0.1517995,0.0775 -0.3714244,0.0775 -0.2777609,0 -0.4424795,-0.15503 -0.1631038,-0.15664 -0.1631038,-0.41826 0,-0.30521 0.203476,-0.46024 0.2050909,-0.15503 0.6104279,-0.15503 l 0.4166413,0 0,-0.0291 q 0,-0.20509 -0.1356506,-0.31651 -0.1340358,-0.11305 -0.377884,-0.11305 -0.1550293,0 -0.3019842,0.0372 -0.1469549,0.0371 -0.2826055,0.11142 l 0,-0.27453 q 0.1631037,-0.063 0.3165182,-0.0937 0.1534144,-0.0323 0.2987544,-0.0323 0.392418,0 0.5862046,0.20348 0.1937867,0.20347 0.1937867,0.61688 z" />
    <path
       inkscape:connector-curvature="0"
       id="path5329"
       style="font-style:normal;font-weight:normal;font-size:medium;line-height:125%;font-family:sans-serif;letter-spacing:0px;word-spacing:0px;fill:#000000;fill-opacity:1;stroke:none;stroke-width:1px;stroke-linecap:butt;stroke-linejoin:miter;stroke-opacity:1"
       d="m 11.485975,267.46482 0,1.09167 -0.297139,0 0,-1.08198 q 0,-0.25676 -0.100123,-0.38434 -0.100123,-0.12758 -0.30037,-0.12758 -0.240618,0 -0.379499,0.15342 -0.13888,0.15341 -0.13888,0.41825 l 0,1.02223 -0.2987544,0 0,-1.80868 0.2987544,0 0,0.28099 q 0.106583,-0.1631 0.250308,-0.24384 0.14534,-0.0808 0.334282,-0.0808 0.311673,0 0.471547,0.19379 0.159874,0.19217 0.159874,0.56682 z" />
    <path
       inkscape:connector-curvature="0"
       id="path5331"
       style="font-style:normal;font-weight:normal;font-size:medium;line-height:125%;font-family:sans-serif;letter-spacing:0px;word-spacing:0px;fill:#000000;fill-opacity:1;stroke:none;stroke-width:1px;stroke-linecap:butt;stroke-linejoin:miter;stroke-opacity:1"
       d="m 13.272043,267.63116 q 0,-0.32298 -0.134036,-0.50062 -0.132421,-0.17764 -0.37304,-0.17764 -0.239003,0 -0.373039,0.17764 -0.132421,0.17764 -0.132421,0.50062 0,0.32136 0.132421,0.499 0.134036,0.17764 0.373039,0.17764 0.240619,0 0.37304,-0.17764 0.134036,-0.17764 0.134036,-0.499 z m 0.297139,0.70086 q 0,0.46186 -0.205091,0.68633 -0.205091,0.22608 -0.628192,0.22608 -0.156644,0 -0.295524,-0.0242 -0.138881,-0.0226 -0.269687,-0.0711 l 0,-0.28906 q 0.130806,0.0711 0.258383,0.10496 0.127576,0.0339 0.259997,0.0339 0.292295,0 0.437635,-0.15342 0.14534,-0.1518 0.14534,-0.46024 l 0,-0.14696 q -0.09205,0.15988 -0.235774,0.23901 -0.143725,0.0791 -0.343972,0.0791 -0.332667,0 -0.536143,-0.25354 -0.203476,-0.25354 -0.203476,-0.67179 0,-0.41987 0.203476,-0.67341 0.203476,-0.25354 0.536143,-0.25354 0.200247,0 0.343972,0.0791 0.143725,0.0791 0.235774,0.239 l 0,-0.27453 0.297139,0 0,1.58421 z" />
    <path
       inkscape:connector-curvature="0"
       id="path5333"
       style="font-style:normal;font-weight:normal;font-size:medium;line-height:125%;font-family:sans-serif;letter-spacing:0px;word-spacing:0px;fill:#000000;fill-opacity:1;stroke:none;stroke-width:1px;stroke-linecap:butt;stroke-linejoin:miter;stroke-opacity:1"
       d="m 14.181225,266.04372 0.297139,0 0,2.51277 -0.297139,0 0,-2.51277 z" />
    <path
       inkscape:connector-curvature="0"
       id="path5335"
       style="font-style:normal;font-weight:normal;font-size:medium;line-height:125%;font-family:sans-serif;letter-spacing:0px;word-spacing:0px;fill:#000000;fill-opacity:1;stroke:none;stroke-width:1px;stroke-linecap:butt;stroke-linejoin:miter;stroke-opacity:1"
       d="m 16.645545,267.57787 0,0.14534 -1.366196,0 q 0.01938,0.30682 0.184097,0.46831 0.166334,0.15988 0.461859,0.15988 0.171178,0 0.331052,-0.042 0.161489,-0.042 0.319748,-0.12596 l 0,0.28099 q -0.159874,0.0678 -0.327823,0.10335 -0.167948,0.0355 -0.340741,0.0355 -0.43279,0 -0.686328,-0.25192 -0.251923,-0.25193 -0.251923,-0.68149 0,-0.44409 0.239004,-0.70409 0.240618,-0.26161 0.64757,-0.26161 0.364965,0 0.576516,0.23577 0.213165,0.23416 0.213165,0.63789 z m -0.29714,-0.0872 q -0.0032,-0.24385 -0.137265,-0.38919 -0.132421,-0.14534 -0.352046,-0.14534 -0.248693,0 -0.398877,0.1405 -0.14857,0.14049 -0.171179,0.39565 l 1.059367,-0.002 z" />
    <ellipse
       style="fill:#c0c0c0;fill-opacity:1;image-rendering:auto"
       id="path4198-8-7-7-6-1-9-2-5-1-5-1-9-3-2"
       cx="7.937501"
       cy="277.28854"
       rx="3.307292"
       ry="3.3072922" />
    <ellipse
       style="fill:#c0c0c0;fill-opacity:1;image-rendering:auto"
       id="path4198-8-7-7-6-1-9-2-5-1-5-1-9-3-6-06"
       cx="16.271877"
       cy="277.28854"
       rx="2.6458335"
       ry="2.6458337" />
    <ellipse
       style="fill:#c0c0c0;fill-opacity:1"
       id="path4198-8-7-7-21-9-7-7-6-6-1-7-5"
       cx="275.30417"
       cy="-26.193752"
       rx="5.0270844"
       ry="5.0270839"
       transform="matrix(0,1,-1,0,0,0)" />
    <ellipse
       style="fill:#c0c0c0;fill-opacity:1;image-rendering:auto"
       id="path4198-8-7-7-6-1-9-2-5-1-5-1-9-3-5-9"
       cx="7.937501"
       cy="284.69687"
       rx="3.307292"
       ry="3.3072922" />
    <ellipse
       style="fill:#c0c0c0;fill-opacity:1;image-rendering:auto"
       id="path4198-8-7-7-6-1-9-2-5-1-5-1-9-3-6-6-5"
       cx="16.271877"
       cy="284.69687"
       rx="2.6458335"
       ry="2.6458337" />
    <ellipse
       style="fill:#c0c0c0;fill-opacity:1"
       id="path4198-8-7-7-21-9-7-7-6-6-1-7-2-6"
       cx="286.68124"
       cy="-26.193752"
       rx="5.0270844"
       ry="5.0270839"
       transform="matrix(0,1,-1,0,0,0)" />
    <rect
       style="fill:none;fill-opacity:1;stroke:#000000;stroke-width:0.24477677;stroke-miterlimit:4;stroke-dasharray:none"
       id="rect4042-1"
       width="28.859392"
       height="22.24481"
       x="3.2973888"
       y="269.8703"
       ry="2.3603802" />
    <path
       inkscape:connector-curvature="0"
       id="path5314"
       style="font-style:normal;font-weight:normal;font-size:medium;line-height:125%;font-family:sans-serif;letter-spacing:0px;word-spacing:0px;fill:#000000;fill-opacity:1;stroke:none;stroke-width:1px;stroke-linecap:butt;stroke-linejoin:miter;stroke-opacity:1"
       d="m 8.1727585,271.72272 q -0.050062,-0.0291 -0.1098124,-0.042 -0.058136,-0.0145 -0.1291911,-0.0145 -0.2519227,0 -0.3875734,0.16471 -0.1340357,0.16311 -0.1340357,0.46994 l 0,0.95278 -0.2987545,0 0,-1.80867 0.2987545,0 0,0.28099 q 0.093664,-0.16472 0.2438482,-0.24385 0.1501846,-0.0808 0.3649648,-0.0808 0.030683,0 0.067825,0.005 0.037142,0.003 0.082359,0.0113 l 0.00161,0.30522 z" />
    <path
       inkscape:connector-curvature="0"
       id="path5316"
       style="font-style:normal;font-weight:normal;font-size:medium;line-height:125%;font-family:sans-serif;letter-spacing:0px;word-spacing:0px;fill:#000000;fill-opacity:1;stroke:none;stroke-width:1px;stroke-linecap:butt;stroke-linejoin:miter;stroke-opacity:1"
       d="m 9.3096402,272.34445 q -0.3601202,0 -0.4990006,0.0824 -0.1388804,0.0824 -0.1388804,0.28099 0,0.15826 0.1033529,0.25192 0.1049677,0.092 0.2842204,0.092 0.247078,0 0.3956477,-0.17441 0.1501847,-0.17602 0.1501847,-0.4667 l 0,-0.0662 -0.2955247,0 z m 0.5926642,-0.12273 0,1.03191 -0.2971395,0 0,-0.27453 q -0.101738,0.16472 -0.2535376,0.24385 -0.1517995,0.0775 -0.3714244,0.0775 -0.2777608,0 -0.4424795,-0.15503 -0.1631038,-0.15664 -0.1631038,-0.41825 0,-0.30522 0.203476,-0.46025 0.2050909,-0.15502 0.610428,-0.15502 l 0.4166413,0 0,-0.0291 q 0,-0.20509 -0.1356507,-0.31652 -0.1340357,-0.11304 -0.3778839,-0.11304 -0.1550294,0 -0.3019842,0.0371 -0.1469549,0.0371 -0.2826056,0.11143 l 0,-0.27453 q 0.1631038,-0.063 0.3165182,-0.0937 0.1534145,-0.0323 0.2987544,-0.0323 0.392418,0 0.5862047,0.20348 0.1937866,0.20348 0.1937866,0.61689 z" />
    <path
       inkscape:connector-curvature="0"
       id="path5318"
       style="font-style:normal;font-weight:normal;font-size:medium;line-height:125%;font-family:sans-serif;letter-spacing:0px;word-spacing:0px;fill:#000000;fill-opacity:1;stroke:none;stroke-width:1px;stroke-linecap:butt;stroke-linejoin:miter;stroke-opacity:1"
       d="m 11.706135,271.71949 0,-0.97863 0.29714,0 0,2.51277 -0.29714,0 0,-0.2713 q -0.09366,0.16149 -0.237389,0.24062 -0.14211,0.0775 -0.342356,0.0775 -0.327822,0 -0.534528,-0.26161 -0.205091,-0.26161 -0.205091,-0.68794 0,-0.42633 0.205091,-0.68794 0.206706,-0.26162 0.534528,-0.26162 0.200246,0 0.342356,0.0791 0.143725,0.0775 0.237389,0.23901 z m -1.012535,0.63142 q 0,0.32782 0.134036,0.51515 0.13565,0.18571 0.371424,0.18571 0.235774,0 0.371424,-0.18571 0.135651,-0.18733 0.135651,-0.51515 0,-0.32782 -0.135651,-0.51354 -0.13565,-0.18732 -0.371424,-0.18732 -0.235774,0 -0.371424,0.18732 -0.134036,0.18572 -0.134036,0.51354 z" />
    <path
       inkscape:connector-curvature="0"
       id="path5320"
       style="font-style:normal;font-weight:normal;font-size:medium;line-height:125%;font-family:sans-serif;letter-spacing:0px;word-spacing:0px;fill:#000000;fill-opacity:1;stroke:none;stroke-width:1px;stroke-linecap:butt;stroke-linejoin:miter;stroke-opacity:1"
       d="m 12.615318,271.44496 0.297139,0 0,1.80867 -0.297139,0 0,-1.80867 z m 0,-0.7041 0.297139,0 0,0.37627 -0.297139,0 0,-0.37627 z" />
    <path
       inkscape:connector-curvature="0"
       id="path5322"
       style="font-style:normal;font-weight:normal;font-size:medium;line-height:125%;font-family:sans-serif;letter-spacing:0px;word-spacing:0px;fill:#000000;fill-opacity:1;stroke:none;stroke-width:1px;stroke-linecap:butt;stroke-linejoin:miter;stroke-opacity:1"
       d="m 13.501892,272.53985 0,-1.09489 0.297139,0 0,1.08359 q 0,0.25676 0.100123,0.38595 0.100123,0.12758 0.30037,0.12758 0.240618,0 0.379498,-0.15341 0.140496,-0.15342 0.140496,-0.41826 l 0,-1.02545 0.297139,0 0,1.80867 -0.297139,0 0,-0.27776 q -0.108198,0.16472 -0.251923,0.24546 -0.14211,0.0791 -0.331052,0.0791 -0.311674,0 -0.473162,-0.19378 -0.161489,-0.19379 -0.161489,-0.56683 z m 0.747693,-1.1385 0,0 z" />
    <path
       inkscape:connector-curvature="0"
       id="path5324"
       style="font-style:normal;font-weight:normal;font-size:medium;line-height:125%;font-family:sans-serif;letter-spacing:0px;word-spacing:0px;fill:#000000;fill-opacity:1;stroke:none;stroke-width:1px;stroke-linecap:butt;stroke-linejoin:miter;stroke-opacity:1"
       d="m 16.784961,271.49825 0,0.28099 q -0.125961,-0.0646 -0.261612,-0.0969 -0.135651,-0.0323 -0.280991,-0.0323 -0.22124,0 -0.332667,0.0678 -0.109812,0.0678 -0.109812,0.20348 0,0.10335 0.07913,0.1631 0.07913,0.0581 0.318133,0.11143 l 0.101738,0.0226 q 0.316519,0.0678 0.448939,0.19217 0.134036,0.12273 0.134036,0.34397 0,0.25192 -0.200246,0.39888 -0.198631,0.14695 -0.547447,0.14695 -0.14534,0 -0.303599,-0.0291 -0.156645,-0.0275 -0.331053,-0.084 l 0,-0.30683 q 0.164719,0.0856 0.324593,0.12919 0.159874,0.042 0.316518,0.042 0.209936,0 0.322978,-0.071 0.113042,-0.0727 0.113042,-0.20348 0,-0.12112 -0.08236,-0.18571 -0.08075,-0.0646 -0.356891,-0.12435 l -0.103352,-0.0242 q -0.276146,-0.0581 -0.398878,-0.17764 -0.122732,-0.12112 -0.122732,-0.33105 0,-0.25515 0.180868,-0.39404 0.180868,-0.13888 0.513535,-0.13888 0.164718,0 0.310058,0.0242 0.14534,0.0242 0.268072,0.0727 z" />
    <path
       inkscape:connector-curvature="0"
       id="path5303"
       style="font-style:normal;font-weight:normal;font-size:medium;line-height:125%;font-family:sans-serif;letter-spacing:0px;word-spacing:0px;fill:#000000;fill-opacity:1;stroke:none;stroke-width:1px;stroke-linecap:butt;stroke-linejoin:miter;stroke-opacity:1"
       d="m 8.7761919,290.1369 q -0.3601202,0 -0.4990006,0.0824 -0.1388805,0.0824 -0.1388805,0.28099 0,0.15826 0.1033529,0.25192 0.1049678,0.0921 0.2842204,0.0921 0.247078,0 0.3956478,-0.17441 0.1501846,-0.17602 0.1501846,-0.4667 l 0,-0.0662 -0.2955246,0 z m 0.5926642,-0.12273 0,1.03191 -0.2971396,0 0,-0.27453 q -0.1017379,0.16472 -0.2535375,0.24385 -0.1517995,0.0775 -0.3714244,0.0775 -0.2777609,0 -0.4424795,-0.15503 -0.1631038,-0.15664 -0.1631038,-0.41825 0,-0.30522 0.203476,-0.46025 0.2050909,-0.15502 0.6104279,-0.15502 l 0.4166413,0 0,-0.0291 q 0,-0.20509 -0.1356506,-0.31652 -0.1340358,-0.11304 -0.377884,-0.11304 -0.1550293,0 -0.3019842,0.0371 -0.1469549,0.0371 -0.2826055,0.11143 l 0,-0.27453 q 0.1631037,-0.063 0.3165182,-0.0937 0.1534144,-0.0323 0.2987544,-0.0323 0.392418,0 0.5862046,0.20348 0.1937867,0.20348 0.1937867,0.61689 z" />
    <path
       inkscape:connector-curvature="0"
       id="path5305"
       style="font-style:normal;font-weight:normal;font-size:medium;line-height:125%;font-family:sans-serif;letter-spacing:0px;word-spacing:0px;fill:#000000;fill-opacity:1;stroke:none;stroke-width:1px;stroke-linecap:butt;stroke-linejoin:miter;stroke-opacity:1"
       d="m 11.485975,289.95442 0,1.09166 -0.297139,0 0,-1.08197 q 0,-0.25677 -0.100123,-0.38435 -0.100123,-0.12757 -0.30037,-0.12757 -0.240618,0 -0.379499,0.15341 -0.13888,0.15342 -0.13888,0.41826 l 0,1.02222 -0.2987544,0 0,-1.80867 0.2987544,0 0,0.28099 q 0.106583,-0.16311 0.250308,-0.24385 0.14534,-0.0807 0.334282,-0.0807 0.311673,0 0.471547,0.19379 0.159874,0.19217 0.159874,0.56683 z" />
    <path
       inkscape:connector-curvature="0"
       id="path5307"
       style="font-style:normal;font-weight:normal;font-size:medium;line-height:125%;font-family:sans-serif;letter-spacing:0px;word-spacing:0px;fill:#000000;fill-opacity:1;stroke:none;stroke-width:1px;stroke-linecap:butt;stroke-linejoin:miter;stroke-opacity:1"
       d="m 13.272043,290.12075 q 0,-0.32298 -0.134036,-0.50062 -0.132421,-0.17763 -0.37304,-0.17763 -0.239003,0 -0.373039,0.17763 -0.132421,0.17764 -0.132421,0.50062 0,0.32136 0.132421,0.499 0.134036,0.17764 0.373039,0.17764 0.240619,0 0.37304,-0.17764 0.134036,-0.17764 0.134036,-0.499 z m 0.297139,0.70086 q 0,0.46186 -0.205091,0.68633 -0.205091,0.22608 -0.628192,0.22608 -0.156644,0 -0.295524,-0.0242 -0.138881,-0.0226 -0.269687,-0.071 l 0,-0.28907 q 0.130806,0.0711 0.258383,0.10497 0.127576,0.0339 0.259997,0.0339 0.292295,0 0.437635,-0.15341 0.14534,-0.1518 0.14534,-0.46025 l 0,-0.14695 q -0.09205,0.15987 -0.235774,0.239 -0.143725,0.0791 -0.343972,0.0791 -0.332667,0 -0.536143,-0.25354 -0.203476,-0.25353 -0.203476,-0.67179 0,-0.41987 0.203476,-0.67341 0.203476,-0.25354 0.536143,-0.25354 0.200247,0 0.343972,0.0791 0.143725,0.0791 0.235774,0.23901 l 0,-0.27453 0.297139,0 0,1.5842 z" />
    <path
       inkscape:connector-curvature="0"
       id="path5309"
       style="font-style:normal;font-weight:normal;font-size:medium;line-height:125%;font-family:sans-serif;letter-spacing:0px;word-spacing:0px;fill:#000000;fill-opacity:1;stroke:none;stroke-width:1px;stroke-linecap:butt;stroke-linejoin:miter;stroke-opacity:1"
       d="m 14.181225,288.53331 0.297139,0 0,2.51277 -0.297139,0 0,-2.51277 z" />
    <path
       inkscape:connector-curvature="0"
       id="path5311"
       style="font-style:normal;font-weight:normal;font-size:medium;line-height:125%;font-family:sans-serif;letter-spacing:0px;word-spacing:0px;fill:#000000;fill-opacity:1;stroke:none;stroke-width:1px;stroke-linecap:butt;stroke-linejoin:miter;stroke-opacity:1"
       d="m 16.645545,290.06746 0,0.14534 -1.366196,0 q 0.01938,0.30683 0.184097,0.46832 0.166334,0.15987 0.461859,0.15987 0.171178,0 0.331052,-0.042 0.161489,-0.042 0.319748,-0.12596 l 0,0.28099 q -0.159874,0.0678 -0.327823,0.10336 -0.167948,0.0355 -0.340741,0.0355 -0.43279,0 -0.686328,-0.25192 -0.251923,-0.25192 -0.251923,-0.68148 0,-0.4441 0.239004,-0.70409 0.240618,-0.26162 0.64757,-0.26162 0.364965,0 0.576516,0.23578 0.213165,0.23416 0.213165,0.63788 z m -0.29714,-0.0872 q -0.0032,-0.24384 -0.137265,-0.38918 -0.132421,-0.14534 -0.352046,-0.14534 -0.248693,0 -0.398877,0.14049 -0.14857,0.1405 -0.171179,0.39565 l 1.059367,-0.002 z" />
  </g>
</svg>
