<?xml version="1.0" encoding="UTF-8" standalone="no"?>
<!-- Created with Inkscape (http://www.inkscape.org/) -->

<svg
   xmlns:dc="http://purl.org/dc/elements/1.1/"
   xmlns:cc="http://creativecommons.org/ns#"
   xmlns:rdf="http://www.w3.org/1999/02/22-rdf-syntax-ns#"
   xmlns:svg="http://www.w3.org/2000/svg"
   xmlns="http://www.w3.org/2000/svg"
   xmlns:sodipodi="http://sodipodi.sourceforge.net/DTD/sodipodi-0.dtd"
   xmlns:inkscape="http://www.inkscape.org/namespaces/inkscape"
   width="270"
   height="380"
   viewBox="0 0 71.437506 100.54167"
   version="1.1"
   id="svg8"
   inkscape:version="0.91 r13725"
   sodipodi:docname="Prometheus.svg">
  <defs
     id="defs2" />
  <sodipodi:namedview
     id="base"
     pagecolor="#ffffff"
     bordercolor="#666666"
     borderopacity="1.0"
     inkscape:pageopacity="0.0"
     inkscape:pageshadow="2"
     inkscape:zoom="1.8894737"
     inkscape:cx="150.84958"
     inkscape:cy="190"
     inkscape:document-units="px"
     inkscape:current-layer="layer1"
     showgrid="false"
     units="px"
     inkscape:snap-bbox="true"
     inkscape:snap-page="true"
     inkscape:bbox-nodes="true"
     inkscape:snap-bbox-edge-midpoints="true"
     inkscape:window-width="1598"
     inkscape:window-height="880"
     inkscape:window-x="0"
     inkscape:window-y="18"
     inkscape:window-maximized="0">
    <inkscape:grid
       type="xygrid"
       id="grid3396" />
  </sodipodi:namedview>
  <metadata
     id="metadata5">
    <rdf:RDF>
      <cc:Work
         rdf:about="">
        <dc:format>image/svg+xml</dc:format>
        <dc:type
           rdf:resource="http://purl.org/dc/dcmitype/StillImage" />
        <dc:title />
      </cc:Work>
    </rdf:RDF>
  </metadata>
  <g
     inkscape:label="Layer 1"
     inkscape:groupmode="layer"
     id="layer1"
     transform="translate(0,-196.45831)">
    <path
       style="opacity:1;fill:#f0f0f0;fill-opacity:1;fill-rule:evenodd;stroke:none;stroke-width:0.48607069;stroke-linecap:butt;stroke-linejoin:round;stroke-miterlimit:4;stroke-dasharray:none;stroke-dashoffset:0;stroke-opacity:1;paint-order:normal"
       d="m 0,196.45831 71.437507,0 0,100.54168 -71.437507,0 z"
       id="rect817"
       inkscape:connector-curvature="0" />
    <rect
       style="fill:#333333;fill-opacity:1"
       id="rect3787-3-6"
       width="15.875002"
       height="11.906252"
       x="51.858337"
       y="281.125"
       ry="1" />
    <rect
       style="fill:#333333;fill-opacity:1"
       id="rect3787-3"
       width="15.875002"
       height="11.906252"
       x="27.781252"
       y="281.125"
       ry="1" />
    <rect
       style="fill:#333333;fill-opacity:1"
       id="rect3787"
       width="15.875002"
       height="11.906252"
       x="3.9687502"
       y="281.125"
       ry="1" />
    <rect
       style="fill:#c0c0c0;fill-opacity:1"
       id="rect3379-1"
       width="71.437508"
       height="5.2916675"
       x="0"
       y="201.08852" />
    <g
       transform="matrix(1.0000017,0,0,0.99999831,24.077086,0.66145622)"
       style="font-style:normal;font-variant:normal;font-weight:500;font-stretch:normal;font-size:3.30729222px;line-height:125%;font-family:'CMU Serif';-inkscape-font-specification:'CMU Serif Medium';letter-spacing:0px;word-spacing:0px;fill:#000000;fill-opacity:1;stroke:none;stroke-width:1px;stroke-linecap:butt;stroke-linejoin:miter;stroke-opacity:1"
       id="text3375">
      <path
         d="m 3.1749949,204.20268 0,-0.10252 0.079375,0 q 0.1785937,0 0.2182813,-0.0298 0.042995,-0.0298 0.042995,-0.12568 l 0,-1.74294 q 0,-0.0959 -0.042995,-0.12568 -0.039688,-0.0298 -0.2182813,-0.0298 l -0.079375,0 0,-0.10253 1.1674741,0 q 0.3340365,0 0.5556251,0.18521 0.2248959,0.1819 0.2248959,0.42995 0,0.24474 -0.2282032,0.42333 -0.2248959,0.17529 -0.5258595,0.17529 l -0.5589323,0 0,0.78713 q 0,0.0959 0.039688,0.12568 0.042995,0.0298 0.2215885,0.0298 l 0.079375,0 0,0.10252 q -0.1157553,-0.01 -0.4894793,-0.01 -0.3704167,0 -0.4861719,0.01 z m 0.6250782,-1.13109 0.4564063,0 q 0.1488282,0 0.2546615,-0.0397 0.1091407,-0.043 0.15875,-0.0926 0.049609,-0.0529 0.076068,-0.1356 0.029766,-0.0827 0.033073,-0.12899 0.00331,-0.0463 0.00331,-0.11575 0,-0.0728 -0.00331,-0.11906 -0.00331,-0.0463 -0.033073,-0.12899 -0.026458,-0.0827 -0.076068,-0.13229 -0.049609,-0.0529 -0.15875,-0.0926 -0.1058333,-0.0397 -0.2546615,-0.0397 l -0.294349,0 q -0.1124479,0 -0.1389063,0.0231 -0.023151,0.0232 -0.023151,0.10914 l 0,0.89297 z"
         style="font-style:normal;font-variant:normal;font-weight:500;font-stretch:normal;font-family:'CMU Serif';-inkscape-font-specification:'CMU Serif Medium'"
         id="path4443"
         inkscape:connector-curvature="0" />
      <path
         d="m 5.3997691,204.20268 0,-0.10252 q 0.1752865,0 0.214974,-0.0198 0.042995,-0.0231 0.042995,-0.12898 l 0,-0.88636 q 0,-0.12237 -0.042995,-0.15213 -0.042995,-0.0331 -0.214974,-0.0331 l 0,-0.10253 0.4597136,-0.0364 0,0.3638 q 0.046302,-0.14221 0.1455209,-0.25135 0.099219,-0.11245 0.2612761,-0.11245 0.1058333,0 0.1752864,0.0595 0.069453,0.0595 0.069453,0.14221 0,0.0728 -0.046302,0.10914 -0.042995,0.0364 -0.095911,0.0364 -0.059531,0 -0.102526,-0.0364 -0.039688,-0.0397 -0.039688,-0.10583 0,-0.0397 0.016536,-0.0694 0.019844,-0.0331 0.033073,-0.043 0.016536,-0.0132 0.026458,-0.0165 -0.00661,-0.003 -0.03638,-0.003 -0.1819011,0 -0.2877345,0.1819 -0.102526,0.1819 -0.102526,0.43987 l 0,0.50932 q 0,0.0959 0.039688,0.12568 0.039687,0.0298 0.2116667,0.0298 l 0.069453,0 0,0.10252 q -0.1322917,-0.01 -0.4200261,-0.01 -0.039688,0 -0.1025261,0.003 -0.062839,0 -0.1455208,0.003 -0.082682,0.003 -0.1289844,0.003 z"
         style="font-style:normal;font-variant:normal;font-weight:500;font-stretch:normal;font-family:'CMU Serif';-inkscape-font-specification:'CMU Serif Medium'"
         id="path4445"
         inkscape:connector-curvature="0" />
      <path
         d="m 6.9099615,204.02409 q -0.2182813,-0.21498 -0.2182813,-0.52917 0,-0.31419 0.2116667,-0.54239 0.214974,-0.23151 0.5225522,-0.23151 0.3009636,0 0.5159376,0.2282 0.214974,0.2282 0.214974,0.5457 0,0.31089 -0.2182813,0.52917 -0.214974,0.21497 -0.5159376,0.21497 -0.294349,0 -0.5126303,-0.21497 z m 0.056224,-0.55563 q 0,0.32081 0.082682,0.46633 0.1289844,0.22159 0.3770313,0.22159 0.1223698,0 0.2248959,-0.0662 0.102526,-0.0661 0.15875,-0.17859 0.07276,-0.14552 0.07276,-0.44318 0,-0.3175 -0.08599,-0.45971 -0.1289844,-0.21497 -0.373724,-0.21497 -0.1058334,0 -0.2116667,0.0562 -0.1025261,0.0562 -0.1653646,0.16536 -0.079375,0.14553 -0.079375,0.4531 z"
         style="font-style:normal;font-variant:normal;font-weight:500;font-stretch:normal;font-family:'CMU Serif';-inkscape-font-specification:'CMU Serif Medium'"
         id="path4447"
         inkscape:connector-curvature="0" />
      <path
         d="m 8.3585554,204.20268 0,-0.10252 q 0.1752865,0 0.214974,-0.0198 0.042995,-0.0231 0.042995,-0.12898 l 0,-0.88636 q 0,-0.12237 -0.042995,-0.15213 -0.042995,-0.0331 -0.214974,-0.0331 l 0,-0.10253 0.4663282,-0.0364 0,0.34727 q 0.1554427,-0.34727 0.4894792,-0.34727 0.3869532,0 0.4398699,0.32411 0.056224,-0.12567 0.1752865,-0.22489 0.1190628,-0.0992 0.3042708,-0.0992 0.248047,0 0.347266,0.12237 0.07276,0.0827 0.08599,0.17529 0.01654,0.0926 0.01654,0.33072 l 0,0.6317 q 0.0033,0.0694 0.05622,0.086 0.05292,0.0132 0.201745,0.0132 l 0,0.10252 q -0.337344,-0.01 -0.370417,-0.01 -0.02646,0 -0.373724,0.01 l 0,-0.10252 q 0.175286,0 0.214974,-0.0198 0.043,-0.0231 0.043,-0.12898 l 0,-0.7706 q 0,-0.16867 -0.05292,-0.26789 -0.04961,-0.0992 -0.191823,-0.0992 -0.171979,0 -0.3108854,0.14552 -0.135599,0.14221 -0.135599,0.38365 l 0,0.60854 q 0,0.10583 0.039688,0.12898 0.042995,0.0198 0.2182814,0.0198 l 0,0.10252 q -0.3373439,-0.01 -0.3704169,-0.01 -0.026458,0 -0.373724,0.01 l 0,-0.10252 q 0.1752865,0 0.214974,-0.0198 0.042995,-0.0231 0.042995,-0.12898 l 0,-0.7706 q 0,-0.16867 -0.052917,-0.26789 -0.049609,-0.0992 -0.1918229,-0.0992 -0.1719792,0 -0.3108855,0.14552 -0.135599,0.14221 -0.135599,0.38365 l 0,0.60854 q 0,0.10583 0.039687,0.12898 0.042995,0.0198 0.2182813,0.0198 l 0,0.10252 q -0.3373438,-0.01 -0.3704167,-0.01 -0.026458,0 -0.373724,0.01 z"
         style="font-style:normal;font-variant:normal;font-weight:500;font-stretch:normal;font-family:'CMU Serif';-inkscape-font-specification:'CMU Serif Medium'"
         id="path4449"
         inkscape:connector-curvature="0" />
      <path
         d="m 11.103556,203.47508 q 0,-0.31089 0.198438,-0.53248 0.201745,-0.22158 0.489479,-0.22158 0.291042,0 0.43987,0.18851 0.152136,0.18852 0.152136,0.45971 0,0.0496 -0.01323,0.0595 -0.01323,0.01 -0.06945,0.01 l -0.922734,0 q 0,0.33734 0.09922,0.49609 0.138907,0.22159 0.373724,0.22159 0.03307,0 0.06945,-0.007 0.03969,-0.007 0.119062,-0.0331 0.07938,-0.0298 0.148828,-0.10583 0.06945,-0.0761 0.109141,-0.19513 0.0099,-0.0463 0.04299,-0.0463 0.04299,0 0.04299,0.0397 0,0.0298 -0.03307,0.0959 -0.02977,0.0628 -0.0893,0.14221 -0.05953,0.0761 -0.175287,0.1356 -0.115755,0.0562 -0.254661,0.0562 -0.291042,0 -0.509323,-0.21828 -0.218282,-0.22159 -0.218282,-0.5457 z m 0.277813,-0.10584 0.783828,0 q 0,-0.0694 -0.01323,-0.14552 -0.0099,-0.0794 -0.0463,-0.1852 -0.03307,-0.10915 -0.115755,-0.17529 -0.07937,-0.0694 -0.198438,-0.0694 -0.05292,0 -0.112448,0.0232 -0.05622,0.0231 -0.125677,0.0794 -0.06945,0.0529 -0.119062,0.1786 -0.0463,0.12237 -0.05292,0.29434 z"
         style="font-style:normal;font-variant:normal;font-weight:500;font-stretch:normal;font-family:'CMU Serif';-inkscape-font-specification:'CMU Serif Medium'"
         id="path4451"
         inkscape:connector-curvature="0" />
      <path
         d="m 12.54011,202.87977 0,-0.0728 q 0.152135,-0.007 0.251354,-0.11245 0.102526,-0.10914 0.135599,-0.24144 0.03638,-0.13229 0.03969,-0.28442 l 0.08268,0 0,0.60854 0.472943,0 0,0.10253 -0.472943,0 0,0.91942 q 0,0.35719 0.221588,0.35719 0.09591,0 0.15875,-0.0959 0.06284,-0.0992 0.06284,-0.27451 l 0,-0.1819 0.08268,0 0,0.18852 q 0,0.17859 -0.08268,0.31419 -0.08268,0.13229 -0.24474,0.13229 -0.05953,0 -0.119062,-0.0165 -0.05953,-0.0132 -0.135599,-0.0529 -0.07607,-0.0397 -0.125677,-0.1356 -0.0463,-0.0992 -0.0463,-0.24143 l 0,-0.91281 -0.28112,0 z"
         style="font-style:normal;font-variant:normal;font-weight:500;font-stretch:normal;font-family:'CMU Serif';-inkscape-font-specification:'CMU Serif Medium'"
         id="path4453"
         inkscape:connector-curvature="0" />
      <path
         d="m 13.868556,204.20268 0,-0.10252 q 0.175286,0 0.214974,-0.0198 0.04299,-0.0231 0.04299,-0.12898 l 0,-1.71979 q 0,-0.12237 -0.04299,-0.15214 -0.04299,-0.0331 -0.214974,-0.0331 l 0,-0.10253 0.47625,-0.0364 0,1.15094 0.0033,0 q 0.05292,-0.11906 0.171979,-0.21828 0.119063,-0.0992 0.304271,-0.0992 0.248047,0 0.347266,0.12237 0.07276,0.0827 0.08599,0.17529 0.01654,0.0926 0.01654,0.33072 l 0,0.6317 q 0.0033,0.0694 0.05622,0.086 0.05292,0.0132 0.201745,0.0132 l 0,0.10252 q -0.337344,-0.01 -0.370417,-0.01 -0.02646,0 -0.373724,0.01 l 0,-0.10252 q 0.175286,0 0.214974,-0.0198 0.04299,-0.0231 0.04299,-0.12898 l 0,-0.7706 q 0,-0.16867 -0.05292,-0.26789 -0.04961,-0.0992 -0.191823,-0.0992 -0.171979,0 -0.310885,0.14552 -0.135599,0.14221 -0.135599,0.38365 l 0,0.60854 q 0,0.10583 0.03969,0.12898 0.04299,0.0198 0.218281,0.0198 l 0,0.10252 q -0.337343,-0.01 -0.370416,-0.01 -0.02646,0 -0.373724,0.01 z"
         style="font-style:normal;font-variant:normal;font-weight:500;font-stretch:normal;font-family:'CMU Serif';-inkscape-font-specification:'CMU Serif Medium'"
         id="path4455"
         inkscape:connector-curvature="0" />
      <path
         d="m 15.68984,203.47508 q 0,-0.31089 0.198438,-0.53248 0.201744,-0.22158 0.489479,-0.22158 0.291042,0 0.43987,0.18851 0.152135,0.18852 0.152135,0.45971 0,0.0496 -0.01323,0.0595 -0.01323,0.01 -0.06945,0.01 l -0.922735,0 q 0,0.33734 0.09922,0.49609 0.138906,0.22159 0.373724,0.22159 0.03307,0 0.06945,-0.007 0.03969,-0.007 0.119063,-0.0331 0.07938,-0.0298 0.148828,-0.10583 0.06945,-0.0761 0.109141,-0.19513 0.0099,-0.0463 0.04299,-0.0463 0.04299,0 0.04299,0.0397 0,0.0298 -0.03307,0.0959 -0.02977,0.0628 -0.0893,0.14221 -0.05953,0.0761 -0.175286,0.1356 -0.115755,0.0562 -0.254662,0.0562 -0.291041,0 -0.509323,-0.21828 -0.218281,-0.22159 -0.218281,-0.5457 z m 0.277813,-0.10584 0.783828,0 q 0,-0.0694 -0.01323,-0.14552 -0.0099,-0.0794 -0.0463,-0.1852 -0.03307,-0.10915 -0.115756,-0.17529 -0.07938,-0.0694 -0.198437,-0.0694 -0.05292,0 -0.112448,0.0232 -0.05622,0.0231 -0.125677,0.0794 -0.06945,0.0529 -0.119063,0.1786 -0.0463,0.12237 -0.05292,0.29434 z"
         style="font-style:normal;font-variant:normal;font-weight:500;font-stretch:normal;font-family:'CMU Serif';-inkscape-font-specification:'CMU Serif Medium'"
         id="path4457"
         inkscape:connector-curvature="0" />
      <path
         d="m 17.169388,202.87977 0,-0.10253 0.486172,-0.0364 0,1.09802 q 0,0.0794 0.0066,0.12568 0.0066,0.0463 0.03307,0.0992 0.02646,0.0529 0.0893,0.0794 0.06284,0.0232 0.162057,0.0232 0.178594,0 0.287734,-0.14552 0.112448,-0.14883 0.112448,-0.36711 l 0,-0.5887 q 0,-0.12237 -0.04299,-0.15213 -0.04299,-0.0331 -0.214974,-0.0331 l 0,-0.10253 0.486172,-0.0364 0,1.17409 q 0,0.12237 0.04299,0.15544 0.04299,0.0298 0.214974,0.0298 l 0,0.10252 -0.47625,0.0364 0,-0.29765 q -0.138906,0.29765 -0.42664,0.29765 -0.145521,0 -0.24474,-0.0364 -0.09922,-0.0364 -0.148828,-0.0827 -0.04961,-0.0463 -0.07607,-0.1356 -0.02646,-0.0893 -0.02977,-0.14221 -0.0033,-0.0562 -0.0033,-0.16206 l 0,-0.49609 q 0,-0.2249 -0.03307,-0.26459 -0.03307,-0.0397 -0.224896,-0.0397 z"
         style="font-style:normal;font-variant:normal;font-weight:500;font-stretch:normal;font-family:'CMU Serif';-inkscape-font-specification:'CMU Serif Medium'"
         id="path4459"
         inkscape:connector-curvature="0" />
      <path
         d="m 19.007209,204.15969 0,-0.43656 q 0,-0.0364 0,-0.0496 0.0033,-0.0132 0.01323,-0.0232 0.0099,-0.01 0.02977,-0.01 0.02315,0 0.02977,0.01 0.0099,0.01 0.01654,0.0463 0.04961,0.2282 0.155443,0.35057 0.109141,0.11906 0.304271,0.11906 0.185208,0 0.277812,-0.0827 0.09591,-0.0827 0.09591,-0.21828 0,-0.24143 -0.343959,-0.30427 -0.198437,-0.0397 -0.281119,-0.0661 -0.08268,-0.0265 -0.155443,-0.086 -0.142214,-0.11575 -0.142214,-0.28112 0,-0.16536 0.125677,-0.28442 0.125678,-0.12237 0.40349,-0.12237 0.185208,0 0.310886,0.0926 0.03638,-0.0298 0.05622,-0.0529 0.04299,-0.0397 0.06614,-0.0397 0.02646,0 0.02977,0.0165 0.0066,0.0165 0.0066,0.0628 l 0,0.33404 q 0,0.0364 -0.0033,0.0496 0,0.0132 -0.0099,0.0231 -0.0099,0.007 -0.02976,0.007 -0.03638,0 -0.03969,-0.0298 -0.02646,-0.40019 -0.386953,-0.40019 -0.19513,0 -0.284427,0.0761 -0.08599,0.0728 -0.08599,0.17529 0,0.0562 0.02646,0.0992 0.02646,0.043 0.05953,0.0694 0.03638,0.0232 0.09922,0.0463 0.06615,0.0231 0.105833,0.0331 0.03969,0.007 0.115755,0.0231 0.264584,0.0496 0.377032,0.15875 0.138906,0.1389 0.138906,0.31419 0,0.19513 -0.132292,0.32742 -0.132292,0.13229 -0.400182,0.13229 -0.214974,0 -0.363802,-0.14221 -0.01984,0.0198 -0.03638,0.0364 -0.01323,0.0165 -0.01984,0.0232 -0.0033,0.007 -0.0066,0.01 0,0.003 -0.0033,0.007 -0.06615,0.0661 -0.08268,0.0661 -0.02646,0 -0.03307,-0.0165 -0.0033,-0.0165 -0.0033,-0.0628 z"
         style="font-style:normal;font-variant:normal;font-weight:500;font-stretch:normal;font-family:'CMU Serif';-inkscape-font-specification:'CMU Serif Medium'"
         id="path4461"
         inkscape:connector-curvature="0" />
    </g>
    <ellipse
       style="fill:#c0c0c0;fill-opacity:1"
       id="path4198"
       cx="15.875002"
       cy="214.31769"
       rx="3.9687505"
       ry="3.9687507" />
    <ellipse
       style="fill:#c0c0c0;fill-opacity:1"
       id="path4198-8"
       cx="7.937501"
       cy="214.31769"
       rx="3.307292"
       ry="3.3072922" />
    <g
       style="font-style:normal;font-weight:normal;font-size:6.61458445px;line-height:125%;font-family:sans-serif;letter-spacing:0px;word-spacing:0px;fill:#000000;fill-opacity:1;stroke:none;stroke-width:1px;stroke-linecap:butt;stroke-linejoin:miter;stroke-opacity:1"
       id="text4219"
       transform="translate(0,0.66146513)">
      <path
         d="m 8.3648001,219.32803 0,-0.93502 0.2971395,0 0,2.51277 -0.2971395,0 0,-0.2277 q -0.074285,0.13403 -0.1986313,0.20509 -0.1227315,0.0694 -0.2842204,0.0694 -0.3278224,0 -0.5167644,-0.25354 -0.1873271,-0.25515 -0.1873271,-0.70248 0,-0.44086 0.188942,-0.69117 0.188942,-0.25192 0.5151495,-0.25192 0.1631038,0 0.2874502,0.071 0.1243464,0.0694 0.1954015,0.20348 z m -0.8736548,0.67502 q 0,0.34559 0.1098125,0.52161 0.1098124,0.17603 0.3245926,0.17603 0.2147802,0 0.3262075,-0.17764 0.1130422,-0.17764 0.1130422,-0.52 0,-0.34397 -0.1130422,-0.51999 -0.1114273,-0.17764 -0.3262075,-0.17764 -0.2147802,0 -0.3245926,0.17603 -0.1098125,0.17602 -0.1098125,0.5216 z"
         style="font-style:normal;font-variant:normal;font-weight:normal;font-stretch:normal;font-size:3.30729198px;font-family:monospace;-inkscape-font-specification:monospace"
         id="path4432"
         inkscape:connector-curvature="0" />
      <path
         d="m 10.764525,219.92715 0,0.14534 -1.2870666,0 0,0.01 q 0,0.29553 0.1534144,0.45702 0.1550293,0.16149 0.4360202,0.16149 0.14211,0 0.297139,-0.0452 0.15503,-0.0452 0.331052,-0.13727 l 0,0.29553 q -0.169563,0.0694 -0.327822,0.10335 -0.156644,0.0355 -0.303599,0.0355 -0.4214859,0 -0.6588746,-0.25192 -0.2373886,-0.25354 -0.2373886,-0.69764 0,-0.43279 0.232544,-0.69117 0.2325439,-0.25838 0.6201172,-0.25838 0.345586,0 0.544217,0.23416 0.200247,0.23416 0.200247,0.63949 z m -0.29714,-0.0872 q -0.0065,-0.26161 -0.124346,-0.39726 -0.116272,-0.13727 -0.335897,-0.13727 -0.2147803,0 -0.3536607,0.14211 -0.1388805,0.14211 -0.1647187,0.39404 l 0.9786224,-0.002 z"
         style="font-style:normal;font-variant:normal;font-weight:normal;font-stretch:normal;font-size:3.30729198px;font-family:monospace;-inkscape-font-specification:monospace"
         id="path4434"
         inkscape:connector-curvature="0" />
      <path
         d="m 11.563895,220.67808 0,0.91564 -0.298755,0 0,-2.49662 0.298755,0 0,0.23093 q 0.07428,-0.13404 0.197016,-0.20348 0.124346,-0.071 0.285835,-0.071 0.327823,0 0.513535,0.25354 0.187327,0.25353 0.187327,0.70247 0,0.44087 -0.187327,0.69279 -0.187327,0.25031 -0.513535,0.25031 -0.164718,0 -0.289065,-0.0694 -0.122731,-0.0711 -0.193786,-0.20509 z m 0.872039,-0.67503 q 0,-0.34558 -0.109812,-0.5216 -0.108198,-0.17603 -0.322978,-0.17603 -0.216395,0 -0.327822,0.17764 -0.111427,0.17602 -0.111427,0.51999 0,0.34236 0.111427,0.52 0.111427,0.17764 0.327822,0.17764 0.21478,0 0.322978,-0.17603 0.109812,-0.17602 0.109812,-0.52161 z"
         style="font-style:normal;font-variant:normal;font-weight:normal;font-stretch:normal;font-size:3.30729198px;font-family:monospace;-inkscape-font-specification:monospace"
         id="path4436"
         inkscape:connector-curvature="0" />
      <path
         d="m 13.939396,218.58357 0,0.51353 0.675023,0 0,0.23093 -0.675023,0 0,0.98185 q 0,0.20025 0.0759,0.27938 0.0759,0.0791 0.264842,0.0791 l 0.334282,0 0,0.23739 -0.36335,0 q -0.334282,0 -0.471547,-0.13404 -0.137266,-0.13403 -0.137266,-0.46186 l 0,-0.98185 -0.482852,0 0,-0.23093 0.482852,0 0,-0.51353 0.29714,0 z"
         style="font-style:normal;font-variant:normal;font-weight:normal;font-stretch:normal;font-size:3.30729198px;font-family:monospace;-inkscape-font-specification:monospace"
         id="path4438"
         inkscape:connector-curvature="0" />
      <path
         d="m 16.634645,219.78504 0,1.12074 -0.298754,0 0,-1.12074 q 0,-0.24384 -0.08559,-0.3585 -0.08559,-0.11466 -0.268071,-0.11466 -0.208321,0 -0.321363,0.14857 -0.111427,0.14696 -0.111427,0.4231 l 0,1.02223 -0.29714,0 0,-2.51277 0.29714,0 0,0.97539 q 0.07913,-0.15503 0.21478,-0.23416 0.135651,-0.0807 0.321363,-0.0807 0.276146,0 0.411796,0.18248 0.137266,0.18087 0.137266,0.54906 z"
         style="font-style:normal;font-variant:normal;font-weight:normal;font-stretch:normal;font-size:3.30729198px;font-family:monospace;-inkscape-font-specification:monospace"
         id="path4440"
         inkscape:connector-curvature="0" />
    </g>
    <ellipse
       style="fill:#c0c0c0;fill-opacity:1"
       id="path4198-8-7"
       cx="7.937501"
       cy="229.53123"
       rx="3.307292"
       ry="3.3072922" />
    <ellipse
       style="fill:#c0c0c0;fill-opacity:1"
       id="path4198-8-7-7"
       cx="7.937501"
       cy="237.46873"
       rx="3.307292"
       ry="3.3072922" />
    <g
       style="font-style:normal;font-weight:normal;font-size:6.61458397px;line-height:125%;font-family:sans-serif;letter-spacing:0px;word-spacing:0px;fill:#000000;fill-opacity:1;stroke:none;stroke-width:1px;stroke-linecap:butt;stroke-linejoin:miter;stroke-opacity:1"
       id="text4238-4"
       transform="translate(0,7.408354)">
      <path
         inkscape:connector-curvature="0"
         d="m 13.643226,237.44294 q 0,-0.32298 -0.134036,-0.50062 -0.132421,-0.17763 -0.373039,-0.17763 -0.239004,0 -0.37304,0.17763 -0.13242,0.17764 -0.13242,0.50062 0,0.32136 0.13242,0.499 0.134036,0.17764 0.37304,0.17764 0.240618,0 0.373039,-0.17764 0.134036,-0.17764 0.134036,-0.499 z m 0.297139,0.70086 q 0,0.46186 -0.205091,0.68633 -0.20509,0.22608 -0.628191,0.22608 -0.156644,0 -0.295525,-0.0242 -0.13888,-0.0226 -0.269686,-0.0711 l 0,-0.28906 q 0.130806,0.0711 0.258382,0.10497 0.127576,0.0339 0.259997,0.0339 0.292295,0 0.437635,-0.15341 0.14534,-0.1518 0.14534,-0.46025 l 0,-0.14695 q -0.09205,0.15987 -0.235774,0.239 -0.143725,0.0791 -0.343971,0.0791 -0.332667,0 -0.536143,-0.25354 -0.203476,-0.25353 -0.203476,-0.67179 0,-0.41987 0.203476,-0.67341 0.203476,-0.25354 0.536143,-0.25354 0.200246,0 0.343971,0.0791 0.143725,0.0791 0.235774,0.23901 l 0,-0.27453 0.297139,0 0,1.5842 z"
         style="font-size:3.30729175px"
         id="path4414" />
      <path
         inkscape:connector-curvature="0"
         d="m 15.374386,237.45909 q -0.36012,0 -0.499,0.0824 -0.138881,0.0824 -0.138881,0.28099 0,0.15826 0.103353,0.25192 0.104968,0.0921 0.284221,0.0921 0.247078,0 0.395647,-0.17441 0.150185,-0.17602 0.150185,-0.4667 l 0,-0.0662 -0.295525,0 z m 0.592664,-0.12273 0,1.03191 -0.297139,0 0,-0.27453 q -0.101738,0.16472 -0.253538,0.24385 -0.151799,0.0775 -0.371424,0.0775 -0.277761,0 -0.442479,-0.15503 -0.163104,-0.15664 -0.163104,-0.41825 0,-0.30522 0.203476,-0.46025 0.205091,-0.15503 0.610428,-0.15503 l 0.416641,0 0,-0.0291 q 0,-0.20509 -0.135651,-0.31652 -0.134035,-0.11304 -0.377884,-0.11304 -0.155029,0 -0.301984,0.0371 -0.146955,0.0371 -0.282605,0.11143 l 0,-0.27453 q 0.163103,-0.063 0.316518,-0.0937 0.153414,-0.0323 0.298754,-0.0323 0.392418,0 0.586205,0.20348 0.193786,0.20348 0.193786,0.61689 z"
         style="font-size:3.30729175px"
         id="path4416" />
      <path
         inkscape:connector-curvature="0"
         d="m 16.874618,236.04606 0,0.51354 0.612042,0 0,0.23092 -0.612042,0 0,0.98186 q 0,0.22124 0.05975,0.28422 0.06137,0.063 0.247078,0.063 l 0.305214,0 0,0.24869 -0.305214,0 q -0.343971,0 -0.474777,-0.12758 -0.130806,-0.12919 -0.130806,-0.46831 l 0,-0.98186 -0.21801,0 0,-0.23092 0.21801,0 0,-0.51354 0.298755,0 z"
         style="font-size:3.30729175px"
         id="path4418" />
      <path
         inkscape:connector-curvature="0"
         d="m 19.426141,237.38965 0,0.14534 -1.366195,0 q 0.01938,0.30683 0.184097,0.46832 0.166334,0.15987 0.461858,0.15987 0.171178,0 0.331052,-0.042 0.161489,-0.042 0.319748,-0.12596 l 0,0.28099 q -0.159874,0.0678 -0.327822,0.10336 -0.167949,0.0355 -0.340742,0.0355 -0.43279,0 -0.686327,-0.25192 -0.251923,-0.25192 -0.251923,-0.68148 0,-0.4441 0.239004,-0.70409 0.240618,-0.26162 0.64757,-0.26162 0.364965,0 0.576515,0.23578 0.213165,0.23416 0.213165,0.63788 z m -0.297139,-0.0872 q -0.0032,-0.24384 -0.137266,-0.38918 -0.13242,-0.14534 -0.352045,-0.14534 -0.248693,0 -0.398878,0.14049 -0.148569,0.1405 -0.171178,0.39565 l 1.059367,-0.002 z"
         style="font-size:3.30729175px"
         id="path4420" />
    </g>
    <ellipse
       style="fill:#c0c0c0;fill-opacity:1"
       id="path4283"
       cx="7.937501"
       cy="251.35936"
       rx="1.3229167"
       ry="1.3229169" />
    <ellipse
       style="fill:#c0c0c0;fill-opacity:1"
       id="path4283-0"
       cx="7.937501"
       cy="255.32811"
       rx="1.3229167"
       ry="1.3229169" />
    <ellipse
       style="fill:#c0c0c0;fill-opacity:1"
       id="path4283-2"
       cx="7.937501"
       cy="259.29684"
       rx="1.3229167"
       ry="1.3229169" />
    <ellipse
       style="fill:#c0c0c0;fill-opacity:1"
       id="path4283-0-9"
       cx="7.937501"
       cy="263.26559"
       rx="1.3229167"
       ry="1.3229169" />
    <ellipse
       style="fill:#c0c0c0;fill-opacity:1"
       id="path4283-5"
       cx="7.937501"
       cy="267.23441"
       rx="1.3229167"
       ry="1.3229169" />
    <ellipse
       style="fill:#c0c0c0;fill-opacity:1"
       id="path4283-0-7"
       cx="7.937501"
       cy="271.20316"
       rx="1.3229167"
       ry="1.3229169" />
    <ellipse
       style="fill:#c0c0c0;fill-opacity:1"
       id="path4283-2-4"
       cx="7.937501"
       cy="275.17188"
       rx="1.3229167"
       ry="1.3229169" />
    <ellipse
       style="fill:#c0c0c0;fill-opacity:1"
       id="path4283-0-9-2"
       cx="7.937501"
       cy="279.14062"
       rx="1.3229167"
       ry="1.3229169" />
    <ellipse
       style="fill:#c0c0c0;fill-opacity:1"
       id="path4283-21"
       cx="15.875002"
       cy="251.35936"
       rx="1.3229167"
       ry="1.3229169" />
    <ellipse
       style="fill:#c0c0c0;fill-opacity:1"
       id="path4283-0-96"
       cx="15.875002"
       cy="255.32811"
       rx="1.3229167"
       ry="1.3229169" />
    <ellipse
       style="fill:#c0c0c0;fill-opacity:1"
       id="path4283-2-1"
       cx="15.875002"
       cy="259.29684"
       rx="1.3229167"
       ry="1.3229169" />
    <ellipse
       style="fill:#c0c0c0;fill-opacity:1"
       id="path4283-0-9-1"
       cx="15.875002"
       cy="263.26559"
       rx="1.3229167"
       ry="1.3229169" />
    <ellipse
       style="fill:#c0c0c0;fill-opacity:1"
       id="path4283-5-7"
       cx="15.875002"
       cy="267.23441"
       rx="1.3229167"
       ry="1.3229169" />
    <ellipse
       style="fill:#c0c0c0;fill-opacity:1"
       id="path4283-0-7-8"
       cx="15.875002"
       cy="271.20316"
       rx="1.3229167"
       ry="1.3229169" />
    <ellipse
       style="fill:#c0c0c0;fill-opacity:1"
       id="path4283-2-4-0"
       cx="15.875002"
       cy="275.17188"
       rx="1.3229167"
       ry="1.3229169" />
    <ellipse
       style="fill:#c0c0c0;fill-opacity:1"
       id="path4283-0-9-2-6"
       cx="15.875002"
       cy="279.14062"
       rx="1.3229167"
       ry="1.3229169" />
    <ellipse
       style="fill:#c0c0c0;fill-opacity:1"
       id="path4198-8-7-7-6"
       cx="7.9375014"
       cy="285.09375"
       rx="3.307292"
       ry="3.3072922" />
    <ellipse
       style="fill:#c0c0c0;fill-opacity:1;image-rendering:auto"
       id="path4198-8-7-7-6-1"
       cx="15.875002"
       cy="285.09375"
       rx="3.307292"
       ry="3.3072922" />
    <g
       style="font-style:normal;font-weight:normal;font-size:3.30729222px;line-height:125%;font-family:sans-serif;letter-spacing:0px;word-spacing:0px;fill:#ffffff;fill-opacity:1;stroke:none;stroke-width:1px;stroke-linecap:butt;stroke-linejoin:miter;stroke-opacity:1"
       id="text4478"
       transform="translate(0,-0.39687529)">
      <path
         inkscape:connector-curvature="0"
         d="m 15.875001,290.28012 -0.442479,1.19986 0.886574,0 -0.444095,-1.19986 z m -0.184097,-0.32137 0.36981,0 0.918871,2.41103 -0.339126,0 -0.219625,-0.6185 -1.08682,0 -0.219625,0.6185 -0.343971,0 0.920486,-2.41103 z"
         id="path4490"
         style="fill:#ffffff" />
    </g>
    <g
       style="font-style:normal;font-weight:normal;font-size:3.30729222px;line-height:125%;font-family:sans-serif;letter-spacing:0px;word-spacing:0px;fill:#ffffff;fill-opacity:1;stroke:none;stroke-width:1px;stroke-linecap:butt;stroke-linejoin:miter;stroke-opacity:1"
       id="text4482"
       transform="translate(0,-0.39687529)">
      <path
         inkscape:connector-curvature="0"
         d="m 7.3561873,290.22682 0,1.87489 0.3940329,0 q 0.4990006,0 0.7299297,-0.22608 0.232544,-0.22609 0.232544,-0.71379 0,-0.48446 -0.232544,-0.70893 -0.2309291,-0.22609 -0.7299297,-0.22609 l -0.3940329,0 z m -0.3262075,-0.26807 0.6701788,0 q 0.7008617,0 1.0286842,0.2923 0.3278224,0.29068 0.3278224,0.91079 0,0.62335 -0.3294373,0.91565 -0.3294373,0.29229 -1.0270693,0.29229 l -0.6701788,0 0,-2.41103 z"
         id="path4487"
         style="fill:#ffffff" />
    </g>
    <ellipse
       style="fill:#c0c0c0;fill-opacity:1"
       id="path4198-8-7-6"
       cx="31.750004"
       cy="229.53123"
       rx="3.307292"
       ry="3.3072922" />
    <ellipse
       style="fill:#c0c0c0;fill-opacity:1"
       id="path4198-8-7-7-2"
       cx="31.750004"
       cy="237.46873"
       rx="3.307292"
       ry="3.3072922" />
    <g
       style="font-style:normal;font-weight:normal;font-size:6.61458397px;line-height:125%;font-family:sans-serif;letter-spacing:0px;word-spacing:0px;fill:#000000;fill-opacity:1;stroke:none;stroke-width:1px;stroke-linecap:butt;stroke-linejoin:miter;stroke-opacity:1"
       id="text4238-4-9"
       transform="translate(23.812502,7.4083538)">
      <path
         d="m 13.643226,237.44294 q 0,-0.32298 -0.134036,-0.50062 -0.132421,-0.17763 -0.373039,-0.17763 -0.239004,0 -0.37304,0.17763 -0.13242,0.17764 -0.13242,0.50062 0,0.32136 0.13242,0.499 0.134036,0.17764 0.37304,0.17764 0.240618,0 0.373039,-0.17764 0.134036,-0.17764 0.134036,-0.499 z m 0.297139,0.70086 q 0,0.46186 -0.205091,0.68633 -0.20509,0.22608 -0.628191,0.22608 -0.156644,0 -0.295525,-0.0242 -0.13888,-0.0226 -0.269686,-0.0711 l 0,-0.28906 q 0.130806,0.0711 0.258382,0.10497 0.127576,0.0339 0.259997,0.0339 0.292295,0 0.437635,-0.15341 0.14534,-0.1518 0.14534,-0.46025 l 0,-0.14695 q -0.09205,0.15987 -0.235774,0.239 -0.143725,0.0791 -0.343971,0.0791 -0.332667,0 -0.536143,-0.25354 -0.203476,-0.25353 -0.203476,-0.67179 0,-0.41987 0.203476,-0.67341 0.203476,-0.25354 0.536143,-0.25354 0.200246,0 0.343971,0.0791 0.143725,0.0791 0.235774,0.23901 l 0,-0.27453 0.297139,0 0,1.5842 z"
         style="font-size:3.30729175px"
         id="path4414-1"
         inkscape:connector-curvature="0" />
      <path
         d="m 15.374386,237.45909 q -0.36012,0 -0.499,0.0824 -0.138881,0.0824 -0.138881,0.28099 0,0.15826 0.103353,0.25192 0.104968,0.0921 0.284221,0.0921 0.247078,0 0.395647,-0.17441 0.150185,-0.17602 0.150185,-0.4667 l 0,-0.0662 -0.295525,0 z m 0.592664,-0.12273 0,1.03191 -0.297139,0 0,-0.27453 q -0.101738,0.16472 -0.253538,0.24385 -0.151799,0.0775 -0.371424,0.0775 -0.277761,0 -0.442479,-0.15503 -0.163104,-0.15664 -0.163104,-0.41825 0,-0.30522 0.203476,-0.46025 0.205091,-0.15503 0.610428,-0.15503 l 0.416641,0 0,-0.0291 q 0,-0.20509 -0.135651,-0.31652 -0.134035,-0.11304 -0.377884,-0.11304 -0.155029,0 -0.301984,0.0371 -0.146955,0.0371 -0.282605,0.11143 l 0,-0.27453 q 0.163103,-0.063 0.316518,-0.0937 0.153414,-0.0323 0.298754,-0.0323 0.392418,0 0.586205,0.20348 0.193786,0.20348 0.193786,0.61689 z"
         style="font-size:3.30729175px"
         id="path4416-2"
         inkscape:connector-curvature="0" />
      <path
         d="m 16.874618,236.04606 0,0.51354 0.612042,0 0,0.23092 -0.612042,0 0,0.98186 q 0,0.22124 0.05975,0.28422 0.06137,0.063 0.247078,0.063 l 0.305214,0 0,0.24869 -0.305214,0 q -0.343971,0 -0.474777,-0.12758 -0.130806,-0.12919 -0.130806,-0.46831 l 0,-0.98186 -0.21801,0 0,-0.23092 0.21801,0 0,-0.51354 0.298755,0 z"
         style="font-size:3.30729175px"
         id="path4418-7"
         inkscape:connector-curvature="0" />
      <path
         d="m 19.426141,237.38965 0,0.14534 -1.366195,0 q 0.01938,0.30683 0.184097,0.46832 0.166334,0.15987 0.461858,0.15987 0.171178,0 0.331052,-0.042 0.161489,-0.042 0.319748,-0.12596 l 0,0.28099 q -0.159874,0.0678 -0.327822,0.10336 -0.167949,0.0355 -0.340742,0.0355 -0.43279,0 -0.686327,-0.25192 -0.251923,-0.25192 -0.251923,-0.68148 0,-0.4441 0.239004,-0.70409 0.240618,-0.26162 0.64757,-0.26162 0.364965,0 0.576515,0.23578 0.213165,0.23416 0.213165,0.63788 z m -0.297139,-0.0872 q -0.0032,-0.24384 -0.137266,-0.38918 -0.13242,-0.14534 -0.352045,-0.14534 -0.248693,0 -0.398878,0.14049 -0.148569,0.1405 -0.171178,0.39565 l 1.059367,-0.002 z"
         style="font-size:3.30729175px"
         id="path4420-0"
         inkscape:connector-curvature="0" />
    </g>
    <ellipse
       style="fill:#c0c0c0;fill-opacity:1"
       id="path4283-26"
       cx="31.750004"
       cy="251.35936"
       rx="1.3229167"
       ry="1.3229169" />
    <ellipse
       style="fill:#c0c0c0;fill-opacity:1"
       id="path4283-0-1"
       cx="31.750004"
       cy="255.32811"
       rx="1.3229167"
       ry="1.3229169" />
    <ellipse
       style="fill:#c0c0c0;fill-opacity:1"
       id="path4283-2-8"
       cx="31.750004"
       cy="259.29684"
       rx="1.3229167"
       ry="1.3229169" />
    <ellipse
       style="fill:#c0c0c0;fill-opacity:1"
       id="path4283-0-9-7"
       cx="31.750004"
       cy="263.26559"
       rx="1.3229167"
       ry="1.3229169" />
    <ellipse
       style="fill:#c0c0c0;fill-opacity:1"
       id="path4283-5-9"
       cx="31.750004"
       cy="267.23441"
       rx="1.3229167"
       ry="1.3229169" />
    <ellipse
       style="fill:#c0c0c0;fill-opacity:1"
       id="path4283-0-7-2"
       cx="31.750004"
       cy="271.20316"
       rx="1.3229167"
       ry="1.3229169" />
    <ellipse
       style="fill:#c0c0c0;fill-opacity:1"
       id="path4283-2-4-02"
       cx="31.750004"
       cy="275.17188"
       rx="1.3229167"
       ry="1.3229169" />
    <ellipse
       style="fill:#c0c0c0;fill-opacity:1"
       id="path4283-0-9-2-3"
       cx="31.750004"
       cy="279.14062"
       rx="1.3229167"
       ry="1.3229169" />
    <ellipse
       style="fill:#c0c0c0;fill-opacity:1"
       id="path4283-21-7"
       cx="39.687504"
       cy="251.35936"
       rx="1.3229167"
       ry="1.3229169" />
    <ellipse
       style="fill:#c0c0c0;fill-opacity:1"
       id="path4283-0-96-5"
       cx="39.687504"
       cy="255.32811"
       rx="1.3229167"
       ry="1.3229169" />
    <ellipse
       style="fill:#c0c0c0;fill-opacity:1"
       id="path4283-2-1-9"
       cx="39.687504"
       cy="259.29684"
       rx="1.3229167"
       ry="1.3229169" />
    <ellipse
       style="fill:#c0c0c0;fill-opacity:1"
       id="path4283-0-9-1-2"
       cx="39.687504"
       cy="263.26559"
       rx="1.3229167"
       ry="1.3229169" />
    <ellipse
       style="fill:#c0c0c0;fill-opacity:1"
       id="path4283-5-7-2"
       cx="39.687504"
       cy="267.23441"
       rx="1.3229167"
       ry="1.3229169" />
    <ellipse
       style="fill:#c0c0c0;fill-opacity:1"
       id="path4283-0-7-8-8"
       cx="39.687504"
       cy="271.20316"
       rx="1.3229167"
       ry="1.3229169" />
    <ellipse
       style="fill:#c0c0c0;fill-opacity:1"
       id="path4283-2-4-0-9"
       cx="39.687504"
       cy="275.17188"
       rx="1.3229167"
       ry="1.3229169" />
    <ellipse
       style="fill:#c0c0c0;fill-opacity:1"
       id="path4283-0-9-2-6-7"
       cx="39.687504"
       cy="279.14062"
       rx="1.3229167"
       ry="1.3229169" />
    <ellipse
       style="fill:#c0c0c0;fill-opacity:1"
       id="path4198-8-7-7-6-3"
       cx="31.750004"
       cy="285.09375"
       rx="3.307292"
       ry="3.3072922" />
    <ellipse
       style="fill:#c0c0c0;fill-opacity:1"
       id="path4198-8-7-7-6-1-6"
       cx="39.687504"
       cy="285.09375"
       rx="3.307292"
       ry="3.3072922" />
    <g
       style="font-style:normal;font-weight:normal;font-size:3.30729222px;line-height:125%;font-family:sans-serif;letter-spacing:0px;word-spacing:0px;fill:#ffffff;fill-opacity:1;stroke:none;stroke-width:1px;stroke-linecap:butt;stroke-linejoin:miter;stroke-opacity:1"
       id="text4478-1"
       transform="translate(23.812502,-0.39687551)">
      <path
         d="m 15.875001,290.28012 -0.442479,1.19986 0.886574,0 -0.444095,-1.19986 z m -0.184097,-0.32137 0.36981,0 0.918871,2.41103 -0.339126,0 -0.219625,-0.6185 -1.08682,0 -0.219625,0.6185 -0.343971,0 0.920486,-2.41103 z"
         id="path4490-2"
         inkscape:connector-curvature="0"
         style="fill:#ffffff" />
    </g>
    <g
       style="font-style:normal;font-weight:normal;font-size:3.30729222px;line-height:125%;font-family:sans-serif;letter-spacing:0px;word-spacing:0px;fill:#ffffff;fill-opacity:1;stroke:none;stroke-width:1px;stroke-linecap:butt;stroke-linejoin:miter;stroke-opacity:1"
       id="text4482-9"
       transform="translate(23.812502,-0.39687551)">
      <path
         d="m 7.3561873,290.22682 0,1.87489 0.3940329,0 q 0.4990006,0 0.7299297,-0.22608 0.232544,-0.22609 0.232544,-0.71379 0,-0.48446 -0.232544,-0.70893 -0.2309291,-0.22609 -0.7299297,-0.22609 l -0.3940329,0 z m -0.3262075,-0.26807 0.6701788,0 q 0.7008617,0 1.0286842,0.2923 0.3278224,0.29068 0.3278224,0.91079 0,0.62335 -0.3294373,0.91565 -0.3294373,0.29229 -1.0270693,0.29229 l -0.6701788,0 0,-2.41103 z"
         id="path4487-3"
         inkscape:connector-curvature="0"
         style="fill:#ffffff" />
    </g>
    <ellipse
       style="fill:#c0c0c0;fill-opacity:1"
       id="path4198-8-7-9"
       cx="55.562508"
       cy="229.53123"
       rx="3.307292"
       ry="3.3072922" />
    <ellipse
       style="fill:#c0c0c0;fill-opacity:1"
       id="path4198-8-7-7-26"
       cx="55.562508"
       cy="237.46873"
       rx="3.307292"
       ry="3.3072922" />
    <g
       style="font-style:normal;font-weight:normal;font-size:6.61458397px;line-height:125%;font-family:sans-serif;letter-spacing:0px;word-spacing:0px;fill:#000000;fill-opacity:1;stroke:none;stroke-width:1px;stroke-linecap:butt;stroke-linejoin:miter;stroke-opacity:1"
       id="text4238-4-6"
       transform="translate(47.625005,7.4083538)">
      <path
         d="m 13.643226,237.44294 q 0,-0.32298 -0.134036,-0.50062 -0.132421,-0.17763 -0.373039,-0.17763 -0.239004,0 -0.37304,0.17763 -0.13242,0.17764 -0.13242,0.50062 0,0.32136 0.13242,0.499 0.134036,0.17764 0.37304,0.17764 0.240618,0 0.373039,-0.17764 0.134036,-0.17764 0.134036,-0.499 z m 0.297139,0.70086 q 0,0.46186 -0.205091,0.68633 -0.20509,0.22608 -0.628191,0.22608 -0.156644,0 -0.295525,-0.0242 -0.13888,-0.0226 -0.269686,-0.0711 l 0,-0.28906 q 0.130806,0.0711 0.258382,0.10497 0.127576,0.0339 0.259997,0.0339 0.292295,0 0.437635,-0.15341 0.14534,-0.1518 0.14534,-0.46025 l 0,-0.14695 q -0.09205,0.15987 -0.235774,0.239 -0.143725,0.0791 -0.343971,0.0791 -0.332667,0 -0.536143,-0.25354 -0.203476,-0.25353 -0.203476,-0.67179 0,-0.41987 0.203476,-0.67341 0.203476,-0.25354 0.536143,-0.25354 0.200246,0 0.343971,0.0791 0.143725,0.0791 0.235774,0.23901 l 0,-0.27453 0.297139,0 0,1.5842 z"
         style="font-size:3.30729175px"
         id="path4414-4"
         inkscape:connector-curvature="0" />
      <path
         d="m 15.374386,237.45909 q -0.36012,0 -0.499,0.0824 -0.138881,0.0824 -0.138881,0.28099 0,0.15826 0.103353,0.25192 0.104968,0.0921 0.284221,0.0921 0.247078,0 0.395647,-0.17441 0.150185,-0.17602 0.150185,-0.4667 l 0,-0.0662 -0.295525,0 z m 0.592664,-0.12273 0,1.03191 -0.297139,0 0,-0.27453 q -0.101738,0.16472 -0.253538,0.24385 -0.151799,0.0775 -0.371424,0.0775 -0.277761,0 -0.442479,-0.15503 -0.163104,-0.15664 -0.163104,-0.41825 0,-0.30522 0.203476,-0.46025 0.205091,-0.15503 0.610428,-0.15503 l 0.416641,0 0,-0.0291 q 0,-0.20509 -0.135651,-0.31652 -0.134035,-0.11304 -0.377884,-0.11304 -0.155029,0 -0.301984,0.0371 -0.146955,0.0371 -0.282605,0.11143 l 0,-0.27453 q 0.163103,-0.063 0.316518,-0.0937 0.153414,-0.0323 0.298754,-0.0323 0.392418,0 0.586205,0.20348 0.193786,0.20348 0.193786,0.61689 z"
         style="font-size:3.30729175px"
         id="path4416-9"
         inkscape:connector-curvature="0" />
      <path
         d="m 16.874618,236.04606 0,0.51354 0.612042,0 0,0.23092 -0.612042,0 0,0.98186 q 0,0.22124 0.05975,0.28422 0.06137,0.063 0.247078,0.063 l 0.305214,0 0,0.24869 -0.305214,0 q -0.343971,0 -0.474777,-0.12758 -0.130806,-0.12919 -0.130806,-0.46831 l 0,-0.98186 -0.21801,0 0,-0.23092 0.21801,0 0,-0.51354 0.298755,0 z"
         style="font-size:3.30729175px"
         id="path4418-5"
         inkscape:connector-curvature="0" />
      <path
         d="m 19.426141,237.38965 0,0.14534 -1.366195,0 q 0.01938,0.30683 0.184097,0.46832 0.166334,0.15987 0.461858,0.15987 0.171178,0 0.331052,-0.042 0.161489,-0.042 0.319748,-0.12596 l 0,0.28099 q -0.159874,0.0678 -0.327822,0.10336 -0.167949,0.0355 -0.340742,0.0355 -0.43279,0 -0.686327,-0.25192 -0.251923,-0.25192 -0.251923,-0.68148 0,-0.4441 0.239004,-0.70409 0.240618,-0.26162 0.64757,-0.26162 0.364965,0 0.576515,0.23578 0.213165,0.23416 0.213165,0.63788 z m -0.297139,-0.0872 q -0.0032,-0.24384 -0.137266,-0.38918 -0.13242,-0.14534 -0.352045,-0.14534 -0.248693,0 -0.398878,0.14049 -0.148569,0.1405 -0.171178,0.39565 l 1.059367,-0.002 z"
         style="font-size:3.30729175px"
         id="path4420-04"
         inkscape:connector-curvature="0" />
    </g>
    <ellipse
       style="fill:#c0c0c0;fill-opacity:1"
       id="path4283-7"
       cx="55.562508"
       cy="251.35936"
       rx="1.3229167"
       ry="1.3229169" />
    <ellipse
       style="fill:#c0c0c0;fill-opacity:1"
       id="path4283-0-2"
       cx="55.562508"
       cy="255.32811"
       rx="1.3229167"
       ry="1.3229169" />
    <ellipse
       style="fill:#c0c0c0;fill-opacity:1"
       id="path4283-2-2"
       cx="55.562508"
       cy="259.29684"
       rx="1.3229167"
       ry="1.3229169" />
    <ellipse
       style="fill:#c0c0c0;fill-opacity:1"
       id="path4283-0-9-6"
       cx="55.562508"
       cy="263.26559"
       rx="1.3229167"
       ry="1.3229169" />
    <ellipse
       style="fill:#c0c0c0;fill-opacity:1"
       id="path4283-5-1"
       cx="55.562508"
       cy="267.23441"
       rx="1.3229167"
       ry="1.3229169" />
    <ellipse
       style="fill:#c0c0c0;fill-opacity:1"
       id="path4283-0-7-0"
       cx="55.562508"
       cy="271.20316"
       rx="1.3229167"
       ry="1.3229169" />
    <ellipse
       style="fill:#c0c0c0;fill-opacity:1"
       id="path4283-2-4-6"
       cx="55.562508"
       cy="275.17188"
       rx="1.3229167"
       ry="1.3229169" />
    <ellipse
       style="fill:#c0c0c0;fill-opacity:1"
       id="path4283-0-9-2-1"
       cx="55.562508"
       cy="279.14062"
       rx="1.3229167"
       ry="1.3229169" />
    <ellipse
       style="fill:#c0c0c0;fill-opacity:1"
       id="path4283-21-5"
       cx="63.500008"
       cy="251.35936"
       rx="1.3229167"
       ry="1.3229169" />
    <ellipse
       style="fill:#c0c0c0;fill-opacity:1"
       id="path4283-0-96-9"
       cx="63.500008"
       cy="255.32811"
       rx="1.3229167"
       ry="1.3229169" />
    <ellipse
       style="fill:#c0c0c0;fill-opacity:1"
       id="path4283-2-1-4"
       cx="63.500008"
       cy="259.29684"
       rx="1.3229167"
       ry="1.3229169" />
    <ellipse
       style="fill:#c0c0c0;fill-opacity:1"
       id="path4283-0-9-1-9"
       cx="63.500008"
       cy="263.26559"
       rx="1.3229167"
       ry="1.3229169" />
    <ellipse
       style="fill:#c0c0c0;fill-opacity:1"
       id="path4283-5-7-0"
       cx="63.500008"
       cy="267.23441"
       rx="1.3229167"
       ry="1.3229169" />
    <ellipse
       style="fill:#c0c0c0;fill-opacity:1"
       id="path4283-0-7-8-9"
       cx="63.500008"
       cy="271.20316"
       rx="1.3229167"
       ry="1.3229169" />
    <ellipse
       style="fill:#c0c0c0;fill-opacity:1"
       id="path4283-2-4-0-1"
       cx="63.500008"
       cy="275.17188"
       rx="1.3229167"
       ry="1.3229169" />
    <ellipse
       style="fill:#c0c0c0;fill-opacity:1"
       id="path4283-0-9-2-6-77"
       cx="63.500008"
       cy="279.14062"
       rx="1.3229167"
       ry="1.3229169" />
    <ellipse
       style="fill:#c0c0c0;fill-opacity:1"
       id="path4198-8-7-7-6-11"
       cx="55.562508"
       cy="285.09375"
       rx="3.307292"
       ry="3.3072922" />
    <ellipse
       style="fill:#c0c0c0;fill-opacity:1"
       id="path4198-8-7-7-6-1-5"
       cx="63.500008"
       cy="285.09375"
       rx="3.307292"
       ry="3.3072922" />
    <g
       style="font-style:normal;font-weight:normal;font-size:3.30729222px;line-height:125%;font-family:sans-serif;letter-spacing:0px;word-spacing:0px;fill:#ffffff;fill-opacity:1;stroke:none;stroke-width:1px;stroke-linecap:butt;stroke-linejoin:miter;stroke-opacity:1"
       id="text4478-9"
       transform="translate(47.625005,-0.39687551)">
      <path
         d="m 15.875001,290.28012 -0.442479,1.19986 0.886574,0 -0.444095,-1.19986 z m -0.184097,-0.32137 0.36981,0 0.918871,2.41103 -0.339126,0 -0.219625,-0.6185 -1.08682,0 -0.219625,0.6185 -0.343971,0 0.920486,-2.41103 z"
         id="path4490-7"
         inkscape:connector-curvature="0"
         style="fill:#ffffff" />
    </g>
    <g
       style="font-style:normal;font-weight:normal;font-size:3.30729222px;line-height:125%;font-family:sans-serif;letter-spacing:0px;word-spacing:0px;fill:#ffffff;fill-opacity:1;stroke:none;stroke-width:1px;stroke-linecap:butt;stroke-linejoin:miter;stroke-opacity:1"
       id="text4482-7"
       transform="translate(47.625005,-0.39687551)">
      <path
         d="m 7.3561873,290.22682 0,1.87489 0.3940329,0 q 0.4990006,0 0.7299297,-0.22608 0.232544,-0.22609 0.232544,-0.71379 0,-0.48446 -0.232544,-0.70893 -0.2309291,-0.22609 -0.7299297,-0.22609 l -0.3940329,0 z m -0.3262075,-0.26807 0.6701788,0 q 0.7008617,0 1.0286842,0.2923 0.3278224,0.29068 0.3278224,0.91079 0,0.62335 -0.3294373,0.91565 -0.3294373,0.29229 -1.0270693,0.29229 l -0.6701788,0 0,-2.41103 z"
         id="path4487-6"
         inkscape:connector-curvature="0"
         style="fill:#ffffff" />
    </g>
    <g
       style="font-style:normal;font-weight:normal;font-size:3.30729222px;line-height:125%;font-family:sans-serif;letter-spacing:0px;word-spacing:0px;fill:#000000;fill-opacity:1;stroke:none;stroke-width:1px;stroke-linecap:butt;stroke-linejoin:miter;stroke-opacity:1"
       id="text4013"
       transform="translate(52.034104,-9.6837818)">
      <path
         d="m -39.081921,237.79235 0,0.51354 0.612043,0 0,0.23093 -0.612043,0 0,0.98185 q 0,0.22124 0.05975,0.28422 0.06137,0.063 0.247078,0.063 l 0.305214,0 0,0.24869 -0.305214,0 q -0.343971,0 -0.474777,-0.12757 -0.130806,-0.12919 -0.130806,-0.46832 l 0,-0.98185 -0.21801,0 0,-0.23093 0.21801,0 0,-0.51354 0.298754,0 z"
         id="path4033"
         inkscape:connector-curvature="0" />
      <path
         d="m -37.255481,239.20538 q -0.36012,0 -0.499001,0.0824 -0.13888,0.0824 -0.13888,0.28099 0,0.15826 0.103353,0.25192 0.104967,0.0921 0.28422,0.0921 0.247078,0 0.395648,-0.17441 0.150184,-0.17602 0.150184,-0.4667 l 0,-0.0662 -0.295524,0 z m 0.592664,-0.12273 0,1.03191 -0.29714,0 0,-0.27453 q -0.101738,0.16472 -0.253537,0.24385 -0.1518,0.0775 -0.371425,0.0775 -0.27776,0 -0.442479,-0.15502 -0.163104,-0.15665 -0.163104,-0.41826 0,-0.30521 0.203476,-0.46024 0.205091,-0.15503 0.610428,-0.15503 l 0.416641,0 0,-0.0291 q 0,-0.20509 -0.13565,-0.31652 -0.134036,-0.11304 -0.377884,-0.11304 -0.15503,0 -0.301984,0.0371 -0.146955,0.0371 -0.282606,0.11143 l 0,-0.27453 q 0.163104,-0.063 0.316518,-0.0937 0.153415,-0.0323 0.298755,-0.0323 0.392418,0 0.586204,0.20347 0.193787,0.20348 0.193787,0.61689 z"
         id="path4035"
         inkscape:connector-curvature="0" />
      <path
         d="m -35.761709,239.84326 0,0.95925 -0.298755,0 0,-2.49662 0.298755,0 0,0.27453 q 0.09366,-0.16149 0.235774,-0.239 0.143725,-0.0791 0.342356,-0.0791 0.329437,0 0.534528,0.26161 0.206706,0.26161 0.206706,0.68794 0,0.42633 -0.206706,0.68794 -0.205091,0.26161 -0.534528,0.26161 -0.198631,0 -0.342356,-0.0775 -0.142111,-0.0791 -0.235774,-0.24062 z m 1.01092,-0.63142 q 0,-0.32782 -0.13565,-0.51353 -0.134036,-0.18733 -0.36981,-0.18733 -0.235774,0 -0.371424,0.18733 -0.134036,0.18571 -0.134036,0.51353 0,0.32782 0.134036,0.51515 0.13565,0.18571 0.371424,0.18571 0.235774,0 0.36981,-0.18571 0.13565,-0.18733 0.13565,-0.51515 z"
         id="path4037"
         inkscape:connector-curvature="0" />
      <path
         d="m -32.796773,238.35918 0,0.28099 q -0.125962,-0.0646 -0.261612,-0.0969 -0.135651,-0.0323 -0.280991,-0.0323 -0.22124,0 -0.332667,0.0678 -0.109813,0.0678 -0.109813,0.20348 0,0.10335 0.07913,0.1631 0.07913,0.0581 0.318133,0.11143 l 0.101738,0.0226 q 0.316518,0.0678 0.448939,0.19217 0.134036,0.12273 0.134036,0.34397 0,0.25193 -0.200246,0.39888 -0.198632,0.14695 -0.547448,0.14695 -0.14534,0 -0.303599,-0.0291 -0.156644,-0.0275 -0.331052,-0.084 l 0,-0.30683 q 0.164719,0.0856 0.324593,0.12919 0.159874,0.042 0.316518,0.042 0.209936,0 0.322978,-0.0711 0.113042,-0.0727 0.113042,-0.20348 0,-0.12112 -0.08236,-0.18571 -0.08075,-0.0646 -0.356891,-0.12435 l -0.103353,-0.0242 q -0.276146,-0.0581 -0.398877,-0.17764 -0.122732,-0.12112 -0.122732,-0.33105 0,-0.25515 0.180868,-0.39403 0.180867,-0.13888 0.513534,-0.13888 0.164719,0 0.310059,0.0242 0.14534,0.0242 0.268072,0.0727 z"
         id="path4039"
         inkscape:connector-curvature="0" />
      <path
         d="m -32.126595,239.84003 0.532914,0 0,-1.83936 -0.579746,0.11628 0,-0.29714 0.576516,-0.11628 0.326207,0 0,2.1365 0.532914,0 0,0.27453 -1.388805,0 0,-0.27453 z"
         id="path4041"
         inkscape:connector-curvature="0" />
    </g>
    <g
       style="font-style:normal;font-weight:normal;font-size:3.30729222px;line-height:125%;font-family:sans-serif;letter-spacing:0px;word-spacing:0px;fill:#000000;fill-opacity:1;stroke:none;stroke-width:1px;stroke-linecap:butt;stroke-linejoin:miter;stroke-opacity:1"
       id="text4017"
       transform="translate(52.034104,-13.65253)">
      <path
         d="m -39.081921,249.6986 0,0.51354 0.612043,0 0,0.23093 -0.612043,0 0,0.98185 q 0,0.22124 0.05975,0.28422 0.06137,0.063 0.247078,0.063 l 0.305214,0 0,0.24869 -0.305214,0 q -0.343971,0 -0.474777,-0.12757 -0.130806,-0.12919 -0.130806,-0.46832 l 0,-0.98185 -0.21801,0 0,-0.23093 0.21801,0 0,-0.51354 0.298754,0 z"
         id="path4022"
         inkscape:connector-curvature="0" />
      <path
         d="m -37.255481,251.11163 q -0.36012,0 -0.499001,0.0824 -0.13888,0.0824 -0.13888,0.28099 0,0.15826 0.103353,0.25192 0.104967,0.0921 0.28422,0.0921 0.247078,0 0.395648,-0.17441 0.150184,-0.17602 0.150184,-0.4667 l 0,-0.0662 -0.295524,0 z m 0.592664,-0.12273 0,1.03191 -0.29714,0 0,-0.27453 q -0.101738,0.16472 -0.253537,0.24385 -0.1518,0.0775 -0.371425,0.0775 -0.27776,0 -0.442479,-0.15502 -0.163104,-0.15665 -0.163104,-0.41826 0,-0.30521 0.203476,-0.46024 0.205091,-0.15503 0.610428,-0.15503 l 0.416641,0 0,-0.0291 q 0,-0.20509 -0.13565,-0.31652 -0.134036,-0.11304 -0.377884,-0.11304 -0.15503,0 -0.301984,0.0371 -0.146955,0.0371 -0.282606,0.11143 l 0,-0.27453 q 0.163104,-0.063 0.316518,-0.0937 0.153415,-0.0323 0.298755,-0.0323 0.392418,0 0.586204,0.20347 0.193787,0.20348 0.193787,0.61689 z"
         id="path4024"
         inkscape:connector-curvature="0" />
      <path
         d="m -35.761709,251.74951 0,0.95925 -0.298755,0 0,-2.49662 0.298755,0 0,0.27453 q 0.09366,-0.16149 0.235774,-0.239 0.143725,-0.0791 0.342356,-0.0791 0.329437,0 0.534528,0.26161 0.206706,0.26161 0.206706,0.68794 0,0.42633 -0.206706,0.68794 -0.205091,0.26161 -0.534528,0.26161 -0.198631,0 -0.342356,-0.0775 -0.142111,-0.0791 -0.235774,-0.24062 z m 1.01092,-0.63142 q 0,-0.32782 -0.13565,-0.51353 -0.134036,-0.18733 -0.36981,-0.18733 -0.235774,0 -0.371424,0.18733 -0.134036,0.18571 -0.134036,0.51353 0,0.32782 0.134036,0.51515 0.13565,0.18571 0.371424,0.18571 0.235774,0 0.36981,-0.18571 0.13565,-0.18733 0.13565,-0.51515 z"
         id="path4026"
         inkscape:connector-curvature="0" />
      <path
         d="m -32.796773,250.26543 0,0.28099 q -0.125962,-0.0646 -0.261612,-0.0969 -0.135651,-0.0323 -0.280991,-0.0323 -0.22124,0 -0.332667,0.0678 -0.109813,0.0678 -0.109813,0.20348 0,0.10335 0.07913,0.1631 0.07913,0.0581 0.318133,0.11143 l 0.101738,0.0226 q 0.316518,0.0678 0.448939,0.19217 0.134036,0.12273 0.134036,0.34397 0,0.25193 -0.200246,0.39888 -0.198632,0.14695 -0.547448,0.14695 -0.14534,0 -0.303599,-0.0291 -0.156644,-0.0275 -0.331052,-0.084 l 0,-0.30683 q 0.164719,0.0856 0.324593,0.12919 0.159874,0.042 0.316518,0.042 0.209936,0 0.322978,-0.0711 0.113042,-0.0727 0.113042,-0.20348 0,-0.12112 -0.08236,-0.18571 -0.08075,-0.0646 -0.356891,-0.12435 l -0.103353,-0.0242 q -0.276146,-0.0581 -0.398877,-0.17764 -0.122732,-0.12112 -0.122732,-0.33105 0,-0.25515 0.180868,-0.39403 0.180867,-0.13888 0.513534,-0.13888 0.164719,0 0.310059,0.0242 0.14534,0.0242 0.268072,0.0727 z"
         id="path4028"
         inkscape:connector-curvature="0" />
      <path
         d="m -31.902125,251.74628 1.138496,0 0,0.27453 -1.530914,0 0,-0.27453 q 0.185712,-0.19217 0.50546,-0.51515 0.321363,-0.32459 0.403722,-0.41825 0.156644,-0.17603 0.21801,-0.29714 0.06298,-0.12273 0.06298,-0.24062 0,-0.19217 -0.135651,-0.31329 -0.134036,-0.12112 -0.350431,-0.12112 -0.153414,0 -0.324592,0.0533 -0.169564,0.0533 -0.36335,0.16149 l 0,-0.32943 q 0.197016,-0.0791 0.368194,-0.11951 0.171179,-0.0404 0.313289,-0.0404 0.374654,0 0.597509,0.18733 0.222854,0.18733 0.222854,0.50061 0,0.14857 -0.05652,0.28261 -0.05491,0.13242 -0.201861,0.31329 -0.04037,0.0468 -0.256767,0.2713 -0.216395,0.22285 -0.610428,0.62496 z"
         id="path4030"
         inkscape:connector-curvature="0" />
    </g>
    <g
       style="font-style:normal;font-weight:normal;font-size:3.30729222px;line-height:125%;font-family:sans-serif;letter-spacing:0px;word-spacing:0px;fill:#000000;fill-opacity:1;stroke:none;stroke-width:1px;stroke-linecap:butt;stroke-linejoin:miter;stroke-opacity:1"
       id="text4013-9"
       transform="translate(75.846606,-9.6837818)">
      <path
         d="m -39.081921,237.79235 0,0.51354 0.612043,0 0,0.23093 -0.612043,0 0,0.98185 q 0,0.22124 0.05975,0.28422 0.06137,0.063 0.247078,0.063 l 0.305214,0 0,0.24869 -0.305214,0 q -0.343971,0 -0.474777,-0.12757 -0.130806,-0.12919 -0.130806,-0.46832 l 0,-0.98185 -0.21801,0 0,-0.23093 0.21801,0 0,-0.51354 0.298754,0 z"
         id="path4033-4"
         inkscape:connector-curvature="0" />
      <path
         d="m -37.255481,239.20538 q -0.36012,0 -0.499001,0.0824 -0.13888,0.0824 -0.13888,0.28099 0,0.15826 0.103353,0.25192 0.104967,0.0921 0.28422,0.0921 0.247078,0 0.395648,-0.17441 0.150184,-0.17602 0.150184,-0.4667 l 0,-0.0662 -0.295524,0 z m 0.592664,-0.12273 0,1.03191 -0.29714,0 0,-0.27453 q -0.101738,0.16472 -0.253537,0.24385 -0.1518,0.0775 -0.371425,0.0775 -0.27776,0 -0.442479,-0.15502 -0.163104,-0.15665 -0.163104,-0.41826 0,-0.30521 0.203476,-0.46024 0.205091,-0.15503 0.610428,-0.15503 l 0.416641,0 0,-0.0291 q 0,-0.20509 -0.13565,-0.31652 -0.134036,-0.11304 -0.377884,-0.11304 -0.15503,0 -0.301984,0.0371 -0.146955,0.0371 -0.282606,0.11143 l 0,-0.27453 q 0.163104,-0.063 0.316518,-0.0937 0.153415,-0.0323 0.298755,-0.0323 0.392418,0 0.586204,0.20347 0.193787,0.20348 0.193787,0.61689 z"
         id="path4035-8"
         inkscape:connector-curvature="0" />
      <path
         d="m -35.761709,239.84326 0,0.95925 -0.298755,0 0,-2.49662 0.298755,0 0,0.27453 q 0.09366,-0.16149 0.235774,-0.239 0.143725,-0.0791 0.342356,-0.0791 0.329437,0 0.534528,0.26161 0.206706,0.26161 0.206706,0.68794 0,0.42633 -0.206706,0.68794 -0.205091,0.26161 -0.534528,0.26161 -0.198631,0 -0.342356,-0.0775 -0.142111,-0.0791 -0.235774,-0.24062 z m 1.01092,-0.63142 q 0,-0.32782 -0.13565,-0.51353 -0.134036,-0.18733 -0.36981,-0.18733 -0.235774,0 -0.371424,0.18733 -0.134036,0.18571 -0.134036,0.51353 0,0.32782 0.134036,0.51515 0.13565,0.18571 0.371424,0.18571 0.235774,0 0.36981,-0.18571 0.13565,-0.18733 0.13565,-0.51515 z"
         id="path4037-1"
         inkscape:connector-curvature="0" />
      <path
         d="m -32.796773,238.35918 0,0.28099 q -0.125962,-0.0646 -0.261612,-0.0969 -0.135651,-0.0323 -0.280991,-0.0323 -0.22124,0 -0.332667,0.0678 -0.109813,0.0678 -0.109813,0.20348 0,0.10335 0.07913,0.1631 0.07913,0.0581 0.318133,0.11143 l 0.101738,0.0226 q 0.316518,0.0678 0.448939,0.19217 0.134036,0.12273 0.134036,0.34397 0,0.25193 -0.200246,0.39888 -0.198632,0.14695 -0.547448,0.14695 -0.14534,0 -0.303599,-0.0291 -0.156644,-0.0275 -0.331052,-0.084 l 0,-0.30683 q 0.164719,0.0856 0.324593,0.12919 0.159874,0.042 0.316518,0.042 0.209936,0 0.322978,-0.0711 0.113042,-0.0727 0.113042,-0.20348 0,-0.12112 -0.08236,-0.18571 -0.08075,-0.0646 -0.356891,-0.12435 l -0.103353,-0.0242 q -0.276146,-0.0581 -0.398877,-0.17764 -0.122732,-0.12112 -0.122732,-0.33105 0,-0.25515 0.180868,-0.39403 0.180867,-0.13888 0.513534,-0.13888 0.164719,0 0.310059,0.0242 0.14534,0.0242 0.268072,0.0727 z"
         id="path4039-2"
         inkscape:connector-curvature="0" />
      <path
         d="m -32.126595,239.84003 0.532914,0 0,-1.83936 -0.579746,0.11628 0,-0.29714 0.576516,-0.11628 0.326207,0 0,2.1365 0.532914,0 0,0.27453 -1.388805,0 0,-0.27453 z"
         id="path4041-9"
         inkscape:connector-curvature="0" />
    </g>
    <g
       style="font-style:normal;font-weight:normal;font-size:3.30729222px;line-height:125%;font-family:sans-serif;letter-spacing:0px;word-spacing:0px;fill:#000000;fill-opacity:1;stroke:none;stroke-width:1px;stroke-linecap:butt;stroke-linejoin:miter;stroke-opacity:1"
       id="text4013-3"
       transform="translate(99.659109,-9.6837818)">
      <path
         d="m -39.081921,237.79235 0,0.51354 0.612043,0 0,0.23093 -0.612043,0 0,0.98185 q 0,0.22124 0.05975,0.28422 0.06137,0.063 0.247078,0.063 l 0.305214,0 0,0.24869 -0.305214,0 q -0.343971,0 -0.474777,-0.12757 -0.130806,-0.12919 -0.130806,-0.46832 l 0,-0.98185 -0.21801,0 0,-0.23093 0.21801,0 0,-0.51354 0.298754,0 z"
         id="path4033-9"
         inkscape:connector-curvature="0" />
      <path
         d="m -37.255481,239.20538 q -0.36012,0 -0.499001,0.0824 -0.13888,0.0824 -0.13888,0.28099 0,0.15826 0.103353,0.25192 0.104967,0.0921 0.28422,0.0921 0.247078,0 0.395648,-0.17441 0.150184,-0.17602 0.150184,-0.4667 l 0,-0.0662 -0.295524,0 z m 0.592664,-0.12273 0,1.03191 -0.29714,0 0,-0.27453 q -0.101738,0.16472 -0.253537,0.24385 -0.1518,0.0775 -0.371425,0.0775 -0.27776,0 -0.442479,-0.15502 -0.163104,-0.15665 -0.163104,-0.41826 0,-0.30521 0.203476,-0.46024 0.205091,-0.15503 0.610428,-0.15503 l 0.416641,0 0,-0.0291 q 0,-0.20509 -0.13565,-0.31652 -0.134036,-0.11304 -0.377884,-0.11304 -0.15503,0 -0.301984,0.0371 -0.146955,0.0371 -0.282606,0.11143 l 0,-0.27453 q 0.163104,-0.063 0.316518,-0.0937 0.153415,-0.0323 0.298755,-0.0323 0.392418,0 0.586204,0.20347 0.193787,0.20348 0.193787,0.61689 z"
         id="path4035-0"
         inkscape:connector-curvature="0" />
      <path
         d="m -35.761709,239.84326 0,0.95925 -0.298755,0 0,-2.49662 0.298755,0 0,0.27453 q 0.09366,-0.16149 0.235774,-0.239 0.143725,-0.0791 0.342356,-0.0791 0.329437,0 0.534528,0.26161 0.206706,0.26161 0.206706,0.68794 0,0.42633 -0.206706,0.68794 -0.205091,0.26161 -0.534528,0.26161 -0.198631,0 -0.342356,-0.0775 -0.142111,-0.0791 -0.235774,-0.24062 z m 1.01092,-0.63142 q 0,-0.32782 -0.13565,-0.51353 -0.134036,-0.18733 -0.36981,-0.18733 -0.235774,0 -0.371424,0.18733 -0.134036,0.18571 -0.134036,0.51353 0,0.32782 0.134036,0.51515 0.13565,0.18571 0.371424,0.18571 0.235774,0 0.36981,-0.18571 0.13565,-0.18733 0.13565,-0.51515 z"
         id="path4037-8"
         inkscape:connector-curvature="0" />
      <path
         d="m -32.796773,238.35918 0,0.28099 q -0.125962,-0.0646 -0.261612,-0.0969 -0.135651,-0.0323 -0.280991,-0.0323 -0.22124,0 -0.332667,0.0678 -0.109813,0.0678 -0.109813,0.20348 0,0.10335 0.07913,0.1631 0.07913,0.0581 0.318133,0.11143 l 0.101738,0.0226 q 0.316518,0.0678 0.448939,0.19217 0.134036,0.12273 0.134036,0.34397 0,0.25193 -0.200246,0.39888 -0.198632,0.14695 -0.547448,0.14695 -0.14534,0 -0.303599,-0.0291 -0.156644,-0.0275 -0.331052,-0.084 l 0,-0.30683 q 0.164719,0.0856 0.324593,0.12919 0.159874,0.042 0.316518,0.042 0.209936,0 0.322978,-0.0711 0.113042,-0.0727 0.113042,-0.20348 0,-0.12112 -0.08236,-0.18571 -0.08075,-0.0646 -0.356891,-0.12435 l -0.103353,-0.0242 q -0.276146,-0.0581 -0.398877,-0.17764 -0.122732,-0.12112 -0.122732,-0.33105 0,-0.25515 0.180868,-0.39403 0.180867,-0.13888 0.513534,-0.13888 0.164719,0 0.310059,0.0242 0.14534,0.0242 0.268072,0.0727 z"
         id="path4039-8"
         inkscape:connector-curvature="0" />
      <path
         d="m -32.126595,239.84003 0.532914,0 0,-1.83936 -0.579746,0.11628 0,-0.29714 0.576516,-0.11628 0.326207,0 0,2.1365 0.532914,0 0,0.27453 -1.388805,0 0,-0.27453 z"
         id="path4041-5"
         inkscape:connector-curvature="0" />
    </g>
    <g
       style="font-style:normal;font-weight:normal;font-size:3.30729222px;line-height:125%;font-family:sans-serif;letter-spacing:0px;word-spacing:0px;fill:#000000;fill-opacity:1;stroke:none;stroke-width:1px;stroke-linecap:butt;stroke-linejoin:miter;stroke-opacity:1"
       id="text4017-0"
       transform="translate(75.846606,-13.65253)">
      <path
         d="m -39.081921,249.6986 0,0.51354 0.612043,0 0,0.23093 -0.612043,0 0,0.98185 q 0,0.22124 0.05975,0.28422 0.06137,0.063 0.247078,0.063 l 0.305214,0 0,0.24869 -0.305214,0 q -0.343971,0 -0.474777,-0.12757 -0.130806,-0.12919 -0.130806,-0.46832 l 0,-0.98185 -0.21801,0 0,-0.23093 0.21801,0 0,-0.51354 0.298754,0 z"
         id="path4022-9"
         inkscape:connector-curvature="0" />
      <path
         d="m -37.255481,251.11163 q -0.36012,0 -0.499001,0.0824 -0.13888,0.0824 -0.13888,0.28099 0,0.15826 0.103353,0.25192 0.104967,0.0921 0.28422,0.0921 0.247078,0 0.395648,-0.17441 0.150184,-0.17602 0.150184,-0.4667 l 0,-0.0662 -0.295524,0 z m 0.592664,-0.12273 0,1.03191 -0.29714,0 0,-0.27453 q -0.101738,0.16472 -0.253537,0.24385 -0.1518,0.0775 -0.371425,0.0775 -0.27776,0 -0.442479,-0.15502 -0.163104,-0.15665 -0.163104,-0.41826 0,-0.30521 0.203476,-0.46024 0.205091,-0.15503 0.610428,-0.15503 l 0.416641,0 0,-0.0291 q 0,-0.20509 -0.13565,-0.31652 -0.134036,-0.11304 -0.377884,-0.11304 -0.15503,0 -0.301984,0.0371 -0.146955,0.0371 -0.282606,0.11143 l 0,-0.27453 q 0.163104,-0.063 0.316518,-0.0937 0.153415,-0.0323 0.298755,-0.0323 0.392418,0 0.586204,0.20347 0.193787,0.20348 0.193787,0.61689 z"
         id="path4024-6"
         inkscape:connector-curvature="0" />
      <path
         d="m -35.761709,251.74951 0,0.95925 -0.298755,0 0,-2.49662 0.298755,0 0,0.27453 q 0.09366,-0.16149 0.235774,-0.239 0.143725,-0.0791 0.342356,-0.0791 0.329437,0 0.534528,0.26161 0.206706,0.26161 0.206706,0.68794 0,0.42633 -0.206706,0.68794 -0.205091,0.26161 -0.534528,0.26161 -0.198631,0 -0.342356,-0.0775 -0.142111,-0.0791 -0.235774,-0.24062 z m 1.01092,-0.63142 q 0,-0.32782 -0.13565,-0.51353 -0.134036,-0.18733 -0.36981,-0.18733 -0.235774,0 -0.371424,0.18733 -0.134036,0.18571 -0.134036,0.51353 0,0.32782 0.134036,0.51515 0.13565,0.18571 0.371424,0.18571 0.235774,0 0.36981,-0.18571 0.13565,-0.18733 0.13565,-0.51515 z"
         id="path4026-3"
         inkscape:connector-curvature="0" />
      <path
         d="m -32.796773,250.26543 0,0.28099 q -0.125962,-0.0646 -0.261612,-0.0969 -0.135651,-0.0323 -0.280991,-0.0323 -0.22124,0 -0.332667,0.0678 -0.109813,0.0678 -0.109813,0.20348 0,0.10335 0.07913,0.1631 0.07913,0.0581 0.318133,0.11143 l 0.101738,0.0226 q 0.316518,0.0678 0.448939,0.19217 0.134036,0.12273 0.134036,0.34397 0,0.25193 -0.200246,0.39888 -0.198632,0.14695 -0.547448,0.14695 -0.14534,0 -0.303599,-0.0291 -0.156644,-0.0275 -0.331052,-0.084 l 0,-0.30683 q 0.164719,0.0856 0.324593,0.12919 0.159874,0.042 0.316518,0.042 0.209936,0 0.322978,-0.0711 0.113042,-0.0727 0.113042,-0.20348 0,-0.12112 -0.08236,-0.18571 -0.08075,-0.0646 -0.356891,-0.12435 l -0.103353,-0.0242 q -0.276146,-0.0581 -0.398877,-0.17764 -0.122732,-0.12112 -0.122732,-0.33105 0,-0.25515 0.180868,-0.39403 0.180867,-0.13888 0.513534,-0.13888 0.164719,0 0.310059,0.0242 0.14534,0.0242 0.268072,0.0727 z"
         id="path4028-8"
         inkscape:connector-curvature="0" />
      <path
         d="m -31.902125,251.74628 1.138496,0 0,0.27453 -1.530914,0 0,-0.27453 q 0.185712,-0.19217 0.50546,-0.51515 0.321363,-0.32459 0.403722,-0.41825 0.156644,-0.17603 0.21801,-0.29714 0.06298,-0.12273 0.06298,-0.24062 0,-0.19217 -0.135651,-0.31329 -0.134036,-0.12112 -0.350431,-0.12112 -0.153414,0 -0.324592,0.0533 -0.169564,0.0533 -0.36335,0.16149 l 0,-0.32943 q 0.197016,-0.0791 0.368194,-0.11951 0.171179,-0.0404 0.313289,-0.0404 0.374654,0 0.597509,0.18733 0.222854,0.18733 0.222854,0.50061 0,0.14857 -0.05652,0.28261 -0.05491,0.13242 -0.201861,0.31329 -0.04037,0.0468 -0.256767,0.2713 -0.216395,0.22285 -0.610428,0.62496 z"
         id="path4030-5"
         inkscape:connector-curvature="0" />
    </g>
    <g
       style="font-style:normal;font-weight:normal;font-size:3.30729222px;line-height:125%;font-family:sans-serif;letter-spacing:0px;word-spacing:0px;fill:#000000;fill-opacity:1;stroke:none;stroke-width:1px;stroke-linecap:butt;stroke-linejoin:miter;stroke-opacity:1"
       id="text4017-0-6"
       transform="translate(99.659109,-13.65253)">
      <path
         d="m -39.081921,249.6986 0,0.51354 0.612043,0 0,0.23093 -0.612043,0 0,0.98185 q 0,0.22124 0.05975,0.28422 0.06137,0.063 0.247078,0.063 l 0.305214,0 0,0.24869 -0.305214,0 q -0.343971,0 -0.474777,-0.12757 -0.130806,-0.12919 -0.130806,-0.46832 l 0,-0.98185 -0.21801,0 0,-0.23093 0.21801,0 0,-0.51354 0.298754,0 z"
         id="path4022-9-1"
         inkscape:connector-curvature="0" />
      <path
         d="m -37.255481,251.11163 q -0.36012,0 -0.499001,0.0824 -0.13888,0.0824 -0.13888,0.28099 0,0.15826 0.103353,0.25192 0.104967,0.0921 0.28422,0.0921 0.247078,0 0.395648,-0.17441 0.150184,-0.17602 0.150184,-0.4667 l 0,-0.0662 -0.295524,0 z m 0.592664,-0.12273 0,1.03191 -0.29714,0 0,-0.27453 q -0.101738,0.16472 -0.253537,0.24385 -0.1518,0.0775 -0.371425,0.0775 -0.27776,0 -0.442479,-0.15502 -0.163104,-0.15665 -0.163104,-0.41826 0,-0.30521 0.203476,-0.46024 0.205091,-0.15503 0.610428,-0.15503 l 0.416641,0 0,-0.0291 q 0,-0.20509 -0.13565,-0.31652 -0.134036,-0.11304 -0.377884,-0.11304 -0.15503,0 -0.301984,0.0371 -0.146955,0.0371 -0.282606,0.11143 l 0,-0.27453 q 0.163104,-0.063 0.316518,-0.0937 0.153415,-0.0323 0.298755,-0.0323 0.392418,0 0.586204,0.20347 0.193787,0.20348 0.193787,0.61689 z"
         id="path4024-6-1"
         inkscape:connector-curvature="0" />
      <path
         d="m -35.761709,251.74951 0,0.95925 -0.298755,0 0,-2.49662 0.298755,0 0,0.27453 q 0.09366,-0.16149 0.235774,-0.239 0.143725,-0.0791 0.342356,-0.0791 0.329437,0 0.534528,0.26161 0.206706,0.26161 0.206706,0.68794 0,0.42633 -0.206706,0.68794 -0.205091,0.26161 -0.534528,0.26161 -0.198631,0 -0.342356,-0.0775 -0.142111,-0.0791 -0.235774,-0.24062 z m 1.01092,-0.63142 q 0,-0.32782 -0.13565,-0.51353 -0.134036,-0.18733 -0.36981,-0.18733 -0.235774,0 -0.371424,0.18733 -0.134036,0.18571 -0.134036,0.51353 0,0.32782 0.134036,0.51515 0.13565,0.18571 0.371424,0.18571 0.235774,0 0.36981,-0.18571 0.13565,-0.18733 0.13565,-0.51515 z"
         id="path4026-3-5"
         inkscape:connector-curvature="0" />
      <path
         d="m -32.796773,250.26543 0,0.28099 q -0.125962,-0.0646 -0.261612,-0.0969 -0.135651,-0.0323 -0.280991,-0.0323 -0.22124,0 -0.332667,0.0678 -0.109813,0.0678 -0.109813,0.20348 0,0.10335 0.07913,0.1631 0.07913,0.0581 0.318133,0.11143 l 0.101738,0.0226 q 0.316518,0.0678 0.448939,0.19217 0.134036,0.12273 0.134036,0.34397 0,0.25193 -0.200246,0.39888 -0.198632,0.14695 -0.547448,0.14695 -0.14534,0 -0.303599,-0.0291 -0.156644,-0.0275 -0.331052,-0.084 l 0,-0.30683 q 0.164719,0.0856 0.324593,0.12919 0.159874,0.042 0.316518,0.042 0.209936,0 0.322978,-0.0711 0.113042,-0.0727 0.113042,-0.20348 0,-0.12112 -0.08236,-0.18571 -0.08075,-0.0646 -0.356891,-0.12435 l -0.103353,-0.0242 q -0.276146,-0.0581 -0.398877,-0.17764 -0.122732,-0.12112 -0.122732,-0.33105 0,-0.25515 0.180868,-0.39403 0.180867,-0.13888 0.513534,-0.13888 0.164719,0 0.310059,0.0242 0.14534,0.0242 0.268072,0.0727 z"
         id="path4028-8-9"
         inkscape:connector-curvature="0" />
      <path
         d="m -31.902125,251.74628 1.138496,0 0,0.27453 -1.530914,0 0,-0.27453 q 0.185712,-0.19217 0.50546,-0.51515 0.321363,-0.32459 0.403722,-0.41825 0.156644,-0.17603 0.21801,-0.29714 0.06298,-0.12273 0.06298,-0.24062 0,-0.19217 -0.135651,-0.31329 -0.134036,-0.12112 -0.350431,-0.12112 -0.153414,0 -0.324592,0.0533 -0.169564,0.0533 -0.36335,0.16149 l 0,-0.32943 q 0.197016,-0.0791 0.368194,-0.11951 0.171179,-0.0404 0.313289,-0.0404 0.374654,0 0.597509,0.18733 0.222854,0.18733 0.222854,0.50061 0,0.14857 -0.05652,0.28261 -0.05491,0.13242 -0.201861,0.31329 -0.04037,0.0468 -0.256767,0.2713 -0.216395,0.22285 -0.610428,0.62496 z"
         id="path4030-5-8"
         inkscape:connector-curvature="0" />
    </g>
  </g>
</svg>
