<?xml version="1.0" encoding="UTF-8" standalone="no"?>
<!-- Created with Inkscape (http://www.inkscape.org/) -->

<svg
   xmlns:dc="http://purl.org/dc/elements/1.1/"
   xmlns:cc="http://creativecommons.org/ns#"
   xmlns:rdf="http://www.w3.org/1999/02/22-rdf-syntax-ns#"
   xmlns:svg="http://www.w3.org/2000/svg"
   xmlns="http://www.w3.org/2000/svg"
   xmlns:sodipodi="http://sodipodi.sourceforge.net/DTD/sodipodi-0.dtd"
   xmlns:inkscape="http://www.inkscape.org/namespaces/inkscape"
   width="300"
   height="380"
   viewBox="0 0 79.375007 100.54167"
   version="1.1"
   id="svg8"
   inkscape:version="0.91 r13725"
   sodipodi:docname="Sisyphus.svg">
  <defs
     id="defs2" />
  <sodipodi:namedview
     id="base"
     pagecolor="#ffffff"
     bordercolor="#666666"
     borderopacity="1.0"
     inkscape:pageopacity="0.0"
     inkscape:pageshadow="2"
     inkscape:zoom="1.3676934"
     inkscape:cx="216.83543"
     inkscape:cy="231.7401"
     inkscape:document-units="px"
     inkscape:current-layer="layer1"
     showgrid="false"
     units="px"
     inkscape:snap-bbox="true"
     inkscape:snap-page="true"
     inkscape:bbox-nodes="true"
     inkscape:snap-bbox-edge-midpoints="true"
     inkscape:window-width="1598"
     inkscape:window-height="880"
     inkscape:window-x="0"
     inkscape:window-y="18"
     inkscape:window-maximized="0"
     showguides="false">
    <inkscape:grid
       type="xygrid"
       id="grid3396" />
    <sodipodi:guide
       position="-14.213064,48.660488"
       orientation="1,0"
       id="guide4573" />
  </sodipodi:namedview>
  <metadata
     id="metadata5">
    <rdf:RDF>
      <cc:Work
         rdf:about="">
        <dc:format>image/svg+xml</dc:format>
        <dc:type
           rdf:resource="http://purl.org/dc/dcmitype/StillImage" />
        <dc:title />
      </cc:Work>
    </rdf:RDF>
  </metadata>
  <g
     inkscape:label="Layer 1"
     inkscape:groupmode="layer"
     id="layer1"
     transform="translate(0,-196.45831)">
    <path
       style="opacity:1;fill:#f0f0f0;fill-opacity:1;fill-rule:evenodd;stroke:none;stroke-width:0.48607069;stroke-linecap:butt;stroke-linejoin:round;stroke-miterlimit:4;stroke-dasharray:none;stroke-dashoffset:0;stroke-opacity:1;paint-order:normal"
       d="m 0,196.45831 79.375008,0 0,100.54168 -79.375008,0 z"
       id="rect817"
       inkscape:connector-curvature="0" />
    <rect
       style="fill:#c0c0c0;fill-opacity:1"
       id="rect3379-1"
       width="79.375008"
       height="5.2916675"
       x="0"
       y="201.08852" />
    <text
       xml:space="preserve"
       style="font-style:normal;font-weight:normal;font-size:3.30729222px;line-height:125%;font-family:sans-serif;letter-spacing:0px;word-spacing:0px;fill:#000000;fill-opacity:1;stroke:none;stroke-width:1px;stroke-linecap:butt;stroke-linejoin:miter;stroke-opacity:1"
       x="27.781254"
       y="225.56247"
       id="text3826"
       sodipodi:linespacing="125%"><tspan
         sodipodi:role="line"
         id="tspan3828"
         x="27.781254"
         y="225.56247" /></text>
    <rect
       style="fill:#333333;fill-opacity:1"
       id="rect3787-8-7-4-7-0-6-7"
       width="7.937501"
       height="15.875003"
       x="59.531254"
       y="213.65622"
       ry="1.3333334" />
    <g
       style="font-style:normal;font-weight:normal;font-size:3.30729222px;line-height:125%;font-family:sans-serif;letter-spacing:0px;word-spacing:0px;fill:#000000;fill-opacity:1;stroke:none;stroke-width:1px;stroke-linecap:butt;stroke-linejoin:miter;stroke-opacity:1"
       id="text4815">
      <path
         inkscape:connector-curvature="0"
         d="m 8.4934152,217.0727 0.2971396,0 0,1.80868 -0.2971396,0 0,-1.80868 z m 0,-0.70409 0.2971396,0 0,0.37627 -0.2971396,0 0,-0.37627 z"
         id="path5421" />
      <path
         inkscape:connector-curvature="0"
         d="m 10.914134,217.78971 0,1.09167 -0.29714,0 0,-1.08198 q 0,-0.25676 -0.100123,-0.38434 -0.100123,-0.12758 -0.300369,-0.12758 -0.2406188,0 -0.3794993,0.15342 -0.1388804,0.15341 -0.1388804,0.41825 l 0,1.02223 -0.2987544,0 0,-1.80868 0.2987544,0 0,0.28099 q 0.1065826,-0.1631 0.2503077,-0.24384 0.14534,-0.0807 0.334282,-0.0807 0.311674,0 0.471548,0.19379 0.159874,0.19217 0.159874,0.56682 z"
         id="path5423" />
    </g>
    <g
       style="font-style:normal;font-weight:normal;font-size:3.30729222px;line-height:125%;font-family:sans-serif;letter-spacing:0px;word-spacing:0px;fill:#000000;fill-opacity:1;stroke:none;stroke-width:1px;stroke-linecap:butt;stroke-linejoin:miter;stroke-opacity:1"
       id="text4819">
      <path
         inkscape:connector-curvature="0"
         d="m 5.1312165,225.45429 q 0,-0.32298 -0.1340357,-0.50061 -0.1324209,-0.17764 -0.3730393,-0.17764 -0.2390036,0 -0.3730393,0.17764 -0.1324209,0.17763 -0.1324209,0.50061 0,0.32137 0.1324209,0.499 0.1340357,0.17764 0.3730393,0.17764 0.2406184,0 0.3730393,-0.17764 0.1340357,-0.17763 0.1340357,-0.499 z m 0.2971396,0.70086 q 0,0.46186 -0.2050909,0.68633 -0.2050909,0.22609 -0.6281917,0.22609 -0.1566442,0 -0.2955247,-0.0242 -0.1388804,-0.0226 -0.2696864,-0.0711 l 0,-0.28907 q 0.130806,0.0711 0.2583822,0.10497 0.1275762,0.0339 0.2599971,0.0339 0.2922949,0 0.4376348,-0.15341 0.14534,-0.1518 0.14534,-0.46024 l 0,-0.14696 q -0.092049,0.15987 -0.2357737,0.239 -0.1437251,0.0791 -0.3439713,0.0791 -0.3326671,0 -0.5361431,-0.25353 -0.203476,-0.25354 -0.203476,-0.6718 0,-0.41987 0.203476,-0.67341 0.203476,-0.25353 0.5361431,-0.25353 0.2002462,0 0.3439713,0.0791 0.1437251,0.0791 0.2357737,0.239 l 0,-0.27453 0.2971396,0 0,1.5842 z"
         id="path5412" />
      <path
         inkscape:connector-curvature="0"
         d="m 6.8623774,225.47044 q -0.3601202,0 -0.4990007,0.0824 -0.1388804,0.0824 -0.1388804,0.28099 0,0.15826 0.1033529,0.25192 0.1049677,0.0921 0.2842204,0.0921 0.247078,0 0.3956477,-0.17441 0.1501847,-0.17602 0.1501847,-0.4667 l 0,-0.0662 -0.2955246,0 z m 0.5926641,-0.12273 0,1.03191 -0.2971395,0 0,-0.27453 q -0.101738,0.16472 -0.2535375,0.24385 -0.1517996,0.0775 -0.3714245,0.0775 -0.2777608,0 -0.4424795,-0.15503 -0.1631037,-0.15665 -0.1631037,-0.41826 0,-0.30521 0.2034759,-0.46024 0.2050909,-0.15503 0.610428,-0.15503 l 0.4166413,0 0,-0.0291 q 0,-0.20509 -0.1356507,-0.31652 -0.1340357,-0.11304 -0.3778839,-0.11304 -0.1550294,0 -0.3019842,0.0371 -0.1469549,0.0371 -0.2826056,0.11143 l 0,-0.27453 q 0.1631038,-0.063 0.3165182,-0.0937 0.1534145,-0.0323 0.2987545,-0.0323 0.3924179,0 0.5862046,0.20347 0.1937866,0.20348 0.1937866,0.61689 z"
         id="path5414" />
      <path
         inkscape:connector-curvature="0"
         d="m 8.3626092,224.05741 0,0.51354 0.6120429,0 0,0.23093 -0.6120429,0 0,0.98185 q 0,0.22124 0.059751,0.28422 0.061366,0.063 0.247078,0.063 l 0.305214,0 0,0.24869 -0.305214,0 q -0.3439713,0 -0.4747773,-0.12757 -0.130806,-0.12919 -0.130806,-0.46832 l 0,-0.98185 -0.21801,0 0,-0.23093 0.21801,0 0,-0.51354 0.2987544,0 z"
         id="path5416" />
      <path
         inkscape:connector-curvature="0"
         d="m 10.914133,225.401 0,0.14534 -1.3661956,0 q 0.019379,0.30683 0.1840973,0.46832 0.1663336,0.15987 0.4618583,0.15987 0.171178,0 0.331052,-0.042 0.161489,-0.042 0.319748,-0.12597 l 0,0.28099 q -0.159874,0.0678 -0.327822,0.10336 -0.167949,0.0355 -0.340742,0.0355 -0.4327901,0 -0.6863276,-0.25193 -0.2519226,-0.25192 -0.2519226,-0.68148 0,-0.44409 0.2390035,-0.70409 0.2406184,-0.26161 0.6475707,-0.26161 0.364965,0 0.576515,0.23577 0.213165,0.23416 0.213165,0.63788 z m -0.297139,-0.0872 q -0.0032,-0.24385 -0.137266,-0.38919 -0.132421,-0.14534 -0.352046,-0.14534 -0.2486924,0 -0.3988771,0.14049 -0.1485697,0.1405 -0.1711782,0.39565 l 1.0593673,-0.002 z"
         id="path5418" />
    </g>
    <g
       style="font-style:normal;font-weight:normal;font-size:3.30729222px;line-height:125%;font-family:sans-serif;letter-spacing:0px;word-spacing:0px;fill:#000000;fill-opacity:1;stroke:none;stroke-width:1px;stroke-linecap:butt;stroke-linejoin:miter;stroke-opacity:1"
       id="text5265">
      <path
         inkscape:connector-curvature="0"
         d="m 69.621727,217.16231 q -0.239003,0 -0.377884,0.18733 -0.13888,0.18571 -0.13888,0.5103 0,0.32459 0.137265,0.51192 0.138881,0.18571 0.379499,0.18571 0.237389,0 0.376269,-0.18732 0.138881,-0.18733 0.138881,-0.51031 0,-0.32136 -0.138881,-0.50869 -0.13888,-0.18894 -0.376269,-0.18894 z m 0,-0.25192 q 0.387573,0 0.608813,0.25192 0.22124,0.25192 0.22124,0.69763 0,0.4441 -0.22124,0.69763 -0.22124,0.25193 -0.608813,0.25193 -0.389188,0 -0.610428,-0.25193 -0.219625,-0.25353 -0.219625,-0.69763 0,-0.44571 0.219625,-0.69763 0.22124,-0.25192 0.610428,-0.25192 z"
         id="path5435" />
      <path
         inkscape:connector-curvature="0"
         d="m 70.912023,218.04888 0,-1.09489 0.29714,0 0,1.08359 q 0,0.25677 0.100123,0.38596 0.100123,0.12757 0.300369,0.12757 0.240619,0 0.379499,-0.15341 0.140495,-0.15341 0.140495,-0.41826 l 0,-1.02545 0.29714,0 0,1.80867 -0.29714,0 0,-0.27776 q -0.108197,0.16472 -0.251922,0.24547 -0.14211,0.0791 -0.331052,0.0791 -0.311674,0 -0.473163,-0.19379 -0.161489,-0.19379 -0.161489,-0.56683 z m 0.747694,-1.13849 0,0 z"
         id="path5437" />
      <path
         inkscape:connector-curvature="0"
         d="m 73.335971,216.44045 0,0.51354 0.612043,0 0,0.23093 -0.612043,0 0,0.98185 q 0,0.22124 0.05975,0.28422 0.06137,0.063 0.247078,0.063 l 0.305214,0 0,0.24869 -0.305214,0 q -0.343971,0 -0.474777,-0.12757 -0.130806,-0.12919 -0.130806,-0.46832 l 0,-0.98185 -0.21801,0 0,-0.23093 0.21801,0 0,-0.51354 0.298754,0 z"
         id="path5439" />
    </g>
    <g
       style="font-style:normal;font-weight:normal;font-size:3.30729222px;line-height:125%;font-family:sans-serif;letter-spacing:0px;word-spacing:0px;fill:#000000;fill-opacity:1;stroke:none;stroke-width:1px;stroke-linecap:butt;stroke-linejoin:miter;stroke-opacity:1"
       id="text5269">
      <path
         inkscape:connector-curvature="0"
         d="m 69.308441,224.15267 0,0.51354 0.612043,0 0,0.23093 -0.612043,0 0,0.98185 q 0,0.22124 0.05975,0.28422 0.06137,0.063 0.247078,0.063 l 0.305214,0 0,0.24869 -0.305214,0 q -0.343971,0 -0.474777,-0.12757 -0.130806,-0.12919 -0.130806,-0.46832 l 0,-0.98185 -0.21801,0 0,-0.23093 0.21801,0 0,-0.51354 0.298754,0 z"
         id="path5426" />
      <path
         inkscape:connector-curvature="0"
         d="m 71.360965,224.94397 q -0.05006,-0.0291 -0.109813,-0.042 -0.05814,-0.0145 -0.129191,-0.0145 -0.251922,0 -0.387573,0.16472 -0.134036,0.1631 -0.134036,0.46993 l 0,0.95278 -0.298754,0 0,-1.80867 0.298754,0 0,0.28099 q 0.09366,-0.16472 0.243849,-0.24385 0.150184,-0.0807 0.364964,-0.0807 0.03068,0 0.06783,0.005 0.03714,0.003 0.08236,0.0113 l 0.0016,0.30521 z"
         id="path5428" />
      <path
         inkscape:connector-curvature="0"
         d="m 71.675868,224.66621 0.29714,0 0,1.80867 -0.29714,0 0,-1.80867 z m 0,-0.70409 0.29714,0 0,0.37627 -0.29714,0 0,-0.37627 z"
         id="path5430" />
      <path
         inkscape:connector-curvature="0"
         d="m 73.783298,225.54955 q 0,-0.32297 -0.134036,-0.50061 -0.13242,-0.17764 -0.373039,-0.17764 -0.239003,0 -0.373039,0.17764 -0.132421,0.17764 -0.132421,0.50061 0,0.32137 0.132421,0.499 0.134036,0.17764 0.373039,0.17764 0.240619,0 0.373039,-0.17764 0.134036,-0.17763 0.134036,-0.499 z m 0.29714,0.70086 q 0,0.46186 -0.205091,0.68633 -0.205091,0.22609 -0.628192,0.22609 -0.156644,0 -0.295524,-0.0242 -0.138881,-0.0226 -0.269687,-0.071 l 0,-0.28907 q 0.130806,0.0711 0.258382,0.10497 0.127577,0.0339 0.259997,0.0339 0.292295,0 0.437635,-0.15341 0.14534,-0.1518 0.14534,-0.46024 l 0,-0.14696 q -0.09205,0.15987 -0.235773,0.239 -0.143726,0.0791 -0.343972,0.0791 -0.332667,0 -0.536143,-0.25353 -0.203476,-0.25354 -0.203476,-0.6718 0,-0.41987 0.203476,-0.67341 0.203476,-0.25353 0.536143,-0.25353 0.200246,0 0.343972,0.0791 0.143725,0.0791 0.235773,0.239 l 0,-0.27453 0.29714,0 0,1.5842 z"
         id="path5432" />
    </g>
    <rect
       style="fill:#333333;fill-opacity:1"
       id="rect3787-8-7-4-7-0-6-7-8"
       width="7.937501"
       height="15.875003"
       x="59.531254"
       y="233.49998"
       ry="1.3333334" />
    <g
       style="font-style:normal;font-weight:normal;font-size:3.30729222px;line-height:125%;font-family:sans-serif;letter-spacing:0px;word-spacing:0px;fill:#000000;fill-opacity:1;stroke:none;stroke-width:1px;stroke-linecap:butt;stroke-linejoin:miter;stroke-opacity:1"
       id="text4815-2"
       transform="translate(5.8220119e-8,19.843759)">
      <path
         inkscape:connector-curvature="0"
         d="m 8.4934152,217.0727 0.2971396,0 0,1.80868 -0.2971396,0 0,-1.80868 z m 0,-0.70409 0.2971396,0 0,0.37627 -0.2971396,0 0,-0.37627 z"
         id="path5421-3" />
      <path
         inkscape:connector-curvature="0"
         d="m 10.914134,217.78971 0,1.09167 -0.29714,0 0,-1.08198 q 0,-0.25676 -0.100123,-0.38434 -0.100123,-0.12758 -0.300369,-0.12758 -0.2406188,0 -0.3794993,0.15342 -0.1388804,0.15341 -0.1388804,0.41825 l 0,1.02223 -0.2987544,0 0,-1.80868 0.2987544,0 0,0.28099 q 0.1065826,-0.1631 0.2503077,-0.24384 0.14534,-0.0807 0.334282,-0.0807 0.311674,0 0.471548,0.19379 0.159874,0.19217 0.159874,0.56682 z"
         id="path5423-0" />
    </g>
    <g
       style="font-style:normal;font-weight:normal;font-size:3.30729222px;line-height:125%;font-family:sans-serif;letter-spacing:0px;word-spacing:0px;fill:#000000;fill-opacity:1;stroke:none;stroke-width:1px;stroke-linecap:butt;stroke-linejoin:miter;stroke-opacity:1"
       id="text4819-7"
       transform="translate(5.8220119e-8,19.843759)">
      <path
         inkscape:connector-curvature="0"
         d="m 5.1312165,225.45429 q 0,-0.32298 -0.1340357,-0.50061 -0.1324209,-0.17764 -0.3730393,-0.17764 -0.2390036,0 -0.3730393,0.17764 -0.1324209,0.17763 -0.1324209,0.50061 0,0.32137 0.1324209,0.499 0.1340357,0.17764 0.3730393,0.17764 0.2406184,0 0.3730393,-0.17764 0.1340357,-0.17763 0.1340357,-0.499 z m 0.2971396,0.70086 q 0,0.46186 -0.2050909,0.68633 -0.2050909,0.22609 -0.6281917,0.22609 -0.1566442,0 -0.2955247,-0.0242 -0.1388804,-0.0226 -0.2696864,-0.0711 l 0,-0.28907 q 0.130806,0.0711 0.2583822,0.10497 0.1275762,0.0339 0.2599971,0.0339 0.2922949,0 0.4376348,-0.15341 0.14534,-0.1518 0.14534,-0.46024 l 0,-0.14696 q -0.092049,0.15987 -0.2357737,0.239 -0.1437251,0.0791 -0.3439713,0.0791 -0.3326671,0 -0.5361431,-0.25353 -0.203476,-0.25354 -0.203476,-0.6718 0,-0.41987 0.203476,-0.67341 0.203476,-0.25353 0.5361431,-0.25353 0.2002462,0 0.3439713,0.0791 0.1437251,0.0791 0.2357737,0.239 l 0,-0.27453 0.2971396,0 0,1.5842 z"
         id="path5412-7" />
      <path
         inkscape:connector-curvature="0"
         d="m 6.8623774,225.47044 q -0.3601202,0 -0.4990007,0.0824 -0.1388804,0.0824 -0.1388804,0.28099 0,0.15826 0.1033529,0.25192 0.1049677,0.0921 0.2842204,0.0921 0.247078,0 0.3956477,-0.17441 0.1501847,-0.17602 0.1501847,-0.4667 l 0,-0.0662 -0.2955246,0 z m 0.5926641,-0.12273 0,1.03191 -0.2971395,0 0,-0.27453 q -0.101738,0.16472 -0.2535375,0.24385 -0.1517996,0.0775 -0.3714245,0.0775 -0.2777608,0 -0.4424795,-0.15503 -0.1631037,-0.15665 -0.1631037,-0.41826 0,-0.30521 0.2034759,-0.46024 0.2050909,-0.15503 0.610428,-0.15503 l 0.4166413,0 0,-0.0291 q 0,-0.20509 -0.1356507,-0.31652 -0.1340357,-0.11304 -0.3778839,-0.11304 -0.1550294,0 -0.3019842,0.0371 -0.1469549,0.0371 -0.2826056,0.11143 l 0,-0.27453 q 0.1631038,-0.063 0.3165182,-0.0937 0.1534145,-0.0323 0.2987545,-0.0323 0.3924179,0 0.5862046,0.20347 0.1937866,0.20348 0.1937866,0.61689 z"
         id="path5414-7" />
      <path
         inkscape:connector-curvature="0"
         d="m 8.3626092,224.05741 0,0.51354 0.6120429,0 0,0.23093 -0.6120429,0 0,0.98185 q 0,0.22124 0.059751,0.28422 0.061366,0.063 0.247078,0.063 l 0.305214,0 0,0.24869 -0.305214,0 q -0.3439713,0 -0.4747773,-0.12757 -0.130806,-0.12919 -0.130806,-0.46832 l 0,-0.98185 -0.21801,0 0,-0.23093 0.21801,0 0,-0.51354 0.2987544,0 z"
         id="path5416-6" />
      <path
         inkscape:connector-curvature="0"
         d="m 10.914133,225.401 0,0.14534 -1.3661956,0 q 0.019379,0.30683 0.1840973,0.46832 0.1663336,0.15987 0.4618583,0.15987 0.171178,0 0.331052,-0.042 0.161489,-0.042 0.319748,-0.12597 l 0,0.28099 q -0.159874,0.0678 -0.327822,0.10336 -0.167949,0.0355 -0.340742,0.0355 -0.4327901,0 -0.6863276,-0.25193 -0.2519226,-0.25192 -0.2519226,-0.68148 0,-0.44409 0.2390035,-0.70409 0.2406184,-0.26161 0.6475707,-0.26161 0.364965,0 0.576515,0.23577 0.213165,0.23416 0.213165,0.63788 z m -0.297139,-0.0872 q -0.0032,-0.24385 -0.137266,-0.38919 -0.132421,-0.14534 -0.352046,-0.14534 -0.2486924,0 -0.3988771,0.14049 -0.1485697,0.1405 -0.1711782,0.39565 l 1.0593673,-0.002 z"
         id="path5418-9" />
    </g>
    <g
       style="font-style:normal;font-weight:normal;font-size:3.30729222px;line-height:125%;font-family:sans-serif;letter-spacing:0px;word-spacing:0px;fill:#000000;fill-opacity:1;stroke:none;stroke-width:1px;stroke-linecap:butt;stroke-linejoin:miter;stroke-opacity:1"
       id="text5265-1"
       transform="translate(5.8220119e-8,19.843759)">
      <path
         inkscape:connector-curvature="0"
         d="m 69.621727,217.16231 q -0.239003,0 -0.377884,0.18733 -0.13888,0.18571 -0.13888,0.5103 0,0.32459 0.137265,0.51192 0.138881,0.18571 0.379499,0.18571 0.237389,0 0.376269,-0.18732 0.138881,-0.18733 0.138881,-0.51031 0,-0.32136 -0.138881,-0.50869 -0.13888,-0.18894 -0.376269,-0.18894 z m 0,-0.25192 q 0.387573,0 0.608813,0.25192 0.22124,0.25192 0.22124,0.69763 0,0.4441 -0.22124,0.69763 -0.22124,0.25193 -0.608813,0.25193 -0.389188,0 -0.610428,-0.25193 -0.219625,-0.25353 -0.219625,-0.69763 0,-0.44571 0.219625,-0.69763 0.22124,-0.25192 0.610428,-0.25192 z"
         id="path5435-1" />
      <path
         inkscape:connector-curvature="0"
         d="m 70.912023,218.04888 0,-1.09489 0.29714,0 0,1.08359 q 0,0.25677 0.100123,0.38596 0.100123,0.12757 0.300369,0.12757 0.240619,0 0.379499,-0.15341 0.140495,-0.15341 0.140495,-0.41826 l 0,-1.02545 0.29714,0 0,1.80867 -0.29714,0 0,-0.27776 q -0.108197,0.16472 -0.251922,0.24547 -0.14211,0.0791 -0.331052,0.0791 -0.311674,0 -0.473163,-0.19379 -0.161489,-0.19379 -0.161489,-0.56683 z m 0.747694,-1.13849 0,0 z"
         id="path5437-9" />
      <path
         inkscape:connector-curvature="0"
         d="m 73.335971,216.44045 0,0.51354 0.612043,0 0,0.23093 -0.612043,0 0,0.98185 q 0,0.22124 0.05975,0.28422 0.06137,0.063 0.247078,0.063 l 0.305214,0 0,0.24869 -0.305214,0 q -0.343971,0 -0.474777,-0.12757 -0.130806,-0.12919 -0.130806,-0.46832 l 0,-0.98185 -0.21801,0 0,-0.23093 0.21801,0 0,-0.51354 0.298754,0 z"
         id="path5439-0" />
    </g>
    <g
       style="font-style:normal;font-weight:normal;font-size:3.30729222px;line-height:125%;font-family:sans-serif;letter-spacing:0px;word-spacing:0px;fill:#000000;fill-opacity:1;stroke:none;stroke-width:1px;stroke-linecap:butt;stroke-linejoin:miter;stroke-opacity:1"
       id="text5269-8"
       transform="translate(5.8220119e-8,19.843759)">
      <path
         inkscape:connector-curvature="0"
         d="m 69.308441,224.15267 0,0.51354 0.612043,0 0,0.23093 -0.612043,0 0,0.98185 q 0,0.22124 0.05975,0.28422 0.06137,0.063 0.247078,0.063 l 0.305214,0 0,0.24869 -0.305214,0 q -0.343971,0 -0.474777,-0.12757 -0.130806,-0.12919 -0.130806,-0.46832 l 0,-0.98185 -0.21801,0 0,-0.23093 0.21801,0 0,-0.51354 0.298754,0 z"
         id="path5426-9" />
      <path
         inkscape:connector-curvature="0"
         d="m 71.360965,224.94397 q -0.05006,-0.0291 -0.109813,-0.042 -0.05814,-0.0145 -0.129191,-0.0145 -0.251922,0 -0.387573,0.16472 -0.134036,0.1631 -0.134036,0.46993 l 0,0.95278 -0.298754,0 0,-1.80867 0.298754,0 0,0.28099 q 0.09366,-0.16472 0.243849,-0.24385 0.150184,-0.0807 0.364964,-0.0807 0.03068,0 0.06783,0.005 0.03714,0.003 0.08236,0.0113 l 0.0016,0.30521 z"
         id="path5428-8" />
      <path
         inkscape:connector-curvature="0"
         d="m 71.675868,224.66621 0.29714,0 0,1.80867 -0.29714,0 0,-1.80867 z m 0,-0.70409 0.29714,0 0,0.37627 -0.29714,0 0,-0.37627 z"
         id="path5430-8" />
      <path
         inkscape:connector-curvature="0"
         d="m 73.783298,225.54955 q 0,-0.32297 -0.134036,-0.50061 -0.13242,-0.17764 -0.373039,-0.17764 -0.239003,0 -0.373039,0.17764 -0.132421,0.17764 -0.132421,0.50061 0,0.32137 0.132421,0.499 0.134036,0.17764 0.373039,0.17764 0.240619,0 0.373039,-0.17764 0.134036,-0.17763 0.134036,-0.499 z m 0.29714,0.70086 q 0,0.46186 -0.205091,0.68633 -0.205091,0.22609 -0.628192,0.22609 -0.156644,0 -0.295524,-0.0242 -0.138881,-0.0226 -0.269687,-0.071 l 0,-0.28907 q 0.130806,0.0711 0.258382,0.10497 0.127577,0.0339 0.259997,0.0339 0.292295,0 0.437635,-0.15341 0.14534,-0.1518 0.14534,-0.46024 l 0,-0.14696 q -0.09205,0.15987 -0.235773,0.239 -0.143726,0.0791 -0.343972,0.0791 -0.332667,0 -0.536143,-0.25353 -0.203476,-0.25354 -0.203476,-0.6718 0,-0.41987 0.203476,-0.67341 0.203476,-0.25353 0.536143,-0.25353 0.200246,0 0.343972,0.0791 0.143725,0.0791 0.235773,0.239 l 0,-0.27453 0.29714,0 0,1.5842 z"
         id="path5432-0" />
    </g>
    <rect
       style="fill:#333333;fill-opacity:1"
       id="rect3787-8-7-4-7-0-6-7-7"
       width="7.937501"
       height="15.875003"
       x="59.531254"
       y="253.34373"
       ry="1.3333334" />
    <g
       style="font-style:normal;font-weight:normal;font-size:3.30729222px;line-height:125%;font-family:sans-serif;letter-spacing:0px;word-spacing:0px;fill:#000000;fill-opacity:1;stroke:none;stroke-width:1px;stroke-linecap:butt;stroke-linejoin:miter;stroke-opacity:1"
       id="text4815-5"
       transform="translate(5.8220119e-8,39.687513)">
      <path
         inkscape:connector-curvature="0"
         d="m 8.4934152,217.0727 0.2971396,0 0,1.80868 -0.2971396,0 0,-1.80868 z m 0,-0.70409 0.2971396,0 0,0.37627 -0.2971396,0 0,-0.37627 z"
         id="path5421-6" />
      <path
         inkscape:connector-curvature="0"
         d="m 10.914134,217.78971 0,1.09167 -0.29714,0 0,-1.08198 q 0,-0.25676 -0.100123,-0.38434 -0.100123,-0.12758 -0.300369,-0.12758 -0.2406188,0 -0.3794993,0.15342 -0.1388804,0.15341 -0.1388804,0.41825 l 0,1.02223 -0.2987544,0 0,-1.80868 0.2987544,0 0,0.28099 q 0.1065826,-0.1631 0.2503077,-0.24384 0.14534,-0.0807 0.334282,-0.0807 0.311674,0 0.471548,0.19379 0.159874,0.19217 0.159874,0.56682 z"
         id="path5423-5" />
    </g>
    <g
       style="font-style:normal;font-weight:normal;font-size:3.30729222px;line-height:125%;font-family:sans-serif;letter-spacing:0px;word-spacing:0px;fill:#000000;fill-opacity:1;stroke:none;stroke-width:1px;stroke-linecap:butt;stroke-linejoin:miter;stroke-opacity:1"
       id="text4819-6"
       transform="translate(5.8220119e-8,39.687513)">
      <path
         inkscape:connector-curvature="0"
         d="m 5.1312165,225.45429 q 0,-0.32298 -0.1340357,-0.50061 -0.1324209,-0.17764 -0.3730393,-0.17764 -0.2390036,0 -0.3730393,0.17764 -0.1324209,0.17763 -0.1324209,0.50061 0,0.32137 0.1324209,0.499 0.1340357,0.17764 0.3730393,0.17764 0.2406184,0 0.3730393,-0.17764 0.1340357,-0.17763 0.1340357,-0.499 z m 0.2971396,0.70086 q 0,0.46186 -0.2050909,0.68633 -0.2050909,0.22609 -0.6281917,0.22609 -0.1566442,0 -0.2955247,-0.0242 -0.1388804,-0.0226 -0.2696864,-0.0711 l 0,-0.28907 q 0.130806,0.0711 0.2583822,0.10497 0.1275762,0.0339 0.2599971,0.0339 0.2922949,0 0.4376348,-0.15341 0.14534,-0.1518 0.14534,-0.46024 l 0,-0.14696 q -0.092049,0.15987 -0.2357737,0.239 -0.1437251,0.0791 -0.3439713,0.0791 -0.3326671,0 -0.5361431,-0.25353 -0.203476,-0.25354 -0.203476,-0.6718 0,-0.41987 0.203476,-0.67341 0.203476,-0.25353 0.5361431,-0.25353 0.2002462,0 0.3439713,0.0791 0.1437251,0.0791 0.2357737,0.239 l 0,-0.27453 0.2971396,0 0,1.5842 z"
         id="path5412-8" />
      <path
         inkscape:connector-curvature="0"
         d="m 6.8623774,225.47044 q -0.3601202,0 -0.4990007,0.0824 -0.1388804,0.0824 -0.1388804,0.28099 0,0.15826 0.1033529,0.25192 0.1049677,0.0921 0.2842204,0.0921 0.247078,0 0.3956477,-0.17441 0.1501847,-0.17602 0.1501847,-0.4667 l 0,-0.0662 -0.2955246,0 z m 0.5926641,-0.12273 0,1.03191 -0.2971395,0 0,-0.27453 q -0.101738,0.16472 -0.2535375,0.24385 -0.1517996,0.0775 -0.3714245,0.0775 -0.2777608,0 -0.4424795,-0.15503 -0.1631037,-0.15665 -0.1631037,-0.41826 0,-0.30521 0.2034759,-0.46024 0.2050909,-0.15503 0.610428,-0.15503 l 0.4166413,0 0,-0.0291 q 0,-0.20509 -0.1356507,-0.31652 -0.1340357,-0.11304 -0.3778839,-0.11304 -0.1550294,0 -0.3019842,0.0371 -0.1469549,0.0371 -0.2826056,0.11143 l 0,-0.27453 q 0.1631038,-0.063 0.3165182,-0.0937 0.1534145,-0.0323 0.2987545,-0.0323 0.3924179,0 0.5862046,0.20347 0.1937866,0.20348 0.1937866,0.61689 z"
         id="path5414-4" />
      <path
         inkscape:connector-curvature="0"
         d="m 8.3626092,224.05741 0,0.51354 0.6120429,0 0,0.23093 -0.6120429,0 0,0.98185 q 0,0.22124 0.059751,0.28422 0.061366,0.063 0.247078,0.063 l 0.305214,0 0,0.24869 -0.305214,0 q -0.3439713,0 -0.4747773,-0.12757 -0.130806,-0.12919 -0.130806,-0.46832 l 0,-0.98185 -0.21801,0 0,-0.23093 0.21801,0 0,-0.51354 0.2987544,0 z"
         id="path5416-8" />
      <path
         inkscape:connector-curvature="0"
         d="m 10.914133,225.401 0,0.14534 -1.3661956,0 q 0.019379,0.30683 0.1840973,0.46832 0.1663336,0.15987 0.4618583,0.15987 0.171178,0 0.331052,-0.042 0.161489,-0.042 0.319748,-0.12597 l 0,0.28099 q -0.159874,0.0678 -0.327822,0.10336 -0.167949,0.0355 -0.340742,0.0355 -0.4327901,0 -0.6863276,-0.25193 -0.2519226,-0.25192 -0.2519226,-0.68148 0,-0.44409 0.2390035,-0.70409 0.2406184,-0.26161 0.6475707,-0.26161 0.364965,0 0.576515,0.23577 0.213165,0.23416 0.213165,0.63788 z m -0.297139,-0.0872 q -0.0032,-0.24385 -0.137266,-0.38919 -0.132421,-0.14534 -0.352046,-0.14534 -0.2486924,0 -0.3988771,0.14049 -0.1485697,0.1405 -0.1711782,0.39565 l 1.0593673,-0.002 z"
         id="path5418-8" />
    </g>
    <g
       style="font-style:normal;font-weight:normal;font-size:3.30729222px;line-height:125%;font-family:sans-serif;letter-spacing:0px;word-spacing:0px;fill:#000000;fill-opacity:1;stroke:none;stroke-width:1px;stroke-linecap:butt;stroke-linejoin:miter;stroke-opacity:1"
       id="text5265-3"
       transform="translate(5.8220119e-8,39.687513)">
      <path
         inkscape:connector-curvature="0"
         d="m 69.621727,217.16231 q -0.239003,0 -0.377884,0.18733 -0.13888,0.18571 -0.13888,0.5103 0,0.32459 0.137265,0.51192 0.138881,0.18571 0.379499,0.18571 0.237389,0 0.376269,-0.18732 0.138881,-0.18733 0.138881,-0.51031 0,-0.32136 -0.138881,-0.50869 -0.13888,-0.18894 -0.376269,-0.18894 z m 0,-0.25192 q 0.387573,0 0.608813,0.25192 0.22124,0.25192 0.22124,0.69763 0,0.4441 -0.22124,0.69763 -0.22124,0.25193 -0.608813,0.25193 -0.389188,0 -0.610428,-0.25193 -0.219625,-0.25353 -0.219625,-0.69763 0,-0.44571 0.219625,-0.69763 0.22124,-0.25192 0.610428,-0.25192 z"
         id="path5435-8" />
      <path
         inkscape:connector-curvature="0"
         d="m 70.912023,218.04888 0,-1.09489 0.29714,0 0,1.08359 q 0,0.25677 0.100123,0.38596 0.100123,0.12757 0.300369,0.12757 0.240619,0 0.379499,-0.15341 0.140495,-0.15341 0.140495,-0.41826 l 0,-1.02545 0.29714,0 0,1.80867 -0.29714,0 0,-0.27776 q -0.108197,0.16472 -0.251922,0.24547 -0.14211,0.0791 -0.331052,0.0791 -0.311674,0 -0.473163,-0.19379 -0.161489,-0.19379 -0.161489,-0.56683 z m 0.747694,-1.13849 0,0 z"
         id="path5437-7" />
      <path
         inkscape:connector-curvature="0"
         d="m 73.335971,216.44045 0,0.51354 0.612043,0 0,0.23093 -0.612043,0 0,0.98185 q 0,0.22124 0.05975,0.28422 0.06137,0.063 0.247078,0.063 l 0.305214,0 0,0.24869 -0.305214,0 q -0.343971,0 -0.474777,-0.12757 -0.130806,-0.12919 -0.130806,-0.46832 l 0,-0.98185 -0.21801,0 0,-0.23093 0.21801,0 0,-0.51354 0.298754,0 z"
         id="path5439-5" />
    </g>
    <g
       style="font-style:normal;font-weight:normal;font-size:3.30729222px;line-height:125%;font-family:sans-serif;letter-spacing:0px;word-spacing:0px;fill:#000000;fill-opacity:1;stroke:none;stroke-width:1px;stroke-linecap:butt;stroke-linejoin:miter;stroke-opacity:1"
       id="text5269-2"
       transform="translate(5.8220119e-8,39.687513)">
      <path
         inkscape:connector-curvature="0"
         d="m 69.308441,224.15267 0,0.51354 0.612043,0 0,0.23093 -0.612043,0 0,0.98185 q 0,0.22124 0.05975,0.28422 0.06137,0.063 0.247078,0.063 l 0.305214,0 0,0.24869 -0.305214,0 q -0.343971,0 -0.474777,-0.12757 -0.130806,-0.12919 -0.130806,-0.46832 l 0,-0.98185 -0.21801,0 0,-0.23093 0.21801,0 0,-0.51354 0.298754,0 z"
         id="path5426-4" />
      <path
         inkscape:connector-curvature="0"
         d="m 71.360965,224.94397 q -0.05006,-0.0291 -0.109813,-0.042 -0.05814,-0.0145 -0.129191,-0.0145 -0.251922,0 -0.387573,0.16472 -0.134036,0.1631 -0.134036,0.46993 l 0,0.95278 -0.298754,0 0,-1.80867 0.298754,0 0,0.28099 q 0.09366,-0.16472 0.243849,-0.24385 0.150184,-0.0807 0.364964,-0.0807 0.03068,0 0.06783,0.005 0.03714,0.003 0.08236,0.0113 l 0.0016,0.30521 z"
         id="path5428-5" />
      <path
         inkscape:connector-curvature="0"
         d="m 71.675868,224.66621 0.29714,0 0,1.80867 -0.29714,0 0,-1.80867 z m 0,-0.70409 0.29714,0 0,0.37627 -0.29714,0 0,-0.37627 z"
         id="path5430-0" />
      <path
         inkscape:connector-curvature="0"
         d="m 73.783298,225.54955 q 0,-0.32297 -0.134036,-0.50061 -0.13242,-0.17764 -0.373039,-0.17764 -0.239003,0 -0.373039,0.17764 -0.132421,0.17764 -0.132421,0.50061 0,0.32137 0.132421,0.499 0.134036,0.17764 0.373039,0.17764 0.240619,0 0.373039,-0.17764 0.134036,-0.17763 0.134036,-0.499 z m 0.29714,0.70086 q 0,0.46186 -0.205091,0.68633 -0.205091,0.22609 -0.628192,0.22609 -0.156644,0 -0.295524,-0.0242 -0.138881,-0.0226 -0.269687,-0.071 l 0,-0.28907 q 0.130806,0.0711 0.258382,0.10497 0.127577,0.0339 0.259997,0.0339 0.292295,0 0.437635,-0.15341 0.14534,-0.1518 0.14534,-0.46024 l 0,-0.14696 q -0.09205,0.15987 -0.235773,0.239 -0.143726,0.0791 -0.343972,0.0791 -0.332667,0 -0.536143,-0.25353 -0.203476,-0.25354 -0.203476,-0.6718 0,-0.41987 0.203476,-0.67341 0.203476,-0.25353 0.536143,-0.25353 0.200246,0 0.343972,0.0791 0.143725,0.0791 0.235773,0.239 l 0,-0.27453 0.29714,0 0,1.5842 z"
         id="path5432-5" />
    </g>
    <rect
       style="fill:#333333;fill-opacity:1"
       id="rect3787-8-7-4-7-0-6-7-8-3"
       width="7.937501"
       height="15.875003"
       x="59.531254"
       y="273.1875"
       ry="1.3333334" />
    <g
       id="g4786"
       style="fill:#00ff00;opacity:0.12">
      <g
         id="g3719-7-6-8-3-6"
         transform="matrix(0,1.0000001,-0.99999993,0,291.7083,134.28121)"
         style="fill:#00ff00">
        <ellipse
           style="fill:#00ff00;fill-opacity:1"
           id="path4198-8-7-7-9-7-2-9-5-0"
           cx="91.281258"
           cy="240.11456"
           rx="3.307292"
           ry="3.3072922" />
        <ellipse
           style="fill:#00ff00;fill-opacity:1"
           id="path4198-8-7-7-21-9-7-7-6-6"
           cx="83.343758"
           cy="240.11456"
           rx="3.9687505"
           ry="3.9687507" />
      </g>
      <ellipse
         ry="3.3072922"
         rx="3.307292"
         cy="217.62498"
         cx="63.500004"
         id="path4198-8-7-7-6-1-9-2-5-1-5"
         style="fill:#00ff00;fill-opacity:1;image-rendering:auto" />
      <g
         id="g3719-7-6-8-3-6-2"
         transform="matrix(0,1.0000001,-0.99999993,0,279.80205,134.28121)"
         style="fill:#00ff00">
        <ellipse
           style="fill:#00ff00;fill-opacity:1"
           id="path4198-8-7-7-9-7-2-9-5-0-2"
           cx="91.281258"
           cy="240.11456"
           rx="3.307292"
           ry="3.3072922" />
        <ellipse
           style="fill:#00ff00;fill-opacity:1"
           id="path4198-8-7-7-21-9-7-7-6-6-8"
           cx="83.343758"
           cy="240.11456"
           rx="3.9687505"
           ry="3.9687507" />
      </g>
      <ellipse
         transform="matrix(0,1,-1,0,0,0)"
         ry="3.307292"
         rx="3.3072922"
         cy="-27.781254"
         cx="225.56247"
         id="path4198-8-7-7-9-7-2-9-5-0-6"
         style="fill:#00ff00;fill-opacity:1" />
      <ellipse
         transform="matrix(0,1,-1,0,0,0)"
         ry="3.9687505"
         rx="3.968751"
         cy="-27.781254"
         cx="217.62497"
         id="path4198-8-7-7-21-9-7-7-6-6-1"
         style="fill:#00ff00;fill-opacity:1" />
      <ellipse
         ry="3.3072922"
         rx="3.307292"
         cy="217.62498"
         cx="15.875002"
         id="path4198-8-7-7-6-1-9-2-5-1-5-1"
         style="fill:#00ff00;fill-opacity:1;image-rendering:auto" />
      <ellipse
         ry="3.3072922"
         rx="3.307292"
         cy="225.5625"
         cx="15.875002"
         id="path4198-8-7-7-6-1-9-2-5-1-5-1-9"
         style="fill:#00ff00;fill-opacity:1;image-rendering:auto" />
      <g
         id="g3719-7-6-8-3-6-0"
         transform="matrix(0,1.0000001,-0.99999993,0,291.7083,154.12497)"
         style="fill:#00ff00">
        <ellipse
           style="fill:#00ff00;fill-opacity:1"
           id="path4198-8-7-7-9-7-2-9-5-0-60"
           cx="91.281258"
           cy="240.11456"
           rx="3.307292"
           ry="3.3072922" />
        <ellipse
           style="fill:#00ff00;fill-opacity:1"
           id="path4198-8-7-7-21-9-7-7-6-6-83"
           cx="83.343758"
           cy="240.11456"
           rx="3.9687505"
           ry="3.9687507" />
      </g>
      <ellipse
         ry="3.3072922"
         rx="3.307292"
         cy="237.46875"
         cx="63.500004"
         id="path4198-8-7-7-6-1-9-2-5-1-5-2"
         style="fill:#00ff00;fill-opacity:1;image-rendering:auto" />
      <g
         id="g3719-7-6-8-3-6-2-0"
         transform="matrix(0,1.0000001,-0.99999993,0,279.80205,154.12497)"
         style="fill:#00ff00">
        <ellipse
           style="fill:#00ff00;fill-opacity:1"
           id="path4198-8-7-7-9-7-2-9-5-0-2-5"
           cx="91.281258"
           cy="240.11456"
           rx="3.307292"
           ry="3.3072922" />
        <ellipse
           style="fill:#00ff00;fill-opacity:1"
           id="path4198-8-7-7-21-9-7-7-6-6-8-8"
           cx="83.343758"
           cy="240.11456"
           rx="3.9687505"
           ry="3.9687507" />
      </g>
      <ellipse
         transform="matrix(0,1,-1,0,0,0)"
         ry="3.307292"
         rx="3.3072922"
         cy="-27.781254"
         cx="245.40623"
         id="path4198-8-7-7-9-7-2-9-5-0-6-5"
         style="fill:#00ff00;fill-opacity:1" />
      <ellipse
         transform="matrix(0,1,-1,0,0,0)"
         ry="3.9687505"
         rx="3.968751"
         cy="-27.781254"
         cx="237.46873"
         id="path4198-8-7-7-21-9-7-7-6-6-1-0"
         style="fill:#00ff00;fill-opacity:1" />
      <ellipse
         ry="3.3072922"
         rx="3.307292"
         cy="237.46875"
         cx="15.875002"
         id="path4198-8-7-7-6-1-9-2-5-1-5-1-3"
         style="fill:#00ff00;fill-opacity:1;image-rendering:auto" />
      <ellipse
         ry="3.3072922"
         rx="3.307292"
         cy="245.40627"
         cx="15.875002"
         id="path4198-8-7-7-6-1-9-2-5-1-5-1-9-8"
         style="fill:#00ff00;fill-opacity:1;image-rendering:auto" />
      <g
         id="g3719-7-6-8-3-6-06"
         transform="matrix(0,1.0000001,-0.99999993,0,291.7083,173.96872)"
         style="fill:#00ff00">
        <ellipse
           style="fill:#00ff00;fill-opacity:1"
           id="path4198-8-7-7-9-7-2-9-5-0-9"
           cx="91.281258"
           cy="240.11456"
           rx="3.307292"
           ry="3.3072922" />
        <ellipse
           style="fill:#00ff00;fill-opacity:1"
           id="path4198-8-7-7-21-9-7-7-6-6-2"
           cx="83.343758"
           cy="240.11456"
           rx="3.9687505"
           ry="3.9687507" />
      </g>
      <ellipse
         ry="3.3072922"
         rx="3.307292"
         cy="257.3125"
         cx="63.500004"
         id="path4198-8-7-7-6-1-9-2-5-1-5-7"
         style="fill:#00ff00;fill-opacity:1;image-rendering:auto" />
      <g
         id="g3719-7-6-8-3-6-2-7"
         transform="matrix(0,1.0000001,-0.99999993,0,279.80205,173.96872)"
         style="fill:#00ff00">
        <ellipse
           style="fill:#00ff00;fill-opacity:1"
           id="path4198-8-7-7-9-7-2-9-5-0-2-6"
           cx="91.281258"
           cy="240.11456"
           rx="3.307292"
           ry="3.3072922" />
        <ellipse
           style="fill:#00ff00;fill-opacity:1"
           id="path4198-8-7-7-21-9-7-7-6-6-8-2"
           cx="83.343758"
           cy="240.11456"
           rx="3.9687505"
           ry="3.9687507" />
      </g>
      <ellipse
         transform="matrix(0,1,-1,0,0,0)"
         ry="3.307292"
         rx="3.3072922"
         cy="-27.781254"
         cx="265.24997"
         id="path4198-8-7-7-9-7-2-9-5-0-6-1"
         style="fill:#00ff00;fill-opacity:1" />
      <ellipse
         transform="matrix(0,1,-1,0,0,0)"
         ry="3.9687505"
         rx="3.968751"
         cy="-27.781254"
         cx="257.31247"
         id="path4198-8-7-7-21-9-7-7-6-6-1-5"
         style="fill:#00ff00;fill-opacity:1" />
      <ellipse
         ry="3.3072922"
         rx="3.307292"
         cy="257.3125"
         cx="15.875002"
         id="path4198-8-7-7-6-1-9-2-5-1-5-1-8"
         style="fill:#00ff00;fill-opacity:1;image-rendering:auto" />
      <ellipse
         ry="3.3072922"
         rx="3.307292"
         cy="265.25"
         cx="15.875002"
         id="path4198-8-7-7-6-1-9-2-5-1-5-1-9-4"
         style="fill:#00ff00;fill-opacity:1;image-rendering:auto" />
      <g
         id="g3719-7-6-8-3-6-0-2"
         transform="matrix(0,1.0000001,-0.99999993,0,291.7083,193.81248)"
         style="fill:#00ff00">
        <ellipse
           style="fill:#00ff00;fill-opacity:1"
           id="path4198-8-7-7-9-7-2-9-5-0-60-7"
           cx="91.281258"
           cy="240.11456"
           rx="3.307292"
           ry="3.3072922" />
        <ellipse
           style="fill:#00ff00;fill-opacity:1"
           id="path4198-8-7-7-21-9-7-7-6-6-83-2"
           cx="83.343758"
           cy="240.11456"
           rx="3.9687505"
           ry="3.9687507" />
      </g>
      <ellipse
         ry="3.3072922"
         rx="3.307292"
         cy="277.15625"
         cx="63.500004"
         id="path4198-8-7-7-6-1-9-2-5-1-5-2-4"
         style="fill:#00ff00;fill-opacity:1;image-rendering:auto" />
      <g
         id="g3719-7-6-8-3-6-2-0-4"
         transform="matrix(0,1.0000001,-0.99999993,0,279.80205,193.81248)"
         style="fill:#00ff00">
        <ellipse
           style="fill:#00ff00;fill-opacity:1"
           id="path4198-8-7-7-9-7-2-9-5-0-2-5-1"
           cx="91.281258"
           cy="240.11456"
           rx="3.307292"
           ry="3.3072922" />
        <ellipse
           style="fill:#00ff00;fill-opacity:1"
           id="path4198-8-7-7-21-9-7-7-6-6-8-8-9"
           cx="83.343758"
           cy="240.11456"
           rx="3.9687505"
           ry="3.9687507" />
      </g>
      <ellipse
         transform="matrix(0,1,-1,0,0,0)"
         ry="3.307292"
         rx="3.3072922"
         cy="-27.781254"
         cx="285.09375"
         id="path4198-8-7-7-9-7-2-9-5-0-6-5-7"
         style="fill:#00ff00;fill-opacity:1" />
      <ellipse
         transform="matrix(0,1,-1,0,0,0)"
         ry="3.9687505"
         rx="3.968751"
         cy="-27.781254"
         cx="277.15625"
         id="path4198-8-7-7-21-9-7-7-6-6-1-0-4"
         style="fill:#00ff00;fill-opacity:1" />
      <ellipse
         ry="3.3072922"
         rx="3.307292"
         cy="277.15625"
         cx="15.875002"
         id="path4198-8-7-7-6-1-9-2-5-1-5-1-3-2"
         style="fill:#00ff00;fill-opacity:1;image-rendering:auto" />
      <ellipse
         ry="3.3072922"
         rx="3.307292"
         cy="285.09378"
         cx="15.875002"
         id="path4198-8-7-7-6-1-9-2-5-1-5-1-9-8-2"
         style="fill:#00ff00;fill-opacity:1;image-rendering:auto" />
    </g>
    <g
       style="font-style:normal;font-weight:normal;font-size:3.30729222px;line-height:125%;font-family:sans-serif;letter-spacing:0px;word-spacing:0px;fill:#000000;fill-opacity:1;stroke:none;stroke-width:1px;stroke-linecap:butt;stroke-linejoin:miter;stroke-opacity:1"
       id="text4815-2-1"
       transform="translate(5.8220119e-8,59.531271)">
      <path
         inkscape:connector-curvature="0"
         d="m 8.4934152,217.0727 0.2971396,0 0,1.80868 -0.2971396,0 0,-1.80868 z m 0,-0.70409 0.2971396,0 0,0.37627 -0.2971396,0 0,-0.37627 z"
         id="path5421-3-6" />
      <path
         inkscape:connector-curvature="0"
         d="m 10.914134,217.78971 0,1.09167 -0.29714,0 0,-1.08198 q 0,-0.25676 -0.100123,-0.38434 -0.100123,-0.12758 -0.300369,-0.12758 -0.2406188,0 -0.3794993,0.15342 -0.1388804,0.15341 -0.1388804,0.41825 l 0,1.02223 -0.2987544,0 0,-1.80868 0.2987544,0 0,0.28099 q 0.1065826,-0.1631 0.2503077,-0.24384 0.14534,-0.0807 0.334282,-0.0807 0.311674,0 0.471548,0.19379 0.159874,0.19217 0.159874,0.56682 z"
         id="path5423-0-2" />
    </g>
    <g
       style="font-style:normal;font-weight:normal;font-size:3.30729222px;line-height:125%;font-family:sans-serif;letter-spacing:0px;word-spacing:0px;fill:#000000;fill-opacity:1;stroke:none;stroke-width:1px;stroke-linecap:butt;stroke-linejoin:miter;stroke-opacity:1"
       id="text4819-7-0"
       transform="translate(5.8220119e-8,59.531271)">
      <path
         inkscape:connector-curvature="0"
         d="m 5.1312165,225.45429 q 0,-0.32298 -0.1340357,-0.50061 -0.1324209,-0.17764 -0.3730393,-0.17764 -0.2390036,0 -0.3730393,0.17764 -0.1324209,0.17763 -0.1324209,0.50061 0,0.32137 0.1324209,0.499 0.1340357,0.17764 0.3730393,0.17764 0.2406184,0 0.3730393,-0.17764 0.1340357,-0.17763 0.1340357,-0.499 z m 0.2971396,0.70086 q 0,0.46186 -0.2050909,0.68633 -0.2050909,0.22609 -0.6281917,0.22609 -0.1566442,0 -0.2955247,-0.0242 -0.1388804,-0.0226 -0.2696864,-0.0711 l 0,-0.28907 q 0.130806,0.0711 0.2583822,0.10497 0.1275762,0.0339 0.2599971,0.0339 0.2922949,0 0.4376348,-0.15341 0.14534,-0.1518 0.14534,-0.46024 l 0,-0.14696 q -0.092049,0.15987 -0.2357737,0.239 -0.1437251,0.0791 -0.3439713,0.0791 -0.3326671,0 -0.5361431,-0.25353 -0.203476,-0.25354 -0.203476,-0.6718 0,-0.41987 0.203476,-0.67341 0.203476,-0.25353 0.5361431,-0.25353 0.2002462,0 0.3439713,0.0791 0.1437251,0.0791 0.2357737,0.239 l 0,-0.27453 0.2971396,0 0,1.5842 z"
         id="path5412-7-2" />
      <path
         inkscape:connector-curvature="0"
         d="m 6.8623774,225.47044 q -0.3601202,0 -0.4990007,0.0824 -0.1388804,0.0824 -0.1388804,0.28099 0,0.15826 0.1033529,0.25192 0.1049677,0.0921 0.2842204,0.0921 0.247078,0 0.3956477,-0.17441 0.1501847,-0.17602 0.1501847,-0.4667 l 0,-0.0662 -0.2955246,0 z m 0.5926641,-0.12273 0,1.03191 -0.2971395,0 0,-0.27453 q -0.101738,0.16472 -0.2535375,0.24385 -0.1517996,0.0775 -0.3714245,0.0775 -0.2777608,0 -0.4424795,-0.15503 -0.1631037,-0.15665 -0.1631037,-0.41826 0,-0.30521 0.2034759,-0.46024 0.2050909,-0.15503 0.610428,-0.15503 l 0.4166413,0 0,-0.0291 q 0,-0.20509 -0.1356507,-0.31652 -0.1340357,-0.11304 -0.3778839,-0.11304 -0.1550294,0 -0.3019842,0.0371 -0.1469549,0.0371 -0.2826056,0.11143 l 0,-0.27453 q 0.1631038,-0.063 0.3165182,-0.0937 0.1534145,-0.0323 0.2987545,-0.0323 0.3924179,0 0.5862046,0.20347 0.1937866,0.20348 0.1937866,0.61689 z"
         id="path5414-7-2" />
      <path
         inkscape:connector-curvature="0"
         d="m 8.3626092,224.05741 0,0.51354 0.6120429,0 0,0.23093 -0.6120429,0 0,0.98185 q 0,0.22124 0.059751,0.28422 0.061366,0.063 0.247078,0.063 l 0.305214,0 0,0.24869 -0.305214,0 q -0.3439713,0 -0.4747773,-0.12757 -0.130806,-0.12919 -0.130806,-0.46832 l 0,-0.98185 -0.21801,0 0,-0.23093 0.21801,0 0,-0.51354 0.2987544,0 z"
         id="path5416-6-9" />
      <path
         inkscape:connector-curvature="0"
         d="m 10.914133,225.401 0,0.14534 -1.3661956,0 q 0.019379,0.30683 0.1840973,0.46832 0.1663336,0.15987 0.4618583,0.15987 0.171178,0 0.331052,-0.042 0.161489,-0.042 0.319748,-0.12597 l 0,0.28099 q -0.159874,0.0678 -0.327822,0.10336 -0.167949,0.0355 -0.340742,0.0355 -0.4327901,0 -0.6863276,-0.25193 -0.2519226,-0.25192 -0.2519226,-0.68148 0,-0.44409 0.2390035,-0.70409 0.2406184,-0.26161 0.6475707,-0.26161 0.364965,0 0.576515,0.23577 0.213165,0.23416 0.213165,0.63788 z m -0.297139,-0.0872 q -0.0032,-0.24385 -0.137266,-0.38919 -0.132421,-0.14534 -0.352046,-0.14534 -0.2486924,0 -0.3988771,0.14049 -0.1485697,0.1405 -0.1711782,0.39565 l 1.0593673,-0.002 z"
         id="path5418-9-7" />
    </g>
    <g
       style="font-style:normal;font-weight:normal;font-size:3.30729222px;line-height:125%;font-family:sans-serif;letter-spacing:0px;word-spacing:0px;fill:#000000;fill-opacity:1;stroke:none;stroke-width:1px;stroke-linecap:butt;stroke-linejoin:miter;stroke-opacity:1"
       id="text5265-1-4"
       transform="translate(5.8220119e-8,59.531271)">
      <path
         inkscape:connector-curvature="0"
         d="m 69.621727,217.16231 q -0.239003,0 -0.377884,0.18733 -0.13888,0.18571 -0.13888,0.5103 0,0.32459 0.137265,0.51192 0.138881,0.18571 0.379499,0.18571 0.237389,0 0.376269,-0.18732 0.138881,-0.18733 0.138881,-0.51031 0,-0.32136 -0.138881,-0.50869 -0.13888,-0.18894 -0.376269,-0.18894 z m 0,-0.25192 q 0.387573,0 0.608813,0.25192 0.22124,0.25192 0.22124,0.69763 0,0.4441 -0.22124,0.69763 -0.22124,0.25193 -0.608813,0.25193 -0.389188,0 -0.610428,-0.25193 -0.219625,-0.25353 -0.219625,-0.69763 0,-0.44571 0.219625,-0.69763 0.22124,-0.25192 0.610428,-0.25192 z"
         id="path5435-1-3" />
      <path
         inkscape:connector-curvature="0"
         d="m 70.912023,218.04888 0,-1.09489 0.29714,0 0,1.08359 q 0,0.25677 0.100123,0.38596 0.100123,0.12757 0.300369,0.12757 0.240619,0 0.379499,-0.15341 0.140495,-0.15341 0.140495,-0.41826 l 0,-1.02545 0.29714,0 0,1.80867 -0.29714,0 0,-0.27776 q -0.108197,0.16472 -0.251922,0.24547 -0.14211,0.0791 -0.331052,0.0791 -0.311674,0 -0.473163,-0.19379 -0.161489,-0.19379 -0.161489,-0.56683 z m 0.747694,-1.13849 0,0 z"
         id="path5437-9-5" />
      <path
         inkscape:connector-curvature="0"
         d="m 73.335971,216.44045 0,0.51354 0.612043,0 0,0.23093 -0.612043,0 0,0.98185 q 0,0.22124 0.05975,0.28422 0.06137,0.063 0.247078,0.063 l 0.305214,0 0,0.24869 -0.305214,0 q -0.343971,0 -0.474777,-0.12757 -0.130806,-0.12919 -0.130806,-0.46832 l 0,-0.98185 -0.21801,0 0,-0.23093 0.21801,0 0,-0.51354 0.298754,0 z"
         id="path5439-0-6" />
    </g>
    <g
       style="font-style:normal;font-weight:normal;font-size:3.30729222px;line-height:125%;font-family:sans-serif;letter-spacing:0px;word-spacing:0px;fill:#000000;fill-opacity:1;stroke:none;stroke-width:1px;stroke-linecap:butt;stroke-linejoin:miter;stroke-opacity:1"
       id="text5269-8-1"
       transform="translate(5.8220119e-8,59.531271)">
      <path
         inkscape:connector-curvature="0"
         d="m 69.308441,224.15267 0,0.51354 0.612043,0 0,0.23093 -0.612043,0 0,0.98185 q 0,0.22124 0.05975,0.28422 0.06137,0.063 0.247078,0.063 l 0.305214,0 0,0.24869 -0.305214,0 q -0.343971,0 -0.474777,-0.12757 -0.130806,-0.12919 -0.130806,-0.46832 l 0,-0.98185 -0.21801,0 0,-0.23093 0.21801,0 0,-0.51354 0.298754,0 z"
         id="path5426-9-4" />
      <path
         inkscape:connector-curvature="0"
         d="m 71.360965,224.94397 q -0.05006,-0.0291 -0.109813,-0.042 -0.05814,-0.0145 -0.129191,-0.0145 -0.251922,0 -0.387573,0.16472 -0.134036,0.1631 -0.134036,0.46993 l 0,0.95278 -0.298754,0 0,-1.80867 0.298754,0 0,0.28099 q 0.09366,-0.16472 0.243849,-0.24385 0.150184,-0.0807 0.364964,-0.0807 0.03068,0 0.06783,0.005 0.03714,0.003 0.08236,0.0113 l 0.0016,0.30521 z"
         id="path5428-8-0" />
      <path
         inkscape:connector-curvature="0"
         d="m 71.675868,224.66621 0.29714,0 0,1.80867 -0.29714,0 0,-1.80867 z m 0,-0.70409 0.29714,0 0,0.37627 -0.29714,0 0,-0.37627 z"
         id="path5430-8-3" />
      <path
         inkscape:connector-curvature="0"
         d="m 73.783298,225.54955 q 0,-0.32297 -0.134036,-0.50061 -0.13242,-0.17764 -0.373039,-0.17764 -0.239003,0 -0.373039,0.17764 -0.132421,0.17764 -0.132421,0.50061 0,0.32137 0.132421,0.499 0.134036,0.17764 0.373039,0.17764 0.240619,0 0.373039,-0.17764 0.134036,-0.17763 0.134036,-0.499 z m 0.29714,0.70086 q 0,0.46186 -0.205091,0.68633 -0.205091,0.22609 -0.628192,0.22609 -0.156644,0 -0.295524,-0.0242 -0.138881,-0.0226 -0.269687,-0.071 l 0,-0.28907 q 0.130806,0.0711 0.258382,0.10497 0.127577,0.0339 0.259997,0.0339 0.292295,0 0.437635,-0.15341 0.14534,-0.1518 0.14534,-0.46024 l 0,-0.14696 q -0.09205,0.15987 -0.235773,0.239 -0.143726,0.0791 -0.343972,0.0791 -0.332667,0 -0.536143,-0.25353 -0.203476,-0.25354 -0.203476,-0.6718 0,-0.41987 0.203476,-0.67341 0.203476,-0.25353 0.536143,-0.25353 0.200246,0 0.343972,0.0791 0.143725,0.0791 0.235773,0.239 l 0,-0.27453 0.29714,0 0,1.5842 z"
         id="path5432-0-1" />
    </g>
    <g
       style="font-style:normal;font-variant:normal;font-weight:500;font-stretch:normal;font-size:3.30729198px;line-height:125%;font-family:'CMU Serif';-inkscape-font-specification:'CMU Serif Medium';letter-spacing:0px;word-spacing:0px;fill:#000000;fill-opacity:1;stroke:none;stroke-width:1px;stroke-linecap:butt;stroke-linejoin:miter;stroke-opacity:1"
       id="text4769-3">
      <path
         d="m 33.602086,204.50495 0,-0.66146 q 0,-0.0364 0,-0.0496 0.0033,-0.0132 0.01323,-0.0232 0.0099,-0.01 0.02977,-0.01 0.03638,0 0.03969,0.0331 0.0099,0.32743 0.205053,0.50933 0.191822,0.17859 0.522552,0.17859 0.198437,0 0.320807,-0.14221 0.12237,-0.14222 0.12237,-0.33073 0,-0.1786 -0.102526,-0.30427 -0.043,-0.0562 -0.09922,-0.0926 -0.05292,-0.0364 -0.08599,-0.0463 -0.03307,-0.0132 -0.09591,-0.0298 -0.410104,-0.0992 -0.436563,-0.10915 -0.19513,-0.0661 -0.314192,-0.23151 -0.119063,-0.16867 -0.119063,-0.37372 0,-0.26458 0.185208,-0.4531 0.188516,-0.18851 0.459714,-0.18851 0.135599,0 0.248047,0.043 0.115755,0.043 0.162057,0.0827 0.0463,0.0364 0.119063,0.10584 l 0.115755,-0.18852 q 0.02646,-0.043 0.04961,-0.043 0.02646,0 0.02977,0.0165 0.0066,0.0132 0.0066,0.0628 l 0,0.66477 q 0,0.0364 -0.0033,0.0496 0,0.0132 -0.0099,0.0231 -0.0099,0.007 -0.02976,0.007 -0.03307,0 -0.03969,-0.0397 -0.0926,-0.69122 -0.644922,-0.69122 -0.188515,0 -0.314192,0.12898 -0.12237,0.12568 -0.12237,0.30427 0,0.14553 0.0893,0.26459 0.0926,0.11906 0.244739,0.15544 l 0.423334,0.10253 q 0.211666,0.0496 0.35388,0.23812 0.142213,0.18521 0.142213,0.42995 0,0.28112 -0.185208,0.48617 -0.181901,0.20175 -0.466328,0.20175 -0.205052,0 -0.363802,-0.0695 -0.15875,-0.0661 -0.24474,-0.16205 -0.06615,0.10914 -0.10914,0.17198 l -0.0099,0.0165 q -0.02646,0.043 -0.04961,0.043 -0.02646,0 -0.03307,-0.0165 -0.0033,-0.0165 -0.0033,-0.0628 z"
         style=""
         id="path5848" />
      <path
         d="m 35.360532,204.51157 0,-0.10253 q 0.175286,0 0.214974,-0.0198 0.043,-0.0231 0.043,-0.12899 l 0,-0.88966 q 0,-0.12237 -0.043,-0.15214 -0.03969,-0.0298 -0.201745,-0.0298 l 0,-0.10253 0.463021,-0.0364 0,1.21378 q 0,0.0992 0.03307,0.12237 0.03638,0.0232 0.198437,0.0232 l 0,0.10253 q -0.337343,-0.01 -0.343958,-0.01 -0.0463,0 -0.363802,0.01 z m 0.138906,-2.0373 q 0,-0.0661 0.04961,-0.11906 0.05292,-0.0562 0.125677,-0.0562 0.07276,0 0.122369,0.0496 0.05292,0.0496 0.05292,0.12567 0,0.0761 -0.05292,0.12568 -0.04961,0.0496 -0.122369,0.0496 -0.07607,0 -0.125677,-0.0529 -0.04961,-0.0529 -0.04961,-0.12237 z"
         style=""
         id="path5850" />
      <path
         d="m 36.277789,204.46857 0,-0.43656 q 0,-0.0364 0,-0.0496 0.0033,-0.0132 0.01323,-0.0232 0.0099,-0.01 0.02976,-0.01 0.02315,0 0.02977,0.01 0.0099,0.01 0.01654,0.0463 0.04961,0.2282 0.155442,0.35057 0.109141,0.11907 0.304271,0.11907 0.185208,0 0.277813,-0.0827 0.09591,-0.0827 0.09591,-0.21828 0,-0.24143 -0.343958,-0.30427 -0.198438,-0.0397 -0.28112,-0.0661 -0.08268,-0.0265 -0.155443,-0.086 -0.142213,-0.11576 -0.142213,-0.28112 0,-0.16537 0.125677,-0.28443 0.125677,-0.12237 0.403489,-0.12237 0.185209,0 0.310886,0.0926 0.03638,-0.0298 0.05622,-0.0529 0.04299,-0.0397 0.06615,-0.0397 0.02646,0 0.02976,0.0165 0.0066,0.0165 0.0066,0.0628 l 0,0.33404 q 0,0.0364 -0.0033,0.0496 0,0.0132 -0.0099,0.0232 -0.0099,0.007 -0.02977,0.007 -0.03638,0 -0.03969,-0.0298 -0.02646,-0.40018 -0.386954,-0.40018 -0.19513,0 -0.284427,0.0761 -0.08599,0.0728 -0.08599,0.17528 0,0.0562 0.02646,0.0992 0.02646,0.043 0.05953,0.0694 0.03638,0.0232 0.09922,0.0463 0.06615,0.0232 0.105833,0.0331 0.03969,0.007 0.115756,0.0231 0.264583,0.0496 0.377031,0.15875 0.138906,0.13891 0.138906,0.31419 0,0.19513 -0.132292,0.32742 -0.132291,0.1323 -0.400182,0.1323 -0.214974,0 -0.363802,-0.14222 -0.01984,0.0198 -0.03638,0.0364 -0.01323,0.0165 -0.01984,0.0231 -0.0033,0.007 -0.0066,0.01 0,0.003 -0.0033,0.007 -0.06615,0.0661 -0.08268,0.0661 -0.02646,0 -0.03307,-0.0165 -0.0033,-0.0165 -0.0033,-0.0628 z"
         style=""
         id="path5852" />
      <path
         d="m 37.536317,204.92167 q 0,-0.0695 0.03969,-0.10583 0.043,-0.0364 0.09922,-0.0364 0.05953,0 0.09922,0.0364 0.03969,0.0397 0.03969,0.10252 0,0.12237 -0.128984,0.13891 0.06284,0.0595 0.155443,0.0595 0.09922,0 0.178593,-0.0728 0.07938,-0.0728 0.112448,-0.14221 0.03638,-0.0695 0.08599,-0.19513 0.0463,-0.0992 0.08268,-0.19513 l -0.496093,-1.20717 q -0.03307,-0.0794 -0.08268,-0.0959 -0.04961,-0.0198 -0.185208,-0.0198 l 0,-0.10253 q 0.148828,0.01 0.320807,0.01 0.102526,0 0.360495,-0.01 l 0,0.10253 q -0.185208,0 -0.185208,0.086 0,0.01 0.01984,0.0595 l 0.36711,0.88966 0.334036,-0.81359 q 0.01984,-0.0463 0.01984,-0.0794 0,-0.1356 -0.155443,-0.14221 l 0,-0.10253 q 0.218282,0.01 0.287735,0.01 0.135599,0 0.248047,-0.01 l 0,0.10253 q -0.221589,0 -0.307579,0.21167 l -0.582083,1.41221 q -0.15875,0.37703 -0.423333,0.37703 -0.125677,0 -0.214974,-0.0794 -0.0893,-0.0761 -0.0893,-0.18852 z"
         style=""
         id="path5854" />
      <path
         d="m 39.310162,205.05065 q 0.175287,0 0.214974,-0.0231 0.04299,-0.0198 0.04299,-0.12567 l 0,-1.54782 q 0,-0.10914 -0.04299,-0.1356 -0.03969,-0.0298 -0.214974,-0.0298 l 0,-0.10253 0.47625,-0.0364 0,0.21828 q 0.198438,-0.21828 0.463021,-0.21828 0.28112,0 0.486172,0.21828 0.205052,0.21829 0.205052,0.52917 0,0.31419 -0.218281,0.53248 -0.218282,0.21828 -0.519245,0.21828 -0.165365,0 -0.277813,-0.0827 -0.10914,-0.086 -0.128984,-0.14882 l 0,0.0298 0,0.55563 q 0,0.10583 0.03969,0.12567 0.04299,0.0231 0.218281,0.0231 l 0,0.10253 q -0.347266,-0.01 -0.373724,-0.01 -0.03307,0 -0.370417,0.01 l 0,-0.10253 z m 0.486172,-0.91612 q 0,0.0496 0.0066,0.0695 0.0066,0.0165 0.03969,0.0694 0.132292,0.20175 0.347266,0.20175 0.188515,0 0.330729,-0.19183 0.145521,-0.19513 0.145521,-0.48617 0,-0.27781 -0.132292,-0.46963 -0.128984,-0.19513 -0.310885,-0.19513 -0.128985,0 -0.241433,0.0694 -0.112448,0.0695 -0.185208,0.19513 l 0,0.73752 z"
         style=""
         id="path5856" />
      <path
         d="m 41.157905,204.51157 0,-0.10253 q 0.175286,0 0.214974,-0.0198 0.043,-0.0231 0.043,-0.12899 l 0,-1.71979 q 0,-0.12237 -0.043,-0.15214 -0.04299,-0.0331 -0.214974,-0.0331 l 0,-0.10252 0.47625,-0.0364 0,1.15093 0.0033,0 q 0.05292,-0.11906 0.171979,-0.21828 0.119063,-0.0992 0.304271,-0.0992 0.248047,0 0.347266,0.12237 0.07276,0.0827 0.08599,0.17529 0.01654,0.0926 0.01654,0.33073 l 0,0.63169 q 0.0033,0.0694 0.05622,0.086 0.05292,0.0132 0.201745,0.0132 l 0,0.10253 q -0.337344,-0.01 -0.370417,-0.01 -0.02646,0 -0.373724,0.01 l 0,-0.10253 q 0.175287,0 0.214974,-0.0198 0.04299,-0.0231 0.04299,-0.12899 l 0,-0.7706 q 0,-0.16867 -0.05292,-0.26789 -0.04961,-0.0992 -0.191823,-0.0992 -0.171979,0 -0.310885,0.14552 -0.135599,0.14222 -0.135599,0.38365 l 0,0.60854 q 0,0.10584 0.03969,0.12899 0.043,0.0198 0.218282,0.0198 l 0,0.10253 q -0.337344,-0.01 -0.370417,-0.01 -0.02646,0 -0.373724,0.01 z"
         style=""
         id="path5858" />
      <path
         d="m 42.901985,203.18865 0,-0.10253 0.486171,-0.0364 0,1.09802 q 0,0.0794 0.0066,0.12568 0.0066,0.0463 0.03307,0.0992 0.02646,0.0529 0.0893,0.0794 0.06284,0.0232 0.162057,0.0232 0.178594,0 0.287735,-0.14552 0.112447,-0.14883 0.112447,-0.36711 l 0,-0.5887 q 0,-0.12237 -0.04299,-0.15214 -0.04299,-0.0331 -0.214974,-0.0331 l 0,-0.10253 0.486172,-0.0364 0,1.17409 q 0,0.12237 0.04299,0.15544 0.043,0.0298 0.214974,0.0298 l 0,0.10253 -0.47625,0.0364 0,-0.29766 q -0.138906,0.29766 -0.42664,0.29766 -0.145521,0 -0.24474,-0.0364 -0.09922,-0.0364 -0.148828,-0.0827 -0.04961,-0.0463 -0.07607,-0.1356 -0.02646,-0.0893 -0.02977,-0.14221 -0.0033,-0.0562 -0.0033,-0.16206 l 0,-0.49609 q 0,-0.2249 -0.03307,-0.26458 -0.03307,-0.0397 -0.224895,-0.0397 z"
         style=""
         id="path5860" />
      <path
         d="m 44.739805,204.46857 0,-0.43656 q 0,-0.0364 0,-0.0496 0.0033,-0.0132 0.01323,-0.0232 0.0099,-0.01 0.02977,-0.01 0.02315,0 0.02977,0.01 0.0099,0.01 0.01654,0.0463 0.04961,0.2282 0.155443,0.35057 0.109141,0.11907 0.304271,0.11907 0.185208,0 0.277812,-0.0827 0.09591,-0.0827 0.09591,-0.21828 0,-0.24143 -0.343958,-0.30427 -0.198438,-0.0397 -0.28112,-0.0661 -0.08268,-0.0265 -0.155443,-0.086 -0.142214,-0.11576 -0.142214,-0.28112 0,-0.16537 0.125678,-0.28443 0.125677,-0.12237 0.403489,-0.12237 0.185209,0 0.310886,0.0926 0.03638,-0.0298 0.05622,-0.0529 0.04299,-0.0397 0.06614,-0.0397 0.02646,0 0.02977,0.0165 0.0066,0.0165 0.0066,0.0628 l 0,0.33404 q 0,0.0364 -0.0033,0.0496 0,0.0132 -0.0099,0.0232 -0.0099,0.007 -0.02976,0.007 -0.03638,0 -0.03969,-0.0298 -0.02646,-0.40018 -0.386953,-0.40018 -0.19513,0 -0.284427,0.0761 -0.08599,0.0728 -0.08599,0.17528 0,0.0562 0.02646,0.0992 0.02646,0.043 0.05953,0.0694 0.03638,0.0232 0.09922,0.0463 0.06615,0.0232 0.105833,0.0331 0.03969,0.007 0.115755,0.0231 0.264584,0.0496 0.377032,0.15875 0.138906,0.13891 0.138906,0.31419 0,0.19513 -0.132292,0.32742 -0.132291,0.1323 -0.400182,0.1323 -0.214974,0 -0.363802,-0.14222 -0.01984,0.0198 -0.03638,0.0364 -0.01323,0.0165 -0.01984,0.0231 -0.0033,0.007 -0.0066,0.01 0,0.003 -0.0033,0.007 -0.06615,0.0661 -0.08268,0.0661 -0.02646,0 -0.03307,-0.0165 -0.0033,-0.0165 -0.0033,-0.0628 z"
         style=""
         id="path5862" />
    </g>
    <g
       style="font-style:normal;font-weight:normal;font-size:3.30729222px;line-height:125%;font-family:sans-serif;letter-spacing:0px;word-spacing:0px;fill:#000000;fill-opacity:1;stroke:none;stroke-width:1px;stroke-linecap:butt;stroke-linejoin:miter;stroke-opacity:1"
       id="text4791">
      <path
         d="m 22.805044,209.68747 0.297139,0 0,2.51277 -0.297139,0 0,-2.51277 z"
         style=""
         id="path5817" />
      <path
         d="m 25.269364,211.22162 0,0.14534 -1.366196,0 q 0.01938,0.30683 0.184097,0.46832 0.166334,0.15987 0.461858,0.15987 0.171179,0 0.331053,-0.042 0.161489,-0.042 0.319748,-0.12596 l 0,0.28099 q -0.159874,0.0678 -0.327823,0.10336 -0.167948,0.0355 -0.340741,0.0355 -0.43279,0 -0.686328,-0.25192 -0.251923,-0.25192 -0.251923,-0.68148 0,-0.4441 0.239004,-0.70409 0.240618,-0.26162 0.64757,-0.26162 0.364965,0 0.576516,0.23578 0.213165,0.23416 0.213165,0.63788 z m -0.29714,-0.0872 q -0.0032,-0.24384 -0.137265,-0.38918 -0.132421,-0.14534 -0.352046,-0.14534 -0.248693,0 -0.398877,0.14049 -0.14857,0.1405 -0.171179,0.39565 l 1.059367,-0.002 z"
         style=""
         id="path5819" />
      <path
         d="m 27.260522,211.10858 0,1.09166 -0.29714,0 0,-1.08197 q 0,-0.25677 -0.100123,-0.38435 -0.100123,-0.12757 -0.300369,-0.12757 -0.240619,0 -0.379499,0.15341 -0.138881,0.15341 -0.138881,0.41826 l 0,1.02222 -0.298754,0 0,-1.80867 0.298754,0 0,0.28099 q 0.106583,-0.16311 0.250308,-0.24385 0.14534,-0.0807 0.334282,-0.0807 0.311674,0 0.471548,0.19379 0.159874,0.19217 0.159874,0.56683 z"
         style=""
         id="path5821" />
      <path
         d="m 29.046589,211.27491 q 0,-0.32298 -0.134036,-0.50062 -0.132421,-0.17763 -0.373039,-0.17763 -0.239004,0 -0.37304,0.17763 -0.132421,0.17764 -0.132421,0.50062 0,0.32136 0.132421,0.499 0.134036,0.17764 0.37304,0.17764 0.240618,0 0.373039,-0.17764 0.134036,-0.17764 0.134036,-0.499 z m 0.297139,0.70086 q 0,0.46186 -0.205091,0.68633 -0.205091,0.22608 -0.628191,0.22608 -0.156645,0 -0.295525,-0.0242 -0.13888,-0.0226 -0.269686,-0.071 l 0,-0.28907 q 0.130806,0.0711 0.258382,0.10497 0.127576,0.0339 0.259997,0.0339 0.292295,0 0.437635,-0.15341 0.14534,-0.1518 0.14534,-0.46025 l 0,-0.14695 q -0.09205,0.15987 -0.235774,0.239 -0.143725,0.0791 -0.343971,0.0791 -0.332667,0 -0.536143,-0.25354 -0.203476,-0.25353 -0.203476,-0.67179 0,-0.41987 0.203476,-0.67341 0.203476,-0.25354 0.536143,-0.25354 0.200246,0 0.343971,0.0791 0.143725,0.0791 0.235774,0.23901 l 0,-0.27453 0.297139,0 0,1.5842 z"
         style=""
         id="path5823" />
      <path
         d="m 30.249681,209.87803 0,0.51354 0.612042,0 0,0.23092 -0.612042,0 0,0.98186 q 0,0.22124 0.05975,0.28422 0.06136,0.063 0.247077,0.063 l 0.305214,0 0,0.24869 -0.305214,0 q -0.343971,0 -0.474777,-0.12758 -0.130806,-0.12919 -0.130806,-0.46831 l 0,-0.98186 -0.21801,0 0,-0.23092 0.21801,0 0,-0.51354 0.298755,0 z"
         style=""
         id="path5825" />
      <path
         d="m 32.757604,211.10858 0,1.09166 -0.29714,0 0,-1.08197 q 0,-0.25677 -0.100123,-0.38435 -0.100123,-0.12757 -0.300369,-0.12757 -0.240619,0 -0.379499,0.15341 -0.138881,0.15341 -0.138881,0.41826 l 0,1.02222 -0.298754,0 0,-2.51277 0.298754,0 0,0.98509 q 0.106583,-0.16311 0.250308,-0.24385 0.14534,-0.0807 0.334282,-0.0807 0.311674,0 0.471548,0.19379 0.159874,0.19217 0.159874,0.56683 z"
         style=""
         id="path5827" />
    </g>
    <g
       style="font-style:normal;font-weight:normal;font-size:3.30729222px;line-height:125%;font-family:sans-serif;letter-spacing:0px;word-spacing:0px;fill:#000000;fill-opacity:1;stroke:none;stroke-width:1px;stroke-linecap:butt;stroke-linejoin:miter;stroke-opacity:1"
       id="text4801">
      <path
         d="m 37.622935,210.47877 q -0.05006,-0.0291 -0.109812,-0.042 -0.05814,-0.0145 -0.129191,-0.0145 -0.251923,0 -0.387574,0.16472 -0.134035,0.16311 -0.134035,0.46993 l 0,0.95279 -0.298755,0 0,-1.80868 0.298755,0 0,0.28099 q 0.09366,-0.16471 0.243848,-0.24384 0.150184,-0.0807 0.364965,-0.0807 0.03068,0 0.06782,0.005 0.03714,0.003 0.08236,0.0113 l 0.0016,0.30521 z"
         style=""
         id="path5839" />
      <path
         d="m 38.759817,211.10051 q -0.36012,0 -0.499001,0.0824 -0.13888,0.0824 -0.13888,0.28099 0,0.15826 0.103353,0.25192 0.104968,0.0921 0.28422,0.0921 0.247078,0 0.395648,-0.17441 0.150185,-0.17602 0.150185,-0.4667 l 0,-0.0662 -0.295525,0 z m 0.592664,-0.12273 0,1.03191 -0.297139,0 0,-0.27453 q -0.101738,0.16472 -0.253538,0.24385 -0.151799,0.0775 -0.371424,0.0775 -0.277761,0 -0.44248,-0.15503 -0.163104,-0.15664 -0.163104,-0.41825 0,-0.30522 0.203476,-0.46025 0.205091,-0.15503 0.610428,-0.15503 l 0.416642,0 0,-0.0291 q 0,-0.20509 -0.135651,-0.31651 -0.134036,-0.11305 -0.377884,-0.11305 -0.155029,0 -0.301984,0.0371 -0.146955,0.0371 -0.282606,0.11142 l 0,-0.27453 q 0.163104,-0.063 0.316518,-0.0937 0.153415,-0.0323 0.298755,-0.0323 0.392418,0 0.586204,0.20348 0.193787,0.20347 0.193787,0.61689 z"
         style=""
         id="path5841" />
      <path
         d="m 40.260048,209.68748 0,0.51353 0.612043,0 0,0.23093 -0.612043,0 0,0.98186 q 0,0.22124 0.05975,0.28422 0.06137,0.063 0.247078,0.063 l 0.305214,0 0,0.24869 -0.305214,0 q -0.343971,0 -0.474777,-0.12758 -0.130806,-0.12919 -0.130806,-0.46831 l 0,-0.98186 -0.21801,0 0,-0.23093 0.21801,0 0,-0.51353 0.298754,0 z"
         style=""
         id="path5843" />
      <path
         d="m 42.811573,211.03107 0,0.14534 -1.366196,0 q 0.01938,0.30683 0.184097,0.46831 0.166334,0.15988 0.461859,0.15988 0.171178,0 0.331052,-0.042 0.161489,-0.042 0.319748,-0.12596 l 0,0.28099 q -0.159874,0.0678 -0.327823,0.10335 -0.167948,0.0355 -0.340741,0.0355 -0.43279,0 -0.686328,-0.25192 -0.251923,-0.25192 -0.251923,-0.68148 0,-0.4441 0.239004,-0.7041 0.240618,-0.26161 0.64757,-0.26161 0.364965,0 0.576516,0.23578 0.213165,0.23415 0.213165,0.63788 z m -0.29714,-0.0872 q -0.0032,-0.24385 -0.137265,-0.38919 -0.132421,-0.14534 -0.352046,-0.14534 -0.248693,0 -0.398877,0.1405 -0.14857,0.1405 -0.171179,0.39565 l 1.059367,-0.002 z"
         style=""
         id="path5845" />
    </g>
    <g
       style="font-style:normal;font-weight:normal;font-size:3.30729222px;line-height:125%;font-family:sans-serif;letter-spacing:0px;word-spacing:0px;fill:#000000;fill-opacity:1;stroke:none;stroke-width:1px;stroke-linecap:butt;stroke-linejoin:miter;stroke-opacity:1"
       id="text4805">
      <path
         d="m 48.561871,210.73877 q 0.111427,-0.20025 0.266457,-0.29553 0.155029,-0.0953 0.364964,-0.0953 0.282606,0 0.43602,0.19863 0.153415,0.19702 0.153415,0.56199 l 0,1.09166 -0.298755,0 0,-1.08197 q 0,-0.26 -0.09205,-0.38596 -0.09205,-0.12596 -0.280991,-0.12596 -0.230929,0 -0.364965,0.15341 -0.134036,0.15341 -0.134036,0.41826 l 0,1.02222 -0.298754,0 0,-1.08197 q 0,-0.26162 -0.09205,-0.38596 -0.09205,-0.12596 -0.28422,-0.12596 -0.227699,0 -0.361735,0.15503 -0.134036,0.15341 -0.134036,0.41664 l 0,1.02222 -0.298754,0 0,-1.80867 0.298754,0 0,0.28099 q 0.101738,-0.16634 0.243848,-0.24547 0.14211,-0.0791 0.337512,-0.0791 0.197016,0 0.334282,0.10013 0.13888,0.10012 0.205091,0.29068 z"
         style=""
         id="path5830" />
      <path
         d="m 51.077868,210.59989 q -0.239004,0 -0.377884,0.18732 -0.138881,0.18572 -0.138881,0.51031 0,0.32459 0.137266,0.51192 0.13888,0.18571 0.379499,0.18571 0.237388,0 0.376269,-0.18733 0.13888,-0.18732 0.13888,-0.5103 0,-0.32136 -0.13888,-0.50869 -0.138881,-0.18894 -0.376269,-0.18894 z m 0,-0.25193 q 0.387573,0 0.608813,0.25193 0.22124,0.25192 0.22124,0.69763 0,0.44409 -0.22124,0.69763 -0.22124,0.25192 -0.608813,0.25192 -0.389189,0 -0.610428,-0.25192 -0.219625,-0.25354 -0.219625,-0.69763 0,-0.44571 0.219625,-0.69763 0.221239,-0.25193 0.610428,-0.25193 z"
         style=""
         id="path5832" />
      <path
         d="m 53.58902,210.6661 0,-0.97863 0.29714,0 0,2.51277 -0.29714,0 0,-0.2713 q -0.09366,0.16149 -0.237389,0.24062 -0.14211,0.0775 -0.342356,0.0775 -0.327822,0 -0.534528,-0.26161 -0.205091,-0.26161 -0.205091,-0.68794 0,-0.42633 0.205091,-0.68794 0.206706,-0.26162 0.534528,-0.26162 0.200246,0 0.342356,0.0791 0.143725,0.0775 0.237389,0.23901 z m -1.012535,0.63142 q 0,0.32782 0.134036,0.51515 0.13565,0.18571 0.371424,0.18571 0.235774,0 0.371424,-0.18571 0.135651,-0.18733 0.135651,-0.51515 0,-0.32782 -0.135651,-0.51354 -0.13565,-0.18732 -0.371424,-0.18732 -0.235774,0 -0.371424,0.18732 -0.134036,0.18572 -0.134036,0.51354 z"
         style=""
         id="path5834" />
      <path
         d="m 56.045266,211.22162 0,0.14534 -1.366196,0 q 0.01938,0.30683 0.184097,0.46832 0.166334,0.15987 0.461858,0.15987 0.171178,0 0.331052,-0.042 0.161489,-0.042 0.319748,-0.12596 l 0,0.28099 q -0.159874,0.0678 -0.327822,0.10336 -0.167948,0.0355 -0.340742,0.0355 -0.43279,0 -0.686327,-0.25192 -0.251923,-0.25192 -0.251923,-0.68148 0,-0.4441 0.239004,-0.70409 0.240618,-0.26162 0.64757,-0.26162 0.364965,0 0.576515,0.23578 0.213166,0.23416 0.213166,0.63788 z m -0.29714,-0.0872 q -0.0032,-0.24384 -0.137265,-0.38918 -0.132421,-0.14534 -0.352046,-0.14534 -0.248693,0 -0.398878,0.14049 -0.148569,0.1405 -0.171178,0.39565 l 1.059367,-0.002 z"
         style=""
         id="path5836" />
    </g>
    <rect
       style="fill:#000000;fill-opacity:1"
       id="rect4604-3-2-2"
       width="7.9375019"
       height="0.26458335"
       x="-225.56248"
       y="51.461475"
       ry="0.01126556"
       transform="matrix(0,-1,1,0,0,0)" />
    <rect
       style="fill:#000000;fill-opacity:1"
       id="rect4604-3-2-2-9"
       width="7.9375019"
       height="0.26458335"
       x="-225.56248"
       y="39.555225"
       ry="0.01126556"
       transform="matrix(0,-1,1,0,0,0)" />
    <rect
       style="fill:#000000;fill-opacity:1"
       id="rect4604-3-2-2-2"
       width="7.9375019"
       height="0.26458335"
       x="-225.56248"
       y="27.648973"
       ry="0.01126556"
       transform="matrix(0,-1,1,0,0,0)" />
    <rect
       style="fill:#000000;fill-opacity:1"
       id="rect4604-3-2-2-7"
       width="7.9375019"
       height="0.26458335"
       x="-245.40623"
       y="51.461475"
       ry="0.01126556"
       transform="matrix(0,-1,1,0,0,0)" />
    <rect
       style="fill:#000000;fill-opacity:1"
       id="rect4604-3-2-2-9-5"
       width="7.9375019"
       height="0.26458335"
       x="-245.40623"
       y="39.555225"
       ry="0.01126556"
       transform="matrix(0,-1,1,0,0,0)" />
    <rect
       style="fill:#000000;fill-opacity:1"
       id="rect4604-3-2-2-2-7"
       width="7.9375019"
       height="0.26458335"
       x="-245.40625"
       y="27.648973"
       ry="0.01126556"
       transform="matrix(0,-1,1,0,0,0)" />
    <rect
       style="fill:#000000;fill-opacity:1"
       id="rect4604-3-2-2-1"
       width="7.9375019"
       height="0.26458335"
       x="-265.25"
       y="51.461475"
       ry="0.01126556"
       transform="matrix(0,-1,1,0,0,0)" />
    <rect
       style="fill:#000000;fill-opacity:1"
       id="rect4604-3-2-2-9-7"
       width="7.9375019"
       height="0.26458335"
       x="-265.25"
       y="39.555225"
       ry="0.01126556"
       transform="matrix(0,-1,1,0,0,0)" />
    <rect
       style="fill:#000000;fill-opacity:1"
       id="rect4604-3-2-2-2-8"
       width="7.9375019"
       height="0.26458335"
       x="-265.25"
       y="27.648973"
       ry="0.01126556"
       transform="matrix(0,-1,1,0,0,0)" />
    <rect
       style="fill:#000000;fill-opacity:1"
       id="rect4604-3-2-2-7-1"
       width="7.9375019"
       height="0.26458335"
       x="-285.09375"
       y="51.461475"
       ry="0.01126556"
       transform="matrix(0,-1,1,0,0,0)" />
    <rect
       style="fill:#000000;fill-opacity:1"
       id="rect4604-3-2-2-9-5-5"
       width="7.9375019"
       height="0.26458335"
       x="-285.09375"
       y="39.555225"
       ry="0.01126556"
       transform="matrix(0,-1,1,0,0,0)" />
    <rect
       style="fill:#000000;fill-opacity:1"
       id="rect4604-3-2-2-2-7-1"
       width="7.9375019"
       height="0.26458335"
       x="-285.09375"
       y="27.648973"
       ry="0.01126556"
       transform="matrix(0,-1,1,0,0,0)" />
  </g>
</svg>
