<?xml version="1.0" encoding="UTF-8" standalone="no"?>
<!-- Created with Inkscape (http://www.inkscape.org/) -->

<svg
   xmlns:dc="http://purl.org/dc/elements/1.1/"
   xmlns:cc="http://creativecommons.org/ns#"
   xmlns:rdf="http://www.w3.org/1999/02/22-rdf-syntax-ns#"
   xmlns:svg="http://www.w3.org/2000/svg"
   xmlns="http://www.w3.org/2000/svg"
   xmlns:sodipodi="http://sodipodi.sourceforge.net/DTD/sodipodi-0.dtd"
   xmlns:inkscape="http://www.inkscape.org/namespaces/inkscape"
   width="142.24001mm"
   height="128.5mm"
   viewBox="0 0 142.24001 128.5"
   version="1.1"
   id="svg8"
   inkscape:version="0.92.5 (2060ec1f9f, 2020-04-08)"
   sodipodi:docname="Tia.svg">
  <defs
     id="defs2">
    <marker
       inkscape:stockid="Arrow1Mstart"
       orient="auto"
       refY="0"
       refX="0"
       id="Arrow1Mstart"
       style="overflow:visible"
       inkscape:isstock="true">
      <path
         id="path978"
         d="M 0,0 5,-5 -12.5,0 5,5 Z"
         style="fill:#000000;fill-opacity:1;fill-rule:evenodd;stroke:#000000;stroke-width:1.00000003pt;stroke-opacity:1"
         transform="matrix(0.4,0,0,0.4,4,0)"
         inkscape:connector-curvature="0" />
    </marker>
    <marker
       inkscape:isstock="true"
       style="overflow:visible"
       id="marker1310"
       refX="0"
       refY="0"
       orient="auto"
       inkscape:stockid="Arrow1Mend">
      <path
         transform="matrix(-0.4,0,0,-0.4,-4,0)"
         style="fill:#ffffff;fill-opacity:1;fill-rule:evenodd;stroke:#ffffff;stroke-width:1.00000003pt;stroke-opacity:1"
         d="M 0,0 5,-5 -12.5,0 5,5 Z"
         id="path1308"
         inkscape:connector-curvature="0" />
    </marker>
    <marker
       inkscape:stockid="Arrow1Lend"
       orient="auto"
       refY="0"
       refX="0"
       id="Arrow1Lend"
       style="overflow:visible"
       inkscape:isstock="true">
      <path
         id="path975"
         d="M 0,0 5,-5 -12.5,0 5,5 Z"
         style="fill:#000000;fill-opacity:1;fill-rule:evenodd;stroke:#000000;stroke-width:1.00000003pt;stroke-opacity:1"
         transform="matrix(-0.8,0,0,-0.8,-10,0)"
         inkscape:connector-curvature="0" />
    </marker>
  </defs>
  <sodipodi:namedview
     id="base"
     pagecolor="#ffffff"
     bordercolor="#666666"
     borderopacity="1.0"
     inkscape:pageopacity="0.0"
     inkscape:pageshadow="2"
     inkscape:zoom="1.4"
     inkscape:cx="195.37435"
     inkscape:cy="213.99433"
     inkscape:document-units="mm"
     inkscape:current-layer="layer2"
     showgrid="true"
     inkscape:window-width="1918"
     inkscape:window-height="1060"
     inkscape:window-x="1370"
     inkscape:window-y="18"
     inkscape:window-maximized="0"
     inkscape:snap-bbox="false"
     inkscape:snap-center="true">
    <inkscape:grid
       type="xygrid"
       id="grid835"
       units="mm"
       spacingx="1.5875"
       spacingy="1.5875"
       originy="0.75"
       enabled="true" />
  </sodipodi:namedview>
  <metadata
     id="metadata5">
    <rdf:RDF>
      <cc:Work
         rdf:about="">
        <dc:format>image/svg+xml</dc:format>
        <dc:type
           rdf:resource="http://purl.org/dc/dcmitype/StillImage" />
        <dc:title></dc:title>
      </cc:Work>
    </rdf:RDF>
  </metadata>
  <g
     inkscape:label="Layer 1"
     inkscape:groupmode="layer"
     id="layer1"
     transform="translate(0,-168.5)"
     style="display:inline">
    <rect
       transform="translate(0,168.5)"
       style="display:inline;fill:#333333;stroke:none;stroke-width:0.26656035;stroke-miterlimit:4;stroke-dasharray:none"
       id="rect2177"
       width="142.24001"
       height="128.5"
       x="0"
       y="3.2289737e-08" />
    <text
       xml:space="preserve"
       style="font-style:normal;font-variant:normal;font-weight:normal;font-stretch:normal;font-size:4.23333311px;line-height:1.25;font-family:'CMU Serif';-inkscape-font-specification:'CMU Serif';letter-spacing:0px;word-spacing:0px;fill:#ffffff;fill-opacity:1;stroke:none;stroke-width:0.26458332"
       x="3.175"
       y="280.375"
       id="text956"><tspan
         sodipodi:role="line"
         id="tspan954"
         x="3.175"
         y="284.29083"
         style="fill:#ffffff;stroke:none;stroke-width:0.26458332" /></text>
    <g
       transform="translate(0,168.5)"
       aria-label="0 - 5 V
± 5  V
"
       style="display:inline;font-style:normal;font-variant:normal;font-weight:normal;font-stretch:normal;font-size:2.82222223px;line-height:1.25;font-family:'CMU Serif';-inkscape-font-specification:'CMU Serif';letter-spacing:0px;word-spacing:0px;fill:#ffffff;fill-opacity:1;stroke:none;stroke-width:0.26458332"
       id="text1726">
      <path
         d="m 130.67174,78.390743 c 0,0.211666 0.0113,0.465666 0.127,0.680155 0.12136,0.2286 0.32738,0.285045 0.46567,0.285045 0.1524,0 0.36689,-0.05927 0.49107,-0.327378 0.0903,-0.194733 0.10442,-0.414867 0.10442,-0.637822 0,-0.225778 -0.0141,-0.451556 -0.11289,-0.6604 -0.12982,-0.270934 -0.36125,-0.316089 -0.47978,-0.316089 -0.16933,0 -0.37535,0.07338 -0.49107,0.335844 -0.0903,0.194734 -0.10442,0.414867 -0.10442,0.640645 z m 0.23425,-0.03387 c 0,-0.180622 0,-0.366889 0.0226,-0.519289 0.0536,-0.335844 0.26529,-0.361244 0.33585,-0.361244 0.0931,0 0.2794,0.0508 0.33302,0.3302 0.0282,0.158044 0.0282,0.372533 0.0282,0.550333 0,0.211667 0,0.403578 -0.031,0.5842 -0.0423,0.268111 -0.2032,0.352778 -0.3302,0.352778 -0.11007,0 -0.27658,-0.07056 -0.32738,-0.341489 -0.031,-0.169333 -0.031,-0.428978 -0.031,-0.595489 z"
         style="fill:#ffffff;stroke-width:0.26458332"
         id="path1732"
         inkscape:connector-curvature="0" />
      <path
         d="m 132.9408,78.76892 h 0.75071 v -0.166511 h -0.75071 z"
         style="fill:#ffffff;stroke-width:0.26458332"
         id="path1734"
         inkscape:connector-curvature="0" />
      <path
         d="m 134.93328,78.839476 c 0,0.242711 0.19473,0.516467 0.51082,0.516467 0.32738,0 0.61524,-0.270934 0.61524,-0.629356 0,-0.335844 -0.23142,-0.618067 -0.53622,-0.618067 -0.13546,0 -0.25682,0.04516 -0.35842,0.143934 V 77.70212 c 0.0564,0.01693 0.14958,0.03669 0.23989,0.03669 0.34713,0 0.54469,-0.256822 0.54469,-0.293511 0,-0.01693 -0.008,-0.03104 -0.0282,-0.03104 -0.003,0 -0.008,0 -0.0226,0.0085 -0.0565,0.0254 -0.19474,0.08185 -0.38382,0.08185 -0.11289,0 -0.24272,-0.01976 -0.37536,-0.07902 -0.0226,-0.0085 -0.0282,-0.0085 -0.0339,-0.0085 -0.0282,0 -0.0282,0.02258 -0.0282,0.06773 v 0.835378 c 0,0.0508 0,0.07338 0.0395,0.07338 0.0198,0 0.0254,-0.0085 0.0367,-0.0254 0.031,-0.04516 0.13547,-0.197556 0.36407,-0.197556 0.14675,0 0.21731,0.129823 0.23989,0.180623 0.0451,0.104422 0.0508,0.214488 0.0508,0.3556 0,0.09878 0,0.268111 -0.0677,0.386644 -0.0677,0.110067 -0.17215,0.183444 -0.30197,0.183444 -0.20603,0 -0.36689,-0.149577 -0.41487,-0.316088 0.008,0.0028 0.0169,0.0056 0.048,0.0056 0.0931,0 0.14111,-0.07056 0.14111,-0.138289 0,-0.06773 -0.048,-0.138289 -0.14111,-0.138289 -0.0395,0 -0.13829,0.01976 -0.13829,0.149578 z"
         style="fill:#ffffff;stroke-width:0.26458332"
         id="path1736"
         inkscape:connector-curvature="0" />
      <path
         d="m 137.19669,77.453765 c 0.18344,0 0.23707,0 0.27658,0.107244 l 0.65475,1.732845 c 0.0198,0.05362 0.0339,0.06209 0.0706,0.06209 0.048,0 0.0536,-0.01411 0.0677,-0.05362 l 0.62936,-1.659466 c 0.0395,-0.104422 0.11571,-0.186267 0.30762,-0.189089 v -0.08749 c -0.0875,0.0056 -0.20038,0.0085 -0.27376,0.0085 -0.0847,0 -0.24835,-0.0056 -0.32173,-0.0085 v 0.08749 c 0.14676,0.0028 0.20602,0.0762 0.20602,0.141111 0,0.02258 -0.008,0.03951 -0.0141,0.05644 l -0.51646,1.360312 -0.53905,-1.425223 c -0.0169,-0.03951 -0.0169,-0.04516 -0.0169,-0.0508 0,-0.08184 0.16086,-0.08184 0.23142,-0.08184 v -0.08749 c -0.1016,0.0085 -0.29633,0.0085 -0.40358,0.0085 -0.13546,0 -0.25682,-0.0056 -0.35842,-0.0085 z"
         style="fill:#ffffff;stroke-width:0.26458332"
         id="path1738"
         inkscape:connector-curvature="0" />
      <path
         d="m 130.71972,82.765187 c 0,0.02258 0.0141,0.05644 0.0847,0.05644 h 1.70744 c 0.0706,-0.0028 0.0819,-0.03387 0.0819,-0.05362 0,-0.05644 -0.0508,-0.05927 -0.0903,-0.05927 h -0.79022 V 81.93827 h 0.79587 c 0.0339,0 0.0847,-0.0056 0.0847,-0.05644 0,-0.05362 -0.0508,-0.05644 -0.0847,-0.05644 h -0.79587 v -0.79587 c 0,-0.03387 -0.003,-0.08467 -0.0564,-0.08467 -0.0508,0 -0.0565,0.0508 -0.0565,0.08467 v 0.795867 h -0.79586 c -0.0339,0 -0.0847,0.0028 -0.0847,0.05644 0,0.0508 0.0508,0.05644 0.0847,0.05644 h 0.79586 v 0.770467 h -0.80151 c -0.0677,0.0028 -0.079,0.03387 -0.079,0.05644 z"
         style="fill:#ffffff;stroke-width:0.26458332"
         id="path1740"
         inkscape:connector-curvature="0" />
      <path
         d="m 133.83827,82.367254 c 0,0.242711 0.19473,0.516466 0.51082,0.516466 0.32738,0 0.61525,-0.270933 0.61525,-0.629355 0,-0.335845 -0.23142,-0.618067 -0.53622,-0.618067 -0.13547,0 -0.25683,0.04516 -0.35843,0.143934 v -0.550334 c 0.0564,0.01693 0.14958,0.03669 0.23989,0.03669 0.34714,0 0.54469,-0.256822 0.54469,-0.293511 0,-0.01693 -0.008,-0.03104 -0.0282,-0.03104 -0.003,0 -0.008,0 -0.0226,0.0085 -0.0564,0.0254 -0.19473,0.08185 -0.38382,0.08185 -0.11289,0 -0.24271,-0.01976 -0.37536,-0.07902 -0.0226,-0.0085 -0.0282,-0.0085 -0.0339,-0.0085 -0.0282,0 -0.0282,0.02258 -0.0282,0.06773 v 0.835378 c 0,0.0508 0,0.07338 0.0395,0.07338 0.0198,0 0.0254,-0.0085 0.0367,-0.0254 0.031,-0.04516 0.13547,-0.197556 0.36407,-0.197556 0.14676,0 0.21731,0.129822 0.23989,0.180622 0.0452,0.104423 0.0508,0.214489 0.0508,0.3556 0,0.09878 0,0.268111 -0.0677,0.386645 -0.0677,0.110066 -0.17216,0.183444 -0.30198,0.183444 -0.20602,0 -0.36689,-0.149578 -0.41487,-0.316089 0.008,0.0028 0.0169,0.0056 0.048,0.0056 0.0931,0 0.14111,-0.07056 0.14111,-0.138289 0,-0.06773 -0.048,-0.138289 -0.14111,-0.138289 -0.0395,0 -0.13829,0.01976 -0.13829,0.149578 z"
         style="fill:#ffffff;stroke-width:0.26458332"
         id="path1742"
         inkscape:connector-curvature="0" />
      <path
         d="m 137.04148,80.981543 c 0.18344,0 0.23706,0 0.27658,0.107244 l 0.65475,1.732845 c 0.0198,0.05362 0.0339,0.06209 0.0706,0.06209 0.048,0 0.0536,-0.01411 0.0677,-0.05362 l 0.62936,-1.659466 c 0.0395,-0.104423 0.11571,-0.186267 0.30762,-0.189089 v -0.08749 c -0.0875,0.0056 -0.20038,0.0085 -0.27376,0.0085 -0.0847,0 -0.24835,-0.0056 -0.32173,-0.0085 v 0.08749 c 0.14675,0.0028 0.20602,0.0762 0.20602,0.141111 0,0.02258 -0.008,0.03951 -0.0141,0.05644 l -0.51647,1.360311 -0.53904,-1.425222 c -0.0169,-0.03951 -0.0169,-0.04515 -0.0169,-0.0508 0,-0.08184 0.16086,-0.08184 0.23142,-0.08184 v -0.08749 c -0.1016,0.0085 -0.29634,0.0085 -0.40358,0.0085 -0.13547,0 -0.25682,-0.0056 -0.35842,-0.0085 z"
         style="fill:#ffffff;stroke-width:0.26458332"
         id="path1744"
         inkscape:connector-curvature="0" />
    </g>
    <g
       aria-label="Tia I"
       style="display:inline;font-style:normal;font-variant:normal;font-weight:normal;font-stretch:normal;font-size:4.23333311px;line-height:1.25;font-family:'CMU Serif';-inkscape-font-specification:'CMU Serif';letter-spacing:0px;word-spacing:0px;fill:#ffffff;fill-opacity:1;stroke:none;stroke-width:0.07000434"
       id="text1350">
      <path
         d="m 66.613635,175.10893 h 0.105833 c 0.05927,-0.68156 0.122767,-0.82126 0.762,-0.82126 0.0762,0 0.186267,0 0.2286,0.008 0.0889,0.0169 0.0889,0.0635 0.0889,0.16087 v 2.23097 c 0,0.14393 0,0.2032 -0.4445,0.2032 h -0.169333 v 0.13123 c 0.173567,-0.0127 0.605367,-0.0127 0.8001,-0.0127 0.194733,0 0.630767,0 0.804333,0.0127 v -0.13123 h -0.169333 c -0.4445,0 -0.4445,-0.0593 -0.4445,-0.2032 V 174.457 c 0,-0.0847 0,-0.14393 0.0762,-0.16087 0.04657,-0.008 0.160867,-0.008 0.2413,-0.008 0.639233,0 0.702733,0.1397 0.762,0.82126 h 0.105833 l -0.08043,-0.9525 h -2.586567 z"
         style="fill:#ffffff;stroke-width:0.07000434"
         id="path1747" />
      <path
         d="m 69.835194,174.41467 c 0,0.1143 0.09313,0.22436 0.224367,0.22436 0.118533,0 0.224366,-0.0889 0.224366,-0.22436 0,-0.13547 -0.105833,-0.22437 -0.224366,-0.22437 -0.131234,0 -0.224367,0.1143 -0.224367,0.22437 z m -0.1778,2.60773 c 0.135467,-0.004 0.364067,-0.0127 0.465667,-0.0127 0.148166,0 0.296333,0.008 0.440266,0.0127 v -0.13123 c -0.2794,0 -0.296333,-0.0212 -0.296333,-0.18627 v -1.55363 l -0.592667,0.0466 v 0.13124 c 0.275167,0 0.313267,0.0254 0.313267,0.23283 v 1.13877 c 0,0.1905 -0.04657,0.1905 -0.3302,0.1905 z"
         style="fill:#ffffff;stroke-width:0.07000434"
         id="path1749" />
      <path
         d="m 70.868121,176.62023 c 0,0.3429 0.410633,0.44874 0.677333,0.44874 0.2794,0 0.474134,-0.16934 0.554567,-0.3683 0.01693,0.16933 0.131233,0.34713 0.3302,0.34713 0.0889,0 0.347133,-0.0593 0.347133,-0.40217 v -0.23706 h -0.105833 v 0.23706 c 0,0.24554 -0.105833,0.27094 -0.1524,0.27094 -0.1397,0 -0.156633,-0.1905 -0.156633,-0.21167 v -0.84667 c 0,-0.1778 0,-0.3429 -0.1524,-0.49953 -0.1651,-0.1651 -0.376767,-0.23283 -0.579967,-0.23283 -0.347133,0 -0.639233,0.19896 -0.639233,0.47836 0,0.127 0.08467,0.19897 0.194733,0.19897 0.118533,0 0.194733,-0.0847 0.194733,-0.19473 0,-0.0508 -0.02117,-0.1905 -0.2159,-0.19474 0.1143,-0.14816 0.321734,-0.19473 0.4572,-0.19473 0.207434,0 0.448734,0.1651 0.448734,0.54187 v 0.15663 c -0.2159,0.0127 -0.512234,0.0254 -0.778934,0.1524 -0.3175,0.14393 -0.423333,0.36407 -0.423333,0.55033 z m 0.325967,-0.004 c 0,-0.23283 0.1778,-0.5842 0.8763,-0.6096 v 0.42333 c 0,0.40217 -0.3048,0.5461 -0.4953,0.5461 -0.207434,0 -0.381,-0.14816 -0.381,-0.35983 z"
         style="fill:#ffffff;stroke-width:0.07000434"
         id="path1751" />
      <path
         d="m 74.335205,177.0224 c 0.148167,-0.0127 0.4826,-0.0127 0.643467,-0.0127 0.1651,0 0.499533,0 0.6477,0.0127 v -0.13123 h -0.110067 c -0.334433,0 -0.347133,-0.0466 -0.347133,-0.19897 v -2.23097 c 0,-0.1524 0.0127,-0.19896 0.347133,-0.19896 h 0.110067 v -0.13124 c -0.148167,0.0127 -0.4826,0.0127 -0.643467,0.0127 -0.1651,0 -0.499533,0 -0.6477,-0.0127 v 0.13124 h 0.110067 c 0.334433,0 0.347133,0.0466 0.347133,0.19896 v 2.23097 c 0,0.1524 -0.0127,0.19897 -0.347133,0.19897 h -0.110067 z"
         style="fill:#ffffff;stroke-width:0.07000434"
         id="path1753" />
    </g>
    <path
       style="fill:none;stroke:#000000;stroke-width:0.26458332px;stroke-linecap:butt;stroke-linejoin:miter;stroke-opacity:1"
       d="m 119.0625,167.6625 v 130.175"
       id="path2107"
       inkscape:connector-curvature="0" />
  </g>
  <g
     inkscape:groupmode="layer"
     id="layer2"
     inkscape:label="components"
     style="display:none"
     sodipodi:insensitive="true">
    <circle
       style="display:inline;fill:#00ff00;stroke:none;stroke-width:1.5;stroke-miterlimit:4;stroke-dasharray:none"
       id="path839-6"
       cx="15.875"
       cy="80.125"
       r="3"
       inkscape:label="signal0" />
    <circle
       style="display:inline;fill:#ff0000;stroke:none;stroke-width:1.5;stroke-miterlimit:4;stroke-dasharray:none"
       id="path839-6-35"
       cx="15.875"
       cy="48.374996"
       r="3"
       inkscape:label="select0" />
    <circle
       style="display:inline;fill:#00ff00;stroke:none;stroke-width:1.5;stroke-miterlimit:4;stroke-dasharray:none"
       id="path839-6-36"
       cx="15.875"
       cy="111.875"
       r="3"
       inkscape:label="xfade0" />
    <circle
       style="display:inline;fill:#ff0000;stroke:none;stroke-width:1.5;stroke-miterlimit:4;stroke-dasharray:none"
       id="path839-6-35-7"
       cx="15.875"
       cy="32.499992"
       r="3"
       inkscape:label="set_bot0" />
    <circle
       style="display:inline;fill:#ff0000;stroke:none;stroke-width:1.5;stroke-miterlimit:4;stroke-dasharray:none"
       id="path839-6-35-5"
       cx="15.875"
       cy="16.624994"
       r="3"
       inkscape:label="set_top0" />
    <circle
       style="display:inline;fill:#ff0000;stroke:none;stroke-width:1.5;stroke-miterlimit:4;stroke-dasharray:none"
       id="path839-6-35-3"
       cx="15.875"
       cy="96"
       r="3"
       inkscape:label="gain0" />
    <circle
       style="display:inline;fill:#ff00ff;stroke:none;stroke-width:1.5;stroke-miterlimit:4;stroke-dasharray:none"
       id="path839-6-35-6-2-9-2-5"
       cx="15.875"
       cy="26.679163"
       inkscape:label="fade_bot0"
       r="1.5" />
    <circle
       style="display:inline;fill:#ff00ff;stroke:none;stroke-width:1.5;stroke-miterlimit:4;stroke-dasharray:none"
       id="path839-6-35-6-2-9-2-5-6"
       cx="15.875"
       cy="22.445829"
       inkscape:label="fade_top0"
       r="1.5" />
    <circle
       style="display:inline;fill:#ff0000;stroke:none;stroke-width:1.5;stroke-miterlimit:4;stroke-dasharray:none"
       id="path839-6-35-2"
       cx="127"
       cy="48.374992"
       r="3"
       inkscape:label="select_none" />
    <circle
       style="display:inline;fill:#ff0000;stroke:none;stroke-width:1.5;stroke-miterlimit:4;stroke-dasharray:none"
       id="path839-6-35-2-9"
       cx="127"
       cy="32.499989"
       r="3"
       inkscape:label="set_bot_all" />
    <circle
       style="display:inline;fill:#ff0000;stroke:none;stroke-width:1.5;stroke-miterlimit:4;stroke-dasharray:none"
       id="path839-6-35-2-9-1"
       cx="127"
       cy="16.624992"
       r="3"
       inkscape:label="set_top_all" />
    <circle
       style="display:inline;fill:#0000ff;stroke:none;stroke-width:1.5;stroke-miterlimit:4;stroke-dasharray:none"
       id="path839-6-2"
       cx="127"
       cy="111.875"
       r="3"
       inkscape:label="poly" />
    <circle
       style="display:inline;fill:#ff0000;stroke:none;stroke-width:1.5;stroke-miterlimit:4;stroke-dasharray:none"
       id="path839-6-35-2-7"
       cx="127"
       cy="80.125"
       r="3"
       inkscape:label="fade_range" />
    <circle
       style="display:inline;fill:#ff0000;stroke:none;stroke-width:1.5;stroke-miterlimit:4;stroke-dasharray:none"
       id="path839-6-35-3-0"
       cx="127"
       cy="96"
       r="3"
       inkscape:label="global_gain" />
    <circle
       transform="translate(0,-168.5)"
       style="display:inline;fill:#ff00ff;stroke:none;stroke-width:1.5;stroke-miterlimit:4;stroke-dasharray:none"
       id="path839-6-35-6-2-9-2-5-1-6-20"
       cx="15.875"
       cy="201"
       inkscape:label="select_bot0"
       r="1.5" />
    <circle
       transform="translate(0,-168.5)"
       style="display:inline;fill:#ff00ff;stroke:none;stroke-width:1.5;stroke-miterlimit:4;stroke-dasharray:none"
       id="path839-6-35-6-2-9-2-5-1-6-9-68"
       cx="15.875"
       cy="185.125"
       inkscape:label="select_top0"
       r="1.5" />
    <circle
       transform="translate(0,-168.5)"
       style="display:inline;fill:#ff00ff;stroke:none;stroke-width:1.5;stroke-miterlimit:4;stroke-dasharray:none"
       id="path839-6-35-6-2-9-2-5-1-6-9-3-9"
       cx="15.875"
       cy="216.875"
       inkscape:label="select0"
       r="1.5" />
    <circle
       transform="translate(0,-168.5)"
       style="display:inline;fill:#00ff00;stroke:none;stroke-width:1.5;stroke-miterlimit:4;stroke-dasharray:none"
       id="path839-6-0"
       cx="31.75"
       cy="248.625"
       r="3"
       inkscape:label="signal1" />
    <circle
       transform="translate(0,-168.5)"
       style="display:inline;fill:#ff0000;stroke:none;stroke-width:1.5;stroke-miterlimit:4;stroke-dasharray:none"
       id="path839-6-35-4"
       cx="31.75"
       cy="216.875"
       r="3"
       inkscape:label="select1" />
    <circle
       transform="translate(0,-168.5)"
       style="display:inline;fill:#00ff00;stroke:none;stroke-width:1.5;stroke-miterlimit:4;stroke-dasharray:none"
       id="path839-6-36-8"
       cx="31.75"
       cy="280.375"
       r="3"
       inkscape:label="xfade1" />
    <circle
       transform="translate(0,-168.5)"
       style="display:inline;fill:#ff0000;stroke:none;stroke-width:1.5;stroke-miterlimit:4;stroke-dasharray:none"
       id="path839-6-35-7-7"
       cx="31.75"
       cy="201"
       r="3"
       inkscape:label="set_bot1" />
    <circle
       transform="translate(0,-168.5)"
       style="display:inline;fill:#ff0000;stroke:none;stroke-width:1.5;stroke-miterlimit:4;stroke-dasharray:none"
       id="path839-6-35-5-1"
       cx="31.75"
       cy="185.125"
       r="3"
       inkscape:label="set_top1" />
    <circle
       transform="translate(0,-168.5)"
       style="display:inline;fill:#ff0000;stroke:none;stroke-width:1.5;stroke-miterlimit:4;stroke-dasharray:none"
       id="path839-6-35-3-7"
       cx="31.75"
       cy="264.5"
       r="3"
       inkscape:label="gain1" />
    <circle
       transform="translate(0,-168.5)"
       style="display:inline;fill:#ff00ff;stroke:none;stroke-width:1.5;stroke-miterlimit:4;stroke-dasharray:none"
       id="path839-6-35-6-2-9-2-5-2"
       cx="31.75"
       cy="195.17917"
       inkscape:label="fade_bot1"
       r="1.5" />
    <circle
       transform="translate(0,-168.5)"
       style="display:inline;fill:#ff00ff;stroke:none;stroke-width:1.5;stroke-miterlimit:4;stroke-dasharray:none"
       id="path839-6-35-6-2-9-2-5-6-7"
       cx="31.75"
       cy="190.94585"
       inkscape:label="fade_top1"
       r="1.5" />
    <circle
       transform="translate(0,-168.5)"
       style="display:inline;fill:#ff00ff;stroke:none;stroke-width:1.5;stroke-miterlimit:4;stroke-dasharray:none"
       id="path839-6-35-6-2-9-2-5-1-6-20-2"
       cx="31.75"
       cy="201.00002"
       inkscape:label="select_bot1"
       r="1.5" />
    <circle
       transform="translate(0,-168.5)"
       style="display:inline;fill:#ff00ff;stroke:none;stroke-width:1.5;stroke-miterlimit:4;stroke-dasharray:none"
       id="path839-6-35-6-2-9-2-5-1-6-9-68-2"
       cx="31.75"
       cy="185.12502"
       inkscape:label="select_top1"
       r="1.5" />
    <circle
       transform="translate(0,-168.5)"
       style="display:inline;fill:#ff00ff;stroke:none;stroke-width:1.5;stroke-miterlimit:4;stroke-dasharray:none"
       id="path839-6-35-6-2-9-2-5-1-6-9-3-9-6"
       cx="31.75"
       cy="216.87502"
       inkscape:label="select1"
       r="1.5" />
    <circle
       transform="translate(0,-168.5)"
       style="display:inline;fill:#00ff00;stroke:none;stroke-width:1.5;stroke-miterlimit:4;stroke-dasharray:none"
       id="path839-6-1"
       cx="47.625"
       cy="248.625"
       r="3"
       inkscape:label="signal2" />
    <circle
       transform="translate(0,-168.5)"
       style="display:inline;fill:#ff0000;stroke:none;stroke-width:1.5;stroke-miterlimit:4;stroke-dasharray:none"
       id="path839-6-35-0"
       cx="47.625"
       cy="216.875"
       r="3"
       inkscape:label="select2" />
    <circle
       transform="translate(0,-168.5)"
       style="display:inline;fill:#00ff00;stroke:none;stroke-width:1.5;stroke-miterlimit:4;stroke-dasharray:none"
       id="path839-6-36-6"
       cx="47.625"
       cy="280.375"
       r="3"
       inkscape:label="xfade2" />
    <circle
       transform="translate(0,-168.5)"
       style="display:inline;fill:#ff0000;stroke:none;stroke-width:1.5;stroke-miterlimit:4;stroke-dasharray:none"
       id="path839-6-35-7-1"
       cx="47.625"
       cy="201"
       r="3"
       inkscape:label="set_bot2" />
    <circle
       transform="translate(0,-168.5)"
       style="display:inline;fill:#ff0000;stroke:none;stroke-width:1.5;stroke-miterlimit:4;stroke-dasharray:none"
       id="path839-6-35-5-5"
       cx="47.625"
       cy="185.125"
       r="3"
       inkscape:label="set_top2" />
    <circle
       transform="translate(0,-168.5)"
       style="display:inline;fill:#ff0000;stroke:none;stroke-width:1.5;stroke-miterlimit:4;stroke-dasharray:none"
       id="path839-6-35-3-9"
       cx="47.625"
       cy="264.5"
       r="3"
       inkscape:label="gain2" />
    <circle
       transform="translate(0,-168.5)"
       style="display:inline;fill:#ff00ff;stroke:none;stroke-width:1.5;stroke-miterlimit:4;stroke-dasharray:none"
       id="path839-6-35-6-2-9-2-5-4"
       cx="47.625"
       cy="195.17917"
       inkscape:label="fade_bot2"
       r="1.5" />
    <circle
       transform="translate(0,-168.5)"
       style="display:inline;fill:#ff00ff;stroke:none;stroke-width:1.5;stroke-miterlimit:4;stroke-dasharray:none"
       id="path839-6-35-6-2-9-2-5-6-9"
       cx="47.625"
       cy="190.94585"
       inkscape:label="fade_top2"
       r="1.5" />
    <circle
       transform="translate(0,-168.5)"
       style="display:inline;fill:#ff00ff;stroke:none;stroke-width:1.5;stroke-miterlimit:4;stroke-dasharray:none"
       id="path839-6-35-6-2-9-2-5-1-6-20-0"
       cx="47.625"
       cy="201.00002"
       inkscape:label="select_bot2"
       r="1.5" />
    <circle
       transform="translate(0,-168.5)"
       style="display:inline;fill:#ff00ff;stroke:none;stroke-width:1.5;stroke-miterlimit:4;stroke-dasharray:none"
       id="path839-6-35-6-2-9-2-5-1-6-9-68-9"
       cx="47.625"
       cy="185.12502"
       inkscape:label="select_top2"
       r="1.5" />
    <circle
       transform="translate(0,-168.5)"
       style="display:inline;fill:#ff00ff;stroke:none;stroke-width:1.5;stroke-miterlimit:4;stroke-dasharray:none"
       id="path839-6-35-6-2-9-2-5-1-6-9-3-9-1"
       cx="47.625"
       cy="216.87502"
       inkscape:label="select2"
       r="1.5" />
    <circle
       transform="translate(0,-168.5)"
       style="display:inline;fill:#00ff00;stroke:none;stroke-width:1.5;stroke-miterlimit:4;stroke-dasharray:none"
       id="path839-6-7"
       cx="63.5"
       cy="248.625"
       r="3"
       inkscape:label="signal3" />
    <circle
       transform="translate(0,-168.5)"
       style="display:inline;fill:#ff0000;stroke:none;stroke-width:1.5;stroke-miterlimit:4;stroke-dasharray:none"
       id="path839-6-35-71"
       cx="63.5"
       cy="216.875"
       r="3"
       inkscape:label="select3" />
    <circle
       transform="translate(0,-168.5)"
       style="display:inline;fill:#00ff00;stroke:none;stroke-width:1.5;stroke-miterlimit:4;stroke-dasharray:none"
       id="path839-6-36-1"
       cx="63.5"
       cy="280.375"
       r="3"
       inkscape:label="xfade3" />
    <circle
       transform="translate(0,-168.5)"
       style="display:inline;fill:#ff0000;stroke:none;stroke-width:1.5;stroke-miterlimit:4;stroke-dasharray:none"
       id="path839-6-35-7-5"
       cx="63.5"
       cy="201"
       r="3"
       inkscape:label="set_bot3" />
    <circle
       transform="translate(0,-168.5)"
       style="display:inline;fill:#ff0000;stroke:none;stroke-width:1.5;stroke-miterlimit:4;stroke-dasharray:none"
       id="path839-6-35-5-9"
       cx="63.5"
       cy="185.125"
       r="3"
       inkscape:label="set_top3" />
    <circle
       transform="translate(0,-168.5)"
       style="display:inline;fill:#ff0000;stroke:none;stroke-width:1.5;stroke-miterlimit:4;stroke-dasharray:none"
       id="path839-6-35-3-77"
       cx="63.5"
       cy="264.5"
       r="3"
       inkscape:label="gain3" />
    <circle
       transform="translate(0,-168.5)"
       style="display:inline;fill:#ff00ff;stroke:none;stroke-width:1.5;stroke-miterlimit:4;stroke-dasharray:none"
       id="path839-6-35-6-2-9-2-5-67"
       cx="63.5"
       cy="195.17917"
       inkscape:label="fade_bot3"
       r="1.5" />
    <circle
       transform="translate(0,-168.5)"
       style="display:inline;fill:#ff00ff;stroke:none;stroke-width:1.5;stroke-miterlimit:4;stroke-dasharray:none"
       id="path839-6-35-6-2-9-2-5-6-3"
       cx="63.5"
       cy="190.94585"
       inkscape:label="fade_top3"
       r="1.5" />
    <circle
       transform="translate(0,-168.5)"
       style="display:inline;fill:#ff00ff;stroke:none;stroke-width:1.5;stroke-miterlimit:4;stroke-dasharray:none"
       id="path839-6-35-6-2-9-2-5-1-6-20-6"
       cx="63.5"
       cy="201.00002"
       inkscape:label="select_bot3"
       r="1.5" />
    <circle
       transform="translate(0,-168.5)"
       style="display:inline;fill:#ff00ff;stroke:none;stroke-width:1.5;stroke-miterlimit:4;stroke-dasharray:none"
       id="path839-6-35-6-2-9-2-5-1-6-9-68-5"
       cx="63.5"
       cy="185.12502"
       inkscape:label="select_top3"
       r="1.5" />
    <circle
       transform="translate(0,-168.5)"
       style="display:inline;fill:#ff00ff;stroke:none;stroke-width:1.5;stroke-miterlimit:4;stroke-dasharray:none"
       id="path839-6-35-6-2-9-2-5-1-6-9-3-9-63"
       cx="63.5"
       cy="216.87502"
       inkscape:label="select3"
       r="1.5" />
    <circle
       transform="translate(0,-168.5)"
       style="display:inline;fill:#00ff00;stroke:none;stroke-width:1.5;stroke-miterlimit:4;stroke-dasharray:none"
       id="path839-6-9"
       cx="79.375"
       cy="248.625"
       r="3"
       inkscape:label="signal4" />
    <circle
       transform="translate(0,-168.5)"
       style="display:inline;fill:#ff0000;stroke:none;stroke-width:1.5;stroke-miterlimit:4;stroke-dasharray:none"
       id="path839-6-35-48"
       cx="79.375"
       cy="216.875"
       r="3"
       inkscape:label="select4" />
    <circle
       transform="translate(0,-168.5)"
       style="display:inline;fill:#00ff00;stroke:none;stroke-width:1.5;stroke-miterlimit:4;stroke-dasharray:none"
       id="path839-6-36-12"
       cx="79.375"
       cy="280.375"
       r="3"
       inkscape:label="xfade4" />
    <circle
       transform="translate(0,-168.5)"
       style="display:inline;fill:#ff0000;stroke:none;stroke-width:1.5;stroke-miterlimit:4;stroke-dasharray:none"
       id="path839-6-35-7-9"
       cx="79.375"
       cy="201"
       r="3"
       inkscape:label="set_bot4" />
    <circle
       transform="translate(0,-168.5)"
       style="display:inline;fill:#ff0000;stroke:none;stroke-width:1.5;stroke-miterlimit:4;stroke-dasharray:none"
       id="path839-6-35-5-3"
       cx="79.375"
       cy="185.125"
       r="3"
       inkscape:label="set_top4" />
    <circle
       transform="translate(0,-168.5)"
       style="display:inline;fill:#ff0000;stroke:none;stroke-width:1.5;stroke-miterlimit:4;stroke-dasharray:none"
       id="path839-6-35-3-90"
       cx="79.375"
       cy="264.5"
       r="3"
       inkscape:label="gain4" />
    <circle
       transform="translate(0,-168.5)"
       style="display:inline;fill:#ff00ff;stroke:none;stroke-width:1.5;stroke-miterlimit:4;stroke-dasharray:none"
       id="path839-6-35-6-2-9-2-5-8"
       cx="79.375"
       cy="195.17917"
       inkscape:label="fade_bot4"
       r="1.5" />
    <circle
       transform="translate(0,-168.5)"
       style="display:inline;fill:#ff00ff;stroke:none;stroke-width:1.5;stroke-miterlimit:4;stroke-dasharray:none"
       id="path839-6-35-6-2-9-2-5-6-8"
       cx="79.375"
       cy="190.94585"
       inkscape:label="fade_top4"
       r="1.5" />
    <circle
       transform="translate(0,-168.5)"
       style="display:inline;fill:#ff00ff;stroke:none;stroke-width:1.5;stroke-miterlimit:4;stroke-dasharray:none"
       id="path839-6-35-6-2-9-2-5-1-6-20-5"
       cx="79.375"
       cy="201.00002"
       inkscape:label="select_bot4"
       r="1.5" />
    <circle
       transform="translate(0,-168.5)"
       style="display:inline;fill:#ff00ff;stroke:none;stroke-width:1.5;stroke-miterlimit:4;stroke-dasharray:none"
       id="path839-6-35-6-2-9-2-5-1-6-9-68-0"
       cx="79.375"
       cy="185.12502"
       inkscape:label="select_top4"
       r="1.5" />
    <circle
       transform="translate(0,-168.5)"
       style="display:inline;fill:#ff00ff;stroke:none;stroke-width:1.5;stroke-miterlimit:4;stroke-dasharray:none"
       id="path839-6-35-6-2-9-2-5-1-6-9-3-9-9"
       cx="79.375"
       cy="216.87502"
       inkscape:label="select4"
       r="1.5" />
    <circle
       transform="translate(0,-168.5)"
       style="display:inline;fill:#00ff00;stroke:none;stroke-width:1.5;stroke-miterlimit:4;stroke-dasharray:none"
       id="path839-6-6"
       cx="95.25"
       cy="248.625"
       r="3"
       inkscape:label="signal5" />
    <circle
       transform="translate(0,-168.5)"
       style="display:inline;fill:#ff0000;stroke:none;stroke-width:1.5;stroke-miterlimit:4;stroke-dasharray:none"
       id="path839-6-35-38"
       cx="95.25"
       cy="216.875"
       r="3"
       inkscape:label="select5" />
    <circle
       transform="translate(0,-168.5)"
       style="display:inline;fill:#00ff00;stroke:none;stroke-width:1.5;stroke-miterlimit:4;stroke-dasharray:none"
       id="path839-6-36-5"
       cx="95.25"
       cy="280.375"
       r="3"
       inkscape:label="xfade5" />
    <circle
       transform="translate(0,-168.5)"
       style="display:inline;fill:#ff0000;stroke:none;stroke-width:1.5;stroke-miterlimit:4;stroke-dasharray:none"
       id="path839-6-35-7-6"
       cx="95.25"
       cy="201"
       r="3"
       inkscape:label="set_bot5" />
    <circle
       transform="translate(0,-168.5)"
       style="display:inline;fill:#ff0000;stroke:none;stroke-width:1.5;stroke-miterlimit:4;stroke-dasharray:none"
       id="path839-6-35-5-11"
       cx="95.25"
       cy="185.125"
       r="3"
       inkscape:label="set_top5" />
    <circle
       transform="translate(0,-168.5)"
       style="display:inline;fill:#ff0000;stroke:none;stroke-width:1.5;stroke-miterlimit:4;stroke-dasharray:none"
       id="path839-6-35-3-5"
       cx="95.25"
       cy="264.5"
       r="3"
       inkscape:label="gain5" />
    <circle
       transform="translate(0,-168.5)"
       style="display:inline;fill:#ff00ff;stroke:none;stroke-width:1.5;stroke-miterlimit:4;stroke-dasharray:none"
       id="path839-6-35-6-2-9-2-5-9"
       cx="95.25"
       cy="195.17915"
       inkscape:label="fade_bot5"
       r="1.5" />
    <circle
       transform="translate(0,-168.5)"
       style="display:inline;fill:#ff00ff;stroke:none;stroke-width:1.5;stroke-miterlimit:4;stroke-dasharray:none"
       id="path839-6-35-6-2-9-2-5-6-84"
       cx="95.25"
       cy="190.94585"
       inkscape:label="fade_top5"
       r="1.5" />
    <circle
       transform="translate(0,-168.5)"
       style="display:inline;fill:#ff00ff;stroke:none;stroke-width:1.5;stroke-miterlimit:4;stroke-dasharray:none"
       id="path839-6-35-6-2-9-2-5-1-6-20-8"
       cx="95.25"
       cy="201.00002"
       inkscape:label="select_bot5"
       r="1.5" />
    <circle
       transform="translate(0,-168.5)"
       style="display:inline;fill:#ff00ff;stroke:none;stroke-width:1.5;stroke-miterlimit:4;stroke-dasharray:none"
       id="path839-6-35-6-2-9-2-5-1-6-9-68-1"
       cx="95.25"
       cy="185.12502"
       inkscape:label="select_top5"
       r="1.5" />
    <circle
       transform="translate(0,-168.5)"
       style="display:inline;fill:#ff00ff;stroke:none;stroke-width:1.5;stroke-miterlimit:4;stroke-dasharray:none"
       id="path839-6-35-6-2-9-2-5-1-6-9-3-9-0"
       cx="95.25"
       cy="216.87502"
       inkscape:label="select5"
       r="1.5" />
    <circle
       transform="translate(0,-168.5)"
       style="display:inline;fill:#00ff00;stroke:none;stroke-width:1.5;stroke-miterlimit:4;stroke-dasharray:none"
       id="path839-6-17"
       cx="111.125"
       cy="248.625"
       r="3"
       inkscape:label="signal6" />
    <circle
       transform="translate(0,-168.5)"
       style="display:inline;fill:#ff0000;stroke:none;stroke-width:1.5;stroke-miterlimit:4;stroke-dasharray:none"
       id="path839-6-35-8"
       cx="111.125"
       cy="216.875"
       r="3"
       inkscape:label="select6" />
    <circle
       transform="translate(0,-168.5)"
       style="display:inline;fill:#00ff00;stroke:none;stroke-width:1.5;stroke-miterlimit:4;stroke-dasharray:none"
       id="path839-6-36-57"
       cx="111.125"
       cy="280.375"
       r="3"
       inkscape:label="xfade6" />
    <circle
       transform="translate(0,-168.5)"
       style="display:inline;fill:#ff0000;stroke:none;stroke-width:1.5;stroke-miterlimit:4;stroke-dasharray:none"
       id="path839-6-35-7-4"
       cx="111.125"
       cy="201"
       r="3"
       inkscape:label="set_bot6" />
    <circle
       transform="translate(0,-168.5)"
       style="display:inline;fill:#ff0000;stroke:none;stroke-width:1.5;stroke-miterlimit:4;stroke-dasharray:none"
       id="path839-6-35-5-18"
       cx="111.125"
       cy="185.125"
       r="3"
       inkscape:label="set_top6" />
    <circle
       transform="translate(0,-168.5)"
       style="display:inline;fill:#ff0000;stroke:none;stroke-width:1.5;stroke-miterlimit:4;stroke-dasharray:none"
       id="path839-6-35-3-59"
       cx="111.125"
       cy="264.5"
       r="3"
       inkscape:label="gain6" />
    <circle
       transform="translate(0,-168.5)"
       style="display:inline;fill:#ff00ff;stroke:none;stroke-width:1.5;stroke-miterlimit:4;stroke-dasharray:none"
       id="path839-6-35-6-2-9-2-5-7"
       cx="111.125"
       cy="195.17917"
       inkscape:label="fade_bot6"
       r="1.5" />
    <circle
       transform="translate(0,-168.5)"
       style="display:inline;fill:#ff00ff;stroke:none;stroke-width:1.5;stroke-miterlimit:4;stroke-dasharray:none"
       id="path839-6-35-6-2-9-2-5-6-5"
       cx="111.125"
       cy="190.94585"
       inkscape:label="fade_top6"
       r="1.5" />
    <circle
       transform="translate(0,-168.5)"
       style="display:inline;fill:#ff00ff;stroke:none;stroke-width:1.5;stroke-miterlimit:4;stroke-dasharray:none"
       id="path839-6-35-6-2-9-2-5-1-6-20-3"
       cx="111.125"
       cy="201.00002"
       inkscape:label="select_bot6"
       r="1.5" />
    <circle
       transform="translate(0,-168.5)"
       style="display:inline;fill:#ff00ff;stroke:none;stroke-width:1.5;stroke-miterlimit:4;stroke-dasharray:none"
       id="path839-6-35-6-2-9-2-5-1-6-9-68-8"
       cx="111.125"
       cy="185.12502"
       inkscape:label="select_top6"
       r="1.5" />
    <circle
       transform="translate(0,-168.5)"
       style="display:inline;fill:#ff00ff;stroke:none;stroke-width:1.5;stroke-miterlimit:4;stroke-dasharray:none"
       id="path839-6-35-6-2-9-2-5-1-6-9-3-9-8"
       cx="111.125"
       cy="216.87502"
       inkscape:label="select6"
       r="1.5" />
  </g>
</svg>
