<?xml version="1.0" encoding="UTF-8" standalone="no"?>
<!-- Created with Inkscape (http://www.inkscape.org/) -->

<svg
   width="121.92mm"
   height="128.5mm"
   viewBox="0 0 121.92 128.5"
   version="1.1"
   id="svg8"
   inkscape:version="1.2.2 (1:1.2.2+202212051550+b0a8486541)"
   sodipodi:docname="Tia.svg"
   xmlns:inkscape="http://www.inkscape.org/namespaces/inkscape"
   xmlns:sodipodi="http://sodipodi.sourceforge.net/DTD/sodipodi-0.dtd"
   xmlns="http://www.w3.org/2000/svg"
   xmlns:svg="http://www.w3.org/2000/svg"
   xmlns:rdf="http://www.w3.org/1999/02/22-rdf-syntax-ns#"
   xmlns:cc="http://creativecommons.org/ns#"
   xmlns:dc="http://purl.org/dc/elements/1.1/">
  <defs
     id="defs2">
    <marker
       inkscape:stockid="Arrow1Mstart"
       orient="auto"
       refY="0"
       refX="0"
       id="Arrow1Mstart"
       style="overflow:visible"
       inkscape:isstock="true">
      <path
         id="path978"
         d="M 0,0 5,-5 -12.5,0 5,5 Z"
         style="fill:#000000;fill-opacity:1;fill-rule:evenodd;stroke:#000000;stroke-width:1.00000003pt;stroke-opacity:1"
         transform="matrix(0.4,0,0,0.4,4,0)"
         inkscape:connector-curvature="0" />
    </marker>
    <marker
       inkscape:isstock="true"
       style="overflow:visible"
       id="marker1310"
       refX="0"
       refY="0"
       orient="auto"
       inkscape:stockid="Arrow1Mend">
      <path
         transform="matrix(-0.4,0,0,-0.4,-4,0)"
         style="fill:#ffffff;fill-opacity:1;fill-rule:evenodd;stroke:#ffffff;stroke-width:1.00000003pt;stroke-opacity:1"
         d="M 0,0 5,-5 -12.5,0 5,5 Z"
         id="path1308"
         inkscape:connector-curvature="0" />
    </marker>
    <marker
       inkscape:stockid="Arrow1Lend"
       orient="auto"
       refY="0"
       refX="0"
       id="Arrow1Lend"
       style="overflow:visible"
       inkscape:isstock="true">
      <path
         id="path975"
         d="M 0,0 5,-5 -12.5,0 5,5 Z"
         style="fill:#000000;fill-opacity:1;fill-rule:evenodd;stroke:#000000;stroke-width:1.00000003pt;stroke-opacity:1"
         transform="matrix(-0.8,0,0,-0.8,-10,0)"
         inkscape:connector-curvature="0" />
    </marker>
  </defs>
  <sodipodi:namedview
     id="base"
     pagecolor="#ffffff"
     bordercolor="#666666"
     borderopacity="1.0"
     inkscape:pageopacity="0.0"
     inkscape:pageshadow="2"
     inkscape:zoom="0.7"
     inkscape:cx="-173.57143"
     inkscape:cy="87.857143"
     inkscape:document-units="mm"
     inkscape:current-layer="layer3"
     showgrid="true"
     inkscape:window-width="1918"
     inkscape:window-height="1060"
     inkscape:window-x="1370"
     inkscape:window-y="18"
     inkscape:window-maximized="0"
     inkscape:snap-bbox="false"
     inkscape:snap-center="true"
     inkscape:snap-intersection-paths="true"
     inkscape:showpageshadow="2"
     inkscape:pagecheckerboard="0"
     inkscape:deskcolor="#d1d1d1">
    <inkscape:grid
       type="xygrid"
       id="grid835"
       units="mm"
       spacingx="3.8100001"
       spacingy="3.8100001"
       originy="3.2800001"
       enabled="true"
       snapvisiblegridlinesonly="true"
       originx="7.6200002" />
  </sodipodi:namedview>
  <metadata
     id="metadata5">
    <rdf:RDF>
      <cc:Work
         rdf:about="">
        <dc:format>image/svg+xml</dc:format>
        <dc:type
           rdf:resource="http://purl.org/dc/dcmitype/StillImage" />
        <dc:title />
      </cc:Work>
    </rdf:RDF>
  </metadata>
  <g
     inkscape:label="Layer 1"
     inkscape:groupmode="layer"
     id="layer1"
     transform="translate(0,-168.5)"
     style="display:inline"
     sodipodi:insensitive="true">
    <text
       xml:space="preserve"
       style="font-style:normal;font-variant:normal;font-weight:normal;font-stretch:normal;font-size:4.23333px;line-height:1.25;font-family:'CMU Serif';-inkscape-font-specification:'CMU Serif';letter-spacing:0px;word-spacing:0px;fill:#ffffff;fill-opacity:1;stroke:none;stroke-width:0.264583"
       x="3.175"
       y="280.375"
       id="text956" />
    <g
       aria-label="Tia I"
       style="font-style:normal;font-variant:normal;font-weight:normal;font-stretch:normal;font-size:4.23333311px;line-height:1.25;font-family:'CMU Serif';-inkscape-font-specification:'CMU Serif';letter-spacing:0px;word-spacing:0px;display:inline;fill:#ffffff;fill-opacity:1;stroke:none;stroke-width:0.07000434"
       id="text1350"
       transform="translate(-10.160004,2.27003)">
      <path
         d="m 66.613635,175.10893 h 0.105833 c 0.05927,-0.68156 0.122767,-0.82126 0.762,-0.82126 0.0762,0 0.186267,0 0.2286,0.008 0.0889,0.0169 0.0889,0.0635 0.0889,0.16087 v 2.23097 c 0,0.14393 0,0.2032 -0.4445,0.2032 h -0.169333 v 0.13123 c 0.173567,-0.0127 0.605367,-0.0127 0.8001,-0.0127 0.194733,0 0.630767,0 0.804333,0.0127 v -0.13123 h -0.169333 c -0.4445,0 -0.4445,-0.0593 -0.4445,-0.2032 V 174.457 c 0,-0.0847 0,-0.14393 0.0762,-0.16087 0.04657,-0.008 0.160867,-0.008 0.2413,-0.008 0.639233,0 0.702733,0.1397 0.762,0.82126 h 0.105833 l -0.08043,-0.9525 h -2.586567 z"
         style="fill:#ffffff;stroke-width:0.07000434"
         id="path1747"
         inkscape:connector-curvature="0" />
      <path
         d="m 69.835194,174.41467 c 0,0.1143 0.09313,0.22436 0.224367,0.22436 0.118533,0 0.224366,-0.0889 0.224366,-0.22436 0,-0.13547 -0.105833,-0.22437 -0.224366,-0.22437 -0.131234,0 -0.224367,0.1143 -0.224367,0.22437 z m -0.1778,2.60773 c 0.135467,-0.004 0.364067,-0.0127 0.465667,-0.0127 0.148166,0 0.296333,0.008 0.440266,0.0127 v -0.13123 c -0.2794,0 -0.296333,-0.0212 -0.296333,-0.18627 v -1.55363 l -0.592667,0.0466 v 0.13124 c 0.275167,0 0.313267,0.0254 0.313267,0.23283 v 1.13877 c 0,0.1905 -0.04657,0.1905 -0.3302,0.1905 z"
         style="fill:#ffffff;stroke-width:0.07000434"
         id="path1749"
         inkscape:connector-curvature="0" />
      <path
         d="m 70.868121,176.62023 c 0,0.3429 0.410633,0.44874 0.677333,0.44874 0.2794,0 0.474134,-0.16934 0.554567,-0.3683 0.01693,0.16933 0.131233,0.34713 0.3302,0.34713 0.0889,0 0.347133,-0.0593 0.347133,-0.40217 v -0.23706 h -0.105833 v 0.23706 c 0,0.24554 -0.105833,0.27094 -0.1524,0.27094 -0.1397,0 -0.156633,-0.1905 -0.156633,-0.21167 v -0.84667 c 0,-0.1778 0,-0.3429 -0.1524,-0.49953 -0.1651,-0.1651 -0.376767,-0.23283 -0.579967,-0.23283 -0.347133,0 -0.639233,0.19896 -0.639233,0.47836 0,0.127 0.08467,0.19897 0.194733,0.19897 0.118533,0 0.194733,-0.0847 0.194733,-0.19473 0,-0.0508 -0.02117,-0.1905 -0.2159,-0.19474 0.1143,-0.14816 0.321734,-0.19473 0.4572,-0.19473 0.207434,0 0.448734,0.1651 0.448734,0.54187 v 0.15663 c -0.2159,0.0127 -0.512234,0.0254 -0.778934,0.1524 -0.3175,0.14393 -0.423333,0.36407 -0.423333,0.55033 z m 0.325967,-0.004 c 0,-0.23283 0.1778,-0.5842 0.8763,-0.6096 v 0.42333 c 0,0.40217 -0.3048,0.5461 -0.4953,0.5461 -0.207434,0 -0.381,-0.14816 -0.381,-0.35983 z"
         style="fill:#ffffff;stroke-width:0.07000434"
         id="path1751"
         inkscape:connector-curvature="0" />
      <path
         d="m 74.335205,177.0224 c 0.148167,-0.0127 0.4826,-0.0127 0.643467,-0.0127 0.1651,0 0.499533,0 0.6477,0.0127 v -0.13123 h -0.110067 c -0.334433,0 -0.347133,-0.0466 -0.347133,-0.19897 v -2.23097 c 0,-0.1524 0.0127,-0.19896 0.347133,-0.19896 h 0.110067 v -0.13124 c -0.148167,0.0127 -0.4826,0.0127 -0.643467,0.0127 -0.1651,0 -0.499533,0 -0.6477,-0.0127 v 0.13124 h 0.110067 c 0.334433,0 0.347133,0.0466 0.347133,0.19896 v 2.23097 c 0,0.1524 -0.0127,0.19897 -0.347133,0.19897 h -0.110067 z"
         style="fill:#ffffff;stroke-width:0.07000434"
         id="path1753"
         inkscape:connector-curvature="0" />
    </g>
  </g>
  <g
     inkscape:groupmode="layer"
     id="layer4"
     inkscape:label="Layer 3"
     style="display:inline">
    <rect
       style="display:inline;fill:#004d23;fill-opacity:1;stroke:none;stroke-width:0.26656;stroke-miterlimit:4;stroke-dasharray:none"
       id="rect2177"
       width="121.92"
       height="128.5"
       x="0"
       y="3.2289737e-08" />
    <path
       style="fill:#fa6c0b;fill-opacity:1;stroke:none;stroke-width:0.714286;stroke-miterlimit:4;stroke-dasharray:none"
       d="M -3.8100001,64.259998 V 11.437827 l 9.485298,-0.01542 h 5.5316341 l 1.744407,1.751691 1.744408,1.751691 v 49.326073 49.326068 l -1.751691,1.74441 -1.751691,1.74441 H 5.6680144 l -9.4780145,0.0154 z"
       id="path2271"
       inkscape:connector-curvature="0"
       sodipodi:nodetypes="ccccccccccccc" />
    <path
       style="fill:#fdae08;fill-opacity:1;stroke:none;stroke-width:0.714286;stroke-miterlimit:4;stroke-dasharray:none"
       d="m 32.882117,115.31506 -1.744406,-1.75169 V 64.237292 14.91122 l 1.75169,-1.744408 1.75169,-1.744407 h 3.496463 3.496461 l 1.744406,1.751691 1.744409,1.751691 v 49.326073 49.32607 l -1.75169,1.74441 -1.751693,1.74441 h -3.49646 -3.496461 z"
       id="path2273"
       inkscape:connector-curvature="0" />
    <path
       style="fill:#f9890e;fill-opacity:1;stroke:none;stroke-width:0.714286;stroke-miterlimit:4;stroke-dasharray:none"
       d="m 63.3092,115.31506 -1.744406,-1.75169 V 64.237292 14.91122 l 1.75169,-1.744408 1.75169,-1.744407 h 3.496463 3.496461 l 1.744406,1.751691 1.744409,1.751691 v 49.326073 49.32607 l -1.75169,1.74441 -1.751693,1.74441 h -3.496461 -3.49646 z"
       id="path2275"
       inkscape:connector-curvature="0" />
    <path
       style="fill:#f8650d;fill-opacity:1;stroke:none;stroke-width:0.714286;stroke-miterlimit:4;stroke-dasharray:none"
       d="m 93.736283,115.31506 -1.744406,-1.75169 V 64.237292 14.91122 l 1.75169,-1.744408 1.75169,-1.744407 h 3.496276 3.496277 l 1.83909,1.846015 1.83908,1.846015 v 49.231749 49.231746 l -1.75169,1.74441 -1.75169,1.74441 h -3.590954 -3.590954 z"
       id="path2277"
       inkscape:connector-curvature="0" />
    <path
       style="fill:#556a29;fill-opacity:1;stroke:none;stroke-width:0.714286;stroke-miterlimit:4;stroke-dasharray:none"
       d="m 17.574083,115.31506 -1.744408,-1.75169 V 64.237292 14.91122 l 1.751691,-1.744408 1.751691,-1.744407 h 3.496461 3.496461 l 1.744407,1.751691 1.744409,1.751691 v 49.326073 49.32607 l -1.751693,1.74441 -1.751689,1.74441 H 22.814951 19.31849 Z"
       id="path2279"
       inkscape:connector-curvature="0" />
    <path
       style="fill:#4f7529;fill-opacity:1;stroke:none;stroke-width:0.714286;stroke-miterlimit:4;stroke-dasharray:none"
       d="m 48.001165,115.31506 -1.744408,-1.75169 V 64.331974 15.100582 l 1.846016,-1.839089 1.846014,-1.839088 h 3.401952 3.401949 l 1.839089,1.846015 1.839087,1.846015 v 49.231749 49.231746 l -1.751689,1.74441 -1.751693,1.74441 h -3.590954 -3.590957 z"
       id="path2281"
       inkscape:connector-curvature="0" />
    <path
       style="fill:#4c8621;fill-opacity:1;stroke:none;stroke-width:0.714286;stroke-miterlimit:4;stroke-dasharray:none"
       d="m 78.617235,115.31506 -1.744406,-1.75169 V 64.237292 14.91122 l 1.75169,-1.744408 1.751692,-1.744407 h 3.496461 3.496461 l 1.744408,1.751691 1.744406,1.751691 v 49.326073 49.32607 l -1.75169,1.74441 -1.751692,1.74441 h -3.496461 -3.496461 z"
       id="path2283"
       inkscape:connector-curvature="0" />
    <path
       style="fill:#45940b;fill-opacity:1;stroke:none;stroke-width:0.714286;stroke-miterlimit:4;stroke-dasharray:none"
       d="m 109.04432,115.31506 -1.74441,-1.75169 V 64.237292 14.91122 l 1.75169,-1.744408 1.75169,-1.744407 h 5.52435 l 9.40236,0.53325 V 64.777826 117.6 l -9.40964,-0.53325 h -5.53163 z"
       id="path2285"
       inkscape:connector-curvature="0"
       sodipodi:nodetypes="ccccccccccccc" />
  </g>
  <g
     inkscape:groupmode="layer"
     id="layer5"
     inkscape:label="Layer 4"
     style="display:inline">
    <path
       style="fill:#ff6600;fill-opacity:1;stroke:none;stroke-width:0.264583px;stroke-linecap:butt;stroke-linejoin:miter;stroke-opacity:1"
       d="m 15.24,7.1099946 -3.81,3.8100004 3.81,3.81 3.81,-3.81 z"
       id="path2517-7"
       inkscape:connector-curvature="0" />
    <path
       style="fill:#ff6600;fill-opacity:1;stroke:none;stroke-width:0.264583px;stroke-linecap:butt;stroke-linejoin:miter;stroke-opacity:1"
       d="m 30.480001,7.1099966 -3.81,3.8100004 3.81,3.81 3.81,-3.81 z"
       id="path2517-0-6"
       inkscape:connector-curvature="0" />
    <path
       style="fill:#ff6600;fill-opacity:1;stroke:none;stroke-width:0.264583px;stroke-linecap:butt;stroke-linejoin:miter;stroke-opacity:1"
       d="m 45.720003,7.1099936 -3.81,3.8100004 3.81,3.81 3.81,-3.81 z"
       id="path2517-6-5"
       inkscape:connector-curvature="0" />
    <path
       style="fill:#ff6600;fill-opacity:1;stroke:none;stroke-width:0.264583px;stroke-linecap:butt;stroke-linejoin:miter;stroke-opacity:1"
       d="m 60.960003,7.1099956 -3.81,3.8100004 3.81,3.81 3.81,-3.81 z"
       id="path2517-0-1-6"
       inkscape:connector-curvature="0" />
    <path
       style="fill:#ff6600;fill-opacity:1;stroke:none;stroke-width:0.264583px;stroke-linecap:butt;stroke-linejoin:miter;stroke-opacity:1"
       d="m 76.200003,7.1099936 -3.81,3.8100004 3.81,3.81 3.81,-3.81 z"
       id="path2517-5-9"
       inkscape:connector-curvature="0" />
    <path
       style="fill:#ff6600;fill-opacity:1;stroke:none;stroke-width:0.264583px;stroke-linecap:butt;stroke-linejoin:miter;stroke-opacity:1"
       d="m 91.440003,7.1099956 -3.81,3.8100004 3.81,3.81 3.81,-3.81 z"
       id="path2517-0-5-3"
       inkscape:connector-curvature="0" />
    <path
       style="fill:#ff6600;fill-opacity:1;stroke:none;stroke-width:0.264583px;stroke-linecap:butt;stroke-linejoin:miter;stroke-opacity:1"
       d="m 106.68,7.1099956 -3.81,3.8100004 3.81,3.81 3.81,-3.81 z"
       id="path2517-0-5-4-7"
       inkscape:connector-curvature="0" />
    <path
       style="fill:#ff6600;fill-opacity:1;stroke:none;stroke-width:0.264583px;stroke-linecap:butt;stroke-linejoin:miter;stroke-opacity:1"
       d="m 15.24,113.79 -3.81,3.81 3.81,3.81 3.81,-3.81 z"
       id="path2517-4"
       inkscape:connector-curvature="0" />
    <path
       style="fill:#ff6600;fill-opacity:1;stroke:none;stroke-width:0.264583px;stroke-linecap:butt;stroke-linejoin:miter;stroke-opacity:1"
       d="m 30.480001,113.79 -3.81,3.81 3.81,3.81 3.81,-3.81 z"
       id="path2517-0-52"
       inkscape:connector-curvature="0" />
    <path
       style="fill:#ff6600;fill-opacity:1;stroke:none;stroke-width:0.264583px;stroke-linecap:butt;stroke-linejoin:miter;stroke-opacity:1"
       d="m 45.720003,113.79 -3.81,3.81 3.81,3.81 3.81,-3.81 z"
       id="path2517-6-54"
       inkscape:connector-curvature="0" />
    <path
       style="fill:#ff6600;fill-opacity:1;stroke:none;stroke-width:0.264583px;stroke-linecap:butt;stroke-linejoin:miter;stroke-opacity:1"
       d="m 60.960003,113.79 -3.81,3.81 3.81,3.81 3.81,-3.81 z"
       id="path2517-0-1-7"
       inkscape:connector-curvature="0" />
    <path
       style="fill:#ff6600;fill-opacity:1;stroke:none;stroke-width:0.264583px;stroke-linecap:butt;stroke-linejoin:miter;stroke-opacity:1"
       d="m 76.200003,113.79 -3.81,3.81 3.81,3.81 3.81,-3.81 z"
       id="path2517-5-4"
       inkscape:connector-curvature="0" />
    <path
       style="fill:#ff6600;fill-opacity:1;stroke:none;stroke-width:0.264583px;stroke-linecap:butt;stroke-linejoin:miter;stroke-opacity:1"
       d="m 91.440003,113.79 -3.81,3.81 3.81,3.81 3.81,-3.81 z"
       id="path2517-0-5-43"
       inkscape:connector-curvature="0" />
    <path
       style="fill:#ff6600;fill-opacity:1;stroke:none;stroke-width:0.264583px;stroke-linecap:butt;stroke-linejoin:miter;stroke-opacity:1"
       d="m 106.68,113.79 -3.81,3.81 3.81,3.81 3.81,-3.81 z"
       id="path2517-0-5-4-0"
       inkscape:connector-curvature="0" />
  </g>
  <g
     inkscape:groupmode="layer"
     id="layer3"
     inkscape:label="Layer 2"
     style="display:inline">
    <path
       transform="translate(0,-168.5)"
       style="display:inline;fill:none;stroke:#e6e6e6;stroke-width:2;stroke-linecap:butt;stroke-linejoin:miter;stroke-opacity:1"
       d="m 0,286.1 h 11.43 l 3.81,-3.81 3.81,3.81 h 7.62 l 3.81,-3.81 3.81,3.81 h 7.619999 l 3.81,-3.81 3.81,3.81 h 7.620003 l 3.81,-3.81 3.81,3.81 h 7.62 l 3.81,-3.81 3.81,3.81 h 7.62 l 3.809999,-3.81 3.81,3.81 H 102.87 l 3.81,-3.81 3.81,3.81 h 11.43"
       id="path2161"
       inkscape:connector-curvature="0" />
    <path
       style="display:inline;fill:none;stroke:#e6e6e6;stroke-width:2;stroke-linecap:butt;stroke-linejoin:miter;stroke-opacity:1"
       d="M 3.9999918e-7,10.919997 H 11.43 l 3.81,3.81 3.81,-3.81 h 7.62 l 3.81,3.81 3.81,-3.81 h 7.62 l 3.81,3.81 3.81,-3.81 h 7.620003 l 3.81,3.81 3.81,-3.81 h 7.62 l 3.81,3.81 3.81,-3.81 h 7.62 l 3.81,3.81 3.81,-3.81 H 102.87 l 3.81,3.81 3.81,-3.81 h 11.43"
       id="path2161-6"
       inkscape:connector-curvature="0" />
    <path
       style="fill:none;stroke:#e6e6e6;stroke-width:2;stroke-linecap:butt;stroke-linejoin:miter;stroke-opacity:1"
       d="M 106.68,7.1099968 V -0.51000339"
       id="path2321"
       inkscape:connector-curvature="0" />
    <path
       style="fill:none;stroke:#e6e6e6;stroke-width:2;stroke-linecap:butt;stroke-linejoin:miter;stroke-opacity:1"
       d="m 106.68,121.41 v 7.62"
       id="path2321-2"
       inkscape:connector-curvature="0" />
    <path
       style="display:inline;fill:#000000;fill-opacity:0;stroke:#e6e6e6;stroke-width:2;stroke-linecap:butt;stroke-linejoin:miter;stroke-opacity:1"
       d="M 1.3999981e-6,10.919997 H 11.430001 l 3.81,-3.8100001 3.81,3.8100001 h 7.62 l 3.81,-3.8100001 3.81,3.8100001 h 7.62 l 3.81,-3.8100001 3.81,3.8100001 h 7.620003 l 3.81,-3.8100001 3.81,3.8100001 h 7.62 l 3.81,-3.8100001 3.81,3.8100001 h 7.62 l 3.81,-3.8100001 3.81,3.8100001 H 102.87 l 3.81,-3.8100001 3.81,3.8100001 h 11.43"
       id="path2161-3"
       inkscape:connector-curvature="0" />
    <path
       style="display:inline;fill:none;stroke:#e6e6e6;stroke-width:2;stroke-linecap:butt;stroke-linejoin:miter;stroke-opacity:1"
       d="M 1.1999999e-6,117.6 H 11.430001 l 3.81,3.81 3.81,-3.81 h 7.62 l 3.81,3.81 3.81,-3.81 h 7.62 l 3.81,3.81 3.81,-3.81 h 7.620003 l 3.81,3.81 3.81,-3.81 h 7.62 l 3.81,3.81 3.81,-3.81 h 7.62 l 3.81,3.81 3.81,-3.81 H 102.87 l 3.81,3.81 3.81,-3.81 h 11.43"
       id="path2161-7"
       inkscape:connector-curvature="0" />
    <path
       style="fill:none;stroke:#e6e6e6;stroke-width:2;stroke-linecap:butt;stroke-linejoin:miter;stroke-opacity:1"
       d="m 91.440002,7.1099869 v -7.62"
       id="path2321-22"
       inkscape:connector-curvature="0" />
    <path
       style="fill:none;stroke:#e6e6e6;stroke-width:2;stroke-linecap:butt;stroke-linejoin:miter;stroke-opacity:1"
       d="m 91.440002,121.41 v 7.62"
       id="path2321-2-8"
       inkscape:connector-curvature="0" />
    <path
       style="fill:none;stroke:#e6e6e6;stroke-width:2;stroke-linecap:butt;stroke-linejoin:miter;stroke-opacity:1"
       d="m 76.200002,7.1099972 v -7.620001"
       id="path2321-9"
       inkscape:connector-curvature="0" />
    <path
       style="fill:none;stroke:#e6e6e6;stroke-width:2;stroke-linecap:butt;stroke-linejoin:miter;stroke-opacity:1"
       d="m 76.200002,121.41001 v 7.62"
       id="path2321-2-7"
       inkscape:connector-curvature="0" />
    <path
       style="fill:none;stroke:#e6e6e6;stroke-width:2;stroke-linecap:butt;stroke-linejoin:miter;stroke-opacity:1"
       d="M 60.960002,7.1099875 V -0.5100128"
       id="path2321-3"
       inkscape:connector-curvature="0" />
    <path
       style="fill:none;stroke:#e6e6e6;stroke-width:2;stroke-linecap:butt;stroke-linejoin:miter;stroke-opacity:1"
       d="m 60.960002,121.41 v 7.62"
       id="path2321-2-6"
       inkscape:connector-curvature="0" />
    <path
       style="fill:none;stroke:#e6e6e6;stroke-width:2;stroke-linecap:butt;stroke-linejoin:miter;stroke-opacity:1"
       d="m 45.720001,7.1099967 v -7.62"
       id="path2321-1"
       inkscape:connector-curvature="0" />
    <path
       style="fill:none;stroke:#e6e6e6;stroke-width:2;stroke-linecap:butt;stroke-linejoin:miter;stroke-opacity:1"
       d="m 45.720001,121.41001 v 7.62"
       id="path2321-2-2"
       inkscape:connector-curvature="0" />
    <path
       style="fill:none;stroke:#e6e6e6;stroke-width:2;stroke-linecap:butt;stroke-linejoin:miter;stroke-opacity:1"
       d="m 30.480001,7.10999 v -7.62"
       id="path2321-93"
       inkscape:connector-curvature="0" />
    <path
       style="fill:none;stroke:#e6e6e6;stroke-width:2;stroke-linecap:butt;stroke-linejoin:miter;stroke-opacity:1"
       d="m 30.480001,121.41 v 7.62"
       id="path2321-2-1"
       inkscape:connector-curvature="0" />
    <path
       style="fill:none;stroke:#e6e6e6;stroke-width:2;stroke-linecap:butt;stroke-linejoin:miter;stroke-opacity:1"
       d="m 15.24,7.1099967 v -7.62"
       id="path2321-94"
       inkscape:connector-curvature="0" />
    <path
       style="fill:none;stroke:#e6e6e6;stroke-width:2;stroke-linecap:butt;stroke-linejoin:miter;stroke-opacity:1"
       d="m 15.24,121.41001 v 7.62"
       id="path2321-2-78"
       inkscape:connector-curvature="0" />
    <g
       id="g2671"
       transform="matrix(1,0,0,-1,0,128.52)">
      <path
         inkscape:connector-curvature="0"
         id="path2517"
         d="m 15.24,52.829996 -3.81,3.81 3.81,3.81 3.81,-3.81 z"
         style="fill:#ff6600;fill-opacity:1;stroke:none;stroke-width:0.264583px;stroke-linecap:butt;stroke-linejoin:miter;stroke-opacity:1" />
      <path
         inkscape:connector-curvature="0"
         id="path2517-0"
         d="m 30.480001,52.829998 -3.81,3.81 3.81,3.81 3.81,-3.81 z"
         style="fill:#ff6600;fill-opacity:1;stroke:none;stroke-width:0.264583px;stroke-linecap:butt;stroke-linejoin:miter;stroke-opacity:1" />
      <path
         inkscape:connector-curvature="0"
         id="path2517-6"
         d="m 45.720001,52.829995 -3.81,3.81 3.81,3.81 3.81,-3.81 z"
         style="fill:#ff6600;fill-opacity:1;stroke:none;stroke-width:0.264583px;stroke-linecap:butt;stroke-linejoin:miter;stroke-opacity:1" />
      <path
         inkscape:connector-curvature="0"
         id="path2517-0-1"
         d="m 60.960002,52.829997 -3.81,3.81 3.81,3.81 3.81,-3.81 z"
         style="fill:#ff6600;fill-opacity:1;stroke:none;stroke-width:0.264583px;stroke-linecap:butt;stroke-linejoin:miter;stroke-opacity:1" />
      <path
         inkscape:connector-curvature="0"
         id="path2517-5"
         d="m 76.200002,52.829995 -3.81,3.81 3.81,3.81 3.81,-3.81 z"
         style="fill:#ff6600;fill-opacity:1;stroke:none;stroke-width:0.264583px;stroke-linecap:butt;stroke-linejoin:miter;stroke-opacity:1" />
      <path
         inkscape:connector-curvature="0"
         id="path2517-0-5"
         d="m 91.440003,52.829997 -3.81,3.81 3.81,3.81 3.81,-3.81 z"
         style="fill:#ff6600;fill-opacity:1;stroke:none;stroke-width:0.264583px;stroke-linecap:butt;stroke-linejoin:miter;stroke-opacity:1" />
      <path
         inkscape:connector-curvature="0"
         id="path2517-0-5-4"
         d="m 106.68,52.829997 -3.81,3.81 3.81,3.81 3.81,-3.81 z"
         style="fill:#ff6600;fill-opacity:1;stroke:none;stroke-width:0.264583px;stroke-linecap:butt;stroke-linejoin:miter;stroke-opacity:1" />
      <path
         sodipodi:nodetypes="cc"
         inkscape:connector-curvature="0"
         id="path2157"
         d="m 15.240003,221.33 -3e-6,-38.1"
         style="display:inline;fill:#cccccc;stroke:#e6e6e6;stroke-width:2;stroke-linecap:butt;stroke-linejoin:miter;stroke-opacity:1"
         transform="translate(0,-168.5)" />
      <path
         sodipodi:nodetypes="cc"
         inkscape:connector-curvature="0"
         id="path2157-0"
         d="m 30.480004,52.829998 -3e-6,-38.1"
         style="display:inline;fill:#cccccc;stroke:#e6e6e6;stroke-width:2;stroke-linecap:butt;stroke-linejoin:miter;stroke-opacity:1" />
      <path
         sodipodi:nodetypes="cc"
         inkscape:connector-curvature="0"
         id="path2157-6"
         d="m 45.720004,52.829998 -3e-6,-38.1"
         style="display:inline;fill:#cccccc;stroke:#e6e6e6;stroke-width:2;stroke-linecap:butt;stroke-linejoin:miter;stroke-opacity:1" />
      <path
         sodipodi:nodetypes="cc"
         inkscape:connector-curvature="0"
         id="path2157-0-2"
         d="m 60.960005,52.829998 -3e-6,-38.100005"
         style="display:inline;fill:#cccccc;stroke:#e6e6e6;stroke-width:2;stroke-linecap:butt;stroke-linejoin:miter;stroke-opacity:1" />
      <path
         sodipodi:nodetypes="cc"
         inkscape:connector-curvature="0"
         id="path2157-61"
         d="m 76.200005,52.829998 -3e-6,-38.099999"
         style="display:inline;fill:#cccccc;stroke:#e6e6e6;stroke-width:2;stroke-linecap:butt;stroke-linejoin:miter;stroke-opacity:1" />
      <path
         sodipodi:nodetypes="cc"
         inkscape:connector-curvature="0"
         id="path2157-0-8"
         d="m 91.440006,52.829998 -3e-6,-38.100004"
         style="display:inline;fill:#cccccc;stroke:#e6e6e6;stroke-width:2;stroke-linecap:butt;stroke-linejoin:miter;stroke-opacity:1" />
      <path
         sodipodi:nodetypes="cc"
         inkscape:connector-curvature="0"
         id="path2157-7"
         d="M 106.68,52.829998 V 14.729999"
         style="display:inline;fill:#cccccc;stroke:#e6e6e6;stroke-width:2;stroke-linecap:butt;stroke-linejoin:miter;stroke-opacity:1" />
      <path
         inkscape:connector-curvature="0"
         id="path2161-3-4"
         d="M 1.2000004e-6,56.639998 H 11.430001 l 3.81,-3.81 3.81,3.81 h 7.62 l 3.81,-3.81 3.81,3.81 h 7.62 l 3.81,-3.81 3.81,3.81 h 7.620003 l 3.81,-3.81 3.81,3.81 h 7.62 l 3.81,-3.81 3.81,3.81 h 7.62 l 3.81,-3.81 3.81,3.81 H 102.87 l 3.81,-3.81 3.81,3.81 h 11.43"
         style="display:inline;fill:#000000;fill-opacity:0;stroke:#e6e6e6;stroke-width:2;stroke-linecap:butt;stroke-linejoin:miter;stroke-opacity:1" />
      <path
         inkscape:connector-curvature="0"
         id="path2161-6-0"
         d="M 1.2000004e-6,56.639998 H 11.430001 l 3.81,3.81 3.81,-3.81 h 7.62 l 3.81,3.81 3.81,-3.81 h 7.62 l 3.81,3.81 3.81,-3.81 h 7.620003 l 3.81,3.81 3.81,-3.81 h 7.62 l 3.81,3.81 3.81,-3.81 h 7.62 l 3.81,3.81 3.81,-3.81 H 102.87 l 3.81,3.81 3.81,-3.81 h 11.43"
         style="display:inline;fill:none;stroke:#e6e6e6;stroke-width:2;stroke-linecap:butt;stroke-linejoin:miter;stroke-opacity:1" />
      <path
         sodipodi:nodetypes="cc"
         inkscape:connector-curvature="0"
         id="path2157-3"
         d="M 15.240006,113.79001 15.24,60.449998"
         style="display:inline;fill:#cccccc;stroke:#e6e6e6;stroke-width:2;stroke-linecap:butt;stroke-linejoin:miter;stroke-opacity:1" />
      <path
         sodipodi:nodetypes="cc"
         inkscape:connector-curvature="0"
         id="path2157-0-6"
         d="m 30.480008,113.79 -6e-6,-53.340007"
         style="display:inline;fill:#cccccc;stroke:#e6e6e6;stroke-width:2;stroke-linecap:butt;stroke-linejoin:miter;stroke-opacity:1" />
      <path
         sodipodi:nodetypes="cc"
         inkscape:connector-curvature="0"
         id="path2157-6-1"
         d="m 45.720006,113.79 -5e-6,-53.340007"
         style="display:inline;fill:#cccccc;stroke:#e6e6e6;stroke-width:2;stroke-linecap:butt;stroke-linejoin:miter;stroke-opacity:1" />
      <path
         sodipodi:nodetypes="cc"
         inkscape:connector-curvature="0"
         id="path2157-0-2-0"
         d="m 60.960009,113.79 -6e-6,-53.340012"
         style="display:inline;fill:#cccccc;stroke:#e6e6e6;stroke-width:2;stroke-linecap:butt;stroke-linejoin:miter;stroke-opacity:1" />
      <path
         sodipodi:nodetypes="cc"
         inkscape:connector-curvature="0"
         id="path2157-61-6"
         d="m 76.200009,113.79 -6e-6,-53.340006"
         style="display:inline;fill:#cccccc;stroke:#e6e6e6;stroke-width:2;stroke-linecap:butt;stroke-linejoin:miter;stroke-opacity:1" />
      <path
         sodipodi:nodetypes="cc"
         inkscape:connector-curvature="0"
         id="path2157-0-8-3"
         d="m 91.440009,113.79 -6e-6,-53.340011"
         style="display:inline;fill:#cccccc;stroke:#e6e6e6;stroke-width:2;stroke-linecap:butt;stroke-linejoin:miter;stroke-opacity:1" />
      <path
         sodipodi:nodetypes="cc"
         inkscape:connector-curvature="0"
         id="path2157-7-2"
         d="M 106.68,113.79 V 60.449994"
         style="display:inline;fill:#cccccc;stroke:#e6e6e6;stroke-width:2;stroke-linecap:butt;stroke-linejoin:miter;stroke-opacity:1" />
    </g>
  </g>
  <g
     inkscape:groupmode="layer"
     id="layer2"
     inkscape:label="components"
     style="display:none"
     sodipodi:insensitive="true">
    <circle
       style="display:inline;fill:#00ff00;stroke:none;stroke-width:1.5;stroke-miterlimit:4;stroke-dasharray:none"
       id="path839-6"
       cx="7.6200004"
       cy="79.499992"
       r="3"
       inkscape:label="signal0" />
    <circle
       style="display:inline;fill:#ff0000;stroke:none;stroke-width:1.5;stroke-miterlimit:4;stroke-dasharray:none"
       id="path839-6-35"
       cx="7.6200004"
       cy="64.259995"
       r="3"
       inkscape:label="select0" />
    <circle
       style="display:inline;fill:#00ff00;stroke:none;stroke-width:1.5;stroke-miterlimit:4;stroke-dasharray:none"
       id="path839-6-36"
       cx="7.6200004"
       cy="109.98"
       r="3"
       inkscape:label="xfade0" />
    <circle
       style="display:inline;fill:#ff0000;stroke:none;stroke-width:1.5;stroke-miterlimit:4;stroke-dasharray:none"
       id="path839-6-35-7"
       cx="7.6200004"
       cy="49.019989"
       r="3"
       inkscape:label="set_bot0" />
    <circle
       style="display:inline;fill:#ff0000;stroke:none;stroke-width:1.5;stroke-miterlimit:4;stroke-dasharray:none"
       id="path839-6-35-5"
       cx="7.619998"
       cy="18.539976"
       r="3"
       inkscape:label="set_top0" />
    <circle
       style="display:inline;fill:#ff0000;stroke:none;stroke-width:1.5;stroke-miterlimit:4;stroke-dasharray:none"
       id="path839-6-35-3"
       cx="7.6200004"
       cy="94.739998"
       r="3"
       inkscape:label="gain0" />
    <circle
       style="display:inline;fill:#ff0000;stroke:none;stroke-width:1.5;stroke-miterlimit:4;stroke-dasharray:none"
       id="path839-6-35-2"
       cx="114.3"
       cy="64.259995"
       r="3"
       inkscape:label="select_none" />
    <circle
       style="display:inline;fill:#ff0000;stroke:none;stroke-width:1.5;stroke-miterlimit:4;stroke-dasharray:none"
       id="path839-6-35-2-9"
       cx="114.3"
       cy="49.019997"
       r="3"
       inkscape:label="set_bot_all" />
    <circle
       style="display:inline;fill:#ff0000;stroke:none;stroke-width:1.5;stroke-miterlimit:4;stroke-dasharray:none"
       id="path839-6-35-2-9-1"
       cx="114.3"
       cy="18.539997"
       r="3"
       inkscape:label="set_top_all" />
    <circle
       style="display:inline;fill:#0000ff;stroke:none;stroke-width:1.5;stroke-miterlimit:4;stroke-dasharray:none"
       id="path839-6-2"
       cx="114.3"
       cy="109.98"
       r="3"
       inkscape:label="poly" />
    <circle
       style="display:inline;fill:#ff0000;stroke:none;stroke-width:1.5;stroke-miterlimit:4;stroke-dasharray:none"
       id="path839-6-35-3-0"
       cx="114.3"
       cy="94.739998"
       r="3"
       inkscape:label="global_gain" />
    <circle
       style="display:inline;fill:#ff00ff;stroke:none;stroke-width:1.5;stroke-miterlimit:4;stroke-dasharray:none"
       id="path839-6-35-6-2-9-2-5-1-6-20"
       cx="7.6200004"
       cy="49.019997"
       inkscape:label="select_bot0"
       r="1.5" />
    <circle
       style="display:inline;fill:#ff00ff;stroke:none;stroke-width:1.5;stroke-miterlimit:4;stroke-dasharray:none"
       id="path839-6-35-6-2-9-2-5-1-6-9-68"
       cx="7.619998"
       cy="18.539982"
       inkscape:label="select_top0"
       r="1.5" />
    <circle
       style="display:inline;fill:#ff00ff;stroke:none;stroke-width:1.5;stroke-miterlimit:4;stroke-dasharray:none"
       id="path839-6-35-6-2-9-2-5-1-6-9-3-9"
       cx="7.6200004"
       cy="64.259995"
       inkscape:label="select0"
       r="1.5" />
    <circle
       style="display:inline;fill:#00ff00;stroke:none;stroke-width:1.5;stroke-miterlimit:4;stroke-dasharray:none"
       id="path839-6-0"
       cx="22.860001"
       cy="79.499992"
       r="3"
       inkscape:label="signal1" />
    <circle
       style="display:inline;fill:#ff0000;stroke:none;stroke-width:1.5;stroke-miterlimit:4;stroke-dasharray:none"
       id="path839-6-35-4"
       cx="22.860001"
       cy="64.259979"
       r="3"
       inkscape:label="select1" />
    <circle
       style="display:inline;fill:#00ff00;stroke:none;stroke-width:1.5;stroke-miterlimit:4;stroke-dasharray:none"
       id="path839-6-36-8"
       cx="22.860001"
       cy="109.98"
       r="3"
       inkscape:label="xfade1" />
    <circle
       style="display:inline;fill:#ff0000;stroke:none;stroke-width:1.5;stroke-miterlimit:4;stroke-dasharray:none"
       id="path839-6-35-7-7"
       cx="22.860001"
       cy="49.019981"
       r="3"
       inkscape:label="set_bot1" />
    <circle
       style="display:inline;fill:#ff0000;stroke:none;stroke-width:1.5;stroke-miterlimit:4;stroke-dasharray:none"
       id="path839-6-35-5-1"
       cx="22.859999"
       cy="18.539967"
       r="3"
       inkscape:label="set_top1" />
    <circle
       style="display:inline;fill:#ff0000;stroke:none;stroke-width:1.5;stroke-miterlimit:4;stroke-dasharray:none"
       id="path839-6-35-3-7"
       cx="22.860001"
       cy="94.739998"
       r="3"
       inkscape:label="gain1" />
    <circle
       style="display:inline;fill:#ff00ff;stroke:none;stroke-width:1.5;stroke-miterlimit:4;stroke-dasharray:none"
       id="path839-6-35-6-2-9-2-5-1-6-20-2"
       cx="22.860001"
       cy="49.019997"
       inkscape:label="select_bot1"
       r="1.5" />
    <circle
       style="display:inline;fill:#ff00ff;stroke:none;stroke-width:1.5;stroke-miterlimit:4;stroke-dasharray:none"
       id="path839-6-35-6-2-9-2-5-1-6-9-68-2"
       cx="22.859999"
       cy="18.539982"
       inkscape:label="select_top1"
       r="1.5" />
    <circle
       style="display:inline;fill:#ff00ff;stroke:none;stroke-width:1.5;stroke-miterlimit:4;stroke-dasharray:none"
       id="path839-6-35-6-2-9-2-5-1-6-9-3-9-6"
       cx="22.860001"
       cy="64.259995"
       inkscape:label="select1"
       r="1.5" />
    <circle
       style="display:inline;fill:#00ff00;stroke:none;stroke-width:1.5;stroke-miterlimit:4;stroke-dasharray:none"
       id="path839-6-1"
       cx="38.100002"
       cy="79.499992"
       r="3"
       inkscape:label="signal2" />
    <circle
       style="display:inline;fill:#ff0000;stroke:none;stroke-width:1.5;stroke-miterlimit:4;stroke-dasharray:none"
       id="path839-6-35-0"
       cx="38.100002"
       cy="64.259979"
       r="3"
       inkscape:label="select2" />
    <circle
       style="display:inline;fill:#00ff00;stroke:none;stroke-width:1.5;stroke-miterlimit:4;stroke-dasharray:none"
       id="path839-6-36-6"
       cx="38.100002"
       cy="109.98"
       r="3"
       inkscape:label="xfade2" />
    <circle
       style="display:inline;fill:#ff0000;stroke:none;stroke-width:1.5;stroke-miterlimit:4;stroke-dasharray:none"
       id="path839-6-35-7-1"
       cx="38.100002"
       cy="49.019981"
       r="3"
       inkscape:label="set_bot2" />
    <circle
       style="display:inline;fill:#ff0000;stroke:none;stroke-width:1.5;stroke-miterlimit:4;stroke-dasharray:none"
       id="path839-6-35-5-5"
       cx="38.099998"
       cy="18.539967"
       r="3"
       inkscape:label="set_top2" />
    <circle
       style="display:inline;fill:#ff0000;stroke:none;stroke-width:1.5;stroke-miterlimit:4;stroke-dasharray:none"
       id="path839-6-35-3-9"
       cx="38.100002"
       cy="94.739998"
       r="3"
       inkscape:label="gain2" />
    <circle
       style="display:inline;fill:#ff00ff;stroke:none;stroke-width:1.5;stroke-miterlimit:4;stroke-dasharray:none"
       id="path839-6-35-6-2-9-2-5-1-6-20-0"
       cx="38.100002"
       cy="49.019997"
       inkscape:label="select_bot2"
       r="1.5" />
    <circle
       style="display:inline;fill:#ff00ff;stroke:none;stroke-width:1.5;stroke-miterlimit:4;stroke-dasharray:none"
       id="path839-6-35-6-2-9-2-5-1-6-9-68-9"
       cx="38.099998"
       cy="18.539982"
       inkscape:label="select_top2"
       r="1.5" />
    <circle
       style="display:inline;fill:#ff00ff;stroke:none;stroke-width:1.5;stroke-miterlimit:4;stroke-dasharray:none"
       id="path839-6-35-6-2-9-2-5-1-6-9-3-9-1"
       cx="38.100002"
       cy="64.259995"
       inkscape:label="select2"
       r="1.5" />
    <circle
       style="display:inline;fill:#00ff00;stroke:none;stroke-width:1.5;stroke-miterlimit:4;stroke-dasharray:none"
       id="path839-6-7"
       cx="53.34"
       cy="79.499992"
       r="3"
       inkscape:label="signal3" />
    <circle
       style="display:inline;fill:#ff0000;stroke:none;stroke-width:1.5;stroke-miterlimit:4;stroke-dasharray:none"
       id="path839-6-35-71"
       cx="53.34"
       cy="64.259979"
       r="3"
       inkscape:label="select3" />
    <circle
       style="display:inline;fill:#00ff00;stroke:none;stroke-width:1.5;stroke-miterlimit:4;stroke-dasharray:none"
       id="path839-6-36-1"
       cx="53.34"
       cy="109.98"
       r="3"
       inkscape:label="xfade3" />
    <circle
       style="display:inline;fill:#ff0000;stroke:none;stroke-width:1.5;stroke-miterlimit:4;stroke-dasharray:none"
       id="path839-6-35-7-5"
       cx="53.34"
       cy="49.019981"
       r="3"
       inkscape:label="set_bot3" />
    <circle
       style="display:inline;fill:#ff0000;stroke:none;stroke-width:1.5;stroke-miterlimit:4;stroke-dasharray:none"
       id="path839-6-35-5-9"
       cx="53.339996"
       cy="18.539967"
       r="3"
       inkscape:label="set_top3" />
    <circle
       style="display:inline;fill:#ff0000;stroke:none;stroke-width:1.5;stroke-miterlimit:4;stroke-dasharray:none"
       id="path839-6-35-3-77"
       cx="53.34"
       cy="94.739998"
       r="3"
       inkscape:label="gain3" />
    <circle
       style="display:inline;fill:#ff00ff;stroke:none;stroke-width:1.5;stroke-miterlimit:4;stroke-dasharray:none"
       id="path839-6-35-6-2-9-2-5-1-6-20-6"
       cx="53.34"
       cy="49.019997"
       inkscape:label="select_bot3"
       r="1.5" />
    <circle
       style="display:inline;fill:#ff00ff;stroke:none;stroke-width:1.5;stroke-miterlimit:4;stroke-dasharray:none"
       id="path839-6-35-6-2-9-2-5-1-6-9-68-5"
       cx="53.339996"
       cy="18.539982"
       inkscape:label="select_top3"
       r="1.5" />
    <circle
       style="display:inline;fill:#ff00ff;stroke:none;stroke-width:1.5;stroke-miterlimit:4;stroke-dasharray:none"
       id="path839-6-35-6-2-9-2-5-1-6-9-3-9-63"
       cx="53.34"
       cy="64.259995"
       inkscape:label="select3"
       r="1.5" />
    <circle
       style="display:inline;fill:#00ff00;stroke:none;stroke-width:1.5;stroke-miterlimit:4;stroke-dasharray:none"
       id="path839-6-9"
       cx="68.580002"
       cy="79.499992"
       r="3"
       inkscape:label="signal4" />
    <circle
       style="display:inline;fill:#ff0000;stroke:none;stroke-width:1.5;stroke-miterlimit:4;stroke-dasharray:none"
       id="path839-6-35-48"
       cx="68.580002"
       cy="64.259979"
       r="3"
       inkscape:label="select4" />
    <circle
       style="display:inline;fill:#00ff00;stroke:none;stroke-width:1.5;stroke-miterlimit:4;stroke-dasharray:none"
       id="path839-6-36-12"
       cx="68.579994"
       cy="109.98"
       r="3"
       inkscape:label="xfade4" />
    <circle
       style="display:inline;fill:#ff0000;stroke:none;stroke-width:1.5;stroke-miterlimit:4;stroke-dasharray:none"
       id="path839-6-35-7-9"
       cx="68.580002"
       cy="49.019981"
       r="3"
       inkscape:label="set_bot4" />
    <circle
       style="display:inline;fill:#ff0000;stroke:none;stroke-width:1.5;stroke-miterlimit:4;stroke-dasharray:none"
       id="path839-6-35-5-3"
       cx="68.580002"
       cy="18.539967"
       r="3"
       inkscape:label="set_top4" />
    <circle
       style="display:inline;fill:#ff0000;stroke:none;stroke-width:1.5;stroke-miterlimit:4;stroke-dasharray:none"
       id="path839-6-35-3-90"
       cx="68.580002"
       cy="94.739998"
       r="3"
       inkscape:label="gain4" />
    <circle
       style="display:inline;fill:#ff00ff;stroke:none;stroke-width:1.5;stroke-miterlimit:4;stroke-dasharray:none"
       id="path839-6-35-6-2-9-2-5-1-6-20-5"
       cx="68.580002"
       cy="49.019997"
       inkscape:label="select_bot4"
       r="1.5" />
    <circle
       style="display:inline;fill:#ff00ff;stroke:none;stroke-width:1.5;stroke-miterlimit:4;stroke-dasharray:none"
       id="path839-6-35-6-2-9-2-5-1-6-9-68-0"
       cx="68.580002"
       cy="18.539982"
       inkscape:label="select_top4"
       r="1.5" />
    <circle
       style="display:inline;fill:#ff00ff;stroke:none;stroke-width:1.5;stroke-miterlimit:4;stroke-dasharray:none"
       id="path839-6-35-6-2-9-2-5-1-6-9-3-9-9"
       cx="68.580002"
       cy="64.259995"
       inkscape:label="select4"
       r="1.5" />
    <circle
       style="display:inline;fill:#00ff00;stroke:none;stroke-width:1.5;stroke-miterlimit:4;stroke-dasharray:none"
       id="path839-6-6"
       cx="83.82"
       cy="79.499992"
       r="3"
       inkscape:label="signal5" />
    <circle
       style="display:inline;fill:#ff0000;stroke:none;stroke-width:1.5;stroke-miterlimit:4;stroke-dasharray:none"
       id="path839-6-35-38"
       cx="83.82"
       cy="64.259979"
       r="3"
       inkscape:label="select5" />
    <circle
       style="display:inline;fill:#00ff00;stroke:none;stroke-width:1.5;stroke-miterlimit:4;stroke-dasharray:none"
       id="path839-6-36-5"
       cx="83.82"
       cy="109.98"
       r="3"
       inkscape:label="xfade5" />
    <circle
       style="display:inline;fill:#ff0000;stroke:none;stroke-width:1.5;stroke-miterlimit:4;stroke-dasharray:none"
       id="path839-6-35-7-6"
       cx="83.82"
       cy="49.019997"
       r="3"
       inkscape:label="set_bot5" />
    <circle
       style="display:inline;fill:#ff0000;stroke:none;stroke-width:1.5;stroke-miterlimit:4;stroke-dasharray:none"
       id="path839-6-35-5-11"
       cx="83.82"
       cy="18.539982"
       r="3"
       inkscape:label="set_top5" />
    <circle
       style="display:inline;fill:#ff0000;stroke:none;stroke-width:1.5;stroke-miterlimit:4;stroke-dasharray:none"
       id="path839-6-35-3-5"
       cx="83.82"
       cy="94.739998"
       r="3"
       inkscape:label="gain5" />
    <circle
       style="display:inline;fill:#ff00ff;stroke:none;stroke-width:1.5;stroke-miterlimit:4;stroke-dasharray:none"
       id="path839-6-35-6-2-9-2-5-1-6-20-8"
       cx="83.82"
       cy="49.020012"
       inkscape:label="select_bot5"
       r="1.5" />
    <circle
       style="display:inline;fill:#ff00ff;stroke:none;stroke-width:1.5;stroke-miterlimit:4;stroke-dasharray:none"
       id="path839-6-35-6-2-9-2-5-1-6-9-68-1"
       cx="83.82"
       cy="18.539997"
       inkscape:label="select_top5"
       r="1.5" />
    <circle
       style="display:inline;fill:#ff00ff;stroke:none;stroke-width:1.5;stroke-miterlimit:4;stroke-dasharray:none"
       id="path839-6-35-6-2-9-2-5-1-6-9-3-9-0"
       cx="83.82"
       cy="64.259995"
       inkscape:label="select5"
       r="1.5" />
    <circle
       style="display:inline;fill:#00ff00;stroke:none;stroke-width:1.5;stroke-miterlimit:4;stroke-dasharray:none"
       id="path839-6-17"
       cx="99.060005"
       cy="79.499992"
       r="3"
       inkscape:label="signal6" />
    <circle
       style="display:inline;fill:#ff0000;stroke:none;stroke-width:1.5;stroke-miterlimit:4;stroke-dasharray:none"
       id="path839-6-35-8"
       cx="99.060005"
       cy="64.259979"
       r="3"
       inkscape:label="select6" />
    <circle
       style="display:inline;fill:#00ff00;stroke:none;stroke-width:1.5;stroke-miterlimit:4;stroke-dasharray:none"
       id="path839-6-36-57"
       cx="99.059998"
       cy="109.98"
       r="3"
       inkscape:label="xfade6" />
    <circle
       style="display:inline;fill:#ff0000;stroke:none;stroke-width:1.5;stroke-miterlimit:4;stroke-dasharray:none"
       id="path839-6-35-7-4"
       cx="99.060005"
       cy="49.019997"
       r="3"
       inkscape:label="set_bot6" />
    <circle
       style="display:inline;fill:#ff0000;stroke:none;stroke-width:1.5;stroke-miterlimit:4;stroke-dasharray:none"
       id="path839-6-35-5-18"
       cx="99.060005"
       cy="18.539982"
       r="3"
       inkscape:label="set_top6" />
    <circle
       style="display:inline;fill:#ff0000;stroke:none;stroke-width:1.5;stroke-miterlimit:4;stroke-dasharray:none"
       id="path839-6-35-3-59"
       cx="99.060005"
       cy="94.739998"
       r="3"
       inkscape:label="gain6" />
    <circle
       style="display:inline;fill:#ff00ff;stroke:none;stroke-width:1.5;stroke-miterlimit:4;stroke-dasharray:none"
       id="path839-6-35-6-2-9-2-5"
       cx="7.6199989"
       cy="28.276661"
       inkscape:label="fade_bot0"
       r="1.5" />
    <circle
       style="display:inline;fill:#ff00ff;stroke:none;stroke-width:1.5;stroke-miterlimit:4;stroke-dasharray:none"
       id="path839-6-35-6-2-9-2-5-6"
       cx="7.6199989"
       cy="24.043327"
       inkscape:label="fade_top0"
       r="1.5" />
    <circle
       style="display:inline;fill:#ff00ff;stroke:none;stroke-width:1.5;stroke-miterlimit:4;stroke-dasharray:none"
       id="path839-6-35-6-2-9-2-5-2"
       cx="22.859999"
       cy="28.276651"
       inkscape:label="fade_bot1"
       r="1.5" />
    <circle
       style="display:inline;fill:#ff00ff;stroke:none;stroke-width:1.5;stroke-miterlimit:4;stroke-dasharray:none"
       id="path839-6-35-6-2-9-2-5-6-7"
       cx="22.859999"
       cy="24.043329"
       inkscape:label="fade_top1"
       r="1.5" />
    <circle
       style="display:inline;fill:#ff00ff;stroke:none;stroke-width:1.5;stroke-miterlimit:4;stroke-dasharray:none"
       id="path839-6-35-6-2-9-2-5-4"
       cx="38.100002"
       cy="28.276651"
       inkscape:label="fade_bot2"
       r="1.5" />
    <circle
       style="display:inline;fill:#ff00ff;stroke:none;stroke-width:1.5;stroke-miterlimit:4;stroke-dasharray:none"
       id="path839-6-35-6-2-9-2-5-6-9"
       cx="38.100002"
       cy="24.043329"
       inkscape:label="fade_top2"
       r="1.5" />
    <circle
       style="display:inline;fill:#ff00ff;stroke:none;stroke-width:1.5;stroke-miterlimit:4;stroke-dasharray:none"
       id="path839-6-35-6-2-9-2-5-67"
       cx="53.34"
       cy="28.276651"
       inkscape:label="fade_bot3"
       r="1.5" />
    <circle
       style="display:inline;fill:#ff00ff;stroke:none;stroke-width:1.5;stroke-miterlimit:4;stroke-dasharray:none"
       id="path839-6-35-6-2-9-2-5-6-3"
       cx="53.34"
       cy="24.043329"
       inkscape:label="fade_top3"
       r="1.5" />
    <circle
       style="display:inline;fill:#ff00ff;stroke:none;stroke-width:1.5;stroke-miterlimit:4;stroke-dasharray:none"
       id="path839-6-35-6-2-9-2-5-8"
       cx="68.580002"
       cy="28.276651"
       inkscape:label="fade_bot4"
       r="1.5" />
    <circle
       style="display:inline;fill:#ff00ff;stroke:none;stroke-width:1.5;stroke-miterlimit:4;stroke-dasharray:none"
       id="path839-6-35-6-2-9-2-5-6-8"
       cx="68.580002"
       cy="24.043329"
       inkscape:label="fade_top4"
       r="1.5" />
    <circle
       style="display:inline;fill:#ff00ff;stroke:none;stroke-width:1.5;stroke-miterlimit:4;stroke-dasharray:none"
       id="path839-6-35-6-2-9-2-5-9"
       cx="83.82"
       cy="28.276651"
       inkscape:label="fade_bot5"
       r="1.5" />
    <circle
       style="display:inline;fill:#ff00ff;stroke:none;stroke-width:1.5;stroke-miterlimit:4;stroke-dasharray:none"
       id="path839-6-35-6-2-9-2-5-6-84"
       cx="83.82"
       cy="24.043344"
       inkscape:label="fade_top5"
       r="1.5" />
    <circle
       style="display:inline;fill:#ff00ff;stroke:none;stroke-width:1.5;stroke-miterlimit:4;stroke-dasharray:none"
       id="path839-6-35-6-2-9-2-5-7"
       cx="99.060005"
       cy="28.276667"
       inkscape:label="fade_bot6"
       r="1.5" />
    <circle
       style="display:inline;fill:#ff00ff;stroke:none;stroke-width:1.5;stroke-miterlimit:4;stroke-dasharray:none"
       id="path839-6-35-6-2-9-2-5-6-5"
       cx="99.060005"
       cy="24.043344"
       inkscape:label="fade_top6"
       r="1.5" />
    <circle
       style="display:inline;fill:#ff00ff;stroke:none;stroke-width:1.5;stroke-miterlimit:4;stroke-dasharray:none"
       id="path839-6-35-6-2-9-2-5-1-6-20-3"
       cx="99.060005"
       cy="49.020012"
       inkscape:label="select_bot6"
       r="1.5" />
    <circle
       style="display:inline;fill:#ff00ff;stroke:none;stroke-width:1.5;stroke-miterlimit:4;stroke-dasharray:none"
       id="path839-6-35-6-2-9-2-5-1-6-9-68-8"
       cx="99.060005"
       cy="18.539997"
       inkscape:label="select_top6"
       r="1.5" />
    <circle
       style="display:inline;fill:#ff00ff;stroke:none;stroke-width:1.5;stroke-miterlimit:4;stroke-dasharray:none"
       id="path839-6-35-6-2-9-2-5-1-6-9-3-9-8"
       cx="99.060005"
       cy="64.259995"
       inkscape:label="select6"
       r="1.5" />
    <circle
       style="display:inline;fill:#00ff00;stroke:none;stroke-width:1.5;stroke-miterlimit:4;stroke-dasharray:none"
       id="path839-6-17-3"
       cx="114.3"
       cy="79.499992"
       r="3"
       inkscape:label="signal6" />
  </g>
</svg>
