<?xml version="1.0" encoding="UTF-8" standalone="no"?>
<!-- Created with Inkscape (http://www.inkscape.org/) -->

<svg
   xmlns:dc="http://purl.org/dc/elements/1.1/"
   xmlns:cc="http://creativecommons.org/ns#"
   xmlns:rdf="http://www.w3.org/1999/02/22-rdf-syntax-ns#"
   xmlns:svg="http://www.w3.org/2000/svg"
   xmlns="http://www.w3.org/2000/svg"
   xmlns:sodipodi="http://sodipodi.sourceforge.net/DTD/sodipodi-0.dtd"
   xmlns:inkscape="http://www.inkscape.org/namespaces/inkscape"
   width="65"
   height="65"
   id="svg3347"
   version="1.1"
   inkscape:version="0.48.5 r10040"
   sodipodi:docname="TTTLargeKnob.svg">
  <defs
     id="defs3349" />
  <sodipodi:namedview
     id="base"
     pagecolor="#ffffff"
     bordercolor="#666666"
     borderopacity="1.0"
     inkscape:pageopacity="0.0"
     inkscape:pageshadow="2"
     inkscape:zoom="3.2787356"
     inkscape:cx="9.340929"
     inkscape:cy="48.780018"
     inkscape:document-units="px"
     inkscape:current-layer="layer1"
     showgrid="false"
     inkscape:window-width="1280"
     inkscape:window-height="1002"
     inkscape:window-x="1912"
     inkscape:window-y="-8"
     inkscape:window-maximized="1" />
  <metadata
     id="metadata3352">
    <rdf:RDF>
      <cc:Work
         rdf:about="">
        <dc:format>image/svg+xml</dc:format>
        <dc:type
           rdf:resource="http://purl.org/dc/dcmitype/StillImage" />
        <dc:title></dc:title>
      </cc:Work>
    </rdf:RDF>
  </metadata>
  <g
     inkscape:label="Layer 1"
     inkscape:groupmode="layer"
     id="layer1"
     transform="translate(0,-987.36218)">
    <g
       id="g3397"
       transform="translate(2.93,-1.6800345)">
      <g
         id="g3391">
        <path
           inkscape:connector-curvature="0"
           id="path4198-8-7-7-21-9-7-7-6-6-1-7-27-1"
           d="m 29.57,1052.3622 a 29.569992,29.569992 0 0 1 -29.57,-29.57 29.569992,29.569992 0 0 1 29.57,-29.57 29.569992,29.569992 0 0 1 29.57,29.57 29.569992,29.569992 0 0 1 -29.57,29.57 z"
           style="fill:#000000;fill-opacity:1" />
        <path
           inkscape:connector-curvature="0"
           id="path4198-8-7-7-21-9-7-7-6-6-1-7-27-1-0"
           d="m 29.57,1048.2222 a 25.429993,25.429993 0 0 1 -25.43,-25.43 25.429993,25.429993 0 0 1 25.43,-25.43001 25.429993,25.429993 0 0 1 25.43,25.43001 25.429993,25.429993 0 0 1 -25.43,25.43 z"
           style="fill:#ffffff;fill-opacity:1" />
      </g>
      <rect
         y="990.72223"
         x="25.549999"
         height="12.369851"
         width="8.04"
         id="rect3395"
         style="fill:#ffffff;fill-opacity:1;stroke:none" />
    </g>
  </g>
</svg>
